<?xml version="1.0" encoding="UTF-8"?>
<svg width="640px" height="360px" viewBox="0 0 640 360" version="1.1" xmlns="http://www.w3.org/2000/svg" xmlns:xlink="http://www.w3.org/1999/xlink">
    <!-- Generator: Sketch 55.2 (78181) - https://sketchapp.com -->
    <title>b_v2</title>
    <desc>Created with Sketch.</desc>
    <g id="b_v2" stroke="none" stroke-width="1" fill="none" fill-rule="evenodd">
        <g id="layers">
            <g id="background" fill="#26292F">
                <rect id="Rectangle" x="0" y="0" width="640" height="360"></rect>
            </g>
            <g id="icon" transform="translate(396.000000, 79.500000)"></g>
        </g>
        <g id="Group" opacity="0.386974516" transform="translate(410.000000, -37.000000)" stroke="#34D8AC" stroke-width="2">
            <polygon id="Triangle" opacity="0.6" points="231 87 413 371 49 371"></polygon>
            <polygon id="Triangle" opacity="0.4" transform="translate(231.000000, 229.000000) rotate(20.000000) translate(-231.000000, -229.000000) " points="231 87 413 371 49 371"></polygon>
            <polygon id="Triangle" opacity="0.6" transform="translate(231.000000, 229.000000) rotate(40.000000) translate(-231.000000, -229.000000) " points="231 87 413 371 49 371"></polygon>
            <polygon id="Triangle" opacity="0.8" transform="translate(231.000000, 229.000000) rotate(60.000000) translate(-231.000000, -229.000000) " points="231 87 413 371 49 371"></polygon>
            <polygon id="Triangle" opacity="0.4" transform="translate(231.000000, 229.000000) rotate(80.000000) translate(-231.000000, -229.000000) " points="231 87 413 371 49 371"></polygon>
            <polygon id="Triangle" opacity="0.6" transform="translate(231.000000, 229.000000) rotate(100.000000) translate(-231.000000, -229.000000) " points="231 87 413 371 49 371"></polygon>
            <polygon id="Triangle" opacity="0.8" transform="translate(231.000000, 229.000000) rotate(120.000000) translate(-231.000000, -229.000000) " points="231 87 413 371 49 371"></polygon>
            <polygon id="Triangle" opacity="0.4" transform="translate(231.000000, 229.000000) rotate(140.000000) translate(-231.000000, -229.000000) " points="231 87 413 371 49 371"></polygon>
            <polygon id="Triangle" opacity="0.6" transform="translate(231.000000, 229.000000) rotate(160.000000) translate(-231.000000, -229.000000) " points="231 87 413 371 49 371"></polygon>
            <polygon id="Triangle" opacity="0.8" transform="translate(231.000000, 229.000000) rotate(180.000000) translate(-231.000000, -229.000000) " points="231 87 413 371 49 371"></polygon>
            <polygon id="Triangle" opacity="0.4" transform="translate(231.000000, 229.000000) rotate(200.000000) translate(-231.000000, -229.000000) " points="231 87 413 371 49 371"></polygon>
            <polygon id="Triangle" opacity="0.6" transform="translate(231.000000, 229.000000) rotate(220.000000) translate(-231.000000, -229.000000) " points="231 87 413 371 49 371"></polygon>
            <polygon id="Triangle" opacity="0.8" transform="translate(231.000000, 229.000000) rotate(240.000000) translate(-231.000000, -229.000000) " points="231 87 413 371 49 371"></polygon>
            <polygon id="Triangle" opacity="0.4" transform="translate(231.000000, 229.000000) rotate(260.000000) translate(-231.000000, -229.000000) " points="231 87 413 371 49 371"></polygon>
            <polygon id="Triangle" opacity="0.6" transform="translate(231.000000, 229.000000) rotate(280.000000) translate(-231.000000, -229.000000) " points="231 87 413 371 49 371"></polygon>
            <polygon id="Triangle" opacity="0.8" transform="translate(231.000000, 229.000000) rotate(300.000000) translate(-231.000000, -229.000000) " points="231 87 413 371 49 371"></polygon>
            <polygon id="Triangle" opacity="0.4" transform="translate(231.000000, 229.000000) rotate(320.000000) translate(-231.000000, -229.000000) " points="231 87 413 371 49 371"></polygon>
            <polygon id="Triangle" opacity="0.6" transform="translate(231.000000, 229.000000) rotate(340.000000) translate(-231.000000, -229.000000) " points="231 87 413 371 49 371"></polygon>
        </g>
    </g>
</svg>