
<svg width="100px"  height="100px" viewBox="0 0 100 100" version="1.1" xmlns="http://www.w3.org/2000/svg" xmlns:xlink="http://www.w3.org/1999/xlink">
    <g id="Page-1"   class="fans lines" stroke="none" stroke-width="1" fill="none" fill-rule="evenodd">
        <g id="fan"  transform="translate(1.000000, 1.000000)">
            <g id="fans" class="lines" transform="translate(2.500000, 2.500000)" stroke="#34d8ac" stroke-linecap="round" stroke-width="0.75">
                <path d="M63.3,3.07 C57.25,7.3 52.24,13.19 49.04,20.44 C45.27,28.98 44.59,38.11 46.52,46.56 L46.58,46.56 C41.41,39.6 38.34,30.98 38.34,21.64 C38.34,13.72 40.54,6.31 44.37,-1.42108547e-14" id="Path"></path>
                <path d="M39.29,0.5 C36.17,7.19 34.77,14.79 35.63,22.67 C36.64,31.95 40.61,40.19 46.51,46.55 L46.57,46.52 C38.61,43.08 31.65,37.14 26.98,29.06 C23.02,22.2 21.22,14.68 21.38,7.3" id="Path"></path>
                <path d="M17.25,10.31 C17.89,17.67 20.48,24.95 25.16,31.34 C30.67,38.88 38.24,44.03 46.52,46.59 L46.55,46.53 C37.94,47.53 28.94,45.87 20.85,41.2 C13.99,37.24 8.67,31.63 5.12,25.15" id="Path"></path>
                <path d="M3.07,29.81 C7.3,35.86 13.19,40.87 20.44,44.07 C28.98,47.84 38.11,48.52 46.56,46.59 L46.56,46.53 C39.6,51.7 30.98,54.77 21.64,54.77 C13.72,54.77 6.31,52.57 -3.41060513e-13,48.74" id="Path"></path>
                <path d="M0.41,53.76 C7.1,56.88 14.7,58.28 22.58,57.42 C31.86,56.41 40.1,52.44 46.46,46.54 L46.43,46.48 C42.99,54.44 37.05,61.4 28.97,66.07 C22.11,70.03 14.59,71.83 7.21,71.67" id="Path"></path>
                <path d="M10.31,75.84 C17.67,75.2 24.95,72.61 31.34,67.93 C38.88,62.42 44.03,54.85 46.59,46.57 L46.53,46.54 C47.53,55.15 45.87,64.15 41.2,72.24 C37.24,79.1 31.63,84.42 25.15,87.97" id="Path"></path>
                <path d="M29.81,90.05 C35.86,85.82 40.87,79.93 44.07,72.68 C47.84,64.14 48.52,55.01 46.59,46.56 L46.53,46.56 C51.7,53.52 54.77,62.14 54.77,71.48 C54.77,79.4 52.57,86.81 48.74,93.12" id="Path"></path>
                <path d="M53.76,92.61 C56.88,85.92 58.28,78.32 57.42,70.44 C56.41,61.16 52.44,52.92 46.54,46.56 L46.48,46.59 C54.44,50.03 61.4,55.97 66.07,64.05 C70.03,70.91 71.83,78.43 71.67,85.81" id="Path"></path>
                <path d="M75.67,82.99 C75.03,75.63 72.44,68.35 67.76,61.96 C62.25,54.42 54.68,49.27 46.4,46.71 L46.37,46.77 C54.98,45.77 63.98,47.43 72.07,52.1 C78.93,56.06 84.25,61.67 87.8,68.15" id="Path"></path>
                <path d="M90.05,63.29 C85.82,57.24 79.93,52.23 72.68,49.03 C64.14,45.26 55.01,44.58 46.56,46.51 L46.56,46.57 C53.52,41.4 62.14,38.33 71.48,38.33 C79.4,38.33 86.81,40.53 93.12,44.36" id="Path"></path>
                <path d="M92.61,39.31 C85.92,36.19 78.32,34.79 70.44,35.65 C61.16,36.66 52.92,40.63 46.56,46.53 L46.59,46.59 C50.03,38.63 55.97,31.67 64.05,27 C70.91,23.04 78.43,21.24 85.81,21.4" id="Path"></path>
                <path d="M82.8,17.27 C75.44,17.91 68.16,20.5 61.77,25.18 C54.23,30.69 49.08,38.26 46.52,46.54 L46.58,46.57 C45.58,37.96 47.24,28.96 51.91,20.87 C55.87,14.01 61.48,8.69 67.96,5.14" id="Path"></path>
            </g>
            <circle id="outer"  class="lines" stroke="#34d8ac" stroke-width="0.75" cx="49" cy="49" r="49"></circle>
            <circle id="inner"  class="lines" stroke="#34d8ac" stroke-width="0.75" cx="49" cy="49" r="47"></circle>
            <circle id="center" class="lines center-piece"  stroke="#34d8ac" stroke-width="2"  cx="49" cy="49" r="12"></circle>
        </g>
    </g>
</svg>
