<?xml version="1.0" encoding="UTF-8"?>
<svg width="264px" height="262px" viewBox="0 0 264 262" version="1.1" xmlns="http://www.w3.org/2000/svg" xmlns:xlink="http://www.w3.org/1999/xlink">
    <!-- Generator: Sketch 55.1 (78136) - https://sketchapp.com -->
    <title>Group 4</title>
    <desc>Created with Sketch.</desc>
    <g id="Assets" stroke="none" stroke-width="1" fill="none" fill-rule="evenodd">
        <g id="Artboard-4" transform="translate(-289.000000, -251.000000)">
            <g id="Group-4" transform="translate(289.000000, 251.000000)">
                <g id="Group-3">
                    <g id="Group-355" fill="#A8A9A5">
                        <path d="M194.1609,251.8025 L194.0399,248.8045 C218.8049,247.8055 238.6359,246.0525 253.0059,243.5935 C254.4569,240.2585 260.5099,225.0145 260.5099,202.9095 C260.5099,180.8035 254.4569,165.5595 253.0059,162.2235 C238.6389,159.7665 218.8169,158.0145 194.0699,157.0145 L194.1909,154.0175 C219.5219,155.0405 239.7469,156.8525 254.3049,159.4045 L255.0579,159.5365 L255.3939,160.2245 C255.7249,160.9055 263.5099,177.1795 263.5099,202.9095 C263.5099,228.6385 255.7249,244.9125 255.3939,245.5935 L255.0579,246.2815 L254.3049,246.4135 C239.7439,248.9665 219.5089,250.7795 194.1609,251.8025" id="Fill-313"></path>
                        <path d="M74.8484,251.9959 C47.0994,251.0189 25.1424,249.1419 9.5844,246.4139 L8.8294,246.2819 L8.4944,245.5939 C8.1634,244.9129 0.3804,228.6389 0.3804,202.9099 C0.3804,177.1799 8.1634,160.9049 8.4944,160.2249 L8.8294,159.5369 L9.5844,159.4039 C11.6704,159.0379 13.9304,158.6809 16.3194,158.3359 L16.3194,134.7379 C16.3194,130.5189 19.7504,127.0869 23.9694,127.0869 L51.5804,127.0869 C55.5664,127.0869 59.2164,129.4279 60.8794,133.0499 L70.4914,153.9859 C71.9534,153.9279 73.4094,153.8739 74.8554,153.8229 L74.9604,156.8209 C73.1894,156.8839 71.4044,156.9509 69.6074,157.0239 L68.6034,157.0649 L58.1534,134.3019 C56.9774,131.7409 54.3984,130.0869 51.5804,130.0869 L23.9694,130.0869 C21.4054,130.0869 19.3194,132.1729 19.3194,134.7379 L19.3194,160.9449 L18.0264,161.1249 C15.4934,161.4769 13.0944,161.8469 10.8834,162.2239 C9.4324,165.5599 3.3804,180.8039 3.3804,202.9099 C3.3804,225.0589 9.4304,240.2649 10.8824,243.5939 C26.2554,246.2249 47.8054,248.0419 74.9534,248.9979 L74.8484,251.9959 Z" id="Fill-315"></path>
                        <path d="M85.1697,145.951 C80.7577,145.951 76.9647,149.229 76.3477,153.576 C71.6407,186.7 71.6407,218.901 76.3477,252.021 C76.9647,256.368 80.7577,259.646 85.1697,259.646 L184.0287,259.646 C188.4407,259.646 192.2337,256.368 192.8517,252.021 C197.5597,218.898 197.5597,186.697 192.8517,153.576 C192.2337,149.229 188.4407,145.951 184.0287,145.951 L85.1697,145.951 Z M184.0287,261.646 L85.1697,261.646 C79.7687,261.646 75.1237,257.63 74.3667,252.303 C69.6327,218.993 69.6327,186.608 74.3667,153.295 C75.1237,147.968 79.7687,143.951 85.1697,143.951 L184.0287,143.951 C189.4307,143.951 194.0747,147.968 194.8317,153.295 C199.5657,186.604 199.5657,218.99 194.8317,252.303 C194.0747,257.63 189.4307,261.646 184.0287,261.646 L184.0287,261.646 Z" id="Fill-317"></path>
                        <path d="M98.5906,260.8094 C92.1286,221.7734 92.1286,183.8234 98.5906,144.7884 L100.5636,145.1144 C94.1376,183.9294 94.1376,221.6674 100.5636,260.4834 L98.5906,260.8094 Z" id="Fill-319"></path>
                        <path d="M121.8718,260.6893 C118.6448,221.7113 118.6448,183.8133 121.8718,144.8293 L123.8658,144.9943 C120.6478,183.8673 120.6478,221.6573 123.8658,260.5253 L121.8718,260.6893 Z" id="Fill-321"></path>
                        <path d="M170.2996,260.8094 L168.3266,260.4834 C174.7536,221.6674 174.7536,183.9304 168.3266,145.1144 L170.2996,144.7874 C176.7626,183.8234 176.7626,221.7744 170.2996,260.8094" id="Fill-323"></path>
                        <path d="M147.0232,260.7371 L145.0292,260.5731 C148.2472,221.7061 148.2472,183.9151 145.0292,145.0421 L147.0232,144.8771 C150.2492,183.8621 150.2492,221.7591 147.0232,260.7371" id="Fill-325"></path>
                        <polygon id="Fill-327" points="73.911 170.668 195.29 170.668 195.29 168.668 73.911 168.668"></polygon>
                        <path d="M195.2898,174.5579 L73.9108,174.5579 C73.7038,174.5579 73.5358,174.3899 73.5358,174.1829 C73.5358,173.9759 73.7038,173.8079 73.9108,173.8079 L195.2898,173.8079 C195.4968,173.8079 195.6648,173.9759 195.6648,174.1829 C195.6648,174.3899 195.4968,174.5579 195.2898,174.5579" id="Fill-329"></path>
                        <path d="M195.2898,231.7117 L73.9108,231.7117 C73.7038,231.7117 73.5358,231.5437 73.5358,231.3367 C73.5358,231.1297 73.7038,230.9617 73.9108,230.9617 L195.2898,230.9617 C195.4968,230.9617 195.6648,231.1297 195.6648,231.3367 C195.6648,231.5437 195.4968,231.7117 195.2898,231.7117" id="Fill-330"></path>
                        <polygon id="Fill-331" points="71.82 203.76 197.379 203.76 197.379 201.76 71.82 201.76"></polygon>
                        <polygon id="Fill-332" points="73.911 236.85 195.29 236.85 195.29 234.85 73.911 234.85"></polygon>
                        <path d="M48.8298,86.9427 C47.5129343,95.6817485 46.6841887,102.330303 46.343563,106.888362 C46.0029373,111.446422 45.831683,118.179301 45.8298,127.087 L27.8298,127.087 C27.5354921,118.184873 27.5354921,111.451994 27.8298,106.888362 C28.1241079,102.324731 28.9870746,95.6761765 30.4187,86.9427 L27.3487,86.9427 C25.9723791,95.0508836 25.1327457,101.699438 24.8298,106.888362 C24.5268543,112.077287 24.5268543,119.810166 24.8298,130.087 L48.4179427,128.000733 C48.3899376,119.100999 48.57209,112.063541 48.9644,106.888362 C49.35671,101.713183 50.4020434,95.064629 52.1004,86.9427 L48.8298,86.9427 Z" id="Fill-351"></path>
                        <path d="M30.4187,86.9427 C41.1147,39.2867 83.7617,3.5697 134.5997,3.5697 C185.4377,3.5697 228.0837,39.2867 238.7797,86.9427 L241.8507,86.9427 C231.1007,37.6187 187.0987,0.5697 134.5997,0.5697 C82.1007,0.5697 38.0987,37.6187 27.3487,86.9427 L30.4187,86.9427 Z" id="Fill-352"></path>
                        <path d="M238.7797,86.9427 C240.224606,102.684546 241.087673,114.387983 241.3689,122.05301 C241.663051,130.070272 241.663051,141.890269 241.3689,157.513 C235.9049,156.844 229.8649,156.243 223.3689,155.722 C223.709885,140.755734 223.709885,129.532738 223.3689,122.05301 C223.013107,114.248449 221.96794,102.545012 220.2334,86.9427 L217.0984,86.9427 C218.814696,102.173423 219.859696,113.87686 220.2334,122.05301 C220.607104,130.229161 220.65227,142.377157 220.3689,158.497 L221.7529,158.604 C229.4109,159.199 236.4509,159.904 242.6789,160.7 L244.3689,160.916 C244.674457,143.039941 244.674457,129.613965 244.3689,120.638073 C244.063343,111.662181 243.223943,100.43039 241.8507,86.9427 L238.7797,86.9427 Z" id="Fill-353"></path>
                        <path d="M48.9644,86.9426 L52.1004,86.9426 C62.3114,50.9896 95.4164,24.5696 134.5994,24.5696 C173.7824,24.5696 206.8874,50.9896 217.0984,86.9426 L220.2334,86.9426 C209.9404,49.3106 175.4514,21.5696 134.5994,21.5696 C93.7474,21.5696 59.2584,49.3106 48.9644,86.9426 Z" id="Fill-354"></path>
                    </g>
                    <g id="Group-2" transform="translate(78.000000, 179.000000)" fill="#34D8AC" font-family="Times-Roman, Times" font-size="17" font-weight="normal">
                        <text id="H">
                            <tspan x="0" y="16">H</tspan>
                        </text>
                        <text id="A">
                            <tspan x="23" y="16">A</tspan>
                        </text>
                        <text id="V">
                            <tspan x="49" y="16">V</tspan>
                        </text>
                        <text id="E">
                            <tspan x="78" y="16">E</tspan>
                        </text>
                        <text id="N">
                            <tspan x="102" y="16">N</tspan>
                        </text>
                    </g>
                </g>
                <g id="Group-2" transform="translate(78.000000, 207.000000)" fill="#34D8AC" font-family="Times-Roman, Times" font-size="17" font-weight="normal">
                    <text id="V">
                        <tspan x="0" y="16">V</tspan>
                    </text>
                    <text id="A">
                        <tspan x="23" y="16">A</tspan>
                    </text>
                    <text id="U">
                        <tspan x="49" y="16">U</tspan>
                    </text>
                    <text id="L">
                        <tspan x="78" y="16">L</tspan>
                    </text>
                    <text id="T">
                        <tspan x="102" y="16">T</tspan>
                    </text>
                </g>
                <g id="Group-5" opacity="0.3" transform="translate(82.000000, 149.000000)" fill="#34D8AC" font-family="Times-Roman, Times" font-size="14" font-weight="normal">
                    <text id="F">
                        <tspan x="0" y="14">F</tspan>
                    </text>
                    <text id="Y">
                        <tspan x="24" y="14">Y</tspan>
                    </text>
                    <text id="X">
                        <tspan x="48" y="14">X</tspan>
                    </text>
                    <text id="D">
                        <tspan x="73" y="14">D</tspan>
                    </text>
                    <text id="Y">
                        <tspan x="95" y="14">Y</tspan>
                    </text>
                </g>
                <g id="Group" opacity="0.4" transform="translate(82.000000, 239.000000)" fill="#34D8AC" font-family="Times-Roman, Times" font-size="14" font-weight="normal">
                    <text id="U" opacity="0.7">
                        <tspan x="0" y="14">U</tspan>
                    </text>
                    <text id="E" opacity="0.7">
                        <tspan x="24" y="14">E</tspan>
                    </text>
                    <text id="Z" opacity="0.7">
                        <tspan x="48" y="14">Z</tspan>
                    </text>
                    <text id="P" opacity="0.7">
                        <tspan x="73" y="14">P</tspan>
                    </text>
                    <text id="Q" opacity="0.7">
                        <tspan x="95" y="14">Q</tspan>
                    </text>
                </g>
            </g>
        </g>
    </g>
</svg>