<?xml version="1.0" encoding="UTF-8"?>
<svg width="640px" height="360px" viewBox="0 0 640 360" version="1.1" xmlns="http://www.w3.org/2000/svg" xmlns:xlink="http://www.w3.org/1999/xlink">
    <title>b_v12</title>
    <g id="b_v12" stroke="none" stroke-width="1" fill="none" fill-rule="evenodd">
        <g id="layers">
            <g id="background" fill="#26292F">
                <rect id="Rectangle" x="0" y="0" width="640" height="360"></rect>
            </g>
            <g id="icon" transform="translate(396.000000, 79.500000)"></g>
        </g>
        <g id="Group-3" transform="translate(451.000000, -30.000000)" stroke="#E935A8">
            <g id="Group-2_looper">
                <g id="Group-2_5" transform="translate(0.000000, 332.617450)">
                    <polygon id="Triangle" points="51.5 0 103 80.3825503 0 80.3825503"></polygon>
                    <polygon id="Triangle" points="39.6689189 18.0167785 79.3378378 80.3825503 0 80.3825503"></polygon>
                    <polygon id="Triangle" points="27.1418919 37.4194631 54.2837838 80.3825503 0 80.3825503"></polygon>
                </g>
                <g id="Group-2_4" transform="translate(0.000000, 249.463087)">
                    <polygon id="Triangle" points="51.5 0 103 80.3825503 0 80.3825503"></polygon>
                    <polygon id="Triangle" points="39.6689189 18.0167785 79.3378378 80.3825503 0 80.3825503"></polygon>
                    <polygon id="Triangle" points="27.1418919 37.4194631 54.2837838 80.3825503 0 80.3825503"></polygon>
                    <polygon id="Triangle" points="13.9189189 58.2080537 27.8378378 80.3825503 0 80.3825503"></polygon>
                </g>
                <g id="Group-2_3" transform="translate(0.000000, 166.308725)">
                    <polygon id="Triangle" points="51.5 0 103 80.3825503 0 80.3825503"></polygon>
                    <polygon id="Triangle" points="39.6689189 18.0167785 79.3378378 80.3825503 0 80.3825503"></polygon>
                    <polygon id="Triangle" points="27.1418919 37.4194631 54.2837838 80.3825503 0 80.3825503"></polygon>
                    <polygon id="Triangle" points="13.9189189 58.2080537 27.8378378 80.3825503 0 80.3825503"></polygon>
                </g>
                <g id="Group-2_2" transform="translate(0.000000, 83.154362)">
                    <polygon id="Triangle" points="51.5 0 103 80.3825503 0 80.3825503"></polygon>
                    <polygon id="Triangle" points="39.6689189 18.0167785 79.3378378 80.3825503 0 80.3825503"></polygon>
                    <polygon id="Triangle" points="27.1418919 37.4194631 54.2837838 80.3825503 0 80.3825503"></polygon>
                    <polygon id="Triangle" points="13.9189189 58.2080537 27.8378378 80.3825503 0 80.3825503"></polygon>
                </g>
                <g id="Group-2_1">
                    <polygon id="Triangle" points="51.5 0 103 80.3825503 0 80.3825503"></polygon>
                    <polygon id="Triangle" points="39.6689189 18.0167785 79.3378378 80.3825503 0 80.3825503"></polygon>
                    <polygon id="Triangle" points="27.1418919 37.4194631 54.2837838 80.3825503 0 80.3825503"></polygon>
                    <polygon id="Triangle" points="13.9189189 58.2080537 27.8378378 80.3825503 0 80.3825503"></polygon>
                </g>
            </g>
            <g id="Group-2_looper" transform="translate(120.500000, 213.000000) rotate(180.000000) translate(-120.500000, -213.000000) translate(69.000000, 6.000000)">
                <g id="Group-2_5" transform="translate(0.000000, 332.617450)">
                    <polygon id="Triangle" points="51.5 0 103 80.3825503 0 80.3825503"></polygon>
                    <polygon id="Triangle" points="39.6689189 18.0167785 79.3378378 80.3825503 0 80.3825503"></polygon>
                    <polygon id="Triangle" points="27.1418919 37.4194631 54.2837838 80.3825503 0 80.3825503"></polygon>
                </g>
                <g id="Group-2_4" transform="translate(0.000000, 249.463087)">
                    <polygon id="Triangle" points="51.5 0 103 80.3825503 0 80.3825503"></polygon>
                    <polygon id="Triangle" points="39.6689189 18.0167785 79.3378378 80.3825503 0 80.3825503"></polygon>
                    <polygon id="Triangle" points="27.1418919 37.4194631 54.2837838 80.3825503 0 80.3825503"></polygon>
                    <polygon id="Triangle" points="13.9189189 58.2080537 27.8378378 80.3825503 0 80.3825503"></polygon>
                </g>
                <g id="Group-2_3" transform="translate(0.000000, 166.308725)">
                    <polygon id="Triangle" points="51.5 0 103 80.3825503 0 80.3825503"></polygon>
                    <polygon id="Triangle" points="39.6689189 18.0167785 79.3378378 80.3825503 0 80.3825503"></polygon>
                    <polygon id="Triangle" points="27.1418919 37.4194631 54.2837838 80.3825503 0 80.3825503"></polygon>
                    <polygon id="Triangle" points="13.9189189 58.2080537 27.8378378 80.3825503 0 80.3825503"></polygon>
                </g>
                <g id="Group-2_2" transform="translate(0.000000, 83.154362)">
                    <polygon id="Triangle" points="51.5 0 103 80.3825503 0 80.3825503"></polygon>
                    <polygon id="Triangle" points="39.6689189 18.0167785 79.3378378 80.3825503 0 80.3825503"></polygon>
                    <polygon id="Triangle" points="27.1418919 37.4194631 54.2837838 80.3825503 0 80.3825503"></polygon>
                    <polygon id="Triangle" points="13.9189189 58.2080537 27.8378378 80.3825503 0 80.3825503"></polygon>
                </g>
                <g id="Group-2_1">
                    <polygon id="Triangle" points="51.5 0 103 80.3825503 0 80.3825503"></polygon>
                    <polygon id="Triangle" points="39.6689189 18.0167785 79.3378378 80.3825503 0 80.3825503"></polygon>
                    <polygon id="Triangle" points="27.1418919 37.4194631 54.2837838 80.3825503 0 80.3825503"></polygon>
                    <polygon id="Triangle" points="13.9189189 58.2080537 27.8378378 80.3825503 0 80.3825503"></polygon>
                </g>
            </g>
        </g>
    </g>
</svg>