<?xml version="1.0" encoding="UTF-8"?>
<svg width="640px" height="360px" viewBox="0 0 640 360" version="1.1" xmlns="http://www.w3.org/2000/svg" xmlns:xlink="http://www.w3.org/1999/xlink">
    <!-- Generator: Sketch 59.1 (86144) - https://sketch.com -->
    <title>b_v10</title>
    <desc>Created with Sketch.</desc>
    <g id="b_v10" stroke="none" stroke-width="1" fill="none" fill-rule="evenodd">
        <g id="layers">
            <g id="background" fill="#26292F">
                <rect id="Rectangle" x="0" y="0" width="640" height="360"></rect>
            </g>
            <g id="icon" transform="translate(396.000000, 79.500000)"></g>
        </g>
        <g id="Group_looper" transform="translate(556.000000, 0.000000)" stroke="#EDBD5C" stroke-opacity="0.452660621">
            <g id="Group_1">
                <rect id="Rectangle" x="23.5789474" y="23.5789474" width="112.842105" height="112.842105"></rect>
                <polygon id="Rectangle" transform="translate(80.000000, 80.000000) rotate(15.000000) translate(-80.000000, -80.000000) " points="23.5789474 23.5789474 136.421053 23.5789474 136.421053 136.421053 23.5789474 136.421053"></polygon>
                <polygon id="Rectangle" transform="translate(80.000000, 80.000000) rotate(30.000000) translate(-80.000000, -80.000000) " points="23.5789474 23.5789474 136.421053 23.5789474 136.421053 136.421053 23.5789474 136.421053"></polygon>
                <polygon id="Rectangle" transform="translate(80.000000, 80.000000) rotate(45.000000) translate(-80.000000, -80.000000) " points="23.5789474 23.5789474 136.421053 23.5789474 136.421053 136.421053 23.5789474 136.421053"></polygon>
                <polygon id="Rectangle" transform="translate(80.000000, 80.000000) rotate(60.000000) translate(-80.000000, -80.000000) " points="23.5789474 23.5789474 136.421053 23.5789474 136.421053 136.421053 23.5789474 136.421053"></polygon>
                <polygon id="Rectangle" transform="translate(80.000000, 80.000000) rotate(75.000000) translate(-80.000000, -80.000000) " points="23.5789474 23.5789474 136.421053 23.5789474 136.421053 136.421053 23.5789474 136.421053"></polygon>
            </g>
            <g id="Group" opacity="0.8" transform="translate(46.000000, 46.000000)">
                <rect id="Rectangle" x="10.1538462" y="10.1538462" width="45.6923077" height="45.6923077"></rect>
                <polygon id="Rectangle" transform="translate(33.000000, 33.000000) rotate(15.000000) translate(-33.000000, -33.000000) " points="10.1538462 10.1538462 55.8461538 10.1538462 55.8461538 55.8461538 10.1538462 55.8461538"></polygon>
                <polygon id="Rectangle" transform="translate(33.000000, 33.000000) rotate(30.000000) translate(-33.000000, -33.000000) " points="10.1538462 10.1538462 55.8461538 10.1538462 55.8461538 55.8461538 10.1538462 55.8461538"></polygon>
                <polygon id="Rectangle" transform="translate(33.000000, 33.000000) rotate(45.000000) translate(-33.000000, -33.000000) " points="10.1538462 10.1538462 55.8461538 10.1538462 55.8461538 55.8461538 10.1538462 55.8461538"></polygon>
                <polygon id="Rectangle" transform="translate(33.000000, 33.000000) rotate(60.000000) translate(-33.000000, -33.000000) " points="10.1538462 10.1538462 55.8461538 10.1538462 55.8461538 55.8461538 10.1538462 55.8461538"></polygon>
                <polygon id="Rectangle" transform="translate(33.000000, 33.000000) rotate(75.000000) translate(-33.000000, -33.000000) " points="10.1538462 10.1538462 55.8461538 10.1538462 55.8461538 55.8461538 10.1538462 55.8461538"></polygon>
            </g>
        </g>
        <g id="Group_looper" transform="translate(430.000000, 100.000000)" stroke="#EDBD5C" stroke-opacity="0.452660621">
            <g id="Group_1">
                <rect id="Rectangle" x="23.5789474" y="23.5789474" width="112.842105" height="112.842105"></rect>
                <polygon id="Rectangle" transform="translate(80.000000, 80.000000) rotate(15.000000) translate(-80.000000, -80.000000) " points="23.5789474 23.5789474 136.421053 23.5789474 136.421053 136.421053 23.5789474 136.421053"></polygon>
                <polygon id="Rectangle" transform="translate(80.000000, 80.000000) rotate(30.000000) translate(-80.000000, -80.000000) " points="23.5789474 23.5789474 136.421053 23.5789474 136.421053 136.421053 23.5789474 136.421053"></polygon>
                <polygon id="Rectangle" transform="translate(80.000000, 80.000000) rotate(45.000000) translate(-80.000000, -80.000000) " points="23.5789474 23.5789474 136.421053 23.5789474 136.421053 136.421053 23.5789474 136.421053"></polygon>
                <polygon id="Rectangle" transform="translate(80.000000, 80.000000) rotate(60.000000) translate(-80.000000, -80.000000) " points="23.5789474 23.5789474 136.421053 23.5789474 136.421053 136.421053 23.5789474 136.421053"></polygon>
                <polygon id="Rectangle" transform="translate(80.000000, 80.000000) rotate(75.000000) translate(-80.000000, -80.000000) " points="23.5789474 23.5789474 136.421053 23.5789474 136.421053 136.421053 23.5789474 136.421053"></polygon>
            </g>
            <g id="Group" opacity="0.8" transform="translate(46.000000, 46.000000)">
                <rect id="Rectangle" x="10.1538462" y="10.1538462" width="45.6923077" height="45.6923077"></rect>
                <polygon id="Rectangle" transform="translate(33.000000, 33.000000) rotate(15.000000) translate(-33.000000, -33.000000) " points="10.1538462 10.1538462 55.8461538 10.1538462 55.8461538 55.8461538 10.1538462 55.8461538"></polygon>
                <polygon id="Rectangle" transform="translate(33.000000, 33.000000) rotate(30.000000) translate(-33.000000, -33.000000) " points="10.1538462 10.1538462 55.8461538 10.1538462 55.8461538 55.8461538 10.1538462 55.8461538"></polygon>
                <polygon id="Rectangle" transform="translate(33.000000, 33.000000) rotate(45.000000) translate(-33.000000, -33.000000) " points="10.1538462 10.1538462 55.8461538 10.1538462 55.8461538 55.8461538 10.1538462 55.8461538"></polygon>
                <polygon id="Rectangle" transform="translate(33.000000, 33.000000) rotate(60.000000) translate(-33.000000, -33.000000) " points="10.1538462 10.1538462 55.8461538 10.1538462 55.8461538 55.8461538 10.1538462 55.8461538"></polygon>
                <polygon id="Rectangle" transform="translate(33.000000, 33.000000) rotate(75.000000) translate(-33.000000, -33.000000) " points="10.1538462 10.1538462 55.8461538 10.1538462 55.8461538 55.8461538 10.1538462 55.8461538"></polygon>
            </g>
        </g>
        <g id="Group_looper" transform="translate(556.000000, 200.000000)" stroke="#EDBD5C" stroke-opacity="0.452660621">
            <g id="Group_1">
                <rect id="Rectangle" x="23.5789474" y="23.5789474" width="112.842105" height="112.842105"></rect>
                <polygon id="Rectangle" transform="translate(80.000000, 80.000000) rotate(15.000000) translate(-80.000000, -80.000000) " points="23.5789474 23.5789474 136.421053 23.5789474 136.421053 136.421053 23.5789474 136.421053"></polygon>
                <polygon id="Rectangle" transform="translate(80.000000, 80.000000) rotate(30.000000) translate(-80.000000, -80.000000) " points="23.5789474 23.5789474 136.421053 23.5789474 136.421053 136.421053 23.5789474 136.421053"></polygon>
                <polygon id="Rectangle" transform="translate(80.000000, 80.000000) rotate(45.000000) translate(-80.000000, -80.000000) " points="23.5789474 23.5789474 136.421053 23.5789474 136.421053 136.421053 23.5789474 136.421053"></polygon>
                <polygon id="Rectangle" transform="translate(80.000000, 80.000000) rotate(60.000000) translate(-80.000000, -80.000000) " points="23.5789474 23.5789474 136.421053 23.5789474 136.421053 136.421053 23.5789474 136.421053"></polygon>
                <polygon id="Rectangle" transform="translate(80.000000, 80.000000) rotate(75.000000) translate(-80.000000, -80.000000) " points="23.5789474 23.5789474 136.421053 23.5789474 136.421053 136.421053 23.5789474 136.421053"></polygon>
            </g>
            <g id="Group" opacity="0.8" transform="translate(46.000000, 46.000000)">
                <rect id="Rectangle" x="10.1538462" y="10.1538462" width="45.6923077" height="45.6923077"></rect>
                <polygon id="Rectangle" transform="translate(33.000000, 33.000000) rotate(15.000000) translate(-33.000000, -33.000000) " points="10.1538462 10.1538462 55.8461538 10.1538462 55.8461538 55.8461538 10.1538462 55.8461538"></polygon>
                <polygon id="Rectangle" transform="translate(33.000000, 33.000000) rotate(30.000000) translate(-33.000000, -33.000000) " points="10.1538462 10.1538462 55.8461538 10.1538462 55.8461538 55.8461538 10.1538462 55.8461538"></polygon>
                <polygon id="Rectangle" transform="translate(33.000000, 33.000000) rotate(45.000000) translate(-33.000000, -33.000000) " points="10.1538462 10.1538462 55.8461538 10.1538462 55.8461538 55.8461538 10.1538462 55.8461538"></polygon>
                <polygon id="Rectangle" transform="translate(33.000000, 33.000000) rotate(60.000000) translate(-33.000000, -33.000000) " points="10.1538462 10.1538462 55.8461538 10.1538462 55.8461538 55.8461538 10.1538462 55.8461538"></polygon>
                <polygon id="Rectangle" transform="translate(33.000000, 33.000000) rotate(75.000000) translate(-33.000000, -33.000000) " points="10.1538462 10.1538462 55.8461538 10.1538462 55.8461538 55.8461538 10.1538462 55.8461538"></polygon>
            </g>
        </g>
    </g>
</svg>