<?xml version="1.0" encoding="UTF-8"?>
<svg width="640px" height="360px" viewBox="0 0 640 360" version="1.1" xmlns="http://www.w3.org/2000/svg" xmlns:xlink="http://www.w3.org/1999/xlink">
    <!-- Generator: Sketch 59.1 (86144) - https://sketch.com -->
    <title>b_v11</title>
    <desc>Created with Sketch.</desc>
    <g id="b_v11" stroke="none" stroke-width="1" fill="none" fill-rule="evenodd">
        <g id="layers">
            <g id="background" fill="#26292F">
                <rect id="Rectangle" x="0" y="0" width="640" height="360"></rect>
            </g>
            <g id="icon" transform="translate(396.000000, 79.500000)"></g>
        </g>
        <g id="Polygon_looper" transform="translate(408.000000, -6.000000)" stroke="#615BEC">
            <polygon id="Polygon_16" opacity="0.118915023" points="212 161 239.712813 177 239.712813 209 212 225 184.287187 209 184.287187 177"></polygon>
            <polygon id="Polygon_15" opacity="0.546333859" points="152 161 179.712813 177 179.712813 209 152 225 124.287187 209 124.287187 177"></polygon>
            <polygon id="Polygon_14" opacity="0.860472686" points="92 161 119.712813 177 119.712813 209 92 225 64.2871871 209 64.2871871 177"></polygon>
            <polygon id="Polygon_13" opacity="0.870617962" points="32 161 59.7128129 177 59.7128129 209 32 225 4.28718708 209 4.28718708 177"></polygon>
            <polygon id="Polygon_12" opacity="0.356343557" points="242 106 269.712813 122 269.712813 154 242 170 214.287187 154 214.287187 122"></polygon>
            <polygon id="Polygon_11" opacity="0.30111941" points="182 106 209.712813 122 209.712813 154 182 170 154.287187 154 154.287187 122"></polygon>
            <polygon id="Polygon_10" opacity="0.432859728" points="122 106 149.712813 122 149.712813 154 122 170 94.2871871 154 94.2871871 122"></polygon>
            <polygon id="Polygon_9" opacity="0.818772473" points="62 106 89.7128129 122 89.7128129 154 62 170 34.2871871 154 34.2871871 122"></polygon>
            <polygon id="Polygon_8" opacity="0.191596885" points="212 53 239.712813 69 239.712813 101 212 117 184.287187 101 184.287187 69"></polygon>
            <polygon id="Polygon_7" opacity="0.98349951" points="152 53 179.712813 69 179.712813 101 152 117 124.287187 101 124.287187 69"></polygon>
            <polygon id="Polygon_6" opacity="0.994796485" points="92 53 119.712813 69 119.712813 101 92 117 64.2871871 101 64.2871871 69"></polygon>
            <polygon id="Polygon_5" opacity="0.561783686" points="32 53 59.7128129 69 59.7128129 101 32 117 4.28718708 101 4.28718708 69"></polygon>
            <polygon id="Polygon_4" opacity="0.439299439" points="242 0 269.712813 16 269.712813 48 242 64 214.287187 48 214.287187 16"></polygon>
            <polygon id="Polygon_3" opacity="0.949679737" points="182 0 209.712813 16 209.712813 48 182 64 154.287187 48 154.287187 16"></polygon>
            <polygon id="Polygon_2" opacity="0.622999979" points="122 0 149.712813 16 149.712813 48 122 64 94.2871871 48 94.2871871 16"></polygon>
            <polygon id="Polygon_1" opacity="0.949017027" points="62 0 89.7128129 16 89.7128129 48 62 64 34.2871871 48 34.2871871 16"></polygon>
        </g>
        <g id="Polygon_looper-Copy" transform="translate(408.000000, 209.000000)" stroke="#615BEC">
            <polygon id="Polygon_12" opacity="0.356343557" points="242 106 269.712813 122 269.712813 154 242 170 214.287187 154 214.287187 122"></polygon>
            <polygon id="Polygon_11" opacity="0.30111941" points="182 106 209.712813 122 209.712813 154 182 170 154.287187 154 154.287187 122"></polygon>
            <polygon id="Polygon_10" opacity="0.432859728" points="122 106 149.712813 122 149.712813 154 122 170 94.2871871 154 94.2871871 122"></polygon>
            <polygon id="Polygon_9" opacity="0.818772473" points="62 106 89.7128129 122 89.7128129 154 62 170 34.2871871 154 34.2871871 122"></polygon>
            <polygon id="Polygon_8" opacity="0.191596885" points="212 53 239.712813 69 239.712813 101 212 117 184.287187 101 184.287187 69"></polygon>
            <polygon id="Polygon_7" opacity="0.98349951" points="152 53 179.712813 69 179.712813 101 152 117 124.287187 101 124.287187 69"></polygon>
            <polygon id="Polygon_6" opacity="0.994796485" points="92 53 119.712813 69 119.712813 101 92 117 64.2871871 101 64.2871871 69"></polygon>
            <polygon id="Polygon_5" opacity="0.561783686" points="32 53 59.7128129 69 59.7128129 101 32 117 4.28718708 101 4.28718708 69"></polygon>
            <polygon id="Polygon_4" opacity="0.439299439" points="242 0 269.712813 16 269.712813 48 242 64 214.287187 48 214.287187 16"></polygon>
            <polygon id="Polygon_3" opacity="0.949679737" points="182 0 209.712813 16 209.712813 48 182 64 154.287187 48 154.287187 16"></polygon>
            <polygon id="Polygon_2" opacity="0.622999979" points="122 0 149.712813 16 149.712813 48 122 64 94.2871871 48 94.2871871 16"></polygon>
            <polygon id="Polygon_1" opacity="0.949017027" points="62 0 89.7128129 16 89.7128129 48 62 64 34.2871871 48 34.2871871 16"></polygon>
        </g>
    </g>
</svg>