<?xml version="1.0" encoding="UTF-8"?>
<svg width="640px" height="360px" viewBox="0 0 640 360" version="1.1" xmlns="http://www.w3.org/2000/svg" xmlns:xlink="http://www.w3.org/1999/xlink">
    <title>b_v13 </title>
    <g id="b_v13-" stroke="none" stroke-width="1" fill="none" fill-rule="evenodd">
        <g id="layers">
            <g id="background" fill="#26292F">
                <rect id="Rectangle" x="0" y="0" width="640" height="360"></rect>
            </g>
            <g id="icon" transform="translate(396.000000, 79.500000)"></g>
        </g>
        <g id="Group-2" transform="translate(522.000000, 125.000000)" stroke="#34D8AC">
            <rect id="Rectangle" x="0" y="0" width="103" height="103"></rect>
            <rect id="Rectangle" opacity="0.8" x="8" y="8" width="88" height="88"></rect>
            <rect id="Rectangle" opacity="0.6" x="15" y="16" width="73" height="73"></rect>
            <rect id="Rectangle" opacity="0.4" x="21" y="22" width="61" height="61"></rect>
            <rect id="Rectangle" opacity="0.2" x="40" y="40" width="23" height="23"></rect>
        </g>
        <g id="Group-2" transform="translate(419.000000, 125.000000)" stroke="#34D8AC">
            <rect id="Rectangle" x="0" y="0" width="103" height="103"></rect>
            <rect id="Rectangle" opacity="0.8" x="8" y="8" width="88" height="88"></rect>
            <rect id="Rectangle" opacity="0.6" x="15" y="16" width="73" height="73"></rect>
            <rect id="Rectangle" opacity="0.4" x="21" y="22" width="61" height="61"></rect>
            <rect id="Rectangle" opacity="0.2" x="40" y="40" width="23" height="23"></rect>
        </g>
        <g id="Group-2" transform="translate(471.000000, 228.000000)" stroke="#34D8AC">
            <rect id="Rectangle" x="0" y="0" width="103" height="103"></rect>
            <rect id="Rectangle" opacity="0.8" x="8" y="8" width="88" height="88"></rect>
            <rect id="Rectangle" opacity="0.6" x="15" y="16" width="73" height="73"></rect>
            <rect id="Rectangle" opacity="0.4" x="21" y="22" width="61" height="61"></rect>
            <rect id="Rectangle" opacity="0.2" x="40" y="40" width="23" height="23"></rect>
        </g>
        <g id="Group-2" transform="translate(471.000000, 22.000000)" stroke="#34D8AC">
            <rect id="Rectangle" x="0" y="0" width="103" height="103"></rect>
            <rect id="Rectangle" opacity="0.8" x="8" y="8" width="88" height="88"></rect>
            <rect id="Rectangle" opacity="0.6" x="15" y="16" width="73" height="73"></rect>
            <rect id="Rectangle" opacity="0.4" x="21" y="22" width="61" height="61"></rect>
            <rect id="Rectangle" opacity="0.2" x="40" y="40" width="23" height="23"></rect>
        </g>
    </g>
</svg>