<?xml version="1.0" encoding="UTF-8"?>
<svg width="640px" height="360px" viewBox="0 0 640 360" version="1.1" xmlns="http://www.w3.org/2000/svg" xmlns:xlink="http://www.w3.org/1999/xlink">
    <!-- Generator: Sketch 55.2 (78181) - https://sketchapp.com -->
    <title>b_v1</title>
    <desc>Created with Sketch.</desc>
    <g id="b_v1" stroke="none" stroke-width="1" fill="none" fill-rule="evenodd">
        <g id="layers">
            <g id="background" fill="#26292F">
                <rect id="Rectangle" x="0" y="0" width="640" height="360"></rect>
            </g>
            <g id="icon" transform="translate(396.000000, 79.500000)"></g>
        </g>
        <g id="Group" transform="translate(316.000000, 1.000000)" stroke="#E935A8" stroke-width="0.5">
            <circle id="Oval" cx="163" cy="163" r="100"></circle>
            <path d="M163,273 C223.751322,273 273,223.751322 273,163 C273,102.248678 223.751322,53 163,53 C102.248678,53 53,102.248678 53,163 C53,223.751322 102.248678,273 163,273 Z" id="Oval" opacity="0.8" stroke-dasharray="4,4" transform="translate(163.000000, 163.000000) rotate(50.000000) translate(-163.000000, -163.000000) "></path>
            <path d="M163,283 C229.27417,283 283,229.27417 283,163 C283,96.72583 229.27417,43 163,43 C96.72583,43 43,96.72583 43,163 C43,229.27417 96.72583,283 163,283 Z" id="Oval" opacity="0.6" stroke-dasharray="3,3" transform="translate(163.000000, 163.000000) rotate(100.000000) translate(-163.000000, -163.000000) "></path>
            <path d="M163,293 C234.797017,293 293,234.797017 293,163 C293,91.2029825 234.797017,33 163,33 C91.2029825,33 33,91.2029825 33,163 C33,234.797017 91.2029825,293 163,293 Z" id="Oval" opacity="0.4" stroke-dasharray="2,2" transform="translate(163.000000, 163.000000) rotate(100.000000) translate(-163.000000, -163.000000) "></path>
            <path d="M163,303 C240.319865,303 303,240.319865 303,163 C303,85.680135 240.319865,23 163,23 C85.680135,23 23,85.680135 23,163 C23,240.319865 85.680135,303 163,303 Z" id="Oval" opacity="0.2" stroke-dasharray="2,2" transform="translate(163.000000, 163.000000) rotate(100.000000) translate(-163.000000, -163.000000) "></path>
        </g>
        <g id="Group" transform="translate(390.000000, 76.000000)" stroke="#E935A8" stroke-width="0.5">
            <circle id="Oval" cx="163" cy="163" r="100"></circle>
            <path d="M163,273 C223.751322,273 273,223.751322 273,163 C273,102.248678 223.751322,53 163,53 C102.248678,53 53,102.248678 53,163 C53,223.751322 102.248678,273 163,273 Z" id="Oval" opacity="0.8" stroke-dasharray="4,4" transform="translate(163.000000, 163.000000) rotate(50.000000) translate(-163.000000, -163.000000) "></path>
            <path d="M163,283 C229.27417,283 283,229.27417 283,163 C283,96.72583 229.27417,43 163,43 C96.72583,43 43,96.72583 43,163 C43,229.27417 96.72583,283 163,283 Z" id="Oval" opacity="0.6" stroke-dasharray="3,3" transform="translate(163.000000, 163.000000) rotate(100.000000) translate(-163.000000, -163.000000) "></path>
            <path d="M163,293 C234.797017,293 293,234.797017 293,163 C293,91.2029825 234.797017,33 163,33 C91.2029825,33 33,91.2029825 33,163 C33,234.797017 91.2029825,293 163,293 Z" id="Oval" opacity="0.4" stroke-dasharray="2,2" transform="translate(163.000000, 163.000000) rotate(100.000000) translate(-163.000000, -163.000000) "></path>
            <path d="M163,303 C240.319865,303 303,240.319865 303,163 C303,85.680135 240.319865,23 163,23 C85.680135,23 23,85.680135 23,163 C23,240.319865 85.680135,303 163,303 Z" id="Oval" opacity="0.2" stroke-dasharray="2,2" transform="translate(163.000000, 163.000000) rotate(100.000000) translate(-163.000000, -163.000000) "></path>
        </g>
        <g id="Group" transform="translate(391.000000, -126.000000)" stroke="#E935A8" stroke-width="0.5">
            <circle id="Oval" cx="263.5" cy="263.5" r="162.5"></circle>
            <path d="M263.5,441.996933 C362.081134,441.996933 441.996933,362.081134 441.996933,263.5 C441.996933,164.918866 362.081134,85.0030675 263.5,85.0030675 C164.918866,85.0030675 85.0030675,164.918866 85.0030675,263.5 C85.0030675,362.081134 164.918866,441.996933 263.5,441.996933 Z" id="Oval" opacity="0.8" stroke-dasharray="4,4" transform="translate(263.500000, 263.500000) rotate(50.000000) translate(-263.500000, -263.500000) "></path>
            <path d="M263.5,458.223926 C371.043055,458.223926 458.223926,371.043055 458.223926,263.5 C458.223926,155.956945 371.043055,68.7760736 263.5,68.7760736 C155.956945,68.7760736 68.7760736,155.956945 68.7760736,263.5 C68.7760736,371.043055 155.956945,458.223926 263.5,458.223926 Z" id="Oval" opacity="0.6" stroke-dasharray="3,3" transform="translate(263.500000, 263.500000) rotate(100.000000) translate(-263.500000, -263.500000) "></path>
            <path d="M263.5,474.45092 C380.004976,474.45092 474.45092,380.004976 474.45092,263.5 C474.45092,146.995024 380.004976,52.5490798 263.5,52.5490798 C146.995024,52.5490798 52.5490798,146.995024 52.5490798,263.5 C52.5490798,380.004976 146.995024,474.45092 263.5,474.45092 Z" id="Oval" opacity="0.4" stroke-dasharray="2,2" transform="translate(263.500000, 263.500000) rotate(100.000000) translate(-263.500000, -263.500000) "></path>
            <path d="M263.5,490.677914 C388.966897,490.677914 490.677914,388.966897 490.677914,263.5 C490.677914,138.033103 388.966897,36.3220859 263.5,36.3220859 C138.033103,36.3220859 36.3220859,138.033103 36.3220859,263.5 C36.3220859,388.966897 138.033103,490.677914 263.5,490.677914 Z" id="Oval" opacity="0.2" stroke-dasharray="2,2" transform="translate(263.500000, 263.500000) rotate(100.000000) translate(-263.500000, -263.500000) "></path>
        </g>
    </g>
</svg>