<?xml version="1.0" encoding="UTF-8"?>
<svg width="640px" height="360px" viewBox="0 0 640 360" version="1.1" xmlns="http://www.w3.org/2000/svg" xmlns:xlink="http://www.w3.org/1999/xlink">
    <!-- Generator: Sketch 59.1 (86144) - https://sketch.com -->
    <title>b_v6</title>
    <desc>Created with Sketch.</desc>
    <g id="b_v6" stroke="none" stroke-width="1" fill="none" fill-rule="evenodd">
        <g id="layers">
            <g id="background" fill="#26292F">
                <rect id="Rectangle" x="0" y="0" width="640" height="360"></rect>
            </g>
            <g id="icon" transform="translate(396.000000, 79.500000)"></g>
        </g>
        <g id="Group-2" transform="translate(433.000000, 0.000000)" stroke="#E935A8" stroke-width="2">
            <g id="Group" transform="translate(0.000000, 130.000000)">
                <path d="M0,0 C0,71.7970175 92.6770568,130 207,130 C321.322943,130 414,71.7970175 414,0" id="Path"></path>
                <path d="M0,20 C0,91.7970175 92.6770568,150 207,150 C321.322943,150 414,91.7970175 414,20" id="Path"></path>
                <path d="M0,40 C0,111.797017 92.6770568,170 207,170 C321.322943,170 414,111.797017 414,40" id="Path"></path>
                <path d="M0,60 C0,131.797017 92.6770568,190 207,190 C321.322943,190 414,131.797017 414,60" id="Path"></path>
                <path d="M0,80 C0,151.797017 92.6770568,210 207,210 C321.322943,210 414,151.797017 414,80" id="Path"></path>
                <path d="M0,100 C0,171.797017 92.6770568,230 207,230 C321.322943,230 414,171.797017 414,100" id="Path"></path>
                <path d="M0,120 C0,191.797017 92.6770568,250 207,250 C321.322943,250 414,191.797017 414,120" id="Path"></path>
            </g>
            <g id="Group" transform="translate(207.000000, 125.000000) scale(1, -1) translate(-207.000000, -125.000000) ">
                <path d="M0,0 C0,71.7970175 92.6770568,130 207,130 C321.322943,130 414,71.7970175 414,0" id="Path" stroke-opacity="0.4"></path>
                <path d="M0,20 C0,91.7970175 92.6770568,150 207,150 C321.322943,150 414,91.7970175 414,20" id="Path" stroke-opacity="0.4"></path>
                <path d="M0,40 C0,111.797017 92.6770568,170 207,170 C321.322943,170 414,111.797017 414,40" id="Path" stroke-opacity="0.4"></path>
                <path d="M0,60 C0,131.797017 92.6770568,190 207,190 C321.322943,190 414,131.797017 414,60" id="Path" stroke-opacity="0.4"></path>
                <path d="M0,80 C0,151.797017 92.6770568,210 207,210 C321.322943,210 414,151.797017 414,80" id="Path" stroke-opacity="0.4"></path>
                <path d="M0,100 C0,171.797017 92.6770568,230 207,230 C321.322943,230 414,171.797017 414,100" id="Path" stroke-opacity="0.4"></path>
                <path d="M0,120 C0,191.797017 92.6770568,250 207,250 C321.322943,250 414,191.797017 414,120" id="Path"></path>
            </g>
        </g>
    </g>
</svg>