<?xml version="1.0" encoding="UTF-8"?>
<svg width="640px" height="360px" viewBox="0 0 640 360" version="1.1" xmlns="http://www.w3.org/2000/svg" xmlns:xlink="http://www.w3.org/1999/xlink">
    <!-- Generator: Sketch 59.1 (86144) - https://sketch.com -->
    <title>b_v8</title>
    <desc>Created with Sketch.</desc>
    <g id="b_v8" stroke="none" stroke-width="1" fill="none" fill-rule="evenodd" transform="translate(0.000000, 0.000000)">
        <g id="layers">
            <g id="background" fill="#26292F">
                <rect id="Rectangle" x="0" y="0" width="640" height="360"></rect>
            </g>
            <g id="icon" transform="translate(396.000000, 79.500000)"></g>
        </g>
        <g id="Polygon_7_looper" transform="translate(355.000000, -7.000000)" stroke="#F15050" stroke-width="2">
            <polygon id="Polygon_7_10" opacity="0.588031646" transform="translate(190.912092, 192.999139) rotate(252.000000) translate(-190.912092, -192.999139) " points="190.912092 44.0194932 296.25661 87.6546213 339.891738 192.999139 296.25661 298.343657 190.912092 341.978785 85.5675735 298.343657 41.9324454 192.999139 85.5675735 87.6546213"></polygon>
            <polygon id="Polygon_7_9" opacity="0.518618543" transform="translate(191.932445, 192.999139) rotate(248.000000) translate(-191.932445, -192.999139) " points="191.932445 45.9991929 295.877104 89.0544804 338.932392 192.999139 295.877104 296.943798 191.932445 339.999086 87.9877865 296.943798 44.932499 192.999139 87.9877865 89.0544804"></polygon>
            <polygon id="Polygon_7_8" opacity="0.671541003" transform="translate(191.932499, 192.999139) rotate(244.000000) translate(-191.932499, -192.999139) " points="191.932499 49.9990873 293.048806 91.8828328 334.932551 192.999139 293.048806 294.115446 191.932499 335.999191 90.8161924 294.115446 48.9324469 192.999139 90.8161924 91.8828328"></polygon>
            <polygon id="Polygon_7_7" opacity="0.400506226" transform="translate(192.932447, 192.999139) rotate(240.000000) translate(-192.932447, -192.999139) " points="192.932447 52.0201697 292.619632 93.3119539 333.911417 192.999139 292.619632 292.686325 192.932447 333.978109 93.2452615 292.686325 51.9534773 192.999139 93.2452615 93.3119539"></polygon>
            <polygon id="Polygon_7_6" opacity="0.978800678" transform="translate(193.953477, 192.999139) rotate(236.000000) translate(-193.953477, -192.999139) " points="193.953477 53.9996839 292.240935 94.7116818 332.952933 192.999139 292.240935 291.286597 193.953477 331.998595 95.6660198 291.286597 54.9540219 192.999139 95.6660198 94.7116818"></polygon>
            <polygon id="Polygon_7_5" opacity="0.391210533" transform="translate(193.954022, 192.999139) rotate(232.000000) translate(-193.954022, -192.999139) " points="193.954022 57.9986104 289.413811 97.5393499 328.954551 192.999139 289.413811 288.458929 193.954022 327.999668 98.4942324 288.458929 58.9534929 192.999139 98.4942324 97.5393499"></polygon>
            <polygon id="Polygon_7_4" opacity="0.356974446" transform="translate(194.953493, 192.999139) rotate(228.000000) translate(-194.953493, -192.999139) " points="194.953493 60.0218826 288.982613 98.9700193 327.93075 192.999139 288.982613 287.028259 194.953493 325.976396 100.924373 287.028259 61.9762362 192.999139 100.924373 98.9700193"></polygon>
            <polygon id="Polygon_7_3" opacity="0.911730298" transform="translate(195.976236, 192.999139) rotate(224.000000) translate(-195.976236, -192.999139) " points="195.976236 61.9992945 288.607115 100.368261 326.976081 192.999139 288.607115 285.630018 195.976236 323.998984 103.345358 285.630018 64.9763914 192.999139 103.345358 100.368261"></polygon>
            <polygon id="Polygon_7_2" opacity="0.027911744" transform="translate(196.976391, 192.999139) rotate(220.000000) translate(-196.976391, -192.999139) " points="196.976391 64.0218873 288.177081 101.79845 325.953643 192.999139 288.177081 284.199829 196.976391 321.976391 105.775702 284.199829 67.9991393 192.999139 105.775702 101.79845"></polygon>
            <polygon id="Polygon_7_1" opacity="0.61507076" transform="translate(197.999139, 192.999139) rotate(216.000000) translate(-197.999139, -192.999139) " points="197.999139 66 287.801092 103.197187 324.998279 192.999139 287.801092 282.801092 197.999139 319.998279 108.197187 282.801092 71 192.999139 108.197187 103.197187"></polygon>
        </g>
    </g>
</svg>