<?xml version="1.0" encoding="UTF-8"?>
<svg width="640px" height="360px" viewBox="0 0 640 360" version="1.1" xmlns="http://www.w3.org/2000/svg" xmlns:xlink="http://www.w3.org/1999/xlink">
    <!-- Generator: Sketch 59.1 (86144) - https://sketch.com -->
    <title>b_v9</title>
    <desc>Created with Sketch.</desc>
    <g id="b_v9" stroke="none" stroke-width="1" fill="none" fill-rule="evenodd">
        <g id="layers">
            <g id="background" fill="#26292F">
                <rect id="Rectangle" x="0" y="0" width="640" height="360"></rect>
            </g>
            <g id="icon" transform="translate(396.000000, 79.500000)"></g>
        </g>
        <g id="Triangle-2_looper" transform="translate(441.000000, -20.000000)" stroke="#34D8AC">
            <g id="Triangle-2_74" opacity="0.920600116" transform="translate(150.000000, 350.000000)">
                <polygon id="Triangle" points="42 0 84 49 0 49"></polygon>
            </g>
            <g id="Triangle-2_73" opacity="0.0794010518" transform="translate(100.000000, 350.000000)">
                <polygon id="Triangle" points="42 0 84 49 0 49"></polygon>
            </g>
            <g id="Triangle-2_72" opacity="0.690818731" transform="translate(50.000000, 350.000000)">
                <polygon id="Triangle" points="42 0 84 49 0 49"></polygon>
            </g>
            <g id="Triangle-2_71" opacity="0.779939796" transform="translate(0.000000, 350.000000)">
                <polygon id="Triangle" points="42 0 84 49 0 49"></polygon>
            </g>
            <g id="Triangle-2_64" opacity="0.664954398" transform="translate(150.000000, 300.000000)">
                <polygon id="Triangle" points="42 0 84 49 0 49"></polygon>
            </g>
            <g id="Triangle-2_63" opacity="0.434200275" transform="translate(100.000000, 300.000000)">
                <polygon id="Triangle" points="42 0 84 49 0 49"></polygon>
            </g>
            <g id="Triangle-2_62" opacity="0.996751917" transform="translate(50.000000, 300.000000)">
                <polygon id="Triangle" points="42 0 84 49 0 49"></polygon>
            </g>
            <g id="Triangle-2_61" opacity="0.581106287" transform="translate(0.000000, 300.000000)">
                <polygon id="Triangle" points="42 0 84 49 0 49"></polygon>
            </g>
            <g id="Triangle-2_54" opacity="0.476787837" transform="translate(150.000000, 250.000000)">
                <polygon id="Triangle" points="42 0 84 49 0 49"></polygon>
            </g>
            <g id="Triangle-2_53" opacity="0.220207712" transform="translate(100.000000, 250.000000)">
                <polygon id="Triangle" points="42 0 84 49 0 49"></polygon>
            </g>
            <g id="Triangle-2_52" opacity="0.0733615438" transform="translate(50.000000, 250.000000)">
                <polygon id="Triangle" points="42 0 84 49 0 49"></polygon>
            </g>
            <g id="Triangle-2_51" opacity="0.0265635728" transform="translate(0.000000, 250.000000)">
                <polygon id="Triangle" points="42 0 84 49 0 49"></polygon>
            </g>
            <g id="Triangle-2_44" opacity="0.378705718" transform="translate(150.000000, 200.000000)">
                <polygon id="Triangle" points="42 0 84 49 0 49"></polygon>
            </g>
            <g id="Triangle-2_43" opacity="0.495931827" transform="translate(100.000000, 200.000000)">
                <polygon id="Triangle" points="42 0 84 49 0 49"></polygon>
            </g>
            <g id="Triangle-2_42" opacity="0.548183371" transform="translate(50.000000, 200.000000)">
                <polygon id="Triangle" points="42 0 84 49 0 49"></polygon>
            </g>
            <g id="Triangle-2_41" opacity="0.607402263" transform="translate(0.000000, 200.000000)">
                <polygon id="Triangle" points="42 0 84 49 0 49"></polygon>
            </g>
            <g id="Triangle-2_34" opacity="0.94928179" transform="translate(150.000000, 150.000000)">
                <polygon id="Triangle" points="42 0 84 49 0 49"></polygon>
            </g>
            <g id="Triangle-2_33" opacity="0.914652308" transform="translate(100.000000, 150.000000)">
                <polygon id="Triangle" points="42 0 84 49 0 49"></polygon>
            </g>
            <g id="Triangle-2_32" opacity="0.348549758" transform="translate(50.000000, 150.000000)">
                <polygon id="Triangle" points="42 0 84 49 0 49"></polygon>
            </g>
            <g id="Triangle-2_31" opacity="0.34495424" transform="translate(0.000000, 150.000000)">
                <polygon id="Triangle" points="42 0 84 49 0 49"></polygon>
            </g>
            <g id="Triangle-2_24" opacity="0.708398242" transform="translate(150.000000, 100.000000)">
                <polygon id="Triangle" points="42 0 84 49 0 49"></polygon>
            </g>
            <g id="Triangle-2_23" opacity="0.369069078" transform="translate(100.000000, 100.000000)">
                <polygon id="Triangle" points="42 0 84 49 0 49"></polygon>
            </g>
            <g id="Triangle-2_22" opacity="0.60294724" transform="translate(50.000000, 100.000000)">
                <polygon id="Triangle" points="42 0 84 49 0 49"></polygon>
            </g>
            <g id="Triangle-2_21" opacity="0.137595814" transform="translate(0.000000, 100.000000)">
                <polygon id="Triangle" points="42 0 84 49 0 49"></polygon>
            </g>
            <g id="Triangle-2_14" opacity="0.00807792881" transform="translate(150.000000, 50.000000)">
                <polygon id="Triangle" points="42 0 84 49 0 49"></polygon>
            </g>
            <g id="Triangle-2_13" opacity="0.654475896" transform="translate(100.000000, 50.000000)">
                <polygon id="Triangle" points="42 0 84 49 0 49"></polygon>
            </g>
            <g id="Triangle-2_12" opacity="0.335258618" transform="translate(50.000000, 50.000000)">
                <polygon id="Triangle" points="42 0 84 49 0 49"></polygon>
            </g>
            <g id="Triangle-2_11" opacity="0.548372524" transform="translate(0.000000, 50.000000)">
                <polygon id="Triangle" points="42 0 84 49 0 49"></polygon>
            </g>
            <g id="Triangle-2_4" opacity="0.205124052" transform="translate(150.000000, 0.000000)">
                <polygon id="Triangle" points="42 0 84 49 0 49"></polygon>
            </g>
            <g id="Triangle-2_3" opacity="0.919580125" transform="translate(100.000000, 0.000000)">
                <polygon id="Triangle" points="42 0 84 49 0 49"></polygon>
            </g>
            <g id="Triangle-2_2" opacity="0.0794254088" transform="translate(50.000000, 0.000000)">
                <polygon id="Triangle" points="42 0 84 49 0 49"></polygon>
            </g>
            <g id="Triangle-2_1" opacity="0.280121815">
                <polygon id="Triangle" points="42 0 84 49 0 49"></polygon>
            </g>
        </g>
    </g>
</svg>