<svg width="600" height="300" viewBox="0 0 600 300" fill="none" xmlns="http://www.w3.org/2000/svg">
<g clip-path="url(#clip0)">
<path fill-rule="evenodd" clip-rule="evenodd" d="M594.666 167.929C601.47 209.122 608.408 251.124 570.184 274.717C527.985 300.78 430.267 304.376 349.793 295.922C328.299 293.664 304.154 291.981 279.037 290.23C210.116 285.426 133.883 280.112 85.0652 261.011C18.4564 234.948 2.88377 183.229 0.905457 150.658C-1.07285 118.087 -5.60703 41.6961 60.9763 13.3752C97.4172 -2.12478 177.808 -0.558726 249.482 0.837539C283.973 1.50944 316.445 2.14201 341.031 0.814688C416.707 -3.20342 500.459 11.6619 542.835 39.9828C580.036 64.911 584.916 100.198 590.292 139.07C591.019 144.327 591.756 149.65 592.582 155.022C593.24 159.301 593.952 163.611 594.666 167.929ZM253.869 269.958L258.55 269.394C260.153 269.199 260.889 268.589 260.737 267.558L260.542 265.948C260.458 265.311 257.124 263.857 250.516 261.587L249.844 256.021L247.448 256.311C252.084 248.417 254.052 241.519 253.339 235.613L257.009 236.803C255.815 240.317 255.071 243.877 254.766 247.478L258.249 247.055C258.104 245.834 258.375 244.739 259.062 243.766L257.68 242.297C259.004 241.141 261.805 238.131 266.078 233.258C269.118 222.537 274.547 211.751 282.357 200.897C283.593 197.627 286.466 191.957 291.01 183.876L292.207 183.732C293.44 183.579 295.279 185.735 297.736 190.191C310.303 207.688 322.015 219.348 332.885 225.166C334.468 224.975 335.208 224.369 335.082 223.339L342.617 227.184L348.408 225.742C349.324 226.624 349.812 227.356 349.888 227.944L352.177 227.665L351.987 226.055L356.851 227.097C360.022 224.037 362.211 222.438 363.444 222.286L358.198 218.092L358.106 217.36L361.59 216.94L361.013 212.179C364.05 197.745 365.256 187.993 364.642 182.911L362.345 184.006C360.758 187.913 359.06 189.977 357.244 190.198L357.343 191.004L358.618 192.484L357.534 192.614C356.164 192.785 354.089 195.437 351.323 200.576C349.366 200.817 345.181 195.7 338.76 185.235L339.763 183.548L338.374 182.087L339.572 181.938C339.469 181.065 338.512 179.867 336.703 178.352C336.555 177.032 336.688 174.861 337.134 171.835L321.756 143.304C321.489 141.065 326.91 132.789 338.016 118.493C349.129 104.193 355.302 96.921 356.523 96.673C358.534 92.0717 362.345 87.3483 367.942 82.5105L367.85 81.7092L365.454 81.9992C365.298 80.7287 368.773 76.5738 375.866 69.5192C372.531 69.9198 369.643 72.1556 367.186 76.2152C365.878 76.3716 365.015 75.9328 364.596 74.8951L364.405 73.3575C370.891 62.4227 375.358 56.8027 377.823 56.5013C381.31 56.0816 386.308 51.4612 392.816 42.6516C395.804 41.1522 397.143 39.1339 396.838 36.5928C396.368 32.7851 390.18 30.5913 378.262 29.9999C368.979 31.1216 361.334 33.6588 355.336 37.6039C352.727 37.9206 346.127 43.6207 335.551 54.7081C324.964 65.7955 310.924 82.6097 293.409 105.132C292.173 105.284 284.974 98.4281 271.816 84.5669L269.626 85.578C264.67 79.2407 261.129 76.2037 259.027 76.4555C257.143 72.4265 254.533 70.6143 251.195 71.0187C247.982 68.2411 241.958 67.3826 233.115 68.4548C233.168 68.9431 232.798 69.2369 232.001 69.3323L229.517 68.8897C228.147 69.0576 226.252 69.8016 223.837 71.1369C222.017 71.3544 219.876 69.7596 217.396 66.3449L209.221 68.077L205.737 68.4967C205.936 70.1106 204.871 71.053 202.552 71.3315C204.124 76.4441 205.997 78.8668 208.179 78.6036L222.932 92.8691C236.266 98.4319 248.04 110.607 258.261 129.378L258.646 132.53L261.042 132.236L261.335 134.651C261.652 137.238 262.995 138.665 265.383 138.913C259.939 152.949 255.815 161.446 253.015 164.411C251.42 164.605 248.685 168.157 244.808 175.063C239.681 186.78 236.091 193.331 234.053 194.72C224.752 215.708 220.853 232.453 222.364 244.949C223.169 244.849 223.592 245.071 223.665 245.609L222.467 245.754C224.092 259.226 232.97 267.215 249.096 269.718L251.401 268.699C251.534 269.722 252.355 270.141 253.869 269.958Z" fill="#2B2E32"/>
<g filter="url(#filter0_d)">
<path d="M149.196 117.961L150.002 118.874H150.915L151.022 117.961C161.084 120.539 165.865 124.191 165.363 128.918L166.545 134.396H164.719C164.969 131.962 164.486 130.744 163.269 130.744H162.355L162.839 135.31L162.678 136.223H160.852C159.634 136.223 159.133 135.31 159.348 133.483L158.327 134.396H157.414C154.37 131.962 151.452 130.744 148.659 130.744C142.572 130.744 135.5 137.136 127.443 149.919L124.543 159.963C123.648 168.055 126.978 173.838 134.533 177.312L134.318 179.138H132.492L132.385 180.051H134.211C138.544 180.051 144.917 174.572 153.332 163.615L153.439 162.702H152.526C147.692 168.539 143.27 172.8 139.26 175.485H138.347L149.68 163.615H143.288C143.431 162.398 142.59 161.789 140.764 161.789L139.958 160.876L140.065 159.963C140.173 158.745 143.306 157.832 149.465 157.224L149.68 155.397L148.659 156.311H143.181L138.4 149.919L139.421 149.006L139.475 148.093L149.465 149.006L173.474 146.267L173.581 145.354C170.537 145.354 169.087 144.745 169.23 143.527H170.144L170.949 144.44L171.97 143.527H172.883C179.364 145.389 182.533 146.911 182.39 148.093L182.336 149.006L181.315 149.919L181.208 150.832H184.86L184.646 152.658H183.732L168.962 154.484L168.854 155.397H169.768L178.093 154.484L177.878 156.311C171.791 156.311 168.479 158.745 167.941 163.615L163.591 178.225L164.45 179.138L164.343 180.051L162.893 184.616L163.054 191.921L161.066 193.747L161.818 194.66C159.312 195.448 157.951 196.97 157.736 199.226H154.997C153.78 199.226 153.457 196.486 154.03 191.008H153.117L152.419 197.399H149.68L150.163 192.834L149.948 186.442H148.122C144.649 188.877 141.158 190.095 137.648 190.095H133.083L131.525 188.269L131.579 187.355H133.405L133.513 186.442C120.873 186.442 114.034 182.181 112.995 173.659C112.279 169.72 111.921 165.782 111.921 161.843C111.921 159.408 112.064 156.955 112.351 154.484L112.512 152.658C113.049 148.003 115.233 141.916 119.064 134.396H119.978L119.763 136.223L116.325 142.614L116.271 143.527H117.185C117.793 137.977 123.719 130.977 134.963 122.526H135.876L135.983 121.613H135.07L132.224 122.526C134.014 119.483 139.672 117.961 149.196 117.961ZM130.344 123.439H131.257L124.167 129.831L124.274 128.918L130.344 123.439ZM143.771 125.266L143.718 126.179H150.109L150.163 125.266H143.771ZM124.167 129.831L124.006 130.744L119.978 134.396L120.085 133.483L124.167 129.831ZM164.558 144.44H168.21L166.169 146.267L164.558 144.44ZM137.434 175.485H138.347L136.359 177.312H135.446L137.434 175.485ZM141.892 184.616L149.626 180.964L149.841 179.138H148.928L141.892 184.616ZM135.231 187.355L135.178 188.269H139.743L139.797 187.355H135.231ZM226.862 116.457L231.267 119.519C229.978 124.925 227.65 127.521 224.284 127.307L200.437 128.381L200.329 130.207L204.841 130.529L210.373 129.992L211.232 131.013L212.146 131.066L218.591 130.529L220.417 130.69L220.363 131.604L199.147 133.806L197.482 145.622L198.396 145.676L223.21 143.688L224.016 144.655L223.962 145.568L222.136 145.407V146.32L228.42 147.717L228.366 148.63C227.041 152.032 218.304 154.789 202.155 156.901L192.971 157.224L193.83 158.137L189.426 169.738H188.513L189.05 161.521L188.137 161.467L186.364 174.143C204.59 171.708 217.463 170.741 224.982 171.242L229.44 172.478L229.387 174.304L227.561 174.196L228.366 175.163L228.205 177.902C226.451 180.194 222.727 181.161 217.033 180.803L216.979 181.716L224.284 182.199L224.123 184.025L181.638 190.256L180.725 190.202C177.788 189.558 176.32 188.609 176.32 187.355V187.194L176.481 184.455L179.006 174.572L178.146 173.605L179.973 173.659L179.65 178.225L180.563 178.332C180.922 175.288 181.638 173.82 182.712 173.928L181.853 172.907L182.497 163.83L180.671 163.669L179.436 168.181L180.456 167.321L181.369 167.375L180.993 172.854L180.08 172.746L180.241 170.061L179.328 170.007L179.221 171.833L178.308 171.779L178.415 169.953L181.315 154.538L180.402 154.484L182.497 150.08L181.638 149.113L181.691 148.2L183.679 132.785L184.538 133.752L185.451 133.806L185.559 131.979L184.968 127.36L186.418 119.196L186.579 116.457L187.492 116.564L188.352 117.531L189.318 116.672L190.231 116.779L191.091 117.692L192.058 116.833L194.797 117.048L226.862 116.457ZM181.154 156.364L180.725 162.756L181.638 162.81L182.067 156.472L181.154 156.364ZM211.286 157.546H212.199L212.092 158.459L195.549 160.124L194.689 159.104L194.743 158.244L203.015 157.868L202.961 158.781L211.286 157.546ZM287.287 114.792L290.026 115.705V117.531H287.287L289.113 120.271C287.788 123.314 282.919 124.836 274.504 124.836L268.112 125.749L267.199 128.488H268.112C266.286 132.821 262.634 152.3 257.155 186.926L259.895 198.796H258.981C257.621 198.796 256.403 195.752 255.329 189.665L256.242 180.534V179.621H255.329V181.447C253.503 181.447 252.59 182.056 252.59 183.273V184.187L254.416 198.796V199.709H252.59L248.938 196.97L248.024 197.883H247.111C244.676 192.619 243.459 188.054 243.459 184.187L244.372 185.1H245.285L243.459 178.708L246.198 177.795V173.229H244.372V172.316C246.198 172.316 247.111 171.708 247.111 170.49V169.577H245.285C245.285 164.707 246.198 162.272 248.024 162.272V150.402C248.991 149.543 250.209 143.151 251.677 131.228L245.285 132.141L232.502 131.228V130.314L237.067 129.401V130.314L237.98 129.401H251.677V126.662L237.067 128.488L236.154 127.575H235.241L229.763 128.488L227.023 126.662L227.937 122.097L227.023 121.184C227.023 118.14 230.676 116.618 237.98 116.618L287.287 114.792ZM281.809 117.531V118.444H285.461V117.531H281.809ZM248.024 168.664L246.198 188.752H248.024L247.111 184.187V182.36L248.938 179.621H248.024L248.938 178.708V177.795L248.024 176.882V175.969L249.851 172.316L248.938 168.664H248.024ZM327.033 115.007C333.729 118.444 337.077 123.314 337.077 129.616L342.556 137.834L345.295 135.095H346.208L342.556 140.573L343.469 141.486H344.382C357.989 125.66 366.815 117.746 370.861 117.746C373.081 117.746 374.908 119.268 376.34 122.312C378.166 122.312 379.079 122.92 379.079 124.138C379.079 126.429 373.905 131.604 363.557 139.66L350.773 153.356V155.183C356.252 164.206 360.817 174.25 364.47 185.314L363.557 188.054H364.47L359.904 194.445H357.165V192.619L354.426 194.445L342.556 166.14H341.643C335.734 173.337 329.647 183.685 323.381 197.185H321.555V195.358L322.468 194.445L321.555 193.532V192.619C324.598 185.207 330.077 175.163 337.99 162.487H338.903V159.748C326.729 176.577 320.642 187.23 320.642 191.706L316.989 193.532C315.02 193.532 312.889 191.402 310.598 187.141C310.598 183.703 317.902 170.92 332.512 148.791C326.926 138.371 323.578 130.458 322.468 125.051H323.381L319.729 115.92H320.642L321.555 116.833L327.033 115.007ZM366.296 115.92H367.209L353.513 128.703H352.6V127.79L366.296 115.92ZM351.687 128.703H352.6L346.208 135.095V134.182L351.687 128.703ZM353.513 142.399L351.687 145.139H352.6L354.426 142.399H353.513ZM312.424 187.141L332.512 155.183C333.729 155.183 334.338 153.965 334.338 151.53H333.425C322.647 165.638 315.646 177.508 312.424 187.141ZM354.426 187.141V188.054L355.339 191.706H356.252V188.054L355.339 187.141H354.426ZM386.438 115.92H387.351V118.659H388.264V116.833H391.916C393.133 116.833 393.742 118.659 393.742 122.312L396.481 123.225C396.481 121.398 397.09 120.485 398.308 120.485L399.221 121.398V122.312L394.655 146.965L408.352 146.052H417.482L418.396 141.486L417.482 140.573H419.309L418.396 134.182V133.269H420.222L419.309 132.355V130.529H421.135V128.703H419.309V127.79H421.135L420.222 126.877V120.485L421.135 121.398H422.048V117.746L421.135 116.833V115.92H423.874L419.309 146.965C420.526 146.965 422.352 136.921 424.787 116.833L428.439 115.92C429.048 120.79 429.961 123.225 431.179 123.225H432.092C432.092 121.398 432.701 120.485 433.918 120.485H434.831C431.787 141.54 427.222 166.193 421.135 194.445H420.222L419.309 193.532L420.222 192.619V185.314H419.309L416.569 194.445H413.83C412.613 194.445 412.004 192.619 412.004 188.967H411.091V192.619H410.178C408.96 192.619 408.352 191.706 408.352 189.88C408.352 185.476 410.178 175.127 413.83 158.835H412.917L401.047 159.748L392.829 158.835C391.003 173.444 389.177 183.184 387.351 188.054H384.611C383.394 188.054 382.785 185.619 382.785 180.749H381.872L380.959 187.141L379.133 185.314V182.575L380.046 181.662V180.749L379.133 179.836H378.22L377.307 180.749H376.394L375.48 177.097C377.915 156.543 380.655 141.63 383.698 132.355H384.611L383.698 131.442V128.703L386.438 118.659H385.524L386.438 115.92ZM387.351 119.572V125.964H388.264V119.572H387.351ZM386.438 126.877L385.524 134.182V136.008H386.438L387.351 128.703V126.877H386.438ZM384.611 136.921V140.573H385.524V136.921H384.611ZM383.698 141.486L382.785 146.052V146.965H383.698L384.611 143.312V141.486H383.698ZM381.872 150.617V154.27H382.785V150.617H381.872ZM416.569 159.748L415.656 165.227V166.14H416.569L417.482 161.574V159.748H416.569ZM414.743 167.053V170.705H415.656V167.053H414.743ZM421.135 177.097L420.222 181.662V184.401H421.135L422.048 178.01V177.097H421.135ZM376.394 181.662H377.307V186.228H376.394V181.662ZM434.133 116.296C441.438 116.296 445.09 118.731 445.09 123.601H446.003V120.861H447.829C450.264 127.987 452.395 137.727 454.221 150.08H453.308L454.221 150.993V159.211H456.047L455.134 160.124V164.689H456.047C458.446 158.638 463.316 150.42 470.656 140.036L471.569 140.949L473.396 138.21H472.482L470.656 140.036V139.123L480.7 128.166H482.526L486.179 131.818L481.613 137.297H484.353C484.353 135.399 486.179 133.269 489.831 130.905V133.645C487.396 133.931 486.179 134.844 486.179 136.384H488.005C488.005 134.558 488.918 133.645 490.744 133.645V136.384C487.629 138.21 483.063 143.688 477.048 152.819L457.873 187.517H456.047L455.134 186.604C453.308 186.604 452.395 187.821 452.395 190.256H450.568C446.307 190.256 444.177 188.125 444.177 183.864L445.09 181.125L443.264 182.951V185.69L444.177 186.604V187.517L443.264 188.43H441.438L440.524 183.864L441.438 181.125H440.524L441.438 180.212V174.733C440.686 141.254 438.555 124.514 435.046 124.514L435.959 121.774L434.133 116.296ZM477.961 127.253V128.166L474.309 131.818H473.396C474.828 129.169 476.35 127.647 477.961 127.253ZM471.569 133.645V134.558L463.352 145.515V144.602C464.748 141.164 467.487 137.512 471.569 133.645ZM478.874 139.123L476.135 143.688H477.048L479.787 140.036V139.123H478.874ZM442.351 143.688V148.254H443.264V143.688H442.351ZM460.612 148.254H461.525V150.993L460.612 151.906H459.699V150.993L460.612 148.254ZM443.264 150.993V161.037H444.177V150.993H443.264ZM459.699 151.906V152.819L456.96 156.472V155.559L459.699 151.906ZM461.525 170.168V171.081L464.265 168.342V167.429L461.525 170.168ZM456.96 177.473L457.873 178.386H458.786L460.612 172.907C459.359 173.194 458.142 174.715 456.96 177.473Z" fill="white"/>
</g>
<path d="M5.48804 234L0 239.488V241.232L7.23303 234H5.48804Z" fill="#6A7FC8"/>
<path d="M15.424 234L0 249.422V251.166L17.168 234H15.424Z" fill="#6A7FC8"/>
<path d="M25.355 234L0 259.354V261.098L27.1 234H25.355Z" fill="#6A7FC8"/>
<path d="M35.286 234L0 269.289V271.034L37.0291 234H35.286Z" fill="#6A7FC8"/>
<path d="M45.223 234L0 279.222V280.966L46.968 234H45.223Z" fill="#6A7FC8"/>
<path d="M55.1591 234L0 289.156V290.899L56.905 234H55.1591Z" fill="#6A7FC8"/>
<path d="M65.9641 234H65.091L0 299.089V299.965H0.870056L65.9641 234.871V234Z" fill="#6A7FC8"/>
<path d="M65.9636 243.061L9.05762 299.965H10.8006L65.9636 244.805V243.061Z" fill="#6A7FC8"/>
<path d="M65.9642 252.993L18.9941 299.965H20.7391L65.9642 254.737V252.993Z" fill="#6A7FC8"/>
<path d="M65.9637 262.927L28.9277 299.965H30.6707L65.9637 264.672V262.927Z" fill="#6A7FC8"/>
<path d="M65.9644 272.863L38.8594 299.965H40.6034L65.9644 274.605V272.863Z" fill="#6A7FC8"/>
<path d="M65.964 282.794L48.792 299.965H50.535L65.964 284.539V282.794Z" fill="#6A7FC8"/>
<path d="M65.9636 292.729L58.7285 299.965H60.4735L65.9636 294.474V292.729Z" fill="#6A7FC8"/>
<path d="M539.488 0L534 5.48799V7.23199L541.233 0H539.488Z" fill="#6A7FC8"/>
<path d="M549.424 0L534 15.422V17.166L551.168 0H549.424Z" fill="#6A7FC8"/>
<path d="M559.355 0L534 25.354V27.098L561.1 0H559.355Z" fill="#6A7FC8"/>
<path d="M569.286 0L534 35.289V37.034L571.029 0H569.286Z" fill="#6A7FC8"/>
<path d="M579.223 0L534 45.222V46.966L580.968 0H579.223Z" fill="#6A7FC8"/>
<path d="M589.159 0L534 55.156V56.899L590.905 0H589.159Z" fill="#6A7FC8"/>
<path d="M599.964 0H599.091L534 65.089V65.965H534.87L599.964 0.871002V0Z" fill="#6A7FC8"/>
<path d="M599.965 9.06104L543.059 65.9651H544.802L599.965 10.8051V9.06104Z" fill="#6A7FC8"/>
<path d="M599.964 18.9929L552.994 65.9649H554.739L599.964 20.7369V18.9929Z" fill="#6A7FC8"/>
<path d="M599.964 28.927L562.928 65.965H564.671L599.964 30.672V28.927Z" fill="#6A7FC8"/>
<path d="M599.964 38.863L572.859 65.9651H574.603L599.964 40.605V38.863Z" fill="#6A7FC8"/>
<path d="M599.965 48.7939L582.793 65.965H584.536L599.965 50.5389V48.7939Z" fill="#6A7FC8"/>
<path d="M599.964 58.729L592.729 65.965H594.474L599.964 60.474V58.729Z" fill="#6A7FC8"/>
</g>
<defs>
<filter id="filter0_d" x="107.921" y="114.792" width="386.823" height="92.917" filterUnits="userSpaceOnUse" color-interpolation-filters="sRGB">
<feFlood flood-opacity="0" result="BackgroundImageFix"/>
<feColorMatrix in="SourceAlpha" type="matrix" values="0 0 0 0 0 0 0 0 0 0 0 0 0 0 0 0 0 0 127 0"/>
<feOffset dy="4"/>
<feGaussianBlur stdDeviation="2"/>
<feColorMatrix type="matrix" values="0 0 0 0 0 0 0 0 0 0 0 0 0 0 0 0 0 0 0.15 0"/>
<feBlend mode="normal" in2="BackgroundImageFix" result="effect1_dropShadow"/>
<feBlend mode="normal" in="SourceGraphic" in2="effect1_dropShadow" result="shape"/>
</filter>
<clipPath id="clip0">
<rect width="600" height="300" fill="white"/>
</clipPath>
</defs>
</svg>
