<svg width="600" height="300" viewBox="0 0 600 300" fill="none" xmlns="http://www.w3.org/2000/svg">
<g clip-path="url(#clip0)">
<path fill-rule="evenodd" clip-rule="evenodd" d="M594.665 167.929C601.469 209.122 608.407 251.124 570.183 274.717C527.984 300.78 430.266 304.376 349.792 295.922C328.298 293.664 304.153 291.981 279.036 290.23C210.115 285.426 133.883 280.112 85.0643 261.011C18.4555 234.948 2.88279 183.229 0.904481 150.658C-1.07383 118.087 -5.60801 41.6961 60.9753 13.3752C97.4163 -2.12478 177.807 -0.558726 249.481 0.837539C283.972 1.50944 316.444 2.14202 341.03 0.814688C416.706 -3.20342 500.458 11.6619 542.834 39.9828C580.035 64.911 584.915 100.198 590.291 139.07C591.018 144.327 591.755 149.65 592.581 155.022C593.239 159.301 593.951 163.611 594.665 167.929ZM253.868 269.958L258.549 269.394C260.152 269.199 260.888 268.589 260.736 267.558L260.541 265.948C260.457 265.311 257.123 263.857 250.515 261.587L249.843 256.021L247.447 256.311C252.083 248.417 254.051 241.519 253.338 235.613L257.008 236.803C255.814 240.317 255.07 243.877 254.765 247.478L258.248 247.055C258.103 245.834 258.374 244.739 259.061 243.766L257.68 242.297C259.003 241.141 261.804 238.131 266.077 233.258C269.117 222.537 274.546 211.751 282.356 200.897C283.592 197.627 286.465 191.957 291.009 183.876L292.206 183.732C293.439 183.579 295.278 185.735 297.735 190.191C310.302 207.688 322.014 219.348 332.884 225.166C334.467 224.975 335.207 224.369 335.081 223.339L342.616 227.184L348.407 225.742C349.323 226.624 349.811 227.356 349.888 227.944L352.176 227.665L351.986 226.055L356.85 227.097C360.021 224.037 362.21 222.438 363.443 222.286L358.197 218.092L358.105 217.36L361.589 216.94L361.012 212.179C364.049 197.745 365.255 187.993 364.641 182.911L362.344 184.006C360.757 187.913 359.059 189.977 357.243 190.198L357.342 191.004L358.617 192.484L357.533 192.614C356.164 192.785 354.088 195.437 351.322 200.576C349.365 200.817 345.18 195.7 338.759 185.235L339.762 183.548L338.373 182.087L339.571 181.938C339.468 181.065 338.511 179.867 336.702 178.352C336.554 177.032 336.687 174.861 337.133 171.835L321.755 143.304C321.488 141.065 326.909 132.789 338.015 118.493C349.128 104.193 355.301 96.921 356.522 96.673C358.533 92.0717 362.344 87.3484 367.941 82.5105L367.849 81.7093L365.453 81.9992C365.297 80.7287 368.772 76.5738 375.865 69.5192C372.53 69.9198 369.642 72.1557 367.185 76.2152C365.877 76.3716 365.014 75.9328 364.595 74.8951L364.404 73.3575C370.89 62.4227 375.357 56.8027 377.822 56.5013C381.309 56.0816 386.307 51.4612 392.815 42.6516C395.803 41.1522 397.142 39.1339 396.837 36.5928C396.367 32.7851 390.179 30.5913 378.261 29.9999C368.978 31.1217 361.333 33.6588 355.335 37.6039C352.726 37.9206 346.126 43.6207 335.55 54.7081C324.963 65.7955 310.923 82.6097 293.408 105.132C292.172 105.284 284.973 98.4281 271.815 84.5669L269.625 85.578C264.669 79.2407 261.128 76.2037 259.026 76.4555C257.142 72.4265 254.532 70.6143 251.194 71.0187C247.981 68.2411 241.957 67.3826 233.114 68.4548C233.167 68.9431 232.797 69.2369 232 69.3323L229.516 68.8897C228.146 69.0576 226.251 69.8016 223.836 71.137C222.016 71.3544 219.875 69.7596 217.395 66.3449L209.22 68.077L205.736 68.4967C205.935 70.1106 204.87 71.053 202.551 71.3315C204.123 76.4441 205.996 78.8668 208.178 78.6036L222.931 92.8691C236.265 98.4319 248.039 110.607 258.26 129.378L258.645 132.53L261.041 132.236L261.334 134.651C261.651 137.238 262.994 138.665 265.382 138.913C259.938 152.949 255.814 161.446 253.014 164.411C251.419 164.605 248.684 168.157 244.807 175.063C239.68 186.78 236.09 193.331 234.052 194.72C224.751 215.708 220.852 232.453 222.363 244.949C223.168 244.849 223.591 245.071 223.664 245.609L222.466 245.754C224.091 259.226 232.969 267.215 249.095 269.718L251.4 268.699C251.533 269.722 252.354 270.141 253.868 269.958Z" fill="#2B2E32"/>
<g filter="url(#filter0_d)">
<path d="M159.294 113.718L163.698 115.114L163.591 116.027L159.079 115.544L159.294 113.718ZM141.838 113.61L144.362 115.759L152.741 114.846L153.547 115.866L154.46 115.974L157.253 115.383C167.494 116.457 174.888 121.542 179.436 130.637C180.653 130.78 181.101 132.355 180.778 135.363L180.08 141.755L178.254 141.54L178.361 140.627L179.597 137.995L178.791 136.975L179.758 136.169L178.952 135.148L177.18 134.987C176.786 138.461 173.312 142.059 166.76 145.783L166.652 146.696L167.565 146.75C169.857 147.036 173.062 145.873 177.18 143.259L177.019 145.085L171.809 150.026C175.174 150.384 180.098 155.809 186.579 166.301C185.863 172.961 175.926 179.836 156.77 186.926C148.57 190.9 142.25 192.655 137.81 192.189L136.198 190.095L135.285 190.041C135.106 191.867 133.799 192.637 131.364 192.351C131.149 194.034 130.541 194.875 129.538 194.875H129.216C127.998 194.732 127.64 192.548 128.142 188.322L127.229 188.269L125.832 192.673L124.919 192.565C125.563 186.55 124.973 183.452 123.146 183.273L122.663 179.514L123.684 178.708L122.824 177.688L131.687 139.123L130.881 138.156L131.794 138.264L130.988 137.297L133.405 123.762L133.459 122.849L132.331 116.296L133.244 116.35C136.646 114.488 139.313 113.557 141.247 113.557C141.462 113.557 141.659 113.575 141.838 113.61ZM163.537 125.212L163.43 126.125L170.627 127.844C170.734 126.626 169.893 125.928 168.103 125.749L163.537 125.212ZM145.974 134.289L146.242 140.734L154.567 139.821L154.406 141.647L167.888 135.793L167.78 136.706L160.852 141.433C168.407 139.356 172.471 135.829 173.044 130.852L171.218 130.637C170.86 133.645 169.785 135.059 167.995 134.88L168.156 133.054L167.243 133L168.479 130.314L169.284 131.335L170.197 131.496L170.305 130.583C168.085 128.47 164.54 127.163 159.67 126.662C151.219 125.695 146.654 128.238 145.974 134.289ZM167.243 133L167.189 133.913L165.148 135.471L164.235 135.417L167.243 133ZM163.054 154.592L163 155.451L171.916 157.385L172.829 157.438L172.937 156.525L169.392 155.236L163.054 154.592ZM142.536 157.814L139.797 174.035L140.603 175.056L141.516 175.163C145.884 175.664 155.785 171.851 171.218 163.723L173.259 162.111C173.151 159.641 170.86 158.173 166.384 157.707L159.133 156.848L142.536 157.814ZM175.192 161.359L172.99 164.851L176.911 162.541L176.105 161.521L175.192 161.359ZM181.154 165.71C180.939 167.608 174.924 172.155 163.107 179.353C176.571 173.981 183.446 169.846 183.732 166.945L182.819 166.838L182.067 165.817L181.154 165.71ZM207.258 116.779C207.115 118.605 208.26 119.519 210.695 119.519L212.36 123.171L211.394 124.084H212.307C207.938 136.975 205.271 151.888 204.304 168.825L203.981 174.304L204.895 175.217L204.841 176.13L203.874 177.043H204.787L203.82 177.956L204.357 184.348L204.25 186.174C200.992 190.113 199.291 193.156 199.147 195.305H195.495L191.091 193.479L192.38 187.087L188.889 183.435L190.554 169.738L191.467 153.303L193.454 150.563L193.669 146.911L192.81 145.998L192.863 145.085H194.689L194.743 144.172L193.884 143.259L197.59 125.91H196.677L197.644 124.997L197.912 119.519L197.053 118.605L197.106 117.692L207.258 116.779ZM197.16 133.215L196.838 139.606H197.751L198.073 133.215H197.16ZM195.764 142.346L195.441 147.824H196.354L196.677 142.346H195.764ZM194.367 150.563L194.099 156.042H195.012L195.28 150.563H194.367ZM194.206 187.087L193.938 191.652L195.817 189.826L196.032 187.087H194.206ZM268.22 114.792L270.959 115.705V117.531H268.22L270.046 120.271C268.721 123.314 263.851 124.836 255.437 124.836L249.045 125.749L248.132 128.488H249.045C247.219 132.821 243.566 152.3 238.088 186.926L240.827 198.796H239.914C238.553 198.796 237.336 195.752 236.262 189.665L237.175 180.534V179.621H236.262V181.447C234.436 181.447 233.522 182.056 233.522 183.273V184.187L235.349 198.796V199.709H233.522L229.87 196.97L228.957 197.883H228.044C225.609 192.619 224.392 188.054 224.392 184.187L225.305 185.1H226.218L224.392 178.708L227.131 177.795V173.229H225.305V172.316C227.131 172.316 228.044 171.708 228.044 170.49V169.577H226.218C226.218 164.707 227.131 162.272 228.957 162.272V150.402C229.924 149.543 231.141 143.151 232.609 131.228L226.218 132.141L213.435 131.228V130.314L218 129.401V130.314L218.913 129.401H232.609V126.662L218 128.488L217.087 127.575H216.174L210.695 128.488L207.956 126.662L208.869 122.097L207.956 121.184C207.956 118.14 211.608 116.618 218.913 116.618L268.22 114.792ZM262.741 117.531V118.444H266.394V117.531H262.741ZM228.957 168.664L227.131 188.752H228.957L228.044 184.187V182.36L229.87 179.621H228.957L229.87 178.708V177.795L228.957 176.882V175.969L230.783 172.316L229.87 168.664H228.957ZM294.699 117.692H295.612C304.457 117.692 311.153 121.345 315.7 128.649V129.562H313.874L314.787 130.476V131.389C311.135 130.959 309.309 130.35 309.309 129.562C295.093 129.562 284.44 136.867 277.351 151.477L275.524 157.868L278.264 175.217H281.003C288.594 175.217 297.116 169.738 306.569 158.781H307.482V159.694C301.001 169.04 293.697 174.519 285.568 176.13V177.043H286.481C292.855 177.043 300.769 171.564 310.222 160.607L312.961 164.26V166.999C312.961 168.968 308.396 173.534 299.265 180.695L298.352 181.608H297.438V183.435C307.787 178.386 312.961 174.733 312.961 172.478H314.787V173.391C307.124 182.521 298.298 187.087 288.308 187.087V188H292.873L296.525 187.087H297.438V188L286.481 189.772C281.862 189.772 276.993 186.442 271.872 179.782V180.695L276.438 188V188.859H273.698C268.041 184.992 264.693 180.14 263.654 174.304L262.741 162.434C262.741 147.18 265.785 137.44 271.872 133.215V134.128L266.394 143.259V144.172H267.307C267.307 138.371 274.916 130.153 290.134 119.519L287.395 120.432H286.481V119.519L294.699 117.692ZM284.655 121.345H285.568V122.258L279.177 124.997C279.177 123.78 281.003 122.562 284.655 121.345ZM276.438 127.736V128.649L271.872 133.215V132.302L276.438 127.736ZM265.48 171.564V174.304L266.394 177.956H267.307V177.043L266.394 171.564H265.48ZM357.81 116.188C364.971 116.188 371.667 118.319 377.897 122.58L376.984 123.493V124.406L380.637 129.885H378.811L377.897 128.972H376.984L379.724 149.06H380.637C380.637 146.016 381.245 144.494 382.463 144.494V148.146C382.463 151.584 379.419 159.497 373.332 171.887H374.245C369.948 177.795 363.557 183.273 355.07 188.322L350.505 189.235H349.592C335.126 189.235 325.995 183.452 322.199 171.887L318.547 166.408L319.46 165.495L318.547 159.104V157.277C318.547 152.229 323.417 143.402 333.156 130.798V131.711C328.68 137.727 325.028 144.423 322.199 151.799V152.712H323.112C325.332 143.796 333.55 132.535 347.766 118.928L341.374 122.58H340.461C340.461 119.787 346.244 117.657 357.81 116.188ZM353.244 131.711L352.331 130.798V131.711L353.244 132.624L346.853 138.103C341.804 138.103 336.934 146.625 332.243 163.669C332.243 168.539 334.982 172.8 340.461 176.452H341.374C348.034 176.452 355.643 169.452 364.201 155.451C367.245 148.791 368.767 143.921 368.767 140.842V133.537C368.767 131.854 365.723 130.637 359.636 129.885H358.723L357.81 130.798H356.896V129.885L353.244 131.711ZM379.724 134.45H381.55V139.016H379.724V134.45ZM333.156 144.494L330.417 149.973H331.33L334.069 144.494H333.156ZM368.767 149.973L365.114 159.104H367.854L370.593 152.712L369.68 149.973H368.767ZM375.158 153.625L374.245 156.364V158.19H375.158L376.071 154.538V153.625H375.158ZM321.286 157.277V164.582H322.199V157.277H321.286ZM364.201 160.017L360.549 164.582H361.462L365.114 160.017H364.201ZM334.982 180.104V181.018L339.548 183.757V182.844L334.982 180.104ZM404.699 116.779C404.556 118.605 405.702 119.519 408.137 119.519L409.802 123.171L408.835 124.084H409.748C405.38 136.975 402.712 151.888 401.745 168.825L401.423 174.304L402.336 175.217L402.282 176.13L401.315 177.043H402.229L401.262 177.956L401.799 184.348L401.691 186.174C398.433 190.113 396.732 193.156 396.589 195.305H392.937L388.532 193.479L389.821 187.087L386.33 183.435L387.995 169.738L388.908 153.303L390.896 150.563L391.11 146.911L390.251 145.998L390.305 145.085H392.131L392.185 144.172L391.325 143.259L395.031 125.91H394.118L395.085 124.997L395.354 119.519L394.494 118.605L394.548 117.692L404.699 116.779ZM394.602 133.215L394.279 139.606H395.192L395.515 133.215H394.602ZM393.205 142.346L392.883 147.824H393.796L394.118 142.346H393.205ZM391.809 150.563L391.54 156.042H392.453L392.722 150.563H391.809ZM391.647 187.087L391.379 191.652L393.259 189.826L393.474 187.087H391.647ZM428.493 116.887L434.885 122.365C434.885 120.539 435.493 119.626 436.711 119.626H437.624L450.407 152.497V154.323H449.494L447.668 148.845H446.755V150.671L453.146 166.193H454.06C456.494 150.367 460.004 133.841 464.587 116.618L467.326 118.444L470.065 117.531L475.544 120.271V121.184C473.718 121.184 472.805 122.401 472.805 124.836H473.718L474.631 125.749H475.544L476.457 121.184H478.283V122.097L477.37 123.01L478.283 123.923V124.836C473.7 138.908 469.582 159.086 465.93 185.368H464.104L465.93 170.759C464.712 170.759 462.886 176.542 460.451 188.107C458.195 189.934 456.065 190.847 454.06 190.847V192.673H453.146C453.146 191.455 451.929 190.847 449.494 190.847V184.455C449.494 181.698 443.407 166.48 431.232 138.801H430.319C427.884 149.65 425.754 164.26 423.928 182.629L423.015 181.716C419.362 182.79 417.536 184.312 417.536 186.281H415.71C414.493 183.99 413.884 180.033 413.884 174.411H412.971V182.629H411.145L410.231 178.063C410.231 161.521 413.884 141.433 421.188 117.8L428.493 116.887ZM415.71 139.714V140.627L416.623 141.54L415.71 142.453V144.279H416.623L417.536 140.627L416.623 139.714H415.71ZM450.407 154.323C451.983 154.323 453.2 156.758 454.06 161.628V162.541H453.146L450.407 154.323Z" fill="white"/>
</g>
<path d="M0.910004 260.276L0 258.9L11.734 251.137L0 243.376L0.910004 242L14.724 251.137L0.910004 260.276Z" fill="#F7931A"/>
<path d="M16.3241 260.276L15.4141 258.9L27.149 251.137L15.4141 243.376L16.3241 242L30.14 251.137L16.3241 260.276Z" fill="#F7931A"/>
<path d="M31.7391 260.276L30.8281 258.9L42.5631 251.137L30.8281 243.376L31.7391 242L45.5541 251.137L31.7391 260.276Z" fill="#F7931A"/>
<path d="M46.91 260.276L46 258.9L57.734 251.137L46 243.376L46.91 242L60.724 251.137L46.91 260.276Z" fill="#F7931A"/>
<path d="M62.3241 260.276L61.4141 258.9L73.149 251.137L61.4141 243.376L62.3241 242L76.14 251.137L62.3241 260.276Z" fill="#F7931A"/>
<path d="M77.7391 260.276L76.8281 258.9L88.5631 251.137L76.8281 243.376L77.7391 242L91.5541 251.137L77.7391 260.276Z" fill="#F7931A"/>
<path d="M0.910004 280.276L0 278.9L11.734 271.137L0 263.376L0.910004 262L14.724 271.137L0.910004 280.276Z" fill="#F7931A"/>
<path d="M16.3241 280.276L15.4141 278.9L27.149 271.137L15.4141 263.376L16.3241 262L30.14 271.137L16.3241 280.276Z" fill="#F7931A"/>
<path d="M31.7391 280.276L30.8281 278.9L42.5631 271.137L30.8281 263.376L31.7391 262L45.5541 271.137L31.7391 280.276Z" fill="#F7931A"/>
<path d="M46.91 280.276L46 278.9L57.734 271.137L46 263.376L46.91 262L60.724 271.137L46.91 280.276Z" fill="#F7931A"/>
<path d="M62.3241 280.276L61.4141 278.9L73.149 271.137L61.4141 263.376L62.3241 262L76.14 271.137L62.3241 280.276Z" fill="#F7931A"/>
<path d="M77.7391 280.276L76.8281 278.9L88.5631 271.137L76.8281 263.376L77.7391 262L91.5541 271.137L77.7391 280.276Z" fill="#F7931A"/>
<path d="M0.910004 300.276L0 298.9L11.734 291.137L0 283.376L0.910004 282L14.724 291.137L0.910004 300.276Z" fill="#F7931A"/>
<path d="M16.3241 300.276L15.4141 298.9L27.149 291.137L15.4141 283.376L16.3241 282L30.14 291.137L16.3241 300.276Z" fill="#F7931A"/>
<path d="M31.7391 300.276L30.8281 298.9L42.5631 291.137L30.8281 283.376L31.7391 282L45.5541 291.137L31.7391 300.276Z" fill="#F7931A"/>
<path d="M46.91 300.276L46 298.9L57.734 291.137L46 283.376L46.91 282L60.724 291.137L46.91 300.276Z" fill="#F7931A"/>
<path d="M62.3241 300.276L61.4141 298.9L73.149 291.137L61.4141 283.376L62.3241 282L76.14 291.137L62.3241 300.276Z" fill="#F7931A"/>
<path d="M77.7391 300.276L76.8281 298.9L88.5631 291.137L76.8281 283.376L77.7391 282L91.5541 291.137L77.7391 300.276Z" fill="#F7931A"/>
<path d="M598.645 40L599.555 41.376L587.821 49.139L599.555 56.9L598.645 58.276L584.831 49.139L598.645 40Z" fill="#F7931A"/>
<path d="M583.231 40L584.141 41.376L572.406 49.139L584.141 56.9L583.231 58.276L569.415 49.139L583.231 40Z" fill="#F7931A"/>
<path d="M567.816 40L568.727 41.376L556.992 49.139L568.727 56.9L567.816 58.276L554.001 49.139L567.816 40Z" fill="#F7931A"/>
<path d="M552.645 40L553.555 41.376L541.821 49.139L553.555 56.9L552.645 58.276L538.831 49.139L552.645 40Z" fill="#F7931A"/>
<path d="M537.231 40L538.141 41.376L526.406 49.139L538.141 56.9L537.231 58.276L523.415 49.139L537.231 40Z" fill="#F7931A"/>
<path d="M521.816 40L522.727 41.376L510.992 49.139L522.727 56.9L521.816 58.276L508.001 49.139L521.816 40Z" fill="#F7931A"/>
<path d="M598.645 20L599.555 21.376L587.821 29.139L599.555 36.9L598.645 38.276L584.831 29.139L598.645 20Z" fill="#F7931A"/>
<path d="M583.231 20L584.141 21.376L572.406 29.139L584.141 36.9L583.231 38.276L569.415 29.139L583.231 20Z" fill="#F7931A"/>
<path d="M567.816 20L568.727 21.376L556.992 29.139L568.727 36.9L567.816 38.276L554.001 29.139L567.816 20Z" fill="#F7931A"/>
<path d="M552.645 20L553.555 21.376L541.821 29.139L553.555 36.9L552.645 38.276L538.831 29.139L552.645 20Z" fill="#F7931A"/>
<path d="M537.231 20L538.141 21.376L526.406 29.139L538.141 36.9L537.231 38.276L523.415 29.139L537.231 20Z" fill="#F7931A"/>
<path d="M521.816 20L522.727 21.376L510.992 29.139L522.727 36.9L521.816 38.276L508.001 29.139L521.816 20Z" fill="#F7931A"/>
<path d="M598.645 0L599.555 1.37599L587.821 9.13899L599.555 16.9L598.645 18.276L584.831 9.13899L598.645 0Z" fill="#F7931A"/>
<path d="M583.231 0L584.141 1.37599L572.406 9.13899L584.141 16.9L583.231 18.276L569.415 9.13899L583.231 0Z" fill="#F7931A"/>
<path d="M567.816 0L568.727 1.37599L556.992 9.13899L568.727 16.9L567.816 18.276L554.001 9.13899L567.816 0Z" fill="#F7931A"/>
<path d="M552.645 0L553.555 1.37599L541.821 9.13899L553.555 16.9L552.645 18.276L538.831 9.13899L552.645 0Z" fill="#F7931A"/>
<path d="M537.231 0L538.141 1.37599L526.406 9.13899L538.141 16.9L537.231 18.276L523.415 9.13899L537.231 0Z" fill="#F7931A"/>
<path d="M521.816 0L522.727 1.37599L510.992 9.13899L522.727 16.9L521.816 18.276L508.001 9.13899L521.816 0Z" fill="#F7931A"/>
</g>
<defs>
<filter id="filter0_d" x="118.664" y="113.557" width="363.62" height="94.1523" filterUnits="userSpaceOnUse" color-interpolation-filters="sRGB">
<feFlood flood-opacity="0" result="BackgroundImageFix"/>
<feColorMatrix in="SourceAlpha" type="matrix" values="0 0 0 0 0 0 0 0 0 0 0 0 0 0 0 0 0 0 127 0"/>
<feOffset dy="4"/>
<feGaussianBlur stdDeviation="2"/>
<feColorMatrix type="matrix" values="0 0 0 0 0 0 0 0 0 0 0 0 0 0 0 0 0 0 0.15 0"/>
<feBlend mode="normal" in2="BackgroundImageFix" result="effect1_dropShadow"/>
<feBlend mode="normal" in="SourceGraphic" in2="effect1_dropShadow" result="shape"/>
</filter>
<clipPath id="clip0">
<rect width="600" height="300" fill="white"/>
</clipPath>
</defs>
</svg>
