<svg width="700" height="300" viewBox="0 0 700 300" fill="none" xmlns="http://www.w3.org/2000/svg">
<path d="M642.476 263.158C688.117 239.424 674.179 195.23 666.682 154.175C659.185 113.121 658.561 75.1981 612.92 49.431C567.123 23.6446 476.612 10.1096 394.826 13.7681C313.041 17.4881 150.5 4.30051 92.1666 25.2046C20.2089 50.991 25.109 120.545 27.247 150.201C29.385 179.858 46.2147 226.948 118.2 250.678C190.185 274.409 317.326 274.768 404.296 282.465C491.265 290.163 596.872 286.888 642.476 263.158Z" fill="#2B2E32"/>
<path d="M301.642 269.394L296.181 269.958C294.414 270.141 293.457 269.722 293.301 268.699L290.613 269.718C271.798 267.215 261.441 259.226 259.545 245.754L260.942 245.609C260.858 245.071 260.364 244.85 259.425 244.949C257.662 232.453 262.211 215.708 273.062 194.72C275.439 193.331 279.628 186.78 285.61 175.063C290.132 168.157 293.323 164.605 295.184 164.411C298.451 161.446 303.262 152.949 309.614 138.913C306.828 138.665 305.261 137.238 304.891 134.651L304.549 132.236L301.753 132.53L301.304 129.378C289.38 110.607 275.644 98.432 260.088 92.8692L242.876 78.6036C240.33 78.8669 238.144 76.4442 236.311 71.3316C239.017 71.0531 240.259 70.1107 240.027 68.4968L244.091 68.0771L253.629 66.345C256.522 69.7597 259.02 71.3545 261.143 71.137C263.96 69.8016 266.172 69.0577 267.77 68.8898L270.668 69.3324C271.598 69.237 272.03 68.9432 271.968 68.4548C282.285 67.3827 289.313 68.2412 293.061 71.0187C296.955 70.6143 300 72.4266 302.199 76.4556C304.651 76.2038 308.782 79.2408 314.563 85.5781L317.118 84.567C332.47 98.4281 340.869 105.284 342.311 105.132C362.745 82.6097 379.125 65.7955 391.477 54.7081C403.815 43.6208 411.515 37.9206 414.559 37.604C421.556 33.6589 430.476 31.1217 441.305 30C455.21 30.5914 462.43 32.7852 462.977 36.5929C463.333 39.1339 461.771 41.1522 458.286 42.6517C450.693 51.4613 444.862 56.0817 440.794 56.5014C437.918 56.8028 432.706 62.4228 425.139 73.3575L425.362 74.8951C425.851 75.9329 426.857 76.3717 428.384 76.2152C431.251 72.1557 434.62 69.9199 438.51 69.5193C430.236 76.5739 426.181 80.7288 426.363 81.9993L429.159 81.7093L429.265 82.5106C422.736 87.3484 418.289 92.0718 415.944 96.6731C414.519 96.9211 407.318 104.193 394.352 118.493C381.395 132.789 375.07 141.065 375.382 143.304L393.324 171.835C392.803 174.861 392.647 177.032 392.821 178.352C394.931 179.867 396.048 181.065 396.168 181.938L394.77 182.087L396.39 183.548L395.22 185.235C402.711 195.7 407.593 200.817 409.877 200.576C413.104 195.437 415.525 192.785 417.123 192.614L418.387 192.484L416.901 191.004L416.785 190.199C418.903 189.977 420.884 187.913 422.736 184.006L425.415 182.911C426.132 187.993 424.726 197.745 421.183 212.179L421.855 216.94L417.791 217.36L417.898 218.093L424.018 222.286C422.58 222.438 420.025 224.037 416.326 227.097L410.651 226.055L410.874 227.665L408.203 227.944C408.114 227.356 407.545 226.624 406.476 225.742L399.72 227.184L390.929 223.339C391.076 224.369 390.213 224.975 388.365 225.166C375.685 219.348 362.02 207.688 347.358 190.191C344.492 185.735 342.346 183.579 340.909 183.732L339.511 183.877C334.21 191.957 330.859 197.627 329.416 200.897C320.305 211.751 313.971 222.537 310.424 233.259C305.439 238.131 302.172 241.141 300.627 242.297L302.239 243.766C301.437 244.739 301.121 245.834 301.291 247.055L297.227 247.478C297.583 243.877 298.451 240.317 299.844 236.803L295.562 235.613C296.395 241.519 294.098 248.417 288.69 256.311L291.485 256.021L292.268 261.587C299.978 263.858 303.868 265.311 303.966 265.948L304.193 267.558C304.371 268.589 303.512 269.199 301.642 269.394Z" fill="#36393F"/>
<path d="M6.40271 234L0 239.488V241.232L8.43854 234H6.40271Z" fill="#EDBD5C"/>
<path d="M17.9947 234L0 249.422V251.166L20.0294 234H17.9947Z" fill="#EDBD5C"/>
<path d="M29.5809 234L0 259.354V261.098L31.6167 234H29.5809Z" fill="#EDBD5C"/>
<path d="M41.167 234L0 269.289V271.034L43.2006 234H41.167Z" fill="#EDBD5C"/>
<path d="M52.7602 234L0 279.222V280.966L54.796 234H52.7602Z" fill="#EDBD5C"/>
<path d="M64.3522 234L0 289.156V290.899L66.3892 234H64.3522Z" fill="#EDBD5C"/>
<path d="M76.9581 234H75.9395L0 299.089V299.965H1.01507L76.9581 234.871V234Z" fill="#EDBD5C"/>
<path d="M76.9577 243.061L10.5674 299.965H12.6009L76.9577 244.805V243.061Z" fill="#EDBD5C"/>
<path d="M76.9585 252.993L22.1602 299.965H24.196L76.9585 254.737V252.993Z" fill="#EDBD5C"/>
<path d="M76.9577 262.927L33.749 299.965H35.7825L76.9577 264.672V262.927Z" fill="#EDBD5C"/>
<path d="M76.9585 272.863L45.3359 299.965H47.3706L76.9585 274.605V272.863Z" fill="#EDBD5C"/>
<path d="M76.9578 282.794L56.9238 299.965H58.9573L76.9578 284.539V282.794Z" fill="#EDBD5C"/>
<path d="M76.9585 292.729L68.5176 299.965H70.5534L76.9585 294.474V292.729Z" fill="#EDBD5C"/>
<path d="M629.403 0L623 5.48799V7.23199L631.439 0H629.403Z" fill="#EDBD5C"/>
<path d="M640.995 0L623 15.422V17.166L643.029 0H640.995Z" fill="#EDBD5C"/>
<path d="M652.581 0L623 25.354V27.098L654.617 0H652.581Z" fill="#EDBD5C"/>
<path d="M664.167 0L623 35.289V37.034L666.201 0H664.167Z" fill="#EDBD5C"/>
<path d="M675.76 0L623 45.222V46.966L677.796 0H675.76Z" fill="#EDBD5C"/>
<path d="M687.352 0L623 55.156V56.899L689.389 0H687.352Z" fill="#EDBD5C"/>
<path d="M699.958 0H698.94L623 65.089V65.965H624.015L699.958 0.871002V0Z" fill="#EDBD5C"/>
<path d="M699.958 9.06104L633.567 65.9651H635.601L699.958 10.8051V9.06104Z" fill="#EDBD5C"/>
<path d="M699.958 18.9929L645.16 65.9649H647.196L699.958 20.7369V18.9929Z" fill="#EDBD5C"/>
<path d="M699.958 28.927L656.749 65.965H658.783L699.958 30.672V28.927Z" fill="#EDBD5C"/>
<path d="M699.958 38.863L668.336 65.9651H670.371L699.958 40.605V38.863Z" fill="#EDBD5C"/>
<path d="M699.958 48.7939L679.924 65.965H681.957L699.958 50.5389V48.7939Z" fill="#EDBD5C"/>
<path d="M699.958 58.729L691.518 65.965H693.553L699.958 60.474V58.729Z" fill="#EDBD5C"/>
<path d="M81.499 116.188H85.1514L87.8906 118.015L94.2822 117.102C104.845 117.102 114.585 123.189 123.501 135.363L128.066 144.494L127.153 145.407L128.066 149.973V154.538C128.066 170.186 115.283 182.056 89.7168 190.148L80.5859 191.062C80.5859 189.522 79.3685 188.609 76.9336 188.322V191.975H74.1943V186.496L73.2812 185.583L74.1943 184.67V183.757C70.542 181.25 68.7158 179.12 68.7158 177.365C70.542 149.794 73.5856 129.706 77.8467 117.102H78.7598L79.6729 118.015L81.499 116.188ZM77.8467 125.319L73.2812 151.799V152.712H74.1943L78.7598 127.146V125.319H77.8467ZM92.4561 131.711C92.4561 132.928 91.2386 133.537 88.8037 133.537C86.3688 144.637 84.5426 157.421 83.3252 171.887C86.8701 171.887 96.001 168.843 110.718 162.756V161.843H108.892C113.761 156.866 116.196 151.691 116.196 146.32V143.581C116.196 136.885 111.631 132.928 102.5 131.711H92.4561ZM110.718 131.711V132.624L114.37 134.45V133.537L111.631 131.711H110.718ZM118.936 144.494L118.022 155.451H119.849V152.712L120.762 149.06L119.849 144.494H118.936ZM125.327 151.799L120.762 166.408V167.321H121.675L126.24 153.625V151.799H125.327ZM116.196 158.19L114.37 161.843H115.283L117.109 158.19H116.196ZM110.718 174.626C112.15 174.411 114.281 172.585 117.109 169.147V168.234L110.718 174.626ZM89.7168 180.104V181.018H93.3691L97.9346 179.191V178.278H97.0215L89.7168 180.104ZM82.4121 181.018L83.3252 183.757H85.1514L86.9775 181.931V181.018H86.0645L83.3252 181.931L82.4121 181.018ZM72.3682 186.496H73.2812V187.409L71.4551 189.235H70.542V188.322L72.3682 186.496ZM165.718 112.268C166.112 114.094 168.547 115.007 173.022 115.007L180.327 146.965H186.719V147.878L181.24 148.791V149.704C183.066 149.704 183.979 150.313 183.979 151.53H191.284V152.443C191.284 153.804 188.241 155.021 182.153 156.096L183.979 161.574L183.066 164.313L183.979 169.792L183.066 170.705H183.979L183.066 171.618L183.979 182.575V188.054L183.066 187.141H182.153L184.893 200.837H183.066C183.066 199.011 182.458 198.098 181.24 198.098V199.011L182.153 201.75H181.24L180.327 200.837H179.414C179.414 202.663 178.805 203.576 177.588 203.576L173.022 188.054H172.109V191.706H171.196L169.37 180.749L172.109 182.575V181.662C171.608 176.184 170.695 173.444 169.37 173.444L170.283 172.531V169.792H168.457V172.531H167.544V168.879L168.457 167.966H167.544L166.631 168.879V165.227H167.544L168.457 166.14H169.37L168.457 165.227V159.748L148.369 164.313V166.14L154.761 164.313L158.413 165.227L162.979 164.313V166.14C150.195 168.431 143.804 171.475 143.804 175.271C142.192 181.966 140.366 186.228 138.325 188.054V189.88H135.586L134.673 188.967H133.76V189.88L131.021 188.054L132.847 182.575H131.934C130.107 182.575 129.194 185.01 129.194 189.88L127.368 188.054L128.281 182.575L125.542 179.836L141.064 142.399H141.978C141.978 144.226 142.586 145.139 143.804 145.139L144.717 140.573L143.804 141.486H142.891V137.834L143.804 133.269L144.717 134.182H145.63L144.717 133.269V132.355L146.543 128.703H147.456L148.369 129.616H149.282V128.703C149.282 127.486 148.369 126.877 146.543 126.877L151.108 114.094H154.761L153.848 115.007V115.92C158.073 113.485 162.03 112.268 165.718 112.268ZM160.239 133.269L152.935 152.443H154.761C160.848 152.443 164.196 150.617 164.805 146.965L161.152 133.269H160.239ZM152.021 138.747L150.195 145.139L149.282 144.226H148.369L149.282 147.878H150.195L152.935 139.66V138.747H152.021ZM141.978 146.965L141.064 147.878V149.704H141.978L142.891 146.965H141.978ZM147.456 150.617L146.543 154.27H147.456L148.369 153.356V150.617H147.456ZM139.238 151.53L138.325 155.183H139.238L141.064 151.53H139.238ZM154.761 154.27V155.183H156.587C162.065 154.574 164.805 153.661 164.805 152.443H163.892L154.761 154.27ZM167.544 174.357H169.37V179.836H168.457L167.544 174.357ZM180.327 180.749V182.575L181.24 186.228H182.153V184.401L181.24 180.749H180.327ZM171.196 183.488V185.314L173.936 184.401V182.575L171.196 183.488ZM249.561 114.792L252.3 115.705V117.531H249.561L251.387 120.271C250.062 123.314 245.192 124.836 236.777 124.836L230.386 125.749L229.473 128.488H230.386C228.56 132.821 224.907 152.3 219.429 186.926L222.168 198.796H221.255C219.894 198.796 218.677 195.752 217.603 189.665L218.516 180.534V179.621H217.603V181.447C215.776 181.447 214.863 182.056 214.863 183.273V184.187L216.689 198.796V199.709H214.863L211.211 196.97L210.298 197.883H209.385C206.95 192.619 205.732 188.054 205.732 184.187L206.646 185.1H207.559L205.732 178.708L208.472 177.795V173.229H206.646V172.316C208.472 172.316 209.385 171.708 209.385 170.49V169.577H207.559C207.559 164.707 208.472 162.272 210.298 162.272V150.402C211.265 149.543 212.482 143.151 213.95 131.228L207.559 132.141L194.775 131.228V130.314L199.341 129.401V130.314L200.254 129.401H213.95V126.662L199.341 128.488L198.428 127.575H197.515L192.036 128.488L189.297 126.662L190.21 122.097L189.297 121.184C189.297 118.14 192.949 116.618 200.254 116.618L249.561 114.792ZM244.082 117.531V118.444H247.734V117.531H244.082ZM210.298 168.664L208.472 188.752H210.298L209.385 184.187V182.36L211.211 179.621H210.298L211.211 178.708V177.795L210.298 176.882V175.969L212.124 172.316L211.211 168.664H210.298ZM279.585 112.268C279.979 114.094 282.414 115.007 286.89 115.007L294.194 146.965H300.586V147.878L295.107 148.791V149.704C296.934 149.704 297.847 150.313 297.847 151.53H305.151V152.443C305.151 153.804 302.108 155.021 296.021 156.096L297.847 161.574L296.934 164.313L297.847 169.792L296.934 170.705H297.847L296.934 171.618L297.847 182.575V188.054L296.934 187.141H296.021L298.76 200.837H296.934C296.934 199.011 296.325 198.098 295.107 198.098V199.011L296.021 201.75H295.107L294.194 200.837H293.281C293.281 202.663 292.673 203.576 291.455 203.576L286.89 188.054H285.977V191.706H285.063L283.237 180.749L285.977 182.575V181.662C285.475 176.184 284.562 173.444 283.237 173.444L284.15 172.531V169.792H282.324V172.531H281.411V168.879L282.324 167.966H281.411L280.498 168.879V165.227H281.411L282.324 166.14H283.237L282.324 165.227V159.748L262.236 164.313V166.14L268.628 164.313L272.28 165.227L276.846 164.313V166.14C264.062 168.431 257.671 171.475 257.671 175.271C256.06 181.966 254.233 186.228 252.192 188.054V189.88H249.453L248.54 188.967H247.627V189.88L244.888 188.054L246.714 182.575H245.801C243.975 182.575 243.062 185.01 243.062 189.88L241.235 188.054L242.148 182.575L239.409 179.836L254.932 142.399H255.845C255.845 144.226 256.453 145.139 257.671 145.139L258.584 140.573L257.671 141.486H256.758V137.834L257.671 133.269L258.584 134.182H259.497L258.584 133.269V132.355L260.41 128.703H261.323L262.236 129.616H263.149V128.703C263.149 127.486 262.236 126.877 260.41 126.877L264.976 114.094H268.628L267.715 115.007V115.92C271.94 113.485 275.897 112.268 279.585 112.268ZM274.106 133.269L266.802 152.443H268.628C274.715 152.443 278.063 150.617 278.672 146.965L275.02 133.269H274.106ZM265.889 138.747L264.062 145.139L263.149 144.226H262.236L263.149 147.878H264.062L266.802 139.66V138.747H265.889ZM255.845 146.965L254.932 147.878V149.704H255.845L256.758 146.965H255.845ZM261.323 150.617L260.41 154.27H261.323L262.236 153.356V150.617H261.323ZM253.105 151.53L252.192 155.183H253.105L254.932 151.53H253.105ZM268.628 154.27V155.183H270.454C275.933 154.574 278.672 153.661 278.672 152.443H277.759L268.628 154.27ZM281.411 174.357H283.237V179.836H282.324L281.411 174.357ZM294.194 180.749V182.575L295.107 186.228H296.021V184.401L295.107 180.749H294.194ZM285.063 183.488V185.314L287.803 184.401V182.575L285.063 183.488ZM356.875 116.887L363.267 122.365C363.267 120.539 363.875 119.626 365.093 119.626H366.006L378.789 152.497V154.323H377.876L376.05 148.845H375.137V150.671L381.528 166.193H382.441C384.876 150.367 388.385 133.841 392.969 116.618L395.708 118.444L398.447 117.531L403.926 120.271V121.184C402.1 121.184 401.187 122.401 401.187 124.836H402.1L403.013 125.749H403.926L404.839 121.184H406.665V122.097L405.752 123.01L406.665 123.923V124.836C402.082 138.908 397.964 159.086 394.312 185.368H392.485L394.312 170.759C393.094 170.759 391.268 176.542 388.833 188.107C386.577 189.934 384.447 190.847 382.441 190.847V192.673H381.528C381.528 191.455 380.311 190.847 377.876 190.847V184.455C377.876 181.698 371.789 166.48 359.614 138.801H358.701C356.266 149.65 354.136 164.26 352.31 182.629L351.396 181.716C347.744 182.79 345.918 184.312 345.918 186.281H344.092C342.874 183.99 342.266 180.033 342.266 174.411H341.353V182.629H339.526L338.613 178.063C338.613 161.521 342.266 141.433 349.57 117.8L356.875 116.887ZM344.092 139.714V140.627L345.005 141.54L344.092 142.453V144.279H345.005L345.918 140.627L345.005 139.714H344.092ZM378.789 154.323C380.365 154.323 381.582 156.758 382.441 161.628V162.541H381.528L378.789 154.323ZM457.798 116.457L462.202 119.519C460.913 124.925 458.586 127.521 455.22 127.307L431.372 128.381L431.265 130.207L435.776 130.529L441.309 129.992L442.168 131.013L443.081 131.066L449.526 130.529L451.353 130.69L451.299 131.604L430.083 133.806L428.418 145.622L429.331 145.676L454.146 143.688L454.951 144.655L454.897 145.568L453.071 145.407V146.32L459.355 147.717L459.302 148.63C457.977 152.032 449.24 154.789 433.091 156.901L423.906 157.224L424.766 158.137L420.361 169.738H419.448L419.985 161.521L419.072 161.467L417.3 174.143C435.526 171.708 448.398 170.741 455.918 171.242L460.376 172.478L460.322 174.304L458.496 174.196L459.302 175.163L459.141 177.902C457.386 180.194 453.662 181.161 447.969 180.803L447.915 181.716L455.22 182.199L455.059 184.025L412.573 190.256L411.66 190.202C408.724 189.558 407.256 188.609 407.256 187.355V187.194L407.417 184.455L409.941 174.572L409.082 173.605L410.908 173.659L410.586 178.225L411.499 178.332C411.857 175.288 412.573 173.82 413.647 173.928L412.788 172.907L413.433 163.83L411.606 163.669L410.371 168.181L411.392 167.321L412.305 167.375L411.929 172.854L411.016 172.746L411.177 170.061L410.264 170.007L410.156 171.833L409.243 171.779L409.351 169.953L412.251 154.538L411.338 154.484L413.433 150.08L412.573 149.113L412.627 148.2L414.614 132.785L415.474 133.752L416.387 133.806L416.494 131.979L415.903 127.36L417.354 119.196L417.515 116.457L418.428 116.564L419.287 117.531L420.254 116.672L421.167 116.779L422.026 117.692L422.993 116.833L425.732 117.048L457.798 116.457ZM412.09 156.364L411.66 162.756L412.573 162.81L413.003 156.472L412.09 156.364ZM442.222 157.546H443.135L443.027 158.459L426.484 160.124L425.625 159.104L425.679 158.244L433.95 157.868L433.896 158.781L442.222 157.546ZM513.013 116.457L517.417 119.519C516.128 124.925 513.8 127.521 510.435 127.307L486.587 128.381L486.479 130.207L490.991 130.529L496.523 129.992L497.383 131.013L498.296 131.066L504.741 130.529L506.567 130.69L506.514 131.604L485.298 133.806L483.633 145.622L484.546 145.676L509.36 143.688L510.166 144.655L510.112 145.568L508.286 145.407V146.32L514.57 147.717L514.517 148.63C513.192 152.032 504.455 154.789 488.306 156.901L479.121 157.224L479.98 158.137L475.576 169.738H474.663L475.2 161.521L474.287 161.467L472.515 174.143C490.741 171.708 503.613 170.741 511.133 171.242L515.591 172.478L515.537 174.304L513.711 174.196L514.517 175.163L514.355 177.902C512.601 180.194 508.877 181.161 503.184 180.803L503.13 181.716L510.435 182.199L510.273 184.025L467.788 190.256L466.875 190.202C463.939 189.558 462.471 188.609 462.471 187.355V187.194L462.632 184.455L465.156 174.572L464.297 173.605L466.123 173.659L465.801 178.225L466.714 178.332C467.072 175.288 467.788 173.82 468.862 173.928L468.003 172.907L468.647 163.83L466.821 163.669L465.586 168.181L466.606 167.321L467.52 167.375L467.144 172.854L466.23 172.746L466.392 170.061L465.479 170.007L465.371 171.833L464.458 171.779L464.565 169.953L467.466 154.538L466.553 154.484L468.647 150.08L467.788 149.113L467.842 148.2L469.829 132.785L470.688 133.752L471.602 133.806L471.709 131.979L471.118 127.36L472.568 119.196L472.729 116.457L473.643 116.564L474.502 117.531L475.469 116.672L476.382 116.779L477.241 117.692L478.208 116.833L480.947 117.048L513.013 116.457ZM467.305 156.364L466.875 162.756L467.788 162.81L468.218 156.472L467.305 156.364ZM497.437 157.546H498.35L498.242 158.459L481.699 160.124L480.84 159.104L480.894 158.244L489.165 157.868L489.111 158.781L497.437 157.546ZM531.167 116.188H534.819L537.559 118.015L543.95 117.102C554.513 117.102 564.253 123.189 573.169 135.363L577.734 144.494L576.821 145.407L577.734 149.973V154.538C577.734 170.186 564.951 182.056 539.385 190.148L530.254 191.062C530.254 189.522 529.036 188.609 526.602 188.322V191.975H523.862V186.496L522.949 185.583L523.862 184.67V183.757C520.21 181.25 518.384 179.12 518.384 177.365C520.21 149.794 523.254 129.706 527.515 117.102H528.428L529.341 118.015L531.167 116.188ZM527.515 125.319L522.949 151.799V152.712H523.862L528.428 127.146V125.319H527.515ZM542.124 131.711C542.124 132.928 540.907 133.537 538.472 133.537C536.037 144.637 534.211 157.421 532.993 171.887C536.538 171.887 545.669 168.843 560.386 162.756V161.843H558.56C563.429 156.866 565.864 151.691 565.864 146.32V143.581C565.864 136.885 561.299 132.928 552.168 131.711H542.124ZM560.386 131.711V132.624L564.038 134.45V133.537L561.299 131.711H560.386ZM568.604 144.494L567.69 155.451H569.517V152.712L570.43 149.06L569.517 144.494H568.604ZM574.995 151.799L570.43 166.408V167.321H571.343L575.908 153.625V151.799H574.995ZM565.864 158.19L564.038 161.843H564.951L566.777 158.19H565.864ZM560.386 174.626C561.818 174.411 563.949 172.585 566.777 169.147V168.234L560.386 174.626ZM539.385 180.104V181.018H543.037L547.603 179.191V178.278H546.689L539.385 180.104ZM532.08 181.018L532.993 183.757H534.819L536.646 181.931V181.018H535.732L532.993 181.931L532.08 181.018ZM522.036 186.496H522.949V187.409L521.123 189.235H520.21V188.322L522.036 186.496ZM608.35 115.114C609.961 116.332 615.081 116.94 623.711 116.94L623.657 117.854H617.266L617.212 118.767C624.839 118.767 629.601 120.593 631.499 124.245L631.392 126.071H626.826L626.772 126.984L633.11 127.897L633.057 128.811H627.578L627.524 129.724C629.351 129.724 630.228 130.332 630.156 131.55C619.307 131.55 609.621 135.507 601.099 143.42L601.045 144.333C612.826 147.484 622.153 154.484 629.028 165.334L628.975 166.247C626.755 174.125 620.542 181.429 610.337 188.161L604.751 189.074L604.697 189.987H606.523C606.452 191.634 600.866 193.461 589.766 195.466L589.873 193.64H594.438L594.546 192.727C590.643 192.727 587.116 190.596 583.965 186.335C581.243 184.938 579.883 182.271 579.883 178.332C579.883 177.974 579.901 177.598 579.937 177.204L582.783 175.378L585.415 177.204H587.241C604.429 174.519 613.291 169.04 613.828 160.769C606.631 157.116 601.868 155.29 599.541 155.29L599.487 156.203L590.518 152.551L591.377 153.464L591.323 155.29C583.732 149.704 580.026 145.443 580.205 142.507L587.349 129.724L592.129 126.071L592.021 127.897L608.35 115.114ZM595.889 139.768L595.835 140.681L611.948 130.637L619.36 128.811L619.468 126.984H617.642C608.009 130.565 600.758 134.826 595.889 139.768ZM600.938 177.204H601.851L603.784 175.378H602.871L600.938 177.204ZM617.373 177.204L613.452 181.77H614.365L618.286 177.204H617.373ZM605.933 184.509V185.422H606.846L610.659 182.683L605.933 184.509ZM595.566 190.9L595.513 191.813H599.165L603.784 190.9V189.987H602.871L595.566 190.9Z" fill="white"/>
</svg>
