<svg width="700" height="300" viewBox="0 0 700 300" fill="none" xmlns="http://www.w3.org/2000/svg">
<path d="M57.891 39.0201C12.2499 62.7543 26.1881 106.949 33.6848 148.003C41.1816 189.058 41.8057 226.98 87.4468 252.747C133.244 278.534 223.756 292.069 305.541 288.41C387.326 284.69 549.867 297.878 608.2 276.974C680.158 251.187 675.258 181.633 673.12 151.977C670.982 122.32 654.152 75.2304 582.167 51.5C510.182 27.7696 383.041 27.4105 296.071 19.713C209.102 12.0155 103.495 15.2897 57.891 39.0201Z" fill="#2B2E32"/>
<path d="M301.04 272.367L295.578 272.932C293.811 273.115 292.854 272.695 292.699 271.673L290.01 272.692C271.196 270.189 260.838 262.199 258.942 248.727L260.34 248.582C260.255 248.044 259.761 247.823 258.822 247.922C257.059 235.427 261.608 218.682 272.46 197.693C274.837 196.305 279.025 189.754 285.007 178.037C289.53 171.131 292.721 167.579 294.581 167.384C297.849 164.42 302.66 155.923 309.011 141.886C306.225 141.638 304.658 140.211 304.289 137.625L303.946 135.21L301.151 135.503L300.702 132.352C288.777 113.58 275.042 101.406 259.485 95.8428L242.273 81.5773C239.727 81.8405 237.542 79.4178 235.708 74.3052C238.414 74.0267 239.656 73.0843 239.425 71.4704L243.489 71.0507L253.027 69.3186C255.92 72.7333 258.417 74.3281 260.54 74.1106C263.358 72.7753 265.57 72.0313 267.168 71.8634L270.065 72.306C270.995 72.2106 271.427 71.9168 271.365 71.4284C281.682 70.3563 288.71 71.2148 292.458 73.9924C296.353 73.588 299.397 75.4002 301.596 79.4292C304.049 79.1774 308.179 82.2144 313.961 88.5517L316.516 87.5406C331.867 101.402 340.266 108.258 341.708 108.105C362.143 85.5834 378.523 68.7692 390.874 57.6818C403.212 46.5944 410.912 40.8943 413.957 40.5776C420.954 36.6325 429.874 34.0953 440.703 32.9736C454.608 33.565 461.827 35.7588 462.375 39.5665C462.731 42.1076 461.169 44.1259 457.683 45.6253C450.09 54.4349 444.259 59.0553 440.191 59.475C437.316 59.7764 432.104 65.3964 424.537 76.3312L424.759 77.8688C425.249 78.9065 426.255 79.3453 427.782 79.1889C430.648 75.1293 434.018 72.8935 437.908 72.4929C429.633 79.5475 425.579 83.7024 425.761 84.9729L428.556 84.6829L428.663 85.4842C422.133 90.322 417.687 95.0454 415.341 99.6467C413.917 99.8947 406.715 107.167 393.749 121.467C380.793 135.763 374.468 144.038 374.779 146.278L392.721 174.809C392.2 177.835 392.045 180.005 392.218 181.326C394.328 182.84 395.445 184.038 395.565 184.912L394.168 185.061L395.788 186.522L394.617 188.208C402.108 198.674 406.991 203.79 409.274 203.55C412.501 198.411 414.923 195.759 416.521 195.587L417.785 195.458L416.298 193.977L416.182 193.172C418.301 192.951 420.282 190.887 422.133 186.98L424.813 185.885C425.529 190.967 424.123 200.719 420.58 215.152L421.252 219.914L417.188 220.334L417.295 221.066L423.415 225.259C421.977 225.412 419.423 227.01 415.724 230.07L410.049 229.029L410.271 230.639L407.601 230.917C407.512 230.33 406.942 229.597 405.874 228.716L399.117 230.158L390.327 226.312C390.474 227.342 389.61 227.949 387.763 228.14C375.082 222.321 361.417 210.662 346.756 193.165C343.889 188.708 341.744 186.553 340.306 186.705L338.909 186.85C333.608 194.931 330.256 200.601 328.814 203.87C319.703 214.725 313.369 225.511 309.821 236.232C304.836 241.104 301.569 244.115 300.025 245.271L301.636 246.74C300.835 247.713 300.519 248.808 300.688 250.028L296.624 250.452C296.98 246.85 297.848 243.291 299.242 239.777L294.96 238.586C295.792 244.492 293.495 251.391 288.087 259.284L290.882 258.994L291.666 264.561C299.375 266.831 303.265 268.285 303.363 268.922L303.59 270.532C303.768 271.562 302.909 272.173 301.04 272.367Z" fill="#36393F"/>
<path d="M130 113.61L129.893 115.437H127.153L127.1 116.35H128.013L145.415 115.437H149.067L149.014 116.35L147.134 118.176L147.993 119.089L147.939 120.915C147.832 124.066 146.847 125.892 144.985 126.394L145.845 129.133L144.771 131.872L143.911 130.959H142.998C134.476 131.389 130.197 131.997 130.161 132.785L129.248 131.872C118.828 133.519 113.547 136.563 113.403 141.003L113.135 148.308L135.103 146.481L136.016 147.395L135.962 148.308H131.396L131.343 149.221C134.386 149.221 135.872 149.829 135.801 151.047V151.96C135.693 155.004 135.031 156.525 133.813 156.525H128.335L128.281 157.438H134.673L134.619 159.265C134.583 160.303 126.885 162.434 111.523 165.656L110.234 175.7L111.147 176.613V177.526L110.181 178.439L110.127 179.353L110.933 182.092H110.02L110.825 184.831C111.04 187.409 108.91 192.136 104.434 199.011L97.1289 198.098L98.3643 188.967C96.0368 188.967 94.873 187.839 94.873 185.583V185.314C95.804 183.775 96.9141 174.178 98.2031 156.525H100.029L99.1699 155.612L100.352 148.308L101.211 149.221H102.124L103.413 140.09L103.574 136.438C100.531 136.438 99.0088 135.829 99.0088 134.611L100.942 131.872C98.5075 131.872 97.3438 130.959 97.4512 129.133C97.6302 123.654 98.6328 120.915 100.459 120.915C103.503 120.915 105.078 119.393 105.186 116.35H106.099L106.958 117.263L108.892 115.437H111.631L114.263 118.176L130 113.61ZM132.524 118.176L132.471 119.089H135.21L145.308 118.176V117.263H139.829L132.524 118.176ZM123.931 128.22V129.133H124.844L143.105 127.307L143.159 126.394L140.474 125.48L139.507 126.394H138.594L137.734 125.48L123.931 128.22ZM99.707 164.743L99.3311 174.787H100.244L100.62 164.743H99.707ZM101.05 190.793L100.889 194.445H101.802L101.963 190.793H101.05ZM167.061 116.779C166.917 118.605 168.063 119.519 170.498 119.519L172.163 123.171L171.196 124.084H172.109C167.741 136.975 165.073 151.888 164.106 168.825L163.784 174.304L164.697 175.217L164.644 176.13L163.677 177.043H164.59L163.623 177.956L164.16 184.348L164.053 186.174C160.794 190.113 159.093 193.156 158.95 195.305H155.298L150.894 193.479L152.183 187.087L148.691 183.435L150.356 169.738L151.27 153.303L153.257 150.563L153.472 146.911L152.612 145.998L152.666 145.085H154.492L154.546 144.172L153.687 143.259L157.393 125.91H156.479L157.446 124.997L157.715 119.519L156.855 118.605L156.909 117.692L167.061 116.779ZM156.963 133.215L156.641 139.606H157.554L157.876 133.215H156.963ZM155.566 142.346L155.244 147.824H156.157L156.479 142.346H155.566ZM154.17 150.563L153.901 156.042H154.814L155.083 150.563H154.17ZM154.009 187.087L153.74 191.652L155.62 189.826L155.835 187.087H154.009ZM190.854 116.887L197.246 122.365C197.246 120.539 197.855 119.626 199.072 119.626H199.985L212.769 152.497V154.323H211.855L210.029 148.845H209.116V150.671L215.508 166.193H216.421C218.856 150.367 222.365 133.841 226.948 116.618L229.688 118.444L232.427 117.531L237.905 120.271V121.184C236.079 121.184 235.166 122.401 235.166 124.836H236.079L236.992 125.749H237.905L238.818 121.184H240.645V122.097L239.731 123.01L240.645 123.923V124.836C236.061 138.908 231.943 159.086 228.291 185.368H226.465L228.291 170.759C227.074 170.759 225.247 176.542 222.812 188.107C220.557 189.934 218.426 190.847 216.421 190.847V192.673H215.508C215.508 191.455 214.29 190.847 211.855 190.847V184.455C211.855 181.698 205.768 166.48 193.594 138.801H192.681C190.246 149.65 188.115 164.26 186.289 182.629L185.376 181.716C181.724 182.79 179.897 184.312 179.897 186.281H178.071C176.854 183.99 176.245 180.033 176.245 174.411H175.332V182.629H173.506L172.593 178.063C172.593 161.521 176.245 141.433 183.55 117.8L190.854 116.887ZM178.071 139.714V140.627L178.984 141.54L178.071 142.453V144.279H178.984L179.897 140.627L178.984 139.714H178.071ZM212.769 154.323C214.344 154.323 215.562 156.758 216.421 161.628V162.541H215.508L212.769 154.323ZM277.598 112.268C277.992 114.094 280.426 115.007 284.902 115.007L292.207 146.965H298.599V147.878L293.12 148.791V149.704C294.946 149.704 295.859 150.313 295.859 151.53H303.164V152.443C303.164 153.804 300.12 155.021 294.033 156.096L295.859 161.574L294.946 164.313L295.859 169.792L294.946 170.705H295.859L294.946 171.618L295.859 182.575V188.054L294.946 187.141H294.033L296.772 200.837H294.946C294.946 199.011 294.338 198.098 293.12 198.098V199.011L294.033 201.75H293.12L292.207 200.837H291.294C291.294 202.663 290.685 203.576 289.468 203.576L284.902 188.054H283.989V191.706H283.076L281.25 180.749L283.989 182.575V181.662C283.488 176.184 282.575 173.444 281.25 173.444L282.163 172.531V169.792H280.337V172.531H279.424V168.879L280.337 167.966H279.424L278.511 168.879V165.227H279.424L280.337 166.14H281.25L280.337 165.227V159.748L260.249 164.313V166.14L266.641 164.313L270.293 165.227L274.858 164.313V166.14C262.075 168.431 255.684 171.475 255.684 175.271C254.072 181.966 252.246 186.228 250.205 188.054V189.88H247.466L246.553 188.967H245.64V189.88L242.9 188.054L244.727 182.575H243.813C241.987 182.575 241.074 185.01 241.074 189.88L239.248 188.054L240.161 182.575L237.422 179.836L252.944 142.399H253.857C253.857 144.226 254.466 145.139 255.684 145.139L256.597 140.573L255.684 141.486H254.771V137.834L255.684 133.269L256.597 134.182H257.51L256.597 133.269V132.355L258.423 128.703H259.336L260.249 129.616H261.162V128.703C261.162 127.486 260.249 126.877 258.423 126.877L262.988 114.094H266.641L265.728 115.007V115.92C269.953 113.485 273.91 112.268 277.598 112.268ZM272.119 133.269L264.814 152.443H266.641C272.728 152.443 276.076 150.617 276.685 146.965L273.032 133.269H272.119ZM263.901 138.747L262.075 145.139L261.162 144.226H260.249L261.162 147.878H262.075L264.814 139.66V138.747H263.901ZM253.857 146.965L252.944 147.878V149.704H253.857L254.771 146.965H253.857ZM259.336 150.617L258.423 154.27H259.336L260.249 153.356V150.617H259.336ZM251.118 151.53L250.205 155.183H251.118L252.944 151.53H251.118ZM266.641 154.27V155.183H268.467C273.945 154.574 276.685 153.661 276.685 152.443H275.771L266.641 154.27ZM279.424 174.357H281.25V179.836H280.337L279.424 174.357ZM292.207 180.749V182.575L293.12 186.228H294.033V184.401L293.12 180.749H292.207ZM283.076 183.488V185.314L285.815 184.401V182.575L283.076 183.488ZM319.761 115.92C320.978 115.92 321.587 117.746 321.587 121.398H323.413L326.152 119.572L327.065 120.485L322.5 171.618C326.367 169.792 336.715 167.661 353.545 165.227H354.458V166.14C333.153 169.613 322.5 172.352 322.5 174.357L332.544 171.618V172.531L349.893 168.879V169.792L350.806 168.879H351.719L352.632 169.792L357.197 168.879H360.85L367.241 169.792V170.705C367.241 172.531 362.676 174.053 353.545 175.271V176.184L354.458 175.271H355.371L361.763 176.184L362.676 175.271V178.01L332.544 185.314L313.369 192.619H310.63L306.978 188.054H306.064V187.141C306.064 185.601 307.282 184.688 309.717 184.401V181.662L306.978 178.01L310.63 136.921H311.543V140.573L310.63 146.965H312.456L310.63 158.835L311.543 159.748L310.63 163.4V167.966H311.543L315.195 119.572C316.413 119.572 317.021 118.659 317.021 116.833L317.935 115.92H319.761ZM422.671 115.114C424.282 116.332 429.403 116.94 438.032 116.94L437.979 117.854H431.587L431.533 118.767C439.16 118.767 443.923 120.593 445.82 124.245L445.713 126.071H441.147L441.094 126.984L447.432 127.897L447.378 128.811H441.899L441.846 129.724C443.672 129.724 444.549 130.332 444.478 131.55C433.628 131.55 423.942 135.507 415.42 143.42L415.366 144.333C427.147 147.484 436.475 154.484 443.35 165.334L443.296 166.247C441.076 174.125 434.863 181.429 424.658 188.161L419.072 189.074L419.019 189.987H420.845C420.773 191.634 415.187 193.461 404.087 195.466L404.194 193.64H408.76L408.867 192.727C404.964 192.727 401.437 190.596 398.286 186.335C395.565 184.938 394.204 182.271 394.204 178.332C394.204 177.974 394.222 177.598 394.258 177.204L397.104 175.378L399.736 177.204H401.562C418.75 174.519 427.612 169.04 428.149 160.769C420.952 157.116 416.19 155.29 413.862 155.29L413.809 156.203L404.839 152.551L405.698 153.464L405.645 155.29C398.053 149.704 394.347 145.443 394.526 142.507L401.67 129.724L406.45 126.071L406.343 127.897L422.671 115.114ZM410.21 139.768L410.156 140.681L426.27 130.637L433.682 128.811L433.789 126.984H431.963C422.331 130.565 415.08 134.826 410.21 139.768ZM415.259 177.204H416.172L418.105 175.378H417.192L415.259 177.204ZM431.694 177.204L427.773 181.77H428.687L432.607 177.204H431.694ZM420.254 184.509V185.422H421.167L424.98 182.683L420.254 184.509ZM409.888 190.9L409.834 191.813H413.486L418.105 190.9V189.987H417.192L409.888 190.9ZM502.056 114.792L504.795 115.705V117.531H502.056L503.882 120.271C502.557 123.314 497.687 124.836 489.272 124.836L482.881 125.749L481.968 128.488H482.881C481.055 132.821 477.402 152.3 471.924 186.926L474.663 198.796H473.75C472.389 198.796 471.172 195.752 470.098 189.665L471.011 180.534V179.621H470.098V181.447C468.271 181.447 467.358 182.056 467.358 183.273V184.187L469.185 198.796V199.709H467.358L463.706 196.97L462.793 197.883H461.88C459.445 192.619 458.228 188.054 458.228 184.187L459.141 185.1H460.054L458.228 178.708L460.967 177.795V173.229H459.141V172.316C460.967 172.316 461.88 171.708 461.88 170.49V169.577H460.054C460.054 164.707 460.967 162.272 462.793 162.272V150.402C463.76 149.543 464.977 143.151 466.445 131.228L460.054 132.141L447.271 131.228V130.314L451.836 129.401V130.314L452.749 129.401H466.445V126.662L451.836 128.488L450.923 127.575H450.01L444.531 128.488L441.792 126.662L442.705 122.097L441.792 121.184C441.792 118.14 445.444 116.618 452.749 116.618L502.056 114.792ZM496.577 117.531V118.444H500.229V117.531H496.577ZM462.793 168.664L460.967 188.752H462.793L461.88 184.187V182.36L463.706 179.621H462.793L463.706 178.708V177.795L462.793 176.882V175.969L464.619 172.316L463.706 168.664H462.793ZM546.26 116.457L550.664 119.519C549.375 124.925 547.048 127.521 543.682 127.307L519.834 128.381L519.727 130.207L524.238 130.529L529.771 129.992L530.63 131.013L531.543 131.066L537.988 130.529L539.814 130.69L539.761 131.604L518.545 133.806L516.88 145.622L517.793 145.676L542.607 143.688L543.413 144.655L543.359 145.568L541.533 145.407V146.32L547.817 147.717L547.764 148.63C546.439 152.032 537.702 154.789 521.553 156.901L512.368 157.224L513.228 158.137L508.823 169.738H507.91L508.447 161.521L507.534 161.467L505.762 174.143C523.988 171.708 536.86 170.741 544.38 171.242L548.838 172.478L548.784 174.304L546.958 174.196L547.764 175.163L547.603 177.902C545.848 180.194 542.124 181.161 536.431 180.803L536.377 181.716L543.682 182.199L543.521 184.025L501.035 190.256L500.122 190.202C497.186 189.558 495.718 188.609 495.718 187.355V187.194L495.879 184.455L498.403 174.572L497.544 173.605L499.37 173.659L499.048 178.225L499.961 178.332C500.319 175.288 501.035 173.82 502.109 173.928L501.25 172.907L501.895 163.83L500.068 163.669L498.833 168.181L499.854 167.321L500.767 167.375L500.391 172.854L499.478 172.746L499.639 170.061L498.726 170.007L498.618 171.833L497.705 171.779L497.812 169.953L500.713 154.538L499.8 154.484L501.895 150.08L501.035 149.113L501.089 148.2L503.076 132.785L503.936 133.752L504.849 133.806L504.956 131.979L504.365 127.36L505.815 119.196L505.977 116.457L506.89 116.564L507.749 117.531L508.716 116.672L509.629 116.779L510.488 117.692L511.455 116.833L514.194 117.048L546.26 116.457ZM500.552 156.364L500.122 162.756L501.035 162.81L501.465 156.472L500.552 156.364ZM530.684 157.546H531.597L531.489 158.459L514.946 160.124L514.087 159.104L514.141 158.244L522.412 157.868L522.358 158.781L530.684 157.546ZM561.943 112.751L562.803 113.664V114.577L563.716 113.664H568.281C569.499 113.664 570.072 115.186 570 118.229H570.913C570.985 116.403 571.629 115.49 572.847 115.49C574.064 115.49 574.637 116.403 574.565 118.229L581.011 117.316L590.786 119.143L594.438 118.229C599.093 118.229 602.674 120.664 605.181 125.534L604.214 131.926L605.073 132.839V133.752L603.086 139.23H602.173L602.227 137.404H601.313C596.587 148.863 589.927 156.776 581.333 161.145L566.509 167.536L566.025 183.059L566.777 187.624C565.56 187.624 563.931 190.668 561.89 196.755L560.977 197.668H560.063L552.866 194.016L554.048 186.711L551.416 183.059L553.672 170.275L552.759 169.362L556.089 152.014L555.176 151.101L556.143 150.188H557.969L557.861 153.84H558.774L558.936 149.274L558.13 146.535H559.956L560.063 141.97L558.291 140.144L558.184 143.796H557.271C557.414 139.929 555.695 136.885 552.114 134.665L551.362 129.187L551.523 125.534C559.508 122.276 563.519 120.145 563.555 119.143L563.608 118.229L561.836 116.403L560.923 117.316L560.063 113.664L561.03 112.751H561.943ZM569.893 148.361H571.719C579.561 145.067 586.436 139.589 592.344 131.926H589.604C577.394 132.749 571.253 134.576 571.182 137.404L569.893 148.361ZM593.149 135.578C591.216 139.016 583.428 144.19 569.785 151.101L568.872 152.014V152.927H570.698C579.686 150.17 587.474 144.387 594.062 135.578H593.149ZM556.035 154.753L555.981 155.666L556.841 156.579L555.928 157.492L555.82 159.318H557.646L557.861 154.753H556.035Z" fill="white"/>
<path d="M4.98499 9.968C2.23599 9.968 0 7.732 0 4.984C0 2.236 2.23599 0 4.98499 0C7.73399 0 9.96899 2.236 9.96899 4.984C9.96799 7.732 7.73299 9.968 4.98499 9.968ZM4.98499 1.59C3.11299 1.59 1.591 3.112 1.591 4.984C1.591 6.856 3.11299 8.378 4.98499 8.378C6.85599 8.378 8.379 6.856 8.379 4.984C8.379 3.112 6.85599 1.59 4.98499 1.59Z" fill="#2FC29B"/>
<path d="M19.2076 9.968C16.4586 9.968 14.2236 7.732 14.2236 4.984C14.2236 2.236 16.4596 0 19.2076 0C21.9566 0 24.1926 2.236 24.1926 4.984C24.1936 7.732 21.9566 9.968 19.2076 9.968ZM19.2076 1.59C17.3356 1.59 15.8136 3.112 15.8136 4.984C15.8136 6.856 17.3356 8.378 19.2076 8.378C21.0796 8.378 22.6026 6.856 22.6026 4.984C22.6026 3.112 21.0796 1.59 19.2076 1.59Z" fill="#2FC29B"/>
<path d="M4.98499 23.468C2.23599 23.468 0 21.232 0 18.484C0 15.736 2.23599 13.5 4.98499 13.5C7.73399 13.5 9.96899 15.736 9.96899 18.484C9.96899 21.232 7.73299 23.468 4.98499 23.468ZM4.98499 15.09C3.11299 15.09 1.591 16.613 1.591 18.484C1.591 20.355 3.11299 21.878 4.98499 21.878C6.85599 21.878 8.379 20.356 8.379 18.484C8.379 16.612 6.85599 15.09 4.98499 15.09Z" fill="#2FC29B"/>
<path d="M19.2076 23.468C16.4586 23.468 14.2236 21.232 14.2236 18.484C14.2236 15.736 16.4596 13.5 19.2076 13.5C21.9566 13.5 24.1926 15.736 24.1926 18.484C24.1926 21.232 21.9566 23.468 19.2076 23.468ZM19.2076 15.09C17.3356 15.09 15.8136 16.613 15.8136 18.484C15.8136 20.355 17.3356 21.878 19.2076 21.878C21.0796 21.878 22.6026 20.356 22.6026 18.484C22.6026 16.612 21.0796 15.09 19.2076 15.09Z" fill="#2FC29B"/>
<path d="M33.4332 9.968C30.6842 9.968 28.4482 7.732 28.4482 4.984C28.4482 2.236 30.6842 0 33.4332 0C36.1812 0 38.4172 2.236 38.4172 4.984C38.4182 7.732 36.1812 9.968 33.4332 9.968ZM33.4332 1.59C31.5612 1.59 30.0382 3.112 30.0382 4.984C30.0382 6.856 31.5602 8.378 33.4332 8.378C35.3042 8.378 36.8272 6.856 36.8272 4.984C36.8272 3.112 35.3042 1.59 33.4332 1.59Z" fill="#2FC29B"/>
<path d="M47.6568 9.968C44.9078 9.968 42.6729 7.732 42.6729 4.984C42.6729 2.236 44.9088 0 47.6568 0C50.4058 0 52.6418 2.236 52.6418 4.984C52.6418 7.732 50.4058 9.968 47.6568 9.968ZM47.6568 1.59C45.7858 1.59 44.2628 3.112 44.2628 4.984C44.2628 6.856 45.7858 8.378 47.6568 8.378C49.5288 8.378 51.0518 6.856 51.0518 4.984C51.0518 3.112 49.5288 1.59 47.6568 1.59Z" fill="#2FC29B"/>
<path d="M33.4332 23.468C30.6842 23.468 28.4482 21.232 28.4482 18.484C28.4482 15.736 30.6842 13.5 33.4332 13.5C36.1812 13.5 38.4172 15.736 38.4172 18.484C38.4172 21.232 36.1812 23.468 33.4332 23.468ZM33.4332 15.09C31.5612 15.09 30.0382 16.613 30.0382 18.484C30.0382 20.355 31.5602 21.878 33.4332 21.878C35.3042 21.878 36.8272 20.356 36.8272 18.484C36.8272 16.612 35.3042 15.09 33.4332 15.09Z" fill="#2FC29B"/>
<path d="M47.6568 23.468C44.9078 23.468 42.6729 21.232 42.6729 18.484C42.6729 15.736 44.9088 13.5 47.6568 13.5C50.4058 13.5 52.6418 15.736 52.6418 18.484C52.6418 21.232 50.4058 23.468 47.6568 23.468ZM47.6568 15.09C45.7858 15.09 44.2628 16.613 44.2628 18.484C44.2628 20.355 45.7858 21.878 47.6568 21.878C49.5288 21.878 51.0518 20.356 51.0518 18.484C51.0518 16.612 49.5288 15.09 47.6568 15.09Z" fill="#2FC29B"/>
<path d="M61.8824 9.968C59.1344 9.968 56.8984 7.732 56.8984 4.984C56.8984 2.236 59.1344 0 61.8824 0C64.6314 0 66.8675 2.236 66.8675 4.984C66.8665 7.732 64.6304 9.968 61.8824 9.968ZM61.8824 1.59C60.0114 1.59 58.4885 3.112 58.4885 4.984C58.4885 6.856 60.0104 8.378 61.8824 8.378C63.7544 8.378 65.2765 6.856 65.2765 4.984C65.2765 3.112 63.7534 1.59 61.8824 1.59Z" fill="#2FC29B"/>
<path d="M76.1061 9.968C73.3571 9.968 71.1221 7.732 71.1221 4.984C71.1221 2.236 73.3581 0 76.1061 0C78.8551 0 81.0911 2.236 81.0911 4.984C81.0911 7.732 78.8551 9.968 76.1061 9.968ZM76.1061 1.59C74.2351 1.59 72.7121 3.112 72.7121 4.984C72.7121 6.856 74.2341 8.378 76.1061 8.378C77.9781 8.378 79.5011 6.856 79.5011 4.984C79.5011 3.112 77.9771 1.59 76.1061 1.59Z" fill="#2FC29B"/>
<path d="M61.8824 23.468C59.1344 23.468 56.8984 21.232 56.8984 18.484C56.8984 15.736 59.1344 13.5 61.8824 13.5C64.6314 13.5 66.8675 15.736 66.8675 18.484C66.8675 21.232 64.6304 23.468 61.8824 23.468ZM61.8824 15.09C60.0114 15.09 58.4885 16.613 58.4885 18.484C58.4885 20.355 60.0104 21.878 61.8824 21.878C63.7544 21.878 65.2765 20.356 65.2765 18.484C65.2765 16.612 63.7534 15.09 61.8824 15.09Z" fill="#2FC29B"/>
<path d="M76.1061 23.468C73.3571 23.468 71.1221 21.232 71.1221 18.484C71.1221 15.736 73.3581 13.5 76.1061 13.5C78.8551 13.5 81.0911 15.736 81.0911 18.484C81.0911 21.232 78.8551 23.468 76.1061 23.468ZM76.1061 15.09C74.2351 15.09 72.7121 16.613 72.7121 18.484C72.7121 20.355 74.2341 21.878 76.1061 21.878C77.9781 21.878 79.5011 20.356 79.5011 18.484C79.5011 16.612 77.9771 15.09 76.1061 15.09Z" fill="#2FC29B"/>
<path d="M90.3297 9.968C87.5807 9.968 85.3457 7.732 85.3457 4.984C85.3457 2.236 87.5807 0 90.3297 0C93.0787 0 95.3147 2.236 95.3147 4.984C95.3147 7.732 93.0787 9.968 90.3297 9.968ZM90.3297 1.59C88.4587 1.59 86.9357 3.112 86.9357 4.984C86.9357 6.856 88.4587 8.378 90.3297 8.378C92.2017 8.378 93.7247 6.856 93.7247 4.984C93.7247 3.112 92.2017 1.59 90.3297 1.59Z" fill="#2FC29B"/>
<path d="M104.555 9.968C101.806 9.968 99.5703 7.732 99.5703 4.984C99.5703 2.236 101.806 0 104.555 0C107.303 0 109.539 2.236 109.539 4.984C109.54 7.732 107.303 9.968 104.555 9.968ZM104.555 1.59C102.683 1.59 101.16 3.112 101.16 4.984C101.16 6.856 102.683 8.378 104.555 8.378C106.426 8.378 107.949 6.856 107.949 4.984C107.949 3.112 106.426 1.59 104.555 1.59Z" fill="#2FC29B"/>
<path d="M90.3297 23.468C87.5807 23.468 85.3457 21.232 85.3457 18.484C85.3457 15.736 87.5807 13.5 90.3297 13.5C93.0787 13.5 95.3147 15.736 95.3147 18.484C95.3147 21.232 93.0787 23.468 90.3297 23.468ZM90.3297 15.09C88.4587 15.09 86.9357 16.613 86.9357 18.484C86.9357 20.355 88.4587 21.878 90.3297 21.878C92.2017 21.878 93.7247 20.356 93.7247 18.484C93.7247 16.612 92.2017 15.09 90.3297 15.09Z" fill="#2FC29B"/>
<path d="M104.555 23.468C101.806 23.468 99.5703 21.232 99.5703 18.484C99.5703 15.736 101.806 13.5 104.555 13.5C107.303 13.5 109.539 15.736 109.539 18.484C109.539 21.232 107.303 23.468 104.555 23.468ZM104.555 15.09C102.683 15.09 101.16 16.613 101.16 18.484C101.16 20.355 102.683 21.878 104.555 21.878C106.426 21.878 107.949 20.356 107.949 18.484C107.949 16.612 106.426 15.09 104.555 15.09Z" fill="#2FC29B"/>
<path d="M4.98499 37.6931C2.23599 37.6931 0 35.4561 0 32.7081C0 29.9601 2.23599 27.7241 4.98499 27.7241C7.73399 27.7241 9.96899 29.9601 9.96899 32.7081C9.96899 35.4561 7.73299 37.6931 4.98499 37.6931ZM4.98499 29.3141C3.11299 29.3141 1.591 30.8361 1.591 32.7081C1.591 34.5801 3.11299 36.1021 4.98499 36.1021C6.85599 36.1021 8.379 34.5801 8.379 32.7081C8.379 30.8361 6.85599 29.3141 4.98499 29.3141Z" fill="#2FC29B"/>
<path d="M19.2076 37.6931C16.4586 37.6931 14.2236 35.4561 14.2236 32.7081C14.2236 29.9601 16.4596 27.7241 19.2076 27.7241C21.9566 27.7241 24.1926 29.9601 24.1926 32.7081C24.1926 35.4561 21.9566 37.6931 19.2076 37.6931ZM19.2076 29.3141C17.3356 29.3141 15.8136 30.8361 15.8136 32.7081C15.8136 34.5801 17.3356 36.1021 19.2076 36.1021C21.0796 36.1021 22.6026 34.5801 22.6026 32.7081C22.6026 30.8361 21.0796 29.3141 19.2076 29.3141Z" fill="#2FC29B"/>
<path d="M4.98499 51.1931C2.23599 51.1931 0 48.9571 0 46.2081C0 43.4601 2.23599 41.2251 4.98499 41.2251C7.73399 41.2251 9.96899 43.4601 9.96899 46.2081C9.96799 48.9571 7.73299 51.1931 4.98499 51.1931ZM4.98499 42.8151C3.11299 42.8151 1.591 44.3371 1.591 46.2081C1.591 48.0801 3.11299 49.6031 4.98499 49.6031C6.85599 49.6031 8.379 48.0811 8.379 46.2081C8.379 44.3371 6.85599 42.8151 4.98499 42.8151Z" fill="#2FC29B"/>
<path d="M19.2076 51.1931C16.4586 51.1931 14.2236 48.9571 14.2236 46.2081C14.2236 43.4601 16.4596 41.2251 19.2076 41.2251C21.9566 41.2251 24.1926 43.4601 24.1926 46.2081C24.1936 48.9571 21.9566 51.1931 19.2076 51.1931ZM19.2076 42.8151C17.3356 42.8151 15.8136 44.3371 15.8136 46.2081C15.8136 48.0801 17.3356 49.6031 19.2076 49.6031C21.0796 49.6031 22.6026 48.0811 22.6026 46.2081C22.6026 44.3371 21.0796 42.8151 19.2076 42.8151Z" fill="#2FC29B"/>
<path d="M33.4332 37.6931C30.6842 37.6931 28.4482 35.4561 28.4482 32.7081C28.4482 29.9601 30.6842 27.7241 33.4332 27.7241C36.1812 27.7241 38.4172 29.9601 38.4172 32.7081C38.4172 35.4561 36.1812 37.6931 33.4332 37.6931ZM33.4332 29.3141C31.5612 29.3141 30.0382 30.8361 30.0382 32.7081C30.0382 34.5801 31.5602 36.1021 33.4332 36.1021C35.3042 36.1021 36.8272 34.5801 36.8272 32.7081C36.8272 30.8361 35.3042 29.3141 33.4332 29.3141Z" fill="#2FC29B"/>
<path d="M47.6568 37.6931C44.9078 37.6931 42.6729 35.4561 42.6729 32.7081C42.6729 29.9601 44.9088 27.7241 47.6568 27.7241C50.4058 27.7241 52.6418 29.9601 52.6418 32.7081C52.6418 35.4561 50.4058 37.6931 47.6568 37.6931ZM47.6568 29.3141C45.7858 29.3141 44.2628 30.8361 44.2628 32.7081C44.2628 34.5801 45.7858 36.1021 47.6568 36.1021C49.5288 36.1021 51.0518 34.5801 51.0518 32.7081C51.0518 30.8361 49.5288 29.3141 47.6568 29.3141Z" fill="#2FC29B"/>
<path d="M33.4332 51.1931C30.6842 51.1931 28.4482 48.9571 28.4482 46.2081C28.4482 43.4601 30.6842 41.2251 33.4332 41.2251C36.1812 41.2251 38.4172 43.4601 38.4172 46.2081C38.4182 48.9571 36.1812 51.1931 33.4332 51.1931ZM33.4332 42.8151C31.5612 42.8151 30.0382 44.3371 30.0382 46.2081C30.0382 48.0801 31.5602 49.6031 33.4332 49.6031C35.3042 49.6031 36.8272 48.0811 36.8272 46.2081C36.8272 44.3371 35.3042 42.8151 33.4332 42.8151Z" fill="#2FC29B"/>
<path d="M47.6568 51.1931C44.9078 51.1931 42.6729 48.9571 42.6729 46.2081C42.6729 43.4601 44.9088 41.2251 47.6568 41.2251C50.4058 41.2251 52.6418 43.4601 52.6418 46.2081C52.6418 48.9571 50.4058 51.1931 47.6568 51.1931ZM47.6568 42.8151C45.7858 42.8151 44.2628 44.3371 44.2628 46.2081C44.2628 48.0801 45.7858 49.6031 47.6568 49.6031C49.5288 49.6031 51.0518 48.0811 51.0518 46.2081C51.0508 44.3371 49.5288 42.8151 47.6568 42.8151Z" fill="#2FC29B"/>
<path d="M61.8824 37.6931C59.1344 37.6931 56.8984 35.4561 56.8984 32.7081C56.8984 29.9601 59.1344 27.7241 61.8824 27.7241C64.6314 27.7241 66.8675 29.9601 66.8675 32.7081C66.8675 35.4561 64.6304 37.6931 61.8824 37.6931ZM61.8824 29.3141C60.0114 29.3141 58.4885 30.8361 58.4885 32.7081C58.4885 34.5801 60.0104 36.1021 61.8824 36.1021C63.7544 36.1021 65.2765 34.5801 65.2765 32.7081C65.2765 30.8361 63.7534 29.3141 61.8824 29.3141Z" fill="#2FC29B"/>
<path d="M76.1061 37.6931C73.3571 37.6931 71.1221 35.4561 71.1221 32.7081C71.1221 29.9601 73.3581 27.7241 76.1061 27.7241C78.8551 27.7241 81.0911 29.9601 81.0911 32.7081C81.0911 35.4561 78.8551 37.6931 76.1061 37.6931ZM76.1061 29.3141C74.2351 29.3141 72.7121 30.8361 72.7121 32.7081C72.7121 34.5801 74.2341 36.1021 76.1061 36.1021C77.9781 36.1021 79.5011 34.5801 79.5011 32.7081C79.5011 30.8361 77.9771 29.3141 76.1061 29.3141Z" fill="#2FC29B"/>
<path d="M61.8824 51.1931C59.1344 51.1931 56.8984 48.9571 56.8984 46.2081C56.8984 43.4601 59.1344 41.2251 61.8824 41.2251C64.6314 41.2251 66.8675 43.4601 66.8675 46.2081C66.8665 48.9571 64.6304 51.1931 61.8824 51.1931ZM61.8824 42.8151C60.0114 42.8151 58.4885 44.3371 58.4885 46.2081C58.4885 48.0801 60.0104 49.6031 61.8824 49.6031C63.7544 49.6031 65.2765 48.0811 65.2765 46.2081C65.2765 44.3371 63.7534 42.8151 61.8824 42.8151Z" fill="#2FC29B"/>
<path d="M76.1061 51.1931C73.3571 51.1931 71.1221 48.9571 71.1221 46.2081C71.1221 43.4601 73.3581 41.2251 76.1061 41.2251C78.8551 41.2251 81.0911 43.4601 81.0911 46.2081C81.0911 48.9571 78.8551 51.1931 76.1061 51.1931ZM76.1061 42.8151C74.2351 42.8151 72.7121 44.3371 72.7121 46.2081C72.7121 48.0801 74.2341 49.6031 76.1061 49.6031C77.9781 49.6031 79.5011 48.0811 79.5011 46.2081C79.5011 44.3371 77.9771 42.8151 76.1061 42.8151Z" fill="#2FC29B"/>
<path d="M90.3297 37.6931C87.5807 37.6931 85.3457 35.4561 85.3457 32.7081C85.3457 29.9601 87.5807 27.7241 90.3297 27.7241C93.0787 27.7241 95.3147 29.9601 95.3147 32.7081C95.3147 35.4561 93.0787 37.6931 90.3297 37.6931ZM90.3297 29.3141C88.4587 29.3141 86.9357 30.8361 86.9357 32.7081C86.9357 34.5801 88.4587 36.1021 90.3297 36.1021C92.2017 36.1021 93.7247 34.5801 93.7247 32.7081C93.7247 30.8361 92.2017 29.3141 90.3297 29.3141Z" fill="#2FC29B"/>
<path d="M104.555 37.6931C101.806 37.6931 99.5703 35.4561 99.5703 32.7081C99.5703 29.9601 101.806 27.7241 104.555 27.7241C107.303 27.7241 109.539 29.9601 109.539 32.7081C109.539 35.4561 107.303 37.6931 104.555 37.6931ZM104.555 29.3141C102.683 29.3141 101.16 30.8361 101.16 32.7081C101.16 34.5801 102.683 36.1021 104.555 36.1021C106.426 36.1021 107.949 34.5801 107.949 32.7081C107.949 30.8361 106.426 29.3141 104.555 29.3141Z" fill="#2FC29B"/>
<path d="M90.3297 51.1931C87.5807 51.1931 85.3457 48.9571 85.3457 46.2081C85.3457 43.4601 87.5807 41.2251 90.3297 41.2251C93.0787 41.2251 95.3147 43.4601 95.3147 46.2081C95.3147 48.9571 93.0787 51.1931 90.3297 51.1931ZM90.3297 42.8151C88.4587 42.8151 86.9357 44.3371 86.9357 46.2081C86.9357 48.0801 88.4587 49.6031 90.3297 49.6031C92.2017 49.6031 93.7247 48.0811 93.7247 46.2081C93.7247 44.3371 92.2017 42.8151 90.3297 42.8151Z" fill="#2FC29B"/>
<path d="M104.555 51.1931C101.806 51.1931 99.5703 48.9571 99.5703 46.2081C99.5703 43.4601 101.806 41.2251 104.555 41.2251C107.303 41.2251 109.539 43.4601 109.539 46.2081C109.54 48.9571 107.303 51.1931 104.555 51.1931ZM104.555 42.8151C102.683 42.8151 101.16 44.3371 101.16 46.2081C101.16 48.0801 102.683 49.6031 104.555 49.6031C106.426 49.6031 107.949 48.0811 107.949 46.2081C107.949 44.3371 106.426 42.8151 104.555 42.8151Z" fill="#2FC29B"/>
<path d="M594.985 256.968C592.236 256.968 590 254.732 590 251.984C590 249.236 592.236 247 594.985 247C597.734 247 599.969 249.236 599.969 251.984C599.968 254.732 597.733 256.968 594.985 256.968ZM594.985 248.59C593.113 248.59 591.591 250.112 591.591 251.984C591.591 253.856 593.113 255.378 594.985 255.378C596.856 255.378 598.379 253.856 598.379 251.984C598.379 250.112 596.856 248.59 594.985 248.59Z" fill="#2FC29B"/>
<path d="M609.208 256.968C606.459 256.968 604.224 254.732 604.224 251.984C604.224 249.236 606.46 247 609.208 247C611.957 247 614.193 249.236 614.193 251.984C614.194 254.732 611.957 256.968 609.208 256.968ZM609.208 248.59C607.336 248.59 605.814 250.112 605.814 251.984C605.814 253.856 607.336 255.378 609.208 255.378C611.08 255.378 612.603 253.856 612.603 251.984C612.603 250.112 611.08 248.59 609.208 248.59Z" fill="#2FC29B"/>
<path d="M594.985 270.468C592.236 270.468 590 268.232 590 265.484C590 262.736 592.236 260.5 594.985 260.5C597.734 260.5 599.969 262.736 599.969 265.484C599.969 268.232 597.733 270.468 594.985 270.468ZM594.985 262.09C593.113 262.09 591.591 263.613 591.591 265.484C591.591 267.355 593.113 268.878 594.985 268.878C596.856 268.878 598.379 267.356 598.379 265.484C598.379 263.612 596.856 262.09 594.985 262.09Z" fill="#2FC29B"/>
<path d="M609.208 270.468C606.459 270.468 604.224 268.232 604.224 265.484C604.224 262.736 606.46 260.5 609.208 260.5C611.957 260.5 614.193 262.736 614.193 265.484C614.193 268.232 611.957 270.468 609.208 270.468ZM609.208 262.09C607.336 262.09 605.814 263.613 605.814 265.484C605.814 267.355 607.336 268.878 609.208 268.878C611.08 268.878 612.603 267.356 612.603 265.484C612.603 263.612 611.08 262.09 609.208 262.09Z" fill="#2FC29B"/>
<path d="M623.433 256.968C620.684 256.968 618.448 254.732 618.448 251.984C618.448 249.236 620.684 247 623.433 247C626.181 247 628.417 249.236 628.417 251.984C628.418 254.732 626.181 256.968 623.433 256.968ZM623.433 248.59C621.561 248.59 620.038 250.112 620.038 251.984C620.038 253.856 621.56 255.378 623.433 255.378C625.304 255.378 626.827 253.856 626.827 251.984C626.827 250.112 625.304 248.59 623.433 248.59Z" fill="#2FC29B"/>
<path d="M637.657 256.968C634.908 256.968 632.673 254.732 632.673 251.984C632.673 249.236 634.909 247 637.657 247C640.406 247 642.642 249.236 642.642 251.984C642.642 254.732 640.406 256.968 637.657 256.968ZM637.657 248.59C635.786 248.59 634.263 250.112 634.263 251.984C634.263 253.856 635.786 255.378 637.657 255.378C639.529 255.378 641.052 253.856 641.052 251.984C641.052 250.112 639.529 248.59 637.657 248.59Z" fill="#2FC29B"/>
<path d="M623.433 270.468C620.684 270.468 618.448 268.232 618.448 265.484C618.448 262.736 620.684 260.5 623.433 260.5C626.181 260.5 628.417 262.736 628.417 265.484C628.417 268.232 626.181 270.468 623.433 270.468ZM623.433 262.09C621.561 262.09 620.038 263.613 620.038 265.484C620.038 267.355 621.56 268.878 623.433 268.878C625.304 268.878 626.827 267.356 626.827 265.484C626.827 263.612 625.304 262.09 623.433 262.09Z" fill="#2FC29B"/>
<path d="M637.657 270.468C634.908 270.468 632.673 268.232 632.673 265.484C632.673 262.736 634.909 260.5 637.657 260.5C640.406 260.5 642.642 262.736 642.642 265.484C642.642 268.232 640.406 270.468 637.657 270.468ZM637.657 262.09C635.786 262.09 634.263 263.613 634.263 265.484C634.263 267.355 635.786 268.878 637.657 268.878C639.529 268.878 641.052 267.356 641.052 265.484C641.052 263.612 639.529 262.09 637.657 262.09Z" fill="#2FC29B"/>
<path d="M651.882 256.968C649.134 256.968 646.898 254.732 646.898 251.984C646.898 249.236 649.134 247 651.882 247C654.631 247 656.867 249.236 656.867 251.984C656.866 254.732 654.63 256.968 651.882 256.968ZM651.882 248.59C650.011 248.59 648.488 250.112 648.488 251.984C648.488 253.856 650.01 255.378 651.882 255.378C653.754 255.378 655.276 253.856 655.276 251.984C655.276 250.112 653.753 248.59 651.882 248.59Z" fill="#2FC29B"/>
<path d="M666.106 256.968C663.357 256.968 661.122 254.732 661.122 251.984C661.122 249.236 663.358 247 666.106 247C668.855 247 671.091 249.236 671.091 251.984C671.091 254.732 668.855 256.968 666.106 256.968ZM666.106 248.59C664.235 248.59 662.712 250.112 662.712 251.984C662.712 253.856 664.234 255.378 666.106 255.378C667.978 255.378 669.501 253.856 669.501 251.984C669.501 250.112 667.977 248.59 666.106 248.59Z" fill="#2FC29B"/>
<path d="M651.882 270.468C649.134 270.468 646.898 268.232 646.898 265.484C646.898 262.736 649.134 260.5 651.882 260.5C654.631 260.5 656.867 262.736 656.867 265.484C656.867 268.232 654.63 270.468 651.882 270.468ZM651.882 262.09C650.011 262.09 648.488 263.613 648.488 265.484C648.488 267.355 650.01 268.878 651.882 268.878C653.754 268.878 655.276 267.356 655.276 265.484C655.276 263.612 653.753 262.09 651.882 262.09Z" fill="#2FC29B"/>
<path d="M666.106 270.468C663.357 270.468 661.122 268.232 661.122 265.484C661.122 262.736 663.358 260.5 666.106 260.5C668.855 260.5 671.091 262.736 671.091 265.484C671.091 268.232 668.855 270.468 666.106 270.468ZM666.106 262.09C664.235 262.09 662.712 263.613 662.712 265.484C662.712 267.355 664.234 268.878 666.106 268.878C667.978 268.878 669.501 267.356 669.501 265.484C669.501 263.612 667.977 262.09 666.106 262.09Z" fill="#2FC29B"/>
<path d="M680.33 256.968C677.581 256.968 675.346 254.732 675.346 251.984C675.346 249.236 677.581 247 680.33 247C683.079 247 685.315 249.236 685.315 251.984C685.315 254.732 683.079 256.968 680.33 256.968ZM680.33 248.59C678.459 248.59 676.936 250.112 676.936 251.984C676.936 253.856 678.459 255.378 680.33 255.378C682.202 255.378 683.725 253.856 683.725 251.984C683.725 250.112 682.202 248.59 680.33 248.59Z" fill="#2FC29B"/>
<path d="M694.555 256.968C691.806 256.968 689.57 254.732 689.57 251.984C689.57 249.236 691.806 247 694.555 247C697.303 247 699.539 249.236 699.539 251.984C699.54 254.732 697.303 256.968 694.555 256.968ZM694.555 248.59C692.683 248.59 691.16 250.112 691.16 251.984C691.16 253.856 692.683 255.378 694.555 255.378C696.426 255.378 697.949 253.856 697.949 251.984C697.949 250.112 696.426 248.59 694.555 248.59Z" fill="#2FC29B"/>
<path d="M680.33 270.468C677.581 270.468 675.346 268.232 675.346 265.484C675.346 262.736 677.581 260.5 680.33 260.5C683.079 260.5 685.315 262.736 685.315 265.484C685.315 268.232 683.079 270.468 680.33 270.468ZM680.33 262.09C678.459 262.09 676.936 263.613 676.936 265.484C676.936 267.355 678.459 268.878 680.33 268.878C682.202 268.878 683.725 267.356 683.725 265.484C683.725 263.612 682.202 262.09 680.33 262.09Z" fill="#2FC29B"/>
<path d="M694.555 270.468C691.806 270.468 689.57 268.232 689.57 265.484C689.57 262.736 691.806 260.5 694.555 260.5C697.303 260.5 699.539 262.736 699.539 265.484C699.539 268.232 697.303 270.468 694.555 270.468ZM694.555 262.09C692.683 262.09 691.16 263.613 691.16 265.484C691.16 267.355 692.683 268.878 694.555 268.878C696.426 268.878 697.949 267.356 697.949 265.484C697.949 263.612 696.426 262.09 694.555 262.09Z" fill="#2FC29B"/>
<path d="M594.985 284.693C592.236 284.693 590 282.456 590 279.708C590 276.96 592.236 274.724 594.985 274.724C597.734 274.724 599.969 276.96 599.969 279.708C599.969 282.456 597.733 284.693 594.985 284.693ZM594.985 276.314C593.113 276.314 591.591 277.836 591.591 279.708C591.591 281.58 593.113 283.102 594.985 283.102C596.856 283.102 598.379 281.58 598.379 279.708C598.379 277.836 596.856 276.314 594.985 276.314Z" fill="#2FC29B"/>
<path d="M609.208 284.693C606.459 284.693 604.224 282.456 604.224 279.708C604.224 276.96 606.46 274.724 609.208 274.724C611.957 274.724 614.193 276.96 614.193 279.708C614.193 282.456 611.957 284.693 609.208 284.693ZM609.208 276.314C607.336 276.314 605.814 277.836 605.814 279.708C605.814 281.58 607.336 283.102 609.208 283.102C611.08 283.102 612.603 281.58 612.603 279.708C612.603 277.836 611.08 276.314 609.208 276.314Z" fill="#2FC29B"/>
<path d="M594.985 298.193C592.236 298.193 590 295.957 590 293.208C590 290.46 592.236 288.225 594.985 288.225C597.734 288.225 599.969 290.46 599.969 293.208C599.968 295.957 597.733 298.193 594.985 298.193ZM594.985 289.815C593.113 289.815 591.591 291.337 591.591 293.208C591.591 295.08 593.113 296.603 594.985 296.603C596.856 296.603 598.379 295.081 598.379 293.208C598.379 291.337 596.856 289.815 594.985 289.815Z" fill="#2FC29B"/>
<path d="M609.208 298.193C606.459 298.193 604.224 295.957 604.224 293.208C604.224 290.46 606.46 288.225 609.208 288.225C611.957 288.225 614.193 290.46 614.193 293.208C614.194 295.957 611.957 298.193 609.208 298.193ZM609.208 289.815C607.336 289.815 605.814 291.337 605.814 293.208C605.814 295.08 607.336 296.603 609.208 296.603C611.08 296.603 612.603 295.081 612.603 293.208C612.603 291.337 611.08 289.815 609.208 289.815Z" fill="#2FC29B"/>
<path d="M623.433 284.693C620.684 284.693 618.448 282.456 618.448 279.708C618.448 276.96 620.684 274.724 623.433 274.724C626.181 274.724 628.417 276.96 628.417 279.708C628.417 282.456 626.181 284.693 623.433 284.693ZM623.433 276.314C621.561 276.314 620.038 277.836 620.038 279.708C620.038 281.58 621.56 283.102 623.433 283.102C625.304 283.102 626.827 281.58 626.827 279.708C626.827 277.836 625.304 276.314 623.433 276.314Z" fill="#2FC29B"/>
<path d="M637.657 284.693C634.908 284.693 632.673 282.456 632.673 279.708C632.673 276.96 634.909 274.724 637.657 274.724C640.406 274.724 642.642 276.96 642.642 279.708C642.642 282.456 640.406 284.693 637.657 284.693ZM637.657 276.314C635.786 276.314 634.263 277.836 634.263 279.708C634.263 281.58 635.786 283.102 637.657 283.102C639.529 283.102 641.052 281.58 641.052 279.708C641.052 277.836 639.529 276.314 637.657 276.314Z" fill="#2FC29B"/>
<path d="M623.433 298.193C620.684 298.193 618.448 295.957 618.448 293.208C618.448 290.46 620.684 288.225 623.433 288.225C626.181 288.225 628.417 290.46 628.417 293.208C628.418 295.957 626.181 298.193 623.433 298.193ZM623.433 289.815C621.561 289.815 620.038 291.337 620.038 293.208C620.038 295.08 621.56 296.603 623.433 296.603C625.304 296.603 626.827 295.081 626.827 293.208C626.827 291.337 625.304 289.815 623.433 289.815Z" fill="#2FC29B"/>
<path d="M637.657 298.193C634.908 298.193 632.673 295.957 632.673 293.208C632.673 290.46 634.909 288.225 637.657 288.225C640.406 288.225 642.642 290.46 642.642 293.208C642.642 295.957 640.406 298.193 637.657 298.193ZM637.657 289.815C635.786 289.815 634.263 291.337 634.263 293.208C634.263 295.08 635.786 296.603 637.657 296.603C639.529 296.603 641.052 295.081 641.052 293.208C641.051 291.337 639.529 289.815 637.657 289.815Z" fill="#2FC29B"/>
<path d="M651.882 284.693C649.134 284.693 646.898 282.456 646.898 279.708C646.898 276.96 649.134 274.724 651.882 274.724C654.631 274.724 656.867 276.96 656.867 279.708C656.867 282.456 654.63 284.693 651.882 284.693ZM651.882 276.314C650.011 276.314 648.488 277.836 648.488 279.708C648.488 281.58 650.01 283.102 651.882 283.102C653.754 283.102 655.276 281.58 655.276 279.708C655.276 277.836 653.753 276.314 651.882 276.314Z" fill="#2FC29B"/>
<path d="M666.106 284.693C663.357 284.693 661.122 282.456 661.122 279.708C661.122 276.96 663.358 274.724 666.106 274.724C668.855 274.724 671.091 276.96 671.091 279.708C671.091 282.456 668.855 284.693 666.106 284.693ZM666.106 276.314C664.235 276.314 662.712 277.836 662.712 279.708C662.712 281.58 664.234 283.102 666.106 283.102C667.978 283.102 669.501 281.58 669.501 279.708C669.501 277.836 667.977 276.314 666.106 276.314Z" fill="#2FC29B"/>
<path d="M651.882 298.193C649.134 298.193 646.898 295.957 646.898 293.208C646.898 290.46 649.134 288.225 651.882 288.225C654.631 288.225 656.867 290.46 656.867 293.208C656.866 295.957 654.63 298.193 651.882 298.193ZM651.882 289.815C650.011 289.815 648.488 291.337 648.488 293.208C648.488 295.08 650.01 296.603 651.882 296.603C653.754 296.603 655.276 295.081 655.276 293.208C655.276 291.337 653.753 289.815 651.882 289.815Z" fill="#2FC29B"/>
<path d="M666.106 298.193C663.357 298.193 661.122 295.957 661.122 293.208C661.122 290.46 663.358 288.225 666.106 288.225C668.855 288.225 671.091 290.46 671.091 293.208C671.091 295.957 668.855 298.193 666.106 298.193ZM666.106 289.815C664.235 289.815 662.712 291.337 662.712 293.208C662.712 295.08 664.234 296.603 666.106 296.603C667.978 296.603 669.501 295.081 669.501 293.208C669.501 291.337 667.977 289.815 666.106 289.815Z" fill="#2FC29B"/>
<path d="M680.33 284.693C677.581 284.693 675.346 282.456 675.346 279.708C675.346 276.96 677.581 274.724 680.33 274.724C683.079 274.724 685.315 276.96 685.315 279.708C685.315 282.456 683.079 284.693 680.33 284.693ZM680.33 276.314C678.459 276.314 676.936 277.836 676.936 279.708C676.936 281.58 678.459 283.102 680.33 283.102C682.202 283.102 683.725 281.58 683.725 279.708C683.725 277.836 682.202 276.314 680.33 276.314Z" fill="#2FC29B"/>
<path d="M694.555 284.693C691.806 284.693 689.57 282.456 689.57 279.708C689.57 276.96 691.806 274.724 694.555 274.724C697.303 274.724 699.539 276.96 699.539 279.708C699.539 282.456 697.303 284.693 694.555 284.693ZM694.555 276.314C692.683 276.314 691.16 277.836 691.16 279.708C691.16 281.58 692.683 283.102 694.555 283.102C696.426 283.102 697.949 281.58 697.949 279.708C697.949 277.836 696.426 276.314 694.555 276.314Z" fill="#2FC29B"/>
<path d="M680.33 298.193C677.581 298.193 675.346 295.957 675.346 293.208C675.346 290.46 677.581 288.225 680.33 288.225C683.079 288.225 685.315 290.46 685.315 293.208C685.315 295.957 683.079 298.193 680.33 298.193ZM680.33 289.815C678.459 289.815 676.936 291.337 676.936 293.208C676.936 295.08 678.459 296.603 680.33 296.603C682.202 296.603 683.725 295.081 683.725 293.208C683.725 291.337 682.202 289.815 680.33 289.815Z" fill="#2FC29B"/>
<path d="M694.555 298.193C691.806 298.193 689.57 295.957 689.57 293.208C689.57 290.46 691.806 288.225 694.555 288.225C697.303 288.225 699.539 290.46 699.539 293.208C699.54 295.957 697.303 298.193 694.555 298.193ZM694.555 289.815C692.683 289.815 691.16 291.337 691.16 293.208C691.16 295.08 692.683 296.603 694.555 296.603C696.426 296.603 697.949 295.081 697.949 293.208C697.949 291.337 696.426 289.815 694.555 289.815Z" fill="#2FC29B"/>
</svg>
