<svg width="700" height="300" viewBox="0 0 700 300" fill="none" xmlns="http://www.w3.org/2000/svg">
<g clip-path="url(#clip0)">
<path d="M641.872 39.0201C687.514 62.7543 673.575 106.949 666.079 148.003C658.582 189.058 657.958 226.98 612.317 252.747C566.52 278.534 476.008 292.069 394.223 288.41C312.438 284.69 149.897 297.878 91.5631 276.974C19.6053 251.187 24.5055 181.633 26.6435 151.977C28.7815 122.32 45.6112 75.2304 117.596 51.5C189.582 27.7696 316.723 27.4105 403.692 19.713C490.662 12.0155 596.268 15.2897 641.872 39.0201Z" fill="#2B2E32"/>
<path d="M301.039 272.367L295.578 272.932C293.81 273.115 292.853 272.695 292.698 271.673L290.009 272.692C271.195 270.189 260.837 262.199 258.941 248.727L260.339 248.582C260.254 248.044 259.76 247.823 258.821 247.922C257.058 235.427 261.607 218.682 272.459 197.693C274.836 196.305 279.024 189.754 285.006 178.037C289.529 171.131 292.72 167.579 294.581 167.384C297.848 164.42 302.659 155.923 309.01 141.886C306.224 141.638 304.657 140.211 304.288 137.625L303.945 135.21L301.15 135.503L300.701 132.352C288.776 113.58 275.041 101.406 259.484 95.8428L242.272 81.5773C239.726 81.8405 237.541 79.4178 235.707 74.3052C238.413 74.0267 239.655 73.0843 239.424 71.4704L243.488 71.0507L253.026 69.3186C255.919 72.7333 258.416 74.3281 260.539 74.1106C263.357 72.7753 265.569 72.0313 267.167 71.8634L270.064 72.306C270.994 72.2106 271.426 71.9168 271.364 71.4284C281.682 70.3563 288.709 71.2148 292.457 73.9924C296.352 73.588 299.396 75.4002 301.595 79.4292C304.048 79.1774 308.178 82.2144 313.96 88.5517L316.515 87.5406C331.866 101.402 340.265 108.258 341.707 108.105C362.142 85.5834 378.522 68.7692 390.873 57.6818C403.211 46.5944 410.911 40.8943 413.956 40.5776C420.953 36.6325 429.873 34.0953 440.702 32.9736C454.607 33.565 461.826 35.7588 462.374 39.5665C462.73 42.1076 461.168 44.1259 457.683 45.6253C450.089 54.4349 444.258 59.0553 440.19 59.475C437.315 59.7764 432.103 65.3964 424.536 76.3312L424.758 77.8688C425.248 78.9065 426.254 79.3453 427.781 79.1889C430.647 75.1293 434.017 72.8935 437.907 72.4929C429.632 79.5475 425.578 83.7024 425.76 84.9729L428.555 84.6829L428.662 85.4842C422.132 90.322 417.686 95.0454 415.34 99.6467C413.916 99.8947 406.714 107.167 393.748 121.467C380.792 135.763 374.467 144.038 374.778 146.278L392.72 174.809C392.199 177.835 392.044 180.005 392.217 181.326C394.327 182.84 395.444 184.038 395.565 184.912L394.167 185.061L395.787 186.522L394.616 188.208C402.107 198.674 406.99 203.79 409.273 203.55C412.5 198.411 414.922 195.759 416.52 195.587L417.784 195.458L416.297 193.977L416.181 193.172C418.3 192.951 420.281 190.887 422.132 186.98L424.812 185.885C425.529 190.967 424.122 200.719 420.579 215.152L421.251 219.914L417.187 220.334L417.294 221.066L423.414 225.259C421.977 225.412 419.422 227.01 415.723 230.07L410.048 229.029L410.27 230.639L407.6 230.917C407.511 230.33 406.941 229.597 405.873 228.716L399.116 230.158L390.326 226.312C390.473 227.342 389.609 227.949 387.762 228.14C375.081 222.321 361.417 210.662 346.755 193.165C343.889 188.708 341.743 186.553 340.305 186.705L338.908 186.85C333.607 194.931 330.255 200.601 328.813 203.87C319.702 214.725 313.368 225.511 309.82 236.232C304.835 241.104 301.568 244.115 300.024 245.271L301.635 246.74C300.834 247.713 300.518 248.808 300.687 250.028L296.623 250.452C296.98 246.85 297.848 243.291 299.241 239.777L294.959 238.586C295.791 244.492 293.494 251.391 288.086 259.284L290.881 258.994L291.665 264.561C299.374 266.831 303.264 268.285 303.362 268.922L303.589 270.532C303.767 271.562 302.908 272.173 301.039 272.367Z" fill="#36393F"/>
<path d="M123.394 115.92H124.307V118.659H125.22V116.833H128.872C130.09 116.833 130.698 118.659 130.698 122.312L133.438 123.225C133.438 121.398 134.046 120.485 135.264 120.485L136.177 121.398V122.312L131.611 146.965L145.308 146.052H154.438L155.352 141.486L154.438 140.573H156.265L155.352 134.182V133.269H157.178L156.265 132.355V130.529H158.091V128.703H156.265V127.79H158.091L157.178 126.877V120.485L158.091 121.398H159.004V117.746L158.091 116.833V115.92H160.83L156.265 146.965C157.482 146.965 159.308 136.921 161.743 116.833L165.396 115.92C166.004 120.79 166.917 123.225 168.135 123.225H169.048C169.048 121.398 169.657 120.485 170.874 120.485H171.787C168.743 141.54 164.178 166.193 158.091 194.445H157.178L156.265 193.532L157.178 192.619V185.314H156.265L153.525 194.445H150.786C149.569 194.445 148.96 192.619 148.96 188.967H148.047V192.619H147.134C145.916 192.619 145.308 191.706 145.308 189.88C145.308 185.476 147.134 175.127 150.786 158.835H149.873L138.003 159.748L129.785 158.835C127.959 173.444 126.133 183.184 124.307 188.054H121.567C120.35 188.054 119.741 185.619 119.741 180.749H118.828L117.915 187.141L116.089 185.314V182.575L117.002 181.662V180.749L116.089 179.836H115.176L114.263 180.749H113.35L112.437 177.097C114.871 156.543 117.611 141.63 120.654 132.355H121.567L120.654 131.442V128.703L123.394 118.659H122.48L123.394 115.92ZM124.307 119.572V125.964H125.22V119.572H124.307ZM123.394 126.877L122.48 134.182V136.008H123.394L124.307 128.703V126.877H123.394ZM121.567 136.921V140.573H122.48V136.921H121.567ZM120.654 141.486L119.741 146.052V146.965H120.654L121.567 143.312V141.486H120.654ZM118.828 150.617V154.27H119.741V150.617H118.828ZM153.525 159.748L152.612 165.227V166.14H153.525L154.438 161.574V159.748H153.525ZM151.699 167.053V170.705H152.612V167.053H151.699ZM158.091 177.097L157.178 181.662V184.401H158.091L159.004 178.01V177.097H158.091ZM113.35 181.662H114.263V186.228H113.35V181.662ZM208.096 112.268C208.49 114.094 210.924 115.007 215.4 115.007L222.705 146.965H229.097V147.878L223.618 148.791V149.704C225.444 149.704 226.357 150.313 226.357 151.53H233.662V152.443C233.662 153.804 230.618 155.021 224.531 156.096L226.357 161.574L225.444 164.313L226.357 169.792L225.444 170.705H226.357L225.444 171.618L226.357 182.575V188.054L225.444 187.141H224.531L227.271 200.837H225.444C225.444 199.011 224.836 198.098 223.618 198.098V199.011L224.531 201.75H223.618L222.705 200.837H221.792C221.792 202.663 221.183 203.576 219.966 203.576L215.4 188.054H214.487V191.706H213.574L211.748 180.749L214.487 182.575V181.662C213.986 176.184 213.073 173.444 211.748 173.444L212.661 172.531V169.792H210.835V172.531H209.922V168.879L210.835 167.966H209.922L209.009 168.879V165.227H209.922L210.835 166.14H211.748L210.835 165.227V159.748L190.747 164.313V166.14L197.139 164.313L200.791 165.227L205.356 164.313V166.14C192.573 168.431 186.182 171.475 186.182 175.271C184.57 181.966 182.744 186.228 180.703 188.054V189.88H177.964L177.051 188.967H176.138V189.88L173.398 188.054L175.225 182.575H174.312C172.485 182.575 171.572 185.01 171.572 189.88L169.746 188.054L170.659 182.575L167.92 179.836L183.442 142.399H184.355C184.355 144.226 184.964 145.139 186.182 145.139L187.095 140.573L186.182 141.486H185.269V137.834L186.182 133.269L187.095 134.182H188.008L187.095 133.269V132.355L188.921 128.703H189.834L190.747 129.616H191.66V128.703C191.66 127.486 190.747 126.877 188.921 126.877L193.486 114.094H197.139L196.226 115.007V115.92C200.451 113.485 204.408 112.268 208.096 112.268ZM202.617 133.269L195.312 152.443H197.139C203.226 152.443 206.574 150.617 207.183 146.965L203.53 133.269H202.617ZM194.399 138.747L192.573 145.139L191.66 144.226H190.747L191.66 147.878H192.573L195.312 139.66V138.747H194.399ZM184.355 146.965L183.442 147.878V149.704H184.355L185.269 146.965H184.355ZM189.834 150.617L188.921 154.27H189.834L190.747 153.356V150.617H189.834ZM181.616 151.53L180.703 155.183H181.616L183.442 151.53H181.616ZM197.139 154.27V155.183H198.965C204.443 154.574 207.183 153.661 207.183 152.443H206.27L197.139 154.27ZM209.922 174.357H211.748V179.836H210.835L209.922 174.357ZM222.705 180.749V182.575L223.618 186.228H224.531V184.401L223.618 180.749H222.705ZM213.574 183.488V185.314L216.313 184.401V182.575L213.574 183.488ZM235.542 116.296C242.847 116.296 246.499 118.731 246.499 123.601H247.412V120.861H249.238C251.673 127.987 253.804 137.727 255.63 150.08H254.717L255.63 150.993V159.211H257.456L256.543 160.124V164.689H257.456C259.855 158.638 264.725 150.42 272.065 140.036L272.979 140.949L274.805 138.21H273.892L272.065 140.036V139.123L282.109 128.166H283.936L287.588 131.818L283.022 137.297H285.762C285.762 135.399 287.588 133.269 291.24 130.905V133.645C288.805 133.931 287.588 134.844 287.588 136.384H289.414C289.414 134.558 290.327 133.645 292.153 133.645V136.384C289.038 138.21 284.473 143.688 278.457 152.819L259.282 187.517H257.456L256.543 186.604C254.717 186.604 253.804 187.821 253.804 190.256H251.978C247.716 190.256 245.586 188.125 245.586 183.864L246.499 181.125L244.673 182.951V185.69L245.586 186.604V187.517L244.673 188.43H242.847L241.934 183.864L242.847 181.125H241.934L242.847 180.212V174.733C242.095 141.254 239.964 124.514 236.455 124.514L237.368 121.774L235.542 116.296ZM279.37 127.253V128.166L275.718 131.818H274.805C276.237 129.169 277.759 127.647 279.37 127.253ZM272.979 133.645V134.558L264.761 145.515V144.602C266.157 141.164 268.896 137.512 272.979 133.645ZM280.283 139.123L277.544 143.688H278.457L281.196 140.036V139.123H280.283ZM243.76 143.688V148.254H244.673V143.688H243.76ZM262.021 148.254H262.935V150.993L262.021 151.906H261.108V150.993L262.021 148.254ZM244.673 150.993V161.037H245.586V150.993H244.673ZM261.108 151.906V152.819L258.369 156.472V155.559L261.108 151.906ZM262.935 170.168V171.081L265.674 168.342V167.429L262.935 170.168ZM258.369 177.473L259.282 178.386H260.195L262.021 172.907C260.768 173.194 259.551 174.715 258.369 177.473ZM342.695 116.457L347.1 119.519C345.811 124.925 343.483 127.521 340.117 127.307L316.27 128.381L316.162 130.207L320.674 130.529L326.206 129.992L327.065 131.013L327.979 131.066L334.424 130.529L336.25 130.69L336.196 131.604L314.98 133.806L313.315 145.622L314.229 145.676L339.043 143.688L339.849 144.655L339.795 145.568L337.969 145.407V146.32L344.253 147.717L344.199 148.63C342.874 152.032 334.137 154.789 317.988 156.901L308.804 157.224L309.663 158.137L305.259 169.738H304.346L304.883 161.521L303.97 161.467L302.197 174.143C320.423 171.708 333.296 170.741 340.815 171.242L345.273 172.478L345.22 174.304L343.394 174.196L344.199 175.163L344.038 177.902C342.284 180.194 338.56 181.161 332.866 180.803L332.812 181.716L340.117 182.199L339.956 184.025L297.471 190.256L296.558 190.202C293.621 189.558 292.153 188.609 292.153 187.355V187.194L292.314 184.455L294.839 174.572L293.979 173.605L295.806 173.659L295.483 178.225L296.396 178.332C296.755 175.288 297.471 173.82 298.545 173.928L297.686 172.907L298.33 163.83L296.504 163.669L295.269 168.181L296.289 167.321L297.202 167.375L296.826 172.854L295.913 172.746L296.074 170.061L295.161 170.007L295.054 171.833L294.141 171.779L294.248 169.953L297.148 154.538L296.235 154.484L298.33 150.08L297.471 149.113L297.524 148.2L299.512 132.785L300.371 133.752L301.284 133.806L301.392 131.979L300.801 127.36L302.251 119.196L302.412 116.457L303.325 116.564L304.185 117.531L305.151 116.672L306.064 116.779L306.924 117.692L307.891 116.833L310.63 117.048L342.695 116.457ZM296.987 156.364L296.558 162.756L297.471 162.81L297.9 156.472L296.987 156.364ZM327.119 157.546H328.032L327.925 158.459L311.382 160.124L310.522 159.104L310.576 158.244L318.848 157.868L318.794 158.781L327.119 157.546ZM365.952 116.887L372.344 122.365C372.344 120.539 372.952 119.626 374.17 119.626H375.083L387.866 152.497V154.323H386.953L385.127 148.845H384.214V150.671L390.605 166.193H391.519C393.953 150.367 397.463 133.841 402.046 116.618L404.785 118.444L407.524 117.531L413.003 120.271V121.184C411.177 121.184 410.264 122.401 410.264 124.836H411.177L412.09 125.749H413.003L413.916 121.184H415.742V122.097L414.829 123.01L415.742 123.923V124.836C411.159 138.908 407.041 159.086 403.389 185.368H401.562L403.389 170.759C402.171 170.759 400.345 176.542 397.91 188.107C395.654 189.934 393.524 190.847 391.519 190.847V192.673H390.605C390.605 191.455 389.388 190.847 386.953 190.847V184.455C386.953 181.698 380.866 166.48 368.691 138.801H367.778C365.343 149.65 363.213 164.26 361.387 182.629L360.474 181.716C356.821 182.79 354.995 184.312 354.995 186.281H353.169C351.951 183.99 351.343 180.033 351.343 174.411H350.43V182.629H348.604L347.69 178.063C347.69 161.521 351.343 141.433 358.647 117.8L365.952 116.887ZM353.169 139.714V140.627L354.082 141.54L353.169 142.453V144.279H354.082L354.995 140.627L354.082 139.714H353.169ZM387.866 154.323C389.442 154.323 390.659 156.758 391.519 161.628V162.541H390.605L387.866 154.323ZM466.929 116.242H467.842L465.908 118.176H464.995L466.929 116.242ZM478.477 116.242C478.369 117.531 480.661 118.498 485.352 119.143L485.405 118.176C495.002 124.836 499.531 132.355 498.994 140.734L498.618 145.676C496.291 151.763 490.723 159.945 481.914 170.222H485.513L485.459 171.135L480.034 172.155L479.927 174.143H480.786L485.298 173.122L486.104 174.143L486.157 173.122L487.017 174.143H489.648L490.615 173.122C494.303 173.981 496.864 175.629 498.296 178.063H500.928C499.639 185.225 497.043 188.806 493.14 188.806C482.218 188.806 471.727 190.775 461.665 194.714L461.772 193.693L460.806 194.714C455.327 194.714 450.708 193.067 446.948 189.772H444.263L444.37 188.806C447.485 185.941 449.132 183.327 449.312 180.964L457.744 174.143H456.885L447.485 181.984H445.713L445.82 179.997C452.874 176.595 458.836 171.368 463.706 164.313L462.9 163.293H463.76L464.565 164.313L471.87 161.359L471.064 160.393L471.118 159.372C475.415 159.372 479.336 153.822 482.881 142.722H481.108C480.929 145.336 479.622 147.287 477.188 148.576L477.241 147.663C480.535 142.435 482.272 138.496 482.451 135.847C482.523 134.558 480.84 133.251 477.402 131.926C472.568 133.251 468.594 135.22 465.479 137.834H463.706L460.215 136.813L456.616 137.834C453.644 137.834 452.266 136.187 452.48 132.893C458.89 123.726 464.225 119.143 468.486 119.143L478.477 116.242ZM459.517 121.13H460.376C454.647 127.289 451.729 131.21 451.621 132.893H449.849L449.956 130.959L459.517 121.13ZM477.188 148.576L477.08 149.597L474.233 152.551L474.287 151.584L477.188 148.576ZM467.734 157.438H468.594L468.486 159.372L457.368 166.247H455.596L467.734 157.438ZM520.156 168.234L523.701 171.726L523.594 172.746L525.581 174.68L525.527 175.7H523.433L523.379 176.721H525.474L525.366 177.634C521.356 178.672 519.315 179.836 519.243 181.125H521.338C520.98 186.424 516.289 189.074 507.266 189.074L504.15 188.054V183.757C506.37 184.652 507.767 184.616 508.34 183.649L503.56 181.125L506.782 174.733L504.097 172.155C504.276 169.434 508.107 168.073 515.591 168.073C517.023 168.073 518.545 168.127 520.156 168.234ZM570.698 116.94C574.744 118.552 578.092 121.291 580.742 125.158L579.829 126.071C580.796 130.332 582.318 132.463 584.395 132.463L585.308 131.55L588.047 142.507L587.134 146.159L588.047 148.898C586.901 159.784 580.509 171.958 568.872 185.422C567.046 185.422 566.133 186.031 566.133 187.248L565.22 186.335H564.307L558.828 188.161L553.35 187.248H552.437V188.161L559.741 189.987V190.9H553.35L545.132 184.509V185.422L546.958 189.987H546.045C544.183 189.45 542.052 185.798 539.653 179.03H538.74V180.856L540.566 186.335C538.275 186.335 536.144 178.726 534.175 163.508C539.152 139.768 543.413 127.897 546.958 127.897C546.958 126.107 548.175 124.585 550.61 123.332H551.523C546.654 129.312 544.219 133.269 544.219 135.202L550.61 126.984C550.61 125.158 557.306 121.81 570.698 116.94ZM548.784 165.334V169.899L549.697 179.03C565.524 164.385 573.438 150.993 573.438 138.854V132.463L574.351 133.376L577.09 132.463V131.55L576.177 130.637V129.724C573.527 129.724 566.831 133.376 556.089 140.681C551.219 151.315 548.784 159.533 548.784 165.334ZM575.264 135.202L574.351 145.246V146.159H575.264L577.09 138.854L576.177 135.202H575.264ZM543.306 136.115L537.827 151.638L538.74 154.377L537.827 153.464H536.914V154.377L537.827 158.942H538.74V156.203L537.827 155.29C539.403 155.29 540.924 151.333 542.393 143.42C543.61 143.42 544.219 141.898 544.219 138.854V136.115H543.306ZM558.828 185.422V186.335H559.741L563.394 185.422V184.509H561.567L558.828 185.422Z" fill="white"/>
<path d="M10.7263 9.19066L1.53613 0.000488281L0.00738086 1.52924L9.19755 10.7194L10.7263 9.19066Z" fill="#6A7FC8"/>
<path d="M10.727 1.52973L9.19824 0.000976562L0.00806805 9.19115L1.53682 10.7199L10.727 1.52973Z" fill="#6A7FC8"/>
<path d="M32.3689 9.19116L23.1787 0.000976562L21.65 1.52973L30.8401 10.7199L32.3689 9.19116Z" fill="#6A7FC8"/>
<path d="M32.3557 1.53068L30.8271 0.00170898L21.6357 9.19058L23.1642 10.7196L32.3557 1.53068Z" fill="#6A7FC8"/>
<path d="M10.7185 30.8137L1.52832 21.6235L-0.000442434 23.1523L9.18973 32.3425L10.7185 30.8137Z" fill="#6A7FC8"/>
<path d="M10.7194 23.1523L9.19043 21.6238L0.00154391 30.8153L1.53051 32.3438L10.7194 23.1523Z" fill="#6A7FC8"/>
<path d="M32.3584 30.8145L23.1689 21.625L21.6402 23.1538L30.8297 32.3432L32.3584 30.8145Z" fill="#6A7FC8"/>
<path d="M32.3493 23.1528L30.8213 21.6248L21.6311 30.8149L23.1591 32.343L32.3493 23.1528Z" fill="#6A7FC8"/>
<path d="M53.9744 9.19043L44.7842 0.000244141L43.2554 1.529L52.4456 10.7192L53.9744 9.19043Z" fill="#6A7FC8"/>
<path d="M53.9731 1.52901L52.4443 0.000244141L43.2542 9.19042L44.7829 10.7192L53.9731 1.52901Z" fill="#6A7FC8"/>
<path d="M75.5974 9.19018L66.4072 0L64.8785 1.52875L74.0687 10.7189L75.5974 9.19018Z" fill="#6A7FC8"/>
<path d="M75.5961 1.52923L74.0674 0.000488281L64.8772 9.19066L66.4059 10.7194L75.5961 1.52923Z" fill="#6A7FC8"/>
<path d="M53.9646 30.814L44.7744 21.6238L43.2457 23.1525L52.4358 32.3427L53.9646 30.814Z" fill="#6A7FC8"/>
<path d="M53.9675 23.1528L52.4385 21.6243L43.2496 30.8158L44.7786 32.3443L53.9675 23.1528Z" fill="#6A7FC8"/>
<path d="M75.5876 30.8142L66.3975 21.624L64.8687 23.1528L74.0589 32.343L75.5876 30.8142Z" fill="#6A7FC8"/>
<path d="M75.5885 23.1525L74.0596 21.624L64.8707 30.8155L66.3996 32.344L75.5885 23.1525Z" fill="#6A7FC8"/>
<path d="M10.7185 52.437L1.52832 43.2468L-0.000420855 44.7756L9.18975 53.9657L10.7185 52.437Z" fill="#6A7FC8"/>
<path d="M10.727 44.7773L9.19824 43.2485L0.00876937 52.438L1.53752 53.9668L10.727 44.7773Z" fill="#6A7FC8"/>
<path d="M32.3604 52.4387L23.1709 43.2493L21.6429 44.7773L30.8323 53.9668L32.3604 52.4387Z" fill="#6A7FC8"/>
<path d="M32.3576 44.7787L30.8291 43.2498L21.6383 52.4379L23.1669 53.9669L32.3576 44.7787Z" fill="#6A7FC8"/>
<path d="M10.7283 74.0613L1.53809 64.8711L0.00932319 66.3999L9.1995 75.59L10.7283 74.0613Z" fill="#6A7FC8"/>
<path d="M10.7346 66.4023L9.20605 64.8733L0.0145698 74.0622L1.54311 75.5911L10.7346 66.4023Z" fill="#6A7FC8"/>
<path d="M32.3708 74.064L23.1807 64.8738L21.6519 66.4025L30.8421 75.5927L32.3708 74.064Z" fill="#6A7FC8"/>
<path d="M32.3652 66.4035L30.8369 64.8743L21.6441 74.0619L23.1724 75.591L32.3652 66.4035Z" fill="#6A7FC8"/>
<path d="M53.9626 52.4375L44.7725 43.2473L43.2437 44.7761L52.4339 53.9662L53.9626 52.4375Z" fill="#6A7FC8"/>
<path d="M53.9731 44.7766L52.4443 43.2478L43.2549 52.4373L44.7836 53.966L53.9731 44.7766Z" fill="#6A7FC8"/>
<path d="M75.5876 52.4377L66.3975 43.2476L64.8687 44.7763L74.0589 53.9665L75.5876 52.4377Z" fill="#6A7FC8"/>
<path d="M75.5961 44.7768L74.0674 43.248L64.8779 52.4375L66.4067 53.9663L75.5961 44.7768Z" fill="#6A7FC8"/>
<path d="M53.9744 74.0608L44.7842 64.8706L43.2554 66.3994L52.4456 75.5896L53.9744 74.0608Z" fill="#6A7FC8"/>
<path d="M53.9807 66.401L52.4521 64.8721L43.2607 74.061L44.7892 75.5899L53.9807 66.401Z" fill="#6A7FC8"/>
<path d="M75.5974 74.0605L66.4072 64.8704L64.8785 66.3991L74.0686 75.5893L75.5974 74.0605Z" fill="#6A7FC8"/>
<path d="M75.6057 66.4008L74.0771 64.8718L64.8857 74.0607L66.4142 75.5897L75.6057 66.4008Z" fill="#6A7FC8"/>
<path d="M634.726 233.191L625.536 224L624.007 225.529L633.198 234.719L634.726 233.191Z" fill="#6A7FC8"/>
<path d="M634.727 225.53L633.198 224.001L624.008 233.191L625.537 234.72L634.727 225.53Z" fill="#6A7FC8"/>
<path d="M656.369 233.191L647.179 224.001L645.65 225.53L654.84 234.72L656.369 233.191Z" fill="#6A7FC8"/>
<path d="M656.356 225.531L654.827 224.002L645.636 233.191L647.164 234.72L656.356 225.531Z" fill="#6A7FC8"/>
<path d="M634.718 254.814L625.528 245.624L624 247.152L633.19 256.342L634.718 254.814Z" fill="#6A7FC8"/>
<path d="M634.719 247.152L633.19 245.624L624.002 254.815L625.531 256.344L634.719 247.152Z" fill="#6A7FC8"/>
<path d="M656.358 254.814L647.169 245.625L645.64 247.154L654.83 256.343L656.358 254.814Z" fill="#6A7FC8"/>
<path d="M656.349 247.153L654.821 245.625L645.631 254.815L647.159 256.343L656.349 247.153Z" fill="#6A7FC8"/>
<path d="M677.974 233.19L668.784 224L667.255 225.529L676.446 234.719L677.974 233.19Z" fill="#6A7FC8"/>
<path d="M677.973 225.529L676.444 224L667.254 233.19L668.783 234.719L677.973 225.529Z" fill="#6A7FC8"/>
<path d="M699.597 233.19L690.407 224L688.878 225.529L698.069 234.719L699.597 233.19Z" fill="#6A7FC8"/>
<path d="M699.596 225.529L698.067 224L688.877 233.191L690.406 234.719L699.596 225.529Z" fill="#6A7FC8"/>
<path d="M677.965 254.814L668.774 245.624L667.246 247.153L676.436 256.343L677.965 254.814Z" fill="#6A7FC8"/>
<path d="M677.967 247.153L676.438 245.624L667.25 254.816L668.779 256.344L677.967 247.153Z" fill="#6A7FC8"/>
<path d="M699.588 254.814L690.397 245.624L688.869 247.153L698.059 256.343L699.588 254.814Z" fill="#6A7FC8"/>
<path d="M699.589 247.153L698.06 245.624L688.871 254.816L690.4 256.344L699.589 247.153Z" fill="#6A7FC8"/>
<path d="M634.718 276.437L625.528 267.247L624 268.776L633.19 277.966L634.718 276.437Z" fill="#6A7FC8"/>
<path d="M634.727 268.777L633.198 267.249L624.009 276.438L625.538 277.967L634.727 268.777Z" fill="#6A7FC8"/>
<path d="M656.36 276.439L647.171 267.249L645.643 268.777L654.832 277.967L656.36 276.439Z" fill="#6A7FC8"/>
<path d="M656.358 268.779L654.829 267.25L645.638 276.438L647.167 277.967L656.358 268.779Z" fill="#6A7FC8"/>
<path d="M634.728 298.061L625.538 288.871L624.009 290.4L633.199 299.59L634.728 298.061Z" fill="#6A7FC8"/>
<path d="M634.735 290.402L633.206 288.873L624.015 298.062L625.543 299.591L634.735 290.402Z" fill="#6A7FC8"/>
<path d="M656.371 298.064L647.181 288.874L645.652 290.403L654.842 299.593L656.371 298.064Z" fill="#6A7FC8"/>
<path d="M656.365 290.403L654.837 288.874L645.644 298.062L647.172 299.591L656.365 290.403Z" fill="#6A7FC8"/>
<path d="M677.963 276.437L668.772 267.247L667.244 268.776L676.434 277.966L677.963 276.437Z" fill="#6A7FC8"/>
<path d="M677.973 268.777L676.444 267.248L667.255 276.437L668.784 277.966L677.973 268.777Z" fill="#6A7FC8"/>
<path d="M699.588 276.438L690.397 267.248L688.869 268.776L698.059 277.966L699.588 276.438Z" fill="#6A7FC8"/>
<path d="M699.596 268.777L698.067 267.248L688.878 276.438L690.407 277.966L699.596 268.777Z" fill="#6A7FC8"/>
<path d="M677.974 298.061L668.784 288.871L667.255 290.399L676.446 299.59L677.974 298.061Z" fill="#6A7FC8"/>
<path d="M677.981 290.401L676.452 288.872L667.261 298.061L668.789 299.59L677.981 290.401Z" fill="#6A7FC8"/>
<path d="M699.597 298.061L690.407 288.87L688.878 290.399L698.069 299.589L699.597 298.061Z" fill="#6A7FC8"/>
<path d="M699.606 290.401L698.077 288.872L688.886 298.061L690.414 299.59L699.606 290.401Z" fill="#6A7FC8"/>
</g>
<defs>
<clipPath id="clip0">
<rect width="700" height="300" fill="white"/>
</clipPath>
</defs>
</svg>
