<svg width="700" height="300" viewBox="0 0 700 300" fill="none" xmlns="http://www.w3.org/2000/svg">
<g clip-path="url(#clip0)">
<path d="M642.476 33.0465C688.117 56.7807 674.179 100.975 666.682 142.029C659.185 183.084 658.561 221.006 612.92 246.774C567.123 272.56 476.612 286.095 394.826 282.436C313.041 278.716 150.5 291.904 92.1666 271C20.2089 245.214 25.109 175.659 27.247 146.003C29.385 116.347 46.2147 69.2567 118.2 45.5264C190.185 21.796 317.326 21.4368 404.296 13.7393C491.265 6.04187 596.872 9.31608 642.476 33.0465Z" fill="#2B2E32"/>
<path d="M292.309 269.394L286.848 269.958C285.081 270.141 284.124 269.722 283.968 268.699L281.28 269.718C262.465 267.215 252.108 259.226 250.212 245.754L251.609 245.609C251.525 245.071 251.031 244.85 250.091 244.949C248.329 232.453 252.878 215.708 263.729 194.72C266.106 193.331 270.295 186.78 276.277 175.063C280.799 168.157 283.99 164.605 285.851 164.411C289.118 161.446 293.929 152.949 300.281 138.913C297.495 138.665 295.928 137.238 295.558 134.651L295.216 132.236L292.42 132.53L291.971 129.378C280.047 110.607 266.311 98.432 250.755 92.8692L233.543 78.6036C230.997 78.8669 228.811 76.4442 226.978 71.3316C229.684 71.0531 230.926 70.1107 230.694 68.4968L234.758 68.0771L244.296 66.345C247.189 69.7597 249.687 71.3545 251.81 71.137C254.627 69.8016 256.839 69.0577 258.437 68.8898L261.335 69.3324C262.265 69.237 262.697 68.9432 262.635 68.4548C272.952 67.3827 279.98 68.2412 283.728 71.0187C287.622 70.6143 290.667 72.4266 292.866 76.4556C295.318 76.2038 299.449 79.2408 305.23 85.5781L307.785 84.567C323.137 98.4281 331.536 105.284 332.978 105.132C353.412 82.6097 369.792 65.7955 382.144 54.7081C394.482 43.6208 402.182 37.9206 405.226 37.604C412.223 33.6589 421.143 31.1217 431.972 30C445.877 30.5914 453.097 32.7852 453.644 36.5929C454 39.1339 452.438 41.1522 448.953 42.6517C441.36 51.4613 435.529 56.0817 431.461 56.5014C428.585 56.8028 423.373 62.4228 415.806 73.3575L416.029 74.8951C416.518 75.9329 417.524 76.3717 419.051 76.2152C421.918 72.1557 425.287 69.9199 429.177 69.5193C420.903 76.5739 416.848 80.7288 417.031 81.9993L419.826 81.7093L419.932 82.5106C413.403 87.3484 408.956 92.0718 406.611 96.6731C405.186 96.9211 397.985 104.193 385.019 118.493C372.062 132.789 365.737 141.065 366.049 143.304L383.991 171.835C383.47 174.861 383.314 177.032 383.488 178.352C385.598 179.867 386.715 181.065 386.835 181.938L385.437 182.087L387.058 183.548L385.887 185.235C393.378 195.7 398.261 200.817 400.544 200.576C403.771 195.437 406.192 192.785 407.79 192.614L409.054 192.484L407.568 191.004L407.452 190.199C409.57 189.977 411.551 187.913 413.403 184.006L416.082 182.911C416.799 187.993 415.393 197.745 411.85 212.179L412.522 216.94L408.458 217.36L408.565 218.093L414.685 222.286C413.247 222.438 410.692 224.037 406.994 227.097L401.318 226.055L401.541 227.665L398.87 227.944C398.781 227.356 398.212 226.624 397.143 225.742L390.387 227.184L381.596 223.339C381.743 224.369 380.88 224.975 379.032 225.166C366.352 219.348 352.687 207.688 338.025 190.191C335.159 185.735 333.013 183.579 331.576 183.732L330.178 183.877C324.877 191.957 321.526 197.627 320.083 200.897C310.972 211.751 304.638 222.537 301.091 233.259C296.106 238.131 292.839 241.141 291.294 242.297L292.906 243.766C292.104 244.739 291.788 245.834 291.958 247.055L287.894 247.478C288.25 243.877 289.118 240.317 290.511 236.803L286.229 235.613C287.062 241.519 284.765 248.417 279.357 256.311L282.152 256.021L282.935 261.587C290.645 263.858 294.535 265.311 294.633 265.948L294.86 267.558C295.038 268.589 294.179 269.199 292.309 269.394Z" fill="#36393F"/>
<path fill-rule="evenodd" clip-rule="evenodd" d="M126.303 280.004C113.064 288.368 101.771 288.368 88.5302 280.004C79.8957 274.55 72.5247 274.55 63.8937 280.004C50.7757 288.287 40.0808 288.287 26.9652 280.004C18.235 274.486 12.3386 274.486 3.60265 280.004L0.00117493 275.957C10.6143 269.255 19.5347 268.983 30.569 275.957C40.9722 282.53 48.6511 283.31 60.2921 275.957C71.3265 268.983 81.5885 269.298 92.1328 275.957C102.958 282.798 111.453 283.066 122.703 275.957C133.743 268.983 140.961 268.983 151.998 275.957L148.393 280.004C139.522 274.395 135.183 274.395 126.303 280.004ZM126.303 266.277C113.064 274.641 101.771 274.641 88.5302 266.277C79.8957 260.819 72.5247 260.819 63.8937 266.277C50.7757 274.561 40.0808 274.561 26.9652 266.277C18.235 260.759 12.3386 260.759 3.60265 266.277L0.00117493 262.23C10.6143 255.524 19.5347 255.257 30.569 262.23C40.9722 268.803 48.6511 269.583 60.2921 262.23C71.3265 255.257 81.5885 255.569 92.1328 262.23C102.958 269.071 111.453 269.339 122.703 262.23C133.743 255.257 140.961 255.257 151.998 262.23L148.393 266.277C139.522 260.667 135.183 260.667 126.303 266.277ZM30.569 289.683C40.9722 296.26 48.6511 297.037 60.2921 289.683C71.3265 282.709 81.5885 283.023 92.1328 289.683C102.958 296.528 111.453 296.796 122.703 289.683C133.743 282.709 140.961 282.709 151.998 289.683L148.393 293.73C139.522 288.125 135.183 288.125 126.302 293.73C113.063 302.096 101.769 302.099 88.529 293.73C79.8945 288.276 72.5235 288.276 63.8925 293.73C50.7745 302.018 40.0797 302.018 26.964 293.73C18.2338 288.213 12.3375 288.213 3.60151 293.73L0 289.683C10.6143 282.982 19.5335 282.71 30.569 289.683Z" fill="#E935A8"/>
<path fill-rule="evenodd" clip-rule="evenodd" d="M674.361 23.0009C661.15 31.3638 649.882 31.3638 636.67 23.0009C628.054 17.5475 620.7 17.5475 612.087 23.0009C598.998 31.2828 588.326 31.2828 575.239 23.0009C566.528 17.4836 560.645 17.4836 551.928 23.0009L548.334 18.9544C558.924 12.2532 567.825 11.9812 578.835 18.9544C589.216 25.5265 596.878 26.3065 608.494 18.9544C619.504 11.9812 629.744 12.2962 640.265 18.9544C651.067 25.7945 659.543 26.0625 670.768 18.9544C681.785 11.9812 688.987 11.9812 700 18.9544L696.402 23.0009C687.55 17.3926 683.221 17.3926 674.361 23.0009ZM674.361 9.27559C661.15 17.6385 649.882 17.6385 636.67 9.27559C628.054 3.81827 620.7 3.81827 612.087 9.27559C598.998 17.5586 588.326 17.5586 575.239 9.27559C566.528 3.75828 560.645 3.75828 551.928 9.27559L548.334 5.2291C558.924 -1.47607 567.825 -1.74303 578.835 5.2291C589.216 11.8013 596.878 12.5812 608.494 5.2291C619.504 -1.74303 629.744 -1.43107 640.265 5.2291C651.067 12.0692 659.543 12.3372 670.768 5.2291C681.785 -1.74303 688.987 -1.74303 700 5.2291L696.402 9.27559C687.55 3.66629 683.221 3.66629 674.361 9.27559ZM578.835 32.6787C589.216 39.2548 596.878 40.0318 608.494 32.6787C619.504 25.7055 629.744 26.0195 640.265 32.6787C651.067 39.5228 659.543 39.7908 670.768 32.6787C681.785 25.7055 688.987 25.7055 700 32.6787L696.402 36.7252C687.55 31.1209 683.221 31.1209 674.36 36.7252C661.149 45.0901 649.881 45.0931 636.669 36.7252C628.053 31.2718 620.698 31.2718 612.086 36.7252C598.997 45.0121 588.325 45.0121 575.238 36.7252C566.527 31.2089 560.644 31.2089 551.927 36.7252L548.333 32.6787C558.924 25.9785 567.824 25.7065 578.835 32.6787Z" fill="#E935A8"/>
<path d="M42.5586 112.974H53.5156C66.2988 115.373 72.6904 120.851 72.6904 129.409V134.888L63.5596 147.671H64.4727L73.6035 139.453V141.279C70.4883 148.226 66.5316 152.791 61.7334 154.976L56.2549 156.802V160.454C57.5798 160.454 63.9714 168.368 75.4297 184.194C77.8646 185.197 80.2995 187.632 82.7344 191.499V192.412L78.1689 188.76V189.673C81.2126 192.896 82.7344 195.33 82.7344 196.978H81.8213L77.2559 199.717H76.3428L74.5166 196.978L73.6035 197.891H72.6904C60.516 187.936 51.9938 177.892 47.124 167.759L42.5586 158.628C40.4102 158.628 39.1927 162.28 38.9062 169.585C39.3001 175.672 38.9958 179.378 37.9932 180.703C36.2028 182.171 35.8984 183.639 37.0801 185.107V186.934H34.3408C33.1234 186.934 32.5146 185.716 32.5146 183.281H31.6016C31.6016 185.716 30.4557 186.629 28.1641 186.021L24.1357 180.649L25.21 172.324V168.672L30.6885 143.105H31.6016V146.758H32.5146L37.0801 127.583C35.8626 127.583 35.2539 128.8 35.2539 131.235H34.3408V129.409H28.8623V128.496C28.8623 127.279 30.6885 126.366 34.3408 125.757V124.844H32.5146L27.0361 126.67H26.123C26.123 125.452 27.3405 124.844 29.7754 124.844V123.931C27.3405 123.931 26.123 123.018 26.123 121.191L42.5586 112.974ZM43.4717 145.845H44.3848C53.9453 141.261 60.6413 136.392 64.4727 131.235V129.409C64.4727 127.332 60.8203 125.202 53.5156 123.018L48.0371 124.844L43.4717 145.845ZM61.7334 123.018C62.9508 125.775 64.1683 127.297 65.3857 127.583V125.757L61.7334 123.018ZM67.2119 128.496L66.2988 133.062H67.2119L68.125 132.148V128.496H67.2119ZM33.4277 131.235H34.3408V133.975L33.4277 137.627H32.5146V134.888L33.4277 131.235ZM64.4727 134.888L59.9072 141.279H60.8203L65.3857 135.801V134.888H64.4727ZM73.6035 136.714H75.4297L74.5166 139.453H73.6035V136.714ZM31.6016 139.453H32.5146V143.105H31.6016V139.453ZM29.7754 151.323V154.976H30.6885V151.323H29.7754ZM57.168 178.716V179.629L60.8203 183.281C59.6387 180.524 58.4212 179.002 57.168 178.716ZM61.7334 185.107V186.021L65.3857 188.76V187.847L61.7334 185.107ZM128.281 113.457L132.686 116.519C131.396 121.925 129.069 124.521 125.703 124.307L101.855 125.381L101.748 127.207L106.26 127.529L111.792 126.992L112.651 128.013L113.564 128.066L120.01 127.529L121.836 127.69L121.782 128.604L100.566 130.806L98.9014 142.622L99.8145 142.676L124.629 140.688L125.435 141.655L125.381 142.568L123.555 142.407V143.32L129.839 144.717L129.785 145.63C128.46 149.032 119.723 151.789 103.574 153.901L94.3896 154.224L95.249 155.137L90.8447 166.738H89.9316L90.4688 158.521L89.5557 158.467L87.7832 171.143C106.009 168.708 118.882 167.741 126.401 168.242L130.859 169.478L130.806 171.304L128.979 171.196L129.785 172.163L129.624 174.902C127.869 177.194 124.146 178.161 118.452 177.803L118.398 178.716L125.703 179.199L125.542 181.025L83.0566 187.256L82.1436 187.202C79.2074 186.558 77.7393 185.609 77.7393 184.355V184.194L77.9004 181.455L80.4248 171.572L79.5654 170.605L81.3916 170.659L81.0693 175.225L81.9824 175.332C82.3405 172.288 83.0566 170.82 84.1309 170.928L83.2715 169.907L83.916 160.83L82.0898 160.669L80.8545 165.181L81.875 164.321L82.7881 164.375L82.4121 169.854L81.499 169.746L81.6602 167.061L80.7471 167.007L80.6396 168.833L79.7266 168.779L79.834 166.953L82.7344 151.538L81.8213 151.484L83.916 147.08L83.0566 146.113L83.1104 145.2L85.0977 129.785L85.957 130.752L86.8701 130.806L86.9775 128.979L86.3867 124.36L87.8369 116.196L87.998 113.457L88.9111 113.564L89.7705 114.531L90.7373 113.672L91.6504 113.779L92.5098 114.692L93.4766 113.833L96.2158 114.048L128.281 113.457ZM82.5732 153.364L82.1436 159.756L83.0566 159.81L83.4863 153.472L82.5732 153.364ZM112.705 154.546H113.618L113.511 155.459L96.9678 157.124L96.1084 156.104L96.1621 155.244L104.434 154.868L104.38 155.781L112.705 154.546ZM162.28 112.114C163.892 113.332 169.012 113.94 177.642 113.94L177.588 114.854H171.196L171.143 115.767C178.77 115.767 183.532 117.593 185.43 121.245L185.322 123.071H180.757L180.703 123.984L187.041 124.897L186.987 125.811H181.509L181.455 126.724C183.281 126.724 184.159 127.332 184.087 128.55C173.237 128.55 163.551 132.507 155.029 140.42L154.976 141.333C166.756 144.484 176.084 151.484 182.959 162.334L182.905 163.247C180.685 171.125 174.473 178.429 164.268 185.161L158.682 186.074L158.628 186.987H160.454C160.382 188.634 154.797 190.461 143.696 192.466L143.804 190.64H148.369L148.477 189.727C144.574 189.727 141.047 187.596 137.896 183.335C135.174 181.938 133.813 179.271 133.813 175.332C133.813 174.974 133.831 174.598 133.867 174.204L136.714 172.378L139.346 174.204H141.172C158.359 171.519 167.222 166.04 167.759 157.769C160.562 154.116 155.799 152.29 153.472 152.29L153.418 153.203L144.448 149.551L145.308 150.464L145.254 152.29C137.663 146.704 133.957 142.443 134.136 139.507L141.279 126.724L146.06 123.071L145.952 124.897L162.28 112.114ZM149.819 136.768L149.766 137.681L165.879 127.637L173.291 125.811L173.398 123.984H171.572C161.94 127.565 154.689 131.826 149.819 136.768ZM154.868 174.204H155.781L157.715 172.378H156.802L154.868 174.204ZM171.304 174.204L167.383 178.77H168.296L172.217 174.204H171.304ZM159.863 181.509V182.422H160.776L164.59 179.683L159.863 181.509ZM149.497 187.9L149.443 188.813H153.096L157.715 187.9V186.987H156.802L149.497 187.9ZM230.063 111.147H230.977V112.974L231.89 112.061H232.803C237.064 113.493 239.194 114.71 239.194 115.713L234.629 121.191H236.455C238.89 119.938 240.107 118.416 240.107 116.626H242.847V117.539L241.934 118.452L242.847 119.365V120.278C221.219 143.553 210.656 162.101 211.157 175.923L209.331 185L210.244 185.913V186.826L205.679 195.044L198.374 194.131V186.826L195.635 183.228V181.401L196.548 170.444L197.461 171.357H198.374L197.461 170.444V169.531L198.374 168.618V167.705L197.461 166.792L200.2 165.879L199.287 170.444V174.097H200.2L201.274 163.086L200.361 160.347H199.448V163.086H198.535L197.622 155.781L198.535 154.868V153.955L185.967 121.89V120.063H187.793L185.967 115.498L186.88 114.585H188.706C190.103 114.585 191.016 116.107 191.445 119.15L194.185 117.324H196.924C196.924 121.084 200.2 129.033 206.753 141.172C210.262 134.512 213.306 130.555 215.884 129.302V130.215C209.797 137.949 206.753 142.515 206.753 143.911V144.824H207.666L229.15 115.713V114.8L218.623 125.649V124.736L230.063 111.147ZM218.623 125.649V126.562L216.797 128.389V127.476L218.623 125.649ZM230.977 124.844C217.871 141.637 211.318 151.341 211.318 153.955H213.145C218.408 143.822 224.657 134.118 231.89 124.844H230.977ZM201.113 188.652V192.305H202.026V188.652H201.113ZM257.778 113.887L264.17 119.365C264.17 117.539 264.779 116.626 265.996 116.626H266.909L279.692 149.497V151.323H278.779L276.953 145.845H276.04V147.671L282.432 163.193H283.345C285.78 147.367 289.289 130.841 293.872 113.618L296.611 115.444L299.351 114.531L304.829 117.271V118.184C303.003 118.184 302.09 119.401 302.09 121.836H303.003L303.916 122.749H304.829L305.742 118.184H307.568V119.097L306.655 120.01L307.568 120.923V121.836C302.985 135.908 298.867 156.086 295.215 182.368H293.389L295.215 167.759C293.997 167.759 292.171 173.542 289.736 185.107C287.48 186.934 285.35 187.847 283.345 187.847V189.673H282.432C282.432 188.455 281.214 187.847 278.779 187.847V181.455C278.779 178.698 272.692 163.48 260.518 135.801H259.604C257.17 146.65 255.039 161.26 253.213 179.629L252.3 178.716C248.647 179.79 246.821 181.312 246.821 183.281H244.995C243.778 180.99 243.169 177.033 243.169 171.411H242.256V179.629H240.43L239.517 175.063C239.517 158.521 243.169 138.433 250.474 114.8L257.778 113.887ZM244.995 136.714V137.627L245.908 138.54L244.995 139.453V141.279H245.908L246.821 137.627L245.908 136.714H244.995ZM279.692 151.323C281.268 151.323 282.485 153.758 283.345 158.628V159.541H282.432L279.692 151.323ZM340.977 114.692H341.89C350.734 114.692 357.43 118.345 361.978 125.649V126.562H360.151L361.064 127.476V128.389C357.412 127.959 355.586 127.35 355.586 126.562C341.37 126.562 330.718 133.867 323.628 148.477L321.802 154.868L324.541 172.217H327.28C334.871 172.217 343.394 166.738 352.847 155.781H353.76V156.694C347.279 166.04 339.974 171.519 331.846 173.13V174.043H332.759C339.132 174.043 347.046 168.564 356.499 157.607L359.238 161.26V163.999C359.238 165.968 354.673 170.534 345.542 177.695L344.629 178.608H343.716V180.435C354.064 175.386 359.238 171.733 359.238 169.478H361.064V170.391C353.402 179.521 344.575 184.087 334.585 184.087V185H339.15L342.803 184.087H343.716V185L332.759 186.772C328.14 186.772 323.27 183.442 318.149 176.782V177.695L322.715 185V185.859H319.976C314.318 181.992 310.97 177.14 309.932 171.304L309.019 159.434C309.019 144.18 312.062 134.44 318.149 130.215V131.128L312.671 140.259V141.172H313.584C313.584 135.371 321.193 127.153 336.411 116.519L333.672 117.432H332.759V116.519L340.977 114.692ZM330.933 118.345H331.846V119.258L325.454 121.997C325.454 120.78 327.28 119.562 330.933 118.345ZM322.715 124.736V125.649L318.149 130.215V129.302L322.715 124.736ZM311.758 168.564V171.304L312.671 174.956H313.584V174.043L312.671 168.564H311.758ZM393.13 113.296C400.435 113.296 404.087 115.731 404.087 120.601H405V117.861H406.826C409.261 124.987 411.392 134.727 413.218 147.08H412.305L413.218 147.993V156.211H415.044L414.131 157.124V161.689H415.044C417.443 155.638 422.313 147.42 429.653 137.036L430.566 137.949L432.393 135.21H431.479L429.653 137.036V136.123L439.697 125.166H441.523L445.176 128.818L440.61 134.297H443.35C443.35 132.399 445.176 130.269 448.828 127.905V130.645C446.393 130.931 445.176 131.844 445.176 133.384H447.002C447.002 131.558 447.915 130.645 449.741 130.645V133.384C446.626 135.21 442.061 140.688 436.045 149.819L416.87 184.517H415.044L414.131 183.604C412.305 183.604 411.392 184.821 411.392 187.256H409.565C405.304 187.256 403.174 185.125 403.174 180.864L404.087 178.125L402.261 179.951V182.69L403.174 183.604V184.517L402.261 185.43H400.435L399.521 180.864L400.435 178.125H399.521L400.435 177.212V171.733C399.683 138.254 397.552 121.514 394.043 121.514L394.956 118.774L393.13 113.296ZM436.958 124.253V125.166L433.306 128.818H432.393C433.825 126.169 435.347 124.647 436.958 124.253ZM430.566 130.645V131.558L422.349 142.515V141.602C423.745 138.164 426.484 134.512 430.566 130.645ZM437.871 136.123L435.132 140.688H436.045L438.784 137.036V136.123H437.871ZM401.348 140.688V145.254H402.261V140.688H401.348ZM419.609 145.254H420.522V147.993L419.609 148.906H418.696V147.993L419.609 145.254ZM402.261 147.993V158.037H403.174V147.993H402.261ZM418.696 148.906V149.819L415.957 153.472V152.559L418.696 148.906ZM420.522 167.168V168.081L423.262 165.342V164.429L420.522 167.168ZM415.957 174.473L416.87 175.386H417.783L419.609 169.907C418.356 170.194 417.139 171.715 415.957 174.473ZM486.104 109.268C486.497 111.094 488.932 112.007 493.408 112.007L500.713 143.965H507.104V144.878L501.626 145.791V146.704C503.452 146.704 504.365 147.313 504.365 148.53H511.67V149.443C511.67 150.804 508.626 152.021 502.539 153.096L504.365 158.574L503.452 161.313L504.365 166.792L503.452 167.705H504.365L503.452 168.618L504.365 179.575V185.054L503.452 184.141H502.539L505.278 197.837H503.452C503.452 196.011 502.843 195.098 501.626 195.098V196.011L502.539 198.75H501.626L500.713 197.837H499.8C499.8 199.663 499.191 200.576 497.974 200.576L493.408 185.054H492.495V188.706H491.582L489.756 177.749L492.495 179.575V178.662C491.994 173.184 491.081 170.444 489.756 170.444L490.669 169.531V166.792H488.843V169.531H487.93V165.879L488.843 164.966H487.93L487.017 165.879V162.227H487.93L488.843 163.14H489.756L488.843 162.227V156.748L468.755 161.313V163.14L475.146 161.313L478.799 162.227L483.364 161.313V163.14C470.581 165.431 464.189 168.475 464.189 172.271C462.578 178.966 460.752 183.228 458.711 185.054V186.88H455.972L455.059 185.967H454.146V186.88L451.406 185.054L453.232 179.575H452.319C450.493 179.575 449.58 182.01 449.58 186.88L447.754 185.054L448.667 179.575L445.928 176.836L461.45 139.399H462.363C462.363 141.226 462.972 142.139 464.189 142.139L465.103 137.573L464.189 138.486H463.276V134.834L464.189 130.269L465.103 131.182H466.016L465.103 130.269V129.355L466.929 125.703H467.842L468.755 126.616H469.668V125.703C469.668 124.486 468.755 123.877 466.929 123.877L471.494 111.094H475.146L474.233 112.007V112.92C478.459 110.485 482.415 109.268 486.104 109.268ZM480.625 130.269L473.32 149.443H475.146C481.234 149.443 484.582 147.617 485.19 143.965L481.538 130.269H480.625ZM472.407 135.747L470.581 142.139L469.668 141.226H468.755L469.668 144.878H470.581L473.32 136.66V135.747H472.407ZM462.363 143.965L461.45 144.878V146.704H462.363L463.276 143.965H462.363ZM467.842 147.617L466.929 151.27H467.842L468.755 150.356V147.617H467.842ZM459.624 148.53L458.711 152.183H459.624L461.45 148.53H459.624ZM475.146 151.27V152.183H476.973C482.451 151.574 485.19 150.661 485.19 149.443H484.277L475.146 151.27ZM487.93 171.357H489.756V176.836H488.843L487.93 171.357ZM500.713 177.749V179.575L501.626 183.228H502.539V181.401L501.626 177.749H500.713ZM491.582 180.488V182.314L494.321 181.401V179.575L491.582 180.488ZM529.663 113.564L531.489 116.304L530.576 120.869L531.489 121.782H532.402L533.315 117.217H535.142L536.055 119.956C531.185 137.502 528.75 151.198 528.75 161.045C529.359 167.741 530.576 171.089 532.402 171.089L553.403 147.349L554.316 142.783V117.217L556.143 115.391C557.36 115.391 557.969 116.608 557.969 119.043H558.882C558.882 116.608 560.404 115.391 563.447 115.391L565.273 119.043L564.36 123.608C565.578 123.608 566.187 122.087 566.187 119.043H568.013L568.926 119.956H569.839L565.273 185.698L564.36 189.351C561.925 189.351 560.708 190.568 560.708 193.003H557.056L557.969 183.872H556.143V189.351L553.403 192.09V191.177L554.316 182.046C552.49 182.046 551.577 180.828 551.577 178.394H550.664L535.142 185.698L527.837 183.872V184.785C521.535 184.785 517.274 175.654 515.054 157.393C517.489 130 519.924 116.304 522.358 116.304V115.391H523.271V119.043H521.445V120.869L522.358 121.782V122.695H521.445L522.358 125.435L519.619 130H520.532L521.445 129.087L518.706 145.522V149.175H519.619C521.553 125.435 524.901 113.564 529.663 113.564ZM518.706 150.088L517.793 151.001V158.306H518.706L519.619 150.088H518.706ZM547.012 157.393L540.62 164.697H541.533L547.925 157.393H547.012ZM520.532 172.002V173.828L521.445 176.567H522.358V174.741L521.445 172.002H520.532ZM526.924 176.567V177.48C526.924 179.593 529.663 181.419 535.142 182.959H536.968V182.046C533.459 182.01 530.111 180.184 526.924 176.567ZM584.448 112.92C585.666 112.92 586.274 114.746 586.274 118.398H588.101L590.84 116.572L591.753 117.485L587.188 168.618C591.055 166.792 601.403 164.661 618.232 162.227H619.146V163.14C597.84 166.613 587.188 169.352 587.188 171.357L597.231 168.618V169.531L614.58 165.879V166.792L615.493 165.879H616.406L617.319 166.792L621.885 165.879H625.537L631.929 166.792V167.705C631.929 169.531 627.363 171.053 618.232 172.271V173.184L619.146 172.271H620.059L626.45 173.184L627.363 172.271V175.01L597.231 182.314L578.057 189.619H575.317L571.665 185.054H570.752V184.141C570.752 182.601 571.969 181.688 574.404 181.401V178.662L571.665 175.01L575.317 133.921H576.23V137.573L575.317 143.965H577.144L575.317 155.835L576.23 156.748L575.317 160.4V164.966H576.23L579.883 116.572C581.1 116.572 581.709 115.659 581.709 113.833L582.622 112.92H584.448ZM683.169 111.792L685.908 112.705V114.531H683.169L684.995 117.271C683.67 120.314 678.8 121.836 670.386 121.836L663.994 122.749L663.081 125.488H663.994C662.168 129.821 658.516 149.3 653.037 183.926L655.776 195.796H654.863C653.503 195.796 652.285 192.752 651.211 186.665L652.124 177.534V176.621H651.211V178.447C649.385 178.447 648.472 179.056 648.472 180.273V181.187L650.298 195.796V196.709H648.472L644.819 193.97L643.906 194.883H642.993C640.558 189.619 639.341 185.054 639.341 181.187L640.254 182.1H641.167L639.341 175.708L642.08 174.795V170.229H640.254V169.316C642.08 169.316 642.993 168.708 642.993 167.49V166.577H641.167C641.167 161.707 642.08 159.272 643.906 159.272V147.402C644.873 146.543 646.09 140.151 647.559 128.228L641.167 129.141L628.384 128.228V127.314L632.949 126.401V127.314L633.862 126.401H647.559V123.662L632.949 125.488L632.036 124.575H631.123L625.645 125.488L622.905 123.662L623.818 119.097L622.905 118.184C622.905 115.14 626.558 113.618 633.862 113.618L683.169 111.792ZM677.69 114.531V115.444H681.343V114.531H677.69ZM643.906 165.664L642.08 185.752H643.906L642.993 181.187V179.36L644.819 176.621H643.906L644.819 175.708V174.795L643.906 173.882V172.969L645.732 169.316L644.819 165.664H643.906Z" fill="white"/>
</g>
<defs>
<clipPath id="clip0">
<rect width="700" height="300" fill="white"/>
</clipPath>
</defs>
</svg>
