<svg width="600" height="300" viewBox="0 0 600 300" fill="none" xmlns="http://www.w3.org/2000/svg">
<path fill-rule="evenodd" clip-rule="evenodd" d="M573.372 130.277C579.675 92.7716 586.102 54.5285 550.694 33.0465C511.604 9.31608 421.085 6.04187 346.539 13.7393C326.629 15.7953 304.262 17.3277 280.996 18.9217C217.152 23.2959 146.536 28.1341 101.314 45.5264C39.6124 69.2567 25.187 116.347 23.3544 146.003C21.5219 175.659 17.3217 245.214 78.9998 271C112.756 285.113 187.224 283.687 253.618 282.416C285.568 281.804 315.648 281.228 338.422 282.436C408.524 286.095 486.105 272.56 525.36 246.774C559.82 224.076 564.341 191.947 569.321 156.554C569.994 151.767 570.676 146.921 571.442 142.029C572.052 138.134 572.711 134.21 573.372 130.277ZM245.869 269.958L250.55 269.394C252.153 269.199 252.889 268.589 252.737 267.558L252.542 265.948C252.458 265.311 249.124 263.858 242.516 261.587L241.844 256.021L239.448 256.311C244.084 248.417 246.052 241.519 245.339 235.613L249.009 236.803C247.815 240.317 247.071 243.877 246.766 247.478L250.249 247.055C250.104 245.834 250.375 244.739 251.062 243.766L249.68 242.297C251.004 241.141 253.805 238.131 258.078 233.259C261.118 222.537 266.547 211.751 274.357 200.897C275.593 197.627 278.466 191.957 283.01 183.877L284.207 183.732C285.44 183.579 287.279 185.735 289.736 190.191C302.303 207.688 314.015 219.348 324.885 225.166C326.468 224.975 327.208 224.369 327.082 223.339L334.617 227.184L340.408 225.742C341.324 226.624 341.812 227.356 341.888 227.944L344.177 227.665L343.987 226.055L348.851 227.097C352.022 224.037 354.211 222.438 355.444 222.286L350.198 218.093L350.106 217.36L353.59 216.94L353.013 212.179C356.05 197.745 357.256 187.993 356.642 182.911L354.345 184.006C352.758 187.913 351.06 189.977 349.244 190.199L349.343 191.004L350.618 192.484L349.534 192.614C348.164 192.785 346.089 195.437 343.323 200.576C341.366 200.817 337.181 195.7 330.76 185.235L331.763 183.548L330.374 182.087L331.572 181.938C331.469 181.065 330.512 179.867 328.703 178.352C328.555 177.032 328.688 174.861 329.134 171.835L313.756 143.304C313.489 141.065 318.91 132.789 330.016 118.493C341.129 104.193 347.302 96.9211 348.523 96.6731C350.534 92.0718 354.345 87.3484 359.942 82.5106L359.85 81.7093L357.454 81.9993C357.298 80.7288 360.773 76.5739 367.866 69.5193C364.531 69.9199 361.643 72.1557 359.186 76.2152C357.878 76.3717 357.015 75.9329 356.596 74.8951L356.405 73.3575C362.891 62.4228 367.358 56.8028 369.823 56.5014C373.31 56.0817 378.308 51.4613 384.816 42.6517C387.804 41.1522 389.143 39.1339 388.838 36.5929C388.368 32.7852 382.18 30.5914 370.262 30C360.979 31.1217 353.334 33.6589 347.336 37.604C344.727 37.9206 338.127 43.6208 327.551 54.7081C316.964 65.7955 302.924 82.6097 285.409 105.132C284.173 105.284 276.974 98.4281 263.816 84.567L261.626 85.5781C256.67 79.2408 253.129 76.2038 251.027 76.4556C249.143 72.4266 246.533 70.6143 243.195 71.0187C239.982 68.2412 233.958 67.3827 225.115 68.4548C225.168 68.9432 224.798 69.237 224.001 69.3324L221.517 68.8898C220.147 69.0577 218.252 69.8016 215.837 71.137C214.017 71.3545 211.876 69.7597 209.396 66.345L201.221 68.0771L197.737 68.4968C197.936 70.1107 196.871 71.0531 194.552 71.3316C196.124 76.4442 197.997 78.8669 200.179 78.6036L214.932 92.8692C228.266 98.432 240.04 110.607 250.261 129.378L250.646 132.53L253.042 132.236L253.335 134.651C253.652 137.238 254.995 138.665 257.383 138.913C251.939 152.949 247.815 161.446 245.015 164.411C243.42 164.605 240.685 168.157 236.808 175.063C231.681 186.78 228.091 193.331 226.053 194.72C216.752 215.708 212.853 232.453 214.364 244.949C215.169 244.85 215.592 245.071 215.665 245.609L214.467 245.754C216.092 259.226 224.97 267.215 241.096 269.718L243.401 268.699C243.534 269.722 244.355 270.141 245.869 269.958Z" fill="#2B2E32"/>
<path fill-rule="evenodd" clip-rule="evenodd" d="M108.26 23.0037C96.912 31.3677 87.232 31.3677 75.883 23.0037C68.482 17.5497 62.164 17.5497 54.766 23.0037C43.522 31.2867 34.355 31.2867 23.113 23.0037C15.63 17.4857 10.576 17.4857 3.08798 23.0037L0.00100708 18.9567C9.09801 12.2547 16.744 11.9827 26.202 18.9567C35.119 25.5297 41.701 26.3097 51.679 18.9567C61.137 11.9827 69.933 12.2977 78.971 18.9567C88.25 25.7977 95.531 26.0657 105.174 18.9567C114.637 11.9827 120.824 11.9827 130.284 18.9567L127.194 23.0037C119.59 17.3947 115.871 17.3947 108.26 23.0037ZM108.26 9.27675C96.912 17.6407 87.232 17.6407 75.883 9.27675C68.482 3.81875 62.164 3.81875 54.766 9.27675C43.522 17.5607 34.355 17.5607 23.113 9.27675C15.63 3.75875 10.576 3.75875 3.08798 9.27675L0.00100708 5.22975C9.09801 -1.47625 16.744 -1.74325 26.202 5.22975C35.119 11.8027 41.701 12.5828 51.679 5.22975C61.137 -1.74325 69.933 -1.43125 78.971 5.22975C88.25 12.0708 95.531 12.3388 105.174 5.22975C114.637 -1.74325 120.824 -1.74325 130.284 5.22975L127.194 9.27675C119.59 3.66675 115.871 3.66675 108.26 9.27675ZM26.202 32.6828C35.119 39.2598 41.701 40.0368 51.679 32.6828C61.137 25.7088 69.933 26.0228 78.971 32.6828C88.25 39.5278 95.531 39.7958 105.174 32.6828C114.637 25.7088 120.824 25.7088 130.284 32.6828L127.194 36.7298C119.59 31.1248 115.871 31.1248 108.259 36.7298C96.911 45.0958 87.231 45.0988 75.882 36.7298C68.481 31.2758 62.163 31.2758 54.765 36.7298C43.521 45.0178 34.354 45.0178 23.112 36.7298C15.629 31.2128 10.575 31.2128 3.08701 36.7298L0 32.6828C9.098 25.9818 16.743 25.7098 26.202 32.6828Z" fill="#E935A8"/>
<path fill-rule="evenodd" clip-rule="evenodd" d="M578.024 280.001C566.701 288.364 557.042 288.364 545.718 280.001C538.333 274.548 532.028 274.548 524.647 280.001C513.427 288.283 504.28 288.283 493.063 280.001C485.596 274.484 480.553 274.484 473.081 280.001L470.001 275.954C479.078 269.253 486.707 268.981 496.145 275.954C505.042 282.527 511.61 283.306 521.566 275.954C531.004 268.981 539.781 269.296 548.799 275.954C558.058 282.795 565.323 283.062 574.945 275.954C584.387 268.981 590.561 268.981 600 275.954L596.917 280.001C589.329 274.393 585.618 274.393 578.024 280.001ZM578.024 266.276C566.701 274.639 557.042 274.639 545.718 266.276C538.333 260.818 532.028 260.818 524.647 266.276C513.427 274.559 504.28 274.559 493.063 266.276C485.596 260.758 480.553 260.758 473.081 266.276L470.001 262.229C479.078 255.524 486.707 255.257 496.145 262.229C505.042 268.801 511.61 269.581 521.566 262.229C531.004 255.257 539.781 255.569 548.799 262.229C558.058 269.069 565.323 269.337 574.945 262.229C584.387 255.257 590.561 255.257 600 262.229L596.917 266.276C589.329 260.666 585.618 260.666 578.024 266.276ZM496.145 289.679C505.042 296.255 511.61 297.032 521.566 289.679C531.004 282.706 539.781 283.02 548.799 289.679C558.058 296.523 565.323 296.791 574.945 289.679C584.387 282.706 590.561 282.706 600 289.679L596.917 293.725C589.329 288.121 585.618 288.121 578.023 293.725C566.7 302.09 557.041 302.093 545.717 293.725C538.332 288.272 532.027 288.272 524.646 293.725C513.426 302.012 504.279 302.012 493.062 293.725C485.595 288.209 480.552 288.209 473.08 293.725L470 289.679C479.078 282.979 486.706 282.707 496.145 289.679Z" fill="#E935A8"/>
<g filter="url(#filter0_d)">
<path d="M148.395 112.974H159.352C172.135 115.373 178.526 120.851 178.526 129.409V134.888L169.396 147.671H170.309L179.439 139.453V141.279C176.324 148.226 172.368 152.791 167.569 154.976L162.091 156.802V160.454C163.416 160.454 169.807 168.368 181.266 184.194C183.701 185.197 186.135 187.632 188.57 191.499V192.412L184.005 188.76V189.673C187.049 192.896 188.57 195.33 188.57 196.978H187.657L183.092 199.717H182.179L180.353 196.978L179.439 197.891H178.526C166.352 187.936 157.83 177.892 152.96 167.759L148.395 158.628C146.246 158.628 145.029 162.28 144.742 169.585C145.136 175.672 144.832 179.378 143.829 180.703C142.039 182.171 141.734 183.639 142.916 185.107V186.934H140.177C138.959 186.934 138.351 185.716 138.351 183.281H137.438C137.438 185.716 136.292 186.629 134 186.021L129.972 180.649L131.046 172.324V168.672L136.524 143.105H137.438V146.758H138.351L142.916 127.583C141.699 127.583 141.09 128.8 141.09 131.235H140.177V129.409H134.698V128.496C134.698 127.279 136.524 126.366 140.177 125.757V124.844H138.351L132.872 126.67H131.959C131.959 125.452 133.176 124.844 135.611 124.844V123.931C133.176 123.931 131.959 123.018 131.959 121.191L148.395 112.974ZM149.308 145.845H150.221C159.781 141.261 166.477 136.392 170.309 131.235V129.409C170.309 127.332 166.656 125.202 159.352 123.018L153.873 124.844L149.308 145.845ZM167.569 123.018C168.787 125.775 170.004 127.297 171.222 127.583V125.757L167.569 123.018ZM173.048 128.496L172.135 133.062H173.048L173.961 132.148V128.496H173.048ZM139.264 131.235H140.177V133.975L139.264 137.627H138.351V134.888L139.264 131.235ZM170.309 134.888L165.743 141.279H166.656L171.222 135.801V134.888H170.309ZM179.439 136.714H181.266L180.353 139.453H179.439V136.714ZM137.438 139.453H138.351V143.105H137.438V139.453ZM135.611 151.323V154.976H136.524V151.323H135.611ZM163.004 178.716V179.629L166.656 183.281C165.475 180.524 164.257 179.002 163.004 178.716ZM167.569 185.107V186.021L171.222 188.76V187.847L167.569 185.107ZM234.117 113.457L238.521 116.519C237.232 121.925 234.905 124.521 231.539 124.307L207.691 125.381L207.584 127.207L212.096 127.529L217.628 126.992L218.487 128.013L219.4 128.066L225.846 127.529L227.672 127.69L227.618 128.604L206.402 130.806L204.737 142.622L205.65 142.676L230.465 140.688L231.271 141.655L231.217 142.568L229.391 142.407V143.32L235.675 144.717L235.621 145.63C234.296 149.032 225.559 151.789 209.41 153.901L200.226 154.224L201.085 155.137L196.681 166.738H195.768L196.305 158.521L195.392 158.467L193.619 171.143C211.845 168.708 224.718 167.741 232.237 168.242L236.695 169.478L236.642 171.304L234.815 171.196L235.621 172.163L235.46 174.902C233.705 177.194 229.981 178.161 224.288 177.803L224.234 178.716L231.539 179.199L231.378 181.025L188.893 187.256L187.979 187.202C185.043 186.558 183.575 185.609 183.575 184.355V184.194L183.736 181.455L186.261 171.572L185.401 170.605L187.228 170.659L186.905 175.225L187.818 175.332C188.176 172.288 188.893 170.82 189.967 170.928L189.107 169.907L189.752 160.83L187.926 160.669L186.69 165.181L187.711 164.321L188.624 164.375L188.248 169.854L187.335 169.746L187.496 167.061L186.583 167.007L186.476 168.833L185.562 168.779L185.67 166.953L188.57 151.538L187.657 151.484L189.752 147.08L188.893 146.113L188.946 145.2L190.934 129.785L191.793 130.752L192.706 130.806L192.813 128.979L192.223 124.36L193.673 116.196L193.834 113.457L194.747 113.564L195.606 114.531L196.573 113.672L197.486 113.779L198.346 114.692L199.312 113.833L202.052 114.048L234.117 113.457ZM188.409 153.364L187.979 159.756L188.893 159.81L189.322 153.472L188.409 153.364ZM218.541 154.546H219.454L219.347 155.459L202.804 157.124L201.944 156.104L201.998 155.244L210.27 154.868L210.216 155.781L218.541 154.546ZM268.116 112.114C269.728 113.332 274.848 113.94 283.478 113.94L283.424 114.854H277.032L276.979 115.767C284.605 115.767 289.368 117.593 291.266 121.245L291.158 123.071H286.593L286.539 123.984L292.877 124.897L292.823 125.811H287.345L287.291 126.724C289.117 126.724 289.994 127.332 289.923 128.55C279.073 128.55 269.387 132.507 260.865 140.42L260.812 141.333C272.592 144.484 281.92 151.484 288.795 162.334L288.741 163.247C286.521 171.125 280.309 178.429 270.104 185.161L264.518 186.074L264.464 186.987H266.29C266.218 188.634 260.632 190.461 249.532 192.466L249.64 190.64H254.205L254.312 189.727C250.41 189.727 246.882 187.596 243.731 183.335C241.01 181.938 239.649 179.271 239.649 175.332C239.649 174.974 239.667 174.598 239.703 174.204L242.55 172.378L245.182 174.204H247.008C264.195 171.519 273.058 166.04 273.595 157.769C266.397 154.116 261.635 152.29 259.308 152.29L259.254 153.203L250.284 149.551L251.144 150.464L251.09 152.29C243.499 146.704 239.793 142.443 239.972 139.507L247.115 126.724L251.896 123.071L251.788 124.897L268.116 112.114ZM255.655 136.768L255.602 137.681L271.715 127.637L279.127 125.811L279.234 123.984H277.408C267.776 127.565 260.525 131.826 255.655 136.768ZM260.704 174.204H261.617L263.551 172.378H262.638L260.704 174.204ZM277.14 174.204L273.219 178.77H274.132L278.053 174.204H277.14ZM265.699 181.509V182.422H266.612L270.426 179.683L265.699 181.509ZM255.333 187.9L255.279 188.813H258.932L263.551 187.9V186.987H262.638L255.333 187.9ZM335.899 111.147H336.812V112.974L337.726 112.061H338.639C342.9 113.493 345.03 114.71 345.03 115.713L340.465 121.191H342.291C344.726 119.938 345.943 118.416 345.943 116.626H348.683V117.539L347.77 118.452L348.683 119.365V120.278C327.055 143.553 316.492 162.101 316.993 175.923L315.167 185L316.08 185.913V186.826L311.515 195.044L304.21 194.131V186.826L301.471 183.228V181.401L302.384 170.444L303.297 171.357H304.21L303.297 170.444V169.531L304.21 168.618V167.705L303.297 166.792L306.036 165.879L305.123 170.444V174.097H306.036L307.11 163.086L306.197 160.347H305.284V163.086H304.371L303.458 155.781L304.371 154.868V153.955L291.803 121.89V120.063H293.629L291.803 115.498L292.716 114.585H294.542C295.938 114.585 296.852 116.107 297.281 119.15L300.021 117.324H302.76C302.76 121.084 306.036 129.033 312.589 141.172C316.098 134.512 319.142 130.555 321.72 129.302V130.215C315.632 137.949 312.589 142.515 312.589 143.911V144.824H313.502L334.986 115.713V114.8L324.459 125.649V124.736L335.899 111.147ZM324.459 125.649V126.562L322.633 128.389V127.476L324.459 125.649ZM336.812 124.844C323.707 141.637 317.154 151.341 317.154 153.955H318.98C324.244 143.822 330.493 134.118 337.726 124.844H336.812ZM306.949 188.652V192.305H307.862V188.652H306.949ZM363.614 113.887L370.006 119.365C370.006 117.539 370.615 116.626 371.832 116.626H372.745L385.528 149.497V151.323H384.615L382.789 145.845H381.876V147.671L388.268 163.193H389.181C391.616 147.367 395.125 130.841 399.708 113.618L402.447 115.444L405.187 114.531L410.665 117.271V118.184C408.839 118.184 407.926 119.401 407.926 121.836H408.839L409.752 122.749H410.665L411.578 118.184H413.404V119.097L412.491 120.01L413.404 120.923V121.836C408.821 135.908 404.703 156.086 401.051 182.368H399.225L401.051 167.759C399.833 167.759 398.007 173.542 395.572 185.107C393.316 186.934 391.186 187.847 389.181 187.847V189.673H388.268C388.268 188.455 387.05 187.847 384.615 187.847V181.455C384.615 178.698 378.528 163.48 366.354 135.801H365.44C363.006 146.65 360.875 161.26 359.049 179.629L358.136 178.716C354.483 179.79 352.657 181.312 352.657 183.281H350.831C349.614 180.99 349.005 177.033 349.005 171.411H348.092V179.629H346.266L345.353 175.063C345.353 158.521 349.005 138.433 356.31 114.8L363.614 113.887ZM350.831 136.714V137.627L351.744 138.54L350.831 139.453V141.279H351.744L352.657 137.627L351.744 136.714H350.831ZM385.528 151.323C387.104 151.323 388.321 153.758 389.181 158.628V159.541H388.268L385.528 151.323ZM446.812 114.692H447.726C456.57 114.692 463.266 118.345 467.813 125.649V126.562H465.987L466.9 127.476V128.389C463.248 127.959 461.422 127.35 461.422 126.562C447.206 126.562 436.554 133.867 429.464 148.477L427.638 154.868L430.377 172.217H433.116C440.707 172.217 449.229 166.738 458.683 155.781H459.596V156.694C453.115 166.04 445.81 171.519 437.682 173.13V174.043H438.595C444.968 174.043 452.882 168.564 462.335 157.607L465.074 161.26V163.999C465.074 165.968 460.509 170.534 451.378 177.695L450.465 178.608H449.552V180.435C459.9 175.386 465.074 171.733 465.074 169.478H466.9V170.391C459.238 179.521 450.411 184.087 440.421 184.087V185H444.986L448.639 184.087H449.552V185L438.595 186.772C433.976 186.772 429.106 183.442 423.985 176.782V177.695L428.551 185V185.859H425.812C420.154 181.992 416.806 177.14 415.768 171.304L414.854 159.434C414.854 144.18 417.898 134.44 423.985 130.215V131.128L418.507 140.259V141.172H419.42C419.42 135.371 427.029 127.153 442.247 116.519L439.508 117.432H438.595V116.519L446.812 114.692ZM436.769 118.345H437.682V119.258L431.29 121.997C431.29 120.78 433.116 119.562 436.769 118.345ZM428.551 124.736V125.649L423.985 130.215V129.302L428.551 124.736ZM417.594 168.564V171.304L418.507 174.956H419.42V174.043L418.507 168.564H417.594Z" fill="white"/>
</g>
<defs>
<filter id="filter0_d" x="125.972" y="111.147" width="345.842" height="96.5693" filterUnits="userSpaceOnUse" color-interpolation-filters="sRGB">
<feFlood flood-opacity="0" result="BackgroundImageFix"/>
<feColorMatrix in="SourceAlpha" type="matrix" values="0 0 0 0 0 0 0 0 0 0 0 0 0 0 0 0 0 0 127 0"/>
<feOffset dy="4"/>
<feGaussianBlur stdDeviation="2"/>
<feColorMatrix type="matrix" values="0 0 0 0 0 0 0 0 0 0 0 0 0 0 0 0 0 0 0.15 0"/>
<feBlend mode="normal" in2="BackgroundImageFix" result="effect1_dropShadow"/>
<feBlend mode="normal" in="SourceGraphic" in2="effect1_dropShadow" result="shape"/>
</filter>
</defs>
</svg>
