<svg
  width="24"
  height="24"
  viewBox="0 0 24 24"
  fill="none" xmlns="http://www.w3.org/2000/svg">
  <path
    fill-rule="evenodd"
    clip-rule="evenodd" d="M8.46446 8.46447C8.07394 8.85499 7.44077 8.85499 7.05025 8.46447C6.65972 8.07394 6.65972 7.44078 7.05025 7.05025C8.38092 5.71958 10.1582 4.99929 12.0027 5C13.8454 5.00071 15.6204 5.72092 16.9497 7.05025C19.6834 9.78392 19.6834 14.2161 16.9497 16.9497C15.6203 18.2792 13.8452 18.9994 12.0024 19C11.4501 19.0002 11.0022 18.5526 11.002 18.0003C11.0018 17.4481 11.4494 17.0002 12.0017 17C13.3196 16.9996 14.5849 16.4862 15.5355 15.5355C17.4882 13.5829 17.4882 10.4171 15.5355 8.46447C14.5849 7.51387 13.3197 7.00051 12.0019 7C10.6828 6.99949 9.41601 7.51291 8.46446 8.46447Z"
    class="light_border"
    />
  <path fill-rule="evenodd"
    clip-rule="evenodd"
    d="M11 21C11 21.5523 11.4477 22 12 22C17.5228 22 22 17.5228 22 12C22 6.47715 17.5228 2 12 2C6.47715 2 2 6.47715 2 12C2 12.5523 2.44772 13 3 13C3.55228 13 4 12.5523 4 12C4 7.58172 7.58172 4 12 4C16.4183 4 20 7.58172 20 12C20 16.4183 16.4183 20 12 20C11.4477 20 11 20.4477 11 21ZM11 15C11 15.5523 11.4477 16 12 16C14.2091 16 16 14.2091 16 12C16 9.79086 14.2091 8 12 8C11.4477 8 11 8.44772 11 9C11 9.55228 11.4477 10 12 10C13.1046 10 14 10.8954 14 12C14 13.1046 13.1046 14 12 14C11.4477 14 11 14.4477 11 15Z"
    class="dark_border"
    />
</svg>
