<svg
  width="24"
  height="24"
  viewBox="0 0 24 24"
  fill="none" xmlns="http://www.w3.org/2000/svg">
  <path

    class="light_border"
    d="M7.26609 11.1539L5.9482 11.8216C5.84967 11.8715 5.81025 11.9918 5.86017 12.0904C5.8794 12.1283 5.91024 12.1592 5.9482 12.1784L11.6385 15.0611C11.8657 15.1763 12.1343 15.1763 12.3615 15.0611L18.0518 12.1784C18.1503 12.1285 18.1897 12.0081 18.1398 11.9096C18.1206 11.8717 18.0898 11.8408 18.0518 11.8216L16.7339 11.1539L18.851 10.0814L20.267 10.7988C20.9218 11.1305 21.1872 11.9372 20.8598 12.6006C20.7315 12.8605 20.5235 13.0713 20.267 13.2012L12.8468 16.9603C12.3137 17.2304 11.6863 17.2304 11.1532 16.9603L3.73301 13.2012C3.07824 12.8695 2.81284 12.0628 3.14023 11.3994C3.26849 11.1395 3.47649 10.9287 3.73301 10.7988L5.14902 10.0814L7.26609 11.1539Z"
    />
  <path

    class="dark_border"
    d="M20.267 9.36407L12.8468 13.1232C12.3137 13.3932 11.6863 13.3932 11.1532 13.1232L3.73301 9.36407C3.07824 9.03236 2.81284 8.22566 3.14023 7.56224C3.26849 7.30233 3.47649 7.09159 3.73301 6.96163L11.1532 3.20255C11.6863 2.93248 12.3137 2.93248 12.8468 3.20255L20.267 6.96163C20.9218 7.29334 21.1872 8.10005 20.8598 8.76346C20.7315 9.02337 20.5235 9.23412 20.267 9.36407ZM7.26609 14.9911L5.9482 15.6587C5.84967 15.7087 5.81025 15.829 5.86017 15.9275C5.8794 15.9655 5.91024 15.9963 5.9482 16.0156L11.6385 18.8983C11.8657 19.0134 12.1343 19.0134 12.3615 18.8983L18.0518 16.0156C18.1503 15.9656 18.1897 15.8453 18.1398 15.7468C18.1206 15.7088 18.0898 15.678 18.0518 15.6587L16.7339 14.9911L18.851 13.9186L20.267 14.6359C20.9218 14.9676 21.1872 15.7743 20.8598 16.4378C20.7315 16.6977 20.5235 16.9084 20.267 17.0384L12.8468 20.7975C12.3137 21.0675 11.6863 21.0675 11.1532 20.7975L3.73301 17.0384C3.07824 16.7067 2.81284 15.9 3.14023 15.2365C3.26849 14.9766 3.47649 14.7659 3.73301 14.6359L5.14902 13.9186L7.26609 14.9911ZM11.6385 5.10173L5.9482 7.98444C5.84967 8.03436 5.81025 8.1547 5.86017 8.25324C5.8794 8.2912 5.91024 8.32203 5.9482 8.34126L11.6385 11.224C11.8657 11.3391 12.1343 11.3391 12.3615 11.224L18.0518 8.34126C18.1503 8.29135 18.1897 8.171 18.1398 8.07247C18.1206 8.03451 18.0898 8.00367 18.0518 7.98444L12.3615 5.10173C12.1343 4.98659 11.8657 4.98659 11.6385 5.10173Z"
    />
</svg>
