<svg
  width="24"
  height="24"
  viewBox="0 0 24 24"
  fill="none"
  xmlns="http://www.w3.org/2000/svg">
  <path class="light_border"
    d="M16 12C16 12.5523 15.5523 13 15 13C14.4477 13 14 12.5523 14 12C14 10.8954 13.1046 10 12 10C10.8954 10 10 10.8954 10 12C10 13.1046 10.8954 14 12 14C12.5523 14 13 14.4477 13 15C13 15.5523 12.5523 16 12 16C9.79086 16 8 14.2091 8 12C8 9.79086 9.79086 8 12 8C14.2091 8 16 9.79086 16 12Z"/>
  <path class="dark_border" d="M10.3272 5.06272C10.2564 5.605 9.93806 6.08478 9.46404 6.3636L8.2519 7.07656C7.76878 7.36073 7.17933 7.40364 6.65959 7.19247L5.8317 6.85609C5.64881 6.78179 5.43905 6.85202 5.33778 7.02147L4.18681 8.94728C4.08092 9.12445 4.12722 9.35309 4.29369 9.47511L5.06934 10.0436C5.52663 10.3788 5.79647 10.9095 5.79647 11.4736V12.5264C5.79647 13.0905 5.52663 13.6212 5.06934 13.9564L4.29369 14.5249C4.12722 14.6469 4.08092 14.8755 4.18681 15.0527L5.33778 16.9785C5.43905 17.148 5.64881 17.2182 5.8317 17.1439L6.65959 16.8075C7.17933 16.5964 7.76878 16.6393 8.2519 16.9234L9.46404 17.6364C9.93806 17.9152 10.2564 18.395 10.3272 18.9373L10.4205 19.6518C10.4465 19.851 10.6163 20 10.8171 20H13.1829C13.3837 20 13.5535 19.851 13.5795 19.6518L13.6728 18.9373C13.7436 18.395 14.0619 17.9152 14.536 17.6364L15.7481 16.9234C16.2312 16.6393 16.8207 16.5964 17.3404 16.8075L18.1683 17.1439C18.3512 17.2182 18.5609 17.148 18.6622 16.9785L19.8132 15.0527C19.9191 14.8755 19.8728 14.6469 19.7063 14.5249L18.9307 13.9564C18.4734 13.6212 18.2035 13.0905 18.2035 12.5264V11.4736C18.2035 10.9095 18.4734 10.3788 18.9307 10.0436L19.7063 9.47511C19.8728 9.35309 19.9191 9.12445 19.8132 8.94728L18.6622 7.02147C18.5609 6.85202 18.3512 6.78179 18.1683 6.85609L17.3404 7.19247C16.8207 7.40364 16.2312 7.36073 15.7481 7.07656L14.536 6.3636C14.0619 6.08478 13.7436 5.605 13.6728 5.06272L13.5795 4.34821C13.5535 4.14901 13.3837 4 13.1829 4H10.8171C10.6163 4 10.4465 4.14901 10.4205 4.34821L10.3272 5.06272ZM10.303 2H13.697C14.5259 2 15.2333 2.60727 15.3397 3.42854L15.4757 4.47812C15.4915 4.60013 15.5626 4.70808 15.6684 4.77082L16.5596 5.29908C16.6675 5.36302 16.7991 5.37267 16.9152 5.32516L18.0126 4.87581C18.7743 4.56394 19.6561 4.85273 20.0756 5.56013L21.7726 8.42149C22.1998 9.14181 22.0091 10.0618 21.3353 10.5595L20.2763 11.3417C20.1742 11.4172 20.1139 11.5366 20.1139 11.6635V12.3365C20.1139 12.4634 20.1742 12.5828 20.2763 12.6583L21.3353 13.4405C22.0091 13.9382 22.1998 14.8582 21.7726 15.5785L20.0756 18.4399C19.6561 19.1473 18.7743 19.4361 18.0126 19.1242L16.9152 18.6748C16.7991 18.6273 16.6675 18.637 16.5596 18.7009L15.6684 19.2292C15.5626 19.2919 15.4915 19.3999 15.4757 19.5219L15.3397 20.5715C15.2333 21.3927 14.5259 22 13.697 22H10.303C9.47412 22 8.7667 21.3927 8.66029 20.5715L8.5243 19.5219C8.50849 19.3999 8.43742 19.2919 8.33158 19.2292L7.44037 18.7009C7.3325 18.637 7.20089 18.6273 7.08484 18.6748L5.98739 19.1242C5.22571 19.4361 4.34394 19.1473 3.92441 18.4399L2.22744 15.5785C1.80024 14.8582 1.9909 13.9382 2.66466 13.4405L3.72372 12.6583C3.82582 12.5828 3.88606 12.4634 3.88606 12.3365V11.6635C3.88606 11.5366 3.82582 11.4172 3.72372 11.3417L2.66466 10.5595C1.9909 10.0618 1.80024 9.14181 2.22744 8.42149L3.92441 5.56013C4.34394 4.85273 5.22571 4.56394 5.98739 4.87581L7.08484 5.32516C7.20089 5.37267 7.3325 5.36302 7.44037 5.29908L8.33158 4.77082C8.43742 4.70808 8.50849 4.60013 8.5243 4.47812L8.66029 3.42854C8.7667 2.60727 9.47412 2 10.303 2Z" />
</svg>
