<svg width="24" height="24" viewBox="0 0 24 24" fill="none" xmlns="http://www.w3.org/2000/svg">
  <rect
    x="17"
    y="16"
    width="4"
    height="2"
    rx="1"
    class="light_border"
    />
  <path
    class="dark_border"
    d="M4 8H16V9.61683C16 9.82845 16.1904 10 16.4253 10C16.5126 10 16.5977 9.97582 16.6692 9.93073L20.8186 7.31392C21.011 7.19257 21.0578 6.95365 20.9231 6.78028C20.8946 6.74363 20.8592 6.71176 20.8186 6.68611L16.6692 4.0693C16.4768 3.94794 16.2116 3.9901 16.0769 4.16347C16.0268 4.22787 16 4.30459 16 4.3832V6H4C3.44772 6 3 6.44772 3 7C3 7.55228 3.44772 8 4 8ZM15 16H8V14.3832C8 14.3046 7.97316 14.2279 7.92312 14.1635C7.78842 13.9901 7.52323 13.9479 7.3308 14.0693L3.18144 16.6861C3.14077 16.7118 3.10539 16.7436 3.07692 16.7803C2.94222 16.9536 2.98902 17.1926 3.18144 17.3139L7.3308 19.9307C7.40229 19.9758 7.48744 20 7.5747 20C7.80959 20 8 19.8284 8 19.6168V18H15C15.5523 18 16 17.5523 16 17C16 16.4477 15.5523 16 15 16Z" />
</svg>
