<?xml version="1.0" encoding="UTF-8"?>
<svg width="329px" height="269px" viewBox="0 0 329 269" version="1.1" xmlns="http://www.w3.org/2000/svg" xmlns:xlink="http://www.w3.org/1999/xlink">
    <!-- Generator: Sketch 55.1 (78136) - https://sketchapp.com -->
    <title>how</title>
    <desc>Created with Sketch.</desc>
    <g id="Icon" stroke="none" stroke-width="1" fill="none" fill-rule="evenodd">
        <g id="Artboard-2" transform="translate(-134.000000, -303.000000)">
            <g id="how" transform="translate(134.000000, 302.890000)">
                <path d="M158.6802,207.2362 C139.5102,229.7002 99.6802,231.4412 99.6802,231.4412 L99.6802,238.3762 L80.2112,238.3762 L80.2112,253.0202 L59.6022,253.0202 L59.6022,266.8012 L267.6732,266.8012 L267.6732,253.0202 L247.0652,253.0202 L247.0652,238.3762 L227.5952,238.3762 L227.5952,231.4412 C227.5952,231.4412 188.3012,229.7232 168.9872,207.6882" id="Stroke-140" stroke="#A8A9A5" stroke-width="3"></path>
                <path d="M172.6705,200.0643 C172.6705,205.0533 168.6265,209.0973 163.6385,209.0973 C158.6495,209.0973 154.6055,205.0533 154.6055,200.0643 C154.6055,195.0763 158.6495,191.0313 163.6385,191.0313 C168.6265,191.0313 172.6705,195.0763 172.6705,200.0643 Z" id="Stroke-142" stroke="#A8A9A5" stroke-width="3"></path>
                <path d="M165.9058,51.9906 C168.0488,51.0996 169.5558,48.9896 169.5558,46.5246 C169.5558,44.0596 168.0488,41.9486 165.9058,41.0586 C167.8668,40.1826 169.2448,38.2156 169.2448,35.9386 L169.2448,13.4616 C169.2448,10.3776 166.7208,7.8546 163.6368,7.8546 C160.5538,7.8546 158.0308,10.3776 158.0308,13.4616 L158.0308,35.9386 C158.0308,38.2156 159.4088,40.1826 161.3698,41.0586 C159.2268,41.9486 157.7188,44.0596 157.7188,46.5246 C157.7188,48.9896 159.2268,51.0996 161.3698,51.9906 C159.4088,52.8656 158.0308,54.8336 158.0308,57.1106 L158.0308,184.6116 C158.0308,187.6946 160.5538,190.2176 163.6368,190.2176 C166.7208,190.2176 169.2448,187.6946 169.2448,184.6116 L169.2448,57.1106 C169.2448,54.8336 167.8668,52.8656 165.9058,51.9906 Z" id="Stroke-144" stroke="#A8A9A5" stroke-width="3" stroke-linecap="round" stroke-linejoin="round"></path>
                <path d="M58.565,82.8529 C66.884,85.9879 79.455,79.5879 79.461,79.5839 L112.11,59.6549 L112.11,59.6379 L115.957,57.3079 C128.5,49.7069 142.685,45.2409 157.32,44.2439" id="Stroke-146" stroke="#A8A9A5" stroke-width="3" stroke-linecap="round" stroke-linejoin="round"></path>
                <path d="M158.5025,49.5013 C144.4245,50.3283 130.7645,54.5573 118.7145,61.8593 L117.4325,62.6363 L117.4325,62.6423 C110.7475,66.7223 79.9665,85.5103 79.9665,85.5103 C77.3145,87.0103 74.2025,87.8263 71.0445,87.8263 C70.8375,87.8263 70.6285,87.8223 70.4185,87.8153 C61.0995,87.5053 53.3465,79.9823 52.7695,70.6873 C52.2635,62.5333 57.2725,54.9463 64.9535,52.2393" id="Stroke-148" stroke="#A8A9A5" stroke-width="3" stroke-linecap="round" stroke-linejoin="round"></path>
                <path d="M268.7105,82.8529 C260.3915,85.9879 247.8205,79.5879 247.8145,79.5839 L215.1655,59.6549 L215.1655,59.6379 L211.3185,57.3079 C198.7755,49.7069 184.5905,45.2409 169.9555,44.2439" id="Stroke-150" stroke="#A8A9A5" stroke-width="3" stroke-linecap="round" stroke-linejoin="round"></path>
                <path d="M168.773,49.5013 C182.851,50.3283 196.511,54.5573 208.561,61.8593 L209.843,62.6363 L209.843,62.6423 C216.528,66.7223 247.309,85.5103 247.309,85.5103 C249.961,87.0103 253.073,87.8263 256.231,87.8263 C256.438,87.8263 256.647,87.8223 256.857,87.8153 C266.176,87.5053 273.929,79.9823 274.506,70.6873 C275.012,62.5333 270.002,54.9463 262.322,52.2393" id="Stroke-152" stroke="#A8A9A5" stroke-width="3" stroke-linecap="round" stroke-linejoin="round"></path>
                <path d="M60.3238,129.2206 L73.4898,93.4206" id="Stroke-154" stroke="#A8A9A5" stroke-linecap="round" stroke-linejoin="round"></path>
                <polyline id="Stroke-156" stroke="#A8A9A5" stroke-linecap="round" stroke-linejoin="round" points="102.2544 171.5663 109.4964 191.2583 73.5154 191.2583 73.4894 191.2583 37.5084 191.2583 44.7494 171.5663"></polyline>
                <path d="M73.5152,93.4208 L86.6812,129.2208" id="Stroke-158" stroke="#A8A9A5" stroke-linecap="round" stroke-linejoin="round"></path>
                <path d="M73.4898,93.4208 L73.4898,117.9018" id="Stroke-160" stroke="#A8A9A5" stroke-linecap="round" stroke-linejoin="round"></path>
                <path d="M240.5826,129.2206 L253.7486,93.4206" id="Stroke-162" stroke="#A8A9A5" stroke-linecap="round"></path>
                <polyline id="Stroke-164" stroke="#A8A9A5" stroke-linecap="round" stroke-linejoin="round" points="282.5132 171.5663 289.7552 191.2583 253.7732 191.2583 253.7482 191.2583 217.7662 191.2583 225.0082 171.5663"></polyline>
                <path d="M253.773,93.4208 L266.939,129.2208" id="Stroke-166" stroke="#A8A9A5" stroke-linecap="round"></path>
                <path d="M253.7486,93.4208 L253.7486,117.9018" id="Stroke-168" stroke="#A8A9A5" stroke-linecap="round"></path>
                <path d="M37.5025,191.2587 C46.1795,201.4427 59.0885,207.9077 73.5155,207.9077 C87.9405,207.9077 100.8505,201.4427 109.5265,191.2587 L37.5025,191.2587 Z" id="Stroke-170" stroke="#A8A9A5" stroke-linecap="round" stroke-linejoin="round"></path>
                <path d="M217.7486,191.2587 C226.4256,201.4427 239.3346,207.9077 253.7606,207.9077 C268.1866,207.9077 281.0966,201.4427 289.7726,191.2587 L217.7486,191.2587 Z" id="Stroke-172" stroke="#A8A9A5" stroke-linejoin="round"></path>
                <path d="M84.1841,152.5917 C84.1841,168.8107 79.3961,181.9577 73.4901,181.9577 C67.5831,181.9577 62.7951,168.8107 62.7951,152.5917 C62.7951,136.3727 67.5831,123.2257 73.4901,123.2257 C79.3961,123.2257 84.1841,136.3727 84.1841,152.5917 Z" id="Stroke-174" stroke="#57B897"></path>
                <path d="M78.5415,162.0175 C64.2455,169.6785 50.3955,171.6685 47.6055,166.4625 C44.8155,161.2565 54.1435,150.8265 68.4375,143.1655 C82.7335,135.5045 96.5845,133.5145 99.3735,138.7205 C102.1635,143.9265 92.8365,154.3565 78.5415,162.0175 Z" id="Stroke-176" stroke="#57B897"></path>
                <path d="M68.438,162.0175 C82.734,169.6785 96.584,171.6685 99.374,166.4625 C102.164,161.2565 92.836,150.8265 78.542,143.1655 C64.246,135.5045 50.395,133.5145 47.606,138.7205 C44.816,143.9265 54.143,154.3565 68.438,162.0175 Z" id="Stroke-178" stroke="#57B897"></path>
                <path d="M78.0249,152.5917 C78.0249,155.0967 75.9949,157.1267 73.4899,157.1267 C70.9849,157.1267 68.9549,155.0967 68.9549,152.5917 C68.9549,150.0867 70.9849,148.0567 73.4899,148.0567 C75.9949,148.0567 78.0249,150.0867 78.0249,152.5917 Z" id="Stroke-180" stroke="#57B897"></path>
                <path d="M73.4898,186.4276 L73.4898,191.2586" id="Stroke-182" stroke="#A8A9A5" stroke-linecap="round" stroke-linejoin="round"></path>
                <path d="M253.773,186.4276 L253.773,191.2586" id="Stroke-184" stroke="#A8A9A5" stroke-linecap="round"></path>
                <path d="M12.5464,266.8016 L314.7294,266.8016" id="Stroke-186" stroke="#A8A9A5" stroke-width="3"></path>
                <path d="M281.7076,148.0731 L274.2276,146.8411 C273.7916,145.2861 273.1766,143.7901 272.4026,142.3731 L276.9726,136.0021 C277.2176,135.6591 277.1796,135.1891 276.8816,134.8911 L271.6266,129.6371 C271.4286,129.4391 271.1576,129.3681 270.8956,129.4061 C270.6766,129.3691 270.4456,129.4071 270.2536,129.5461 L264.2046,133.8841 C262.7696,133.0941 261.2526,132.4691 259.6766,132.0281 L258.4436,124.5471 C258.3766,124.1321 258.0176,123.8261 257.5956,123.8261 L257.3316,123.8261 L250.1646,123.8261 L249.9006,123.8261 C249.4796,123.8261 249.1206,124.1311 249.0526,124.5471 L247.8196,132.0271 C246.2436,132.4691 244.7266,133.0931 243.2896,133.8841 L237.2436,129.5481 C237.0526,129.4121 236.8246,129.3711 236.6066,129.4051 C236.3446,129.3651 236.0696,129.4371 235.8706,129.6361 L230.6156,134.8911 C230.3176,135.1891 230.2796,135.6591 230.5246,136.0011 L235.0946,142.3721 C234.3196,143.7921 233.7046,145.2881 233.2696,146.8431 L225.7886,148.0741 C225.3726,148.1421 225.0676,148.5021 225.0676,148.9231 L225.0676,156.3541 C225.0676,156.7761 225.3726,157.1361 225.7886,157.2031 L233.2696,158.4351 C233.7046,159.9901 234.3196,161.4861 235.0946,162.9031 L230.5246,169.2741 C230.2786,169.6171 230.3166,170.0871 230.6156,170.3851 L235.8696,175.6381 C236.0676,175.8371 236.3396,175.9081 236.6006,175.8711 C236.8196,175.9081 237.0506,175.8691 237.2436,175.7301 L243.2916,171.3931 C244.7276,172.1821 246.2446,172.8071 247.8206,173.2481 L249.0526,180.7291 C249.1206,181.1441 249.4796,181.4511 249.9006,181.4511 L250.1646,181.4511 L257.3316,181.4511 L257.5956,181.4511 C258.0166,181.4511 258.3766,181.1461 258.4436,180.7301 L259.6766,173.2491 C261.2526,172.8081 262.7706,172.1831 264.2066,171.3921 L270.2536,175.7291 C270.4436,175.8651 270.6716,175.9051 270.8896,175.8711 C271.1516,175.9111 271.4276,175.8391 271.6266,175.6391 L276.8806,170.3851 C277.1796,170.0881 277.2166,169.6171 276.9716,169.2751 L272.4016,162.9051 C273.1766,161.4851 273.7916,159.9881 274.2266,158.4331 L281.7076,157.2031 C282.1236,157.1341 282.4286,156.7741 282.4286,156.3531 L282.4286,148.9231 C282.4286,148.5011 282.1236,148.1411 281.7076,148.0731 Z" id="Stroke-188" stroke="#57B897"></path>
                <path d="M264.5377,152.6385 C264.5377,158.5975 259.7077,163.4285 253.7487,163.4285 C247.7897,163.4285 242.9587,158.5975 242.9587,152.6385 C242.9587,146.6795 247.7897,141.8485 253.7487,141.8485 C259.7077,141.8485 264.5377,146.6795 264.5377,152.6385 Z" id="Stroke-190" stroke="#57B897"></path>
                <path d="M9.0064,100.3011 C9.0064,102.6881 7.0704,104.6231 4.6844,104.6231 C2.2964,104.6231 0.3604,102.6881 0.3604,100.3011 C0.3604,97.9141 2.2964,95.9791 4.6844,95.9791 C7.0704,95.9791 9.0064,97.9141 9.0064,100.3011 Z" id="Stroke-192" stroke="#3F4242" stroke-width="0.5"></path>
                <path d="M129.3375,87.8265 C129.3375,90.2135 127.4015,92.1485 125.0155,92.1485 C122.6285,92.1485 120.6925,90.2135 120.6925,87.8265 C120.6925,85.4395 122.6285,83.5045 125.0155,83.5045 C127.4015,83.5045 129.3375,85.4395 129.3375,87.8265 Z" id="Stroke-194" stroke="#3F4242" stroke-width="0.5"></path>
                <path d="M118.1265,7.7723 C116.4385,9.4603 113.7015,9.4603 112.0135,7.7723 C110.3255,6.0843 110.3255,3.3483 112.0135,1.6603 C113.7015,-0.0277 116.4385,-0.0277 118.1265,1.6603 C119.8135,3.3483 119.8135,6.0843 118.1265,7.7723 Z" id="Stroke-196" stroke="#3F4242" stroke-width="0.5"></path>
                <path d="M315.7896,150.8573 C315.7896,153.2443 313.8536,155.1793 311.4676,155.1793 C309.0796,155.1793 307.1446,153.2443 307.1446,150.8573 C307.1446,148.4703 309.0796,146.5353 311.4676,146.5353 C313.8536,146.5353 315.7896,148.4703 315.7896,150.8573 Z" id="Stroke-198" stroke="#3F4242" stroke-width="0.5"></path>
                <path d="M36.8765,78.5131 C36.8765,80.9001 34.9415,82.8351 32.5545,82.8351 C30.1675,82.8351 28.2315,80.9001 28.2315,78.5131 C28.2315,76.1261 30.1675,74.1911 32.5545,74.1911 C34.9415,74.1911 36.8765,76.1261 36.8765,78.5131 Z" id="Stroke-200" stroke="#3F4242" stroke-width="0.5"></path>
                <path d="M57.0562,18.6395 C57.0562,21.0265 55.1212,22.9615 52.7342,22.9615 C50.3472,22.9615 48.4112,21.0265 48.4112,18.6395 C48.4112,16.2525 50.3472,14.3175 52.7342,14.3175 C55.1212,14.3175 57.0562,16.2525 57.0562,18.6395 Z" id="Stroke-202" stroke="#3F4242" stroke-width="0.5"></path>
                <path d="M212.0943,95.9789 C212.0943,98.3659 210.1583,100.3009 207.7723,100.3009 C205.3843,100.3009 203.4493,98.3659 203.4493,95.9789 C203.4493,93.5919 205.3843,91.6569 207.7723,91.6569 C210.1583,91.6569 212.0943,93.5919 212.0943,95.9789 Z" id="Stroke-204" stroke="#3F4242" stroke-width="0.5"></path>
                <path d="M291.0728,15.7386 C291.0728,18.1256 289.1378,20.0606 286.7508,20.0606 C284.3638,20.0606 282.4278,18.1256 282.4278,15.7386 C282.4278,13.3516 284.3638,11.4166 286.7508,11.4166 C289.1378,11.4166 291.0728,13.3516 291.0728,15.7386 Z" id="Stroke-206" stroke="#3F4242" stroke-width="0.5"></path>
                <path d="M225.9791,37.4945 C225.9791,39.8815 224.0441,41.8165 221.6571,41.8165 C219.2701,41.8165 217.3341,39.8815 217.3341,37.4945 C217.3341,35.1075 219.2701,33.1725 221.6571,33.1725 C224.0441,33.1725 225.9791,35.1075 225.9791,37.4945 Z" id="Stroke-208" stroke="#3F4242" stroke-width="0.5"></path>
                <path d="M327.9732,93.4208 C327.9732,95.8078 326.0372,97.7428 323.6512,97.7428 C321.2632,97.7428 319.3282,95.8078 319.3282,93.4208 C319.3282,91.0338 321.2632,89.0988 323.6512,89.0988 C326.0372,89.0988 327.9732,91.0338 327.9732,93.4208 Z" id="Stroke-210" stroke="#3F4242" stroke-width="0.5"></path>
                <polyline id="Stroke-212" stroke="#3F4242" stroke-width="0.5" points="9.0064 100.3011 20.9564 100.3011 20.9564 138.8641 37.5024 148.0561"></polyline>
                <polyline id="Stroke-214" stroke="#3F4242" stroke-width="0.5" points="32.5542 82.8353 32.5542 123.2253 47.9182 123.2253 47.9182 132.5493"></polyline>
                <path d="M105.6187,155.3329 L155.5,155.3329" id="Stroke-216" stroke="#3F4242" stroke-width="0.5"></path>
                <path d="M172.6705,155.3329 L217.7485,155.3329" id="Stroke-218" stroke="#3F4242" stroke-width="0.5"></path>
                <path d="M88.5064,91.6566 L88.5064,118.0546" id="Stroke-220" stroke="#3F4242" stroke-width="0.5"></path>
                <path d="M57.0562,18.6395 L75.8642,18.6395 C80.8012,23.5765 83.5692,26.3445 88.5062,31.2825 L88.5062,63.9805" id="Stroke-222" stroke="#3F4242" stroke-width="0.5"></path>
                <polyline id="Stroke-224" stroke="#3F4242" stroke-width="0.5" points="120.6929 87.8265 102.5539 87.8265 102.5539 126.0245"></polyline>
                <polyline id="Stroke-226" stroke="#3F4242" stroke-width="0.5" points="212.0943 95.9789 238.3693 95.9789 238.3693 119.7229"></polyline>
                <path d="M319.3287,93.4208 L287.3997,93.4208 C283.4557,97.3648 281.2447,99.5758 277.3017,103.5198 L277.3017,122.2238" id="Stroke-228" stroke="#3F4242" stroke-width="0.5"></path>
                <path d="M282.4283,15.7386 L264.4913,15.7386 C260.2963,19.9346 257.9443,22.2866 253.7483,26.4826 L253.7483,71.6096" id="Stroke-230" stroke="#3F4242" stroke-width="0.5"></path>
                <polyline id="Stroke-232" stroke="#3F4242" stroke-width="0.5" points="225.9791 37.4945 253.7731 37.4945 253.7731 64.9825"></polyline>
                <path d="M307.1451,150.8573 L289.7551,150.8573" id="Stroke-234" stroke="#3F4242" stroke-width="0.5"></path>
                <path d="M88.4361,31.2997 L111.8811,7.8547" id="Stroke-236" stroke="#3F4242" stroke-width="0.5"></path>
                <path d="M60.5064,254.0721 L267.1364,254.0721" id="Stroke-138" stroke="#A8A9A5" stroke-width="3" stroke-linecap="round"></path>
                <path d="M80.7007,239.3671 L246.3577,239.3671" id="Stroke-139" stroke="#A8A9A5" stroke-width="3" stroke-linecap="round"></path>
            </g>
        </g>
    </g>
</svg>