<?xml version="1.0" encoding="UTF-8"?>
<svg width="109px" height="181px" viewBox="0 0 109 181" version="1.1" xmlns="http://www.w3.org/2000/svg" xmlns:xlink="http://www.w3.org/1999/xlink">
    <title>miningImage</title>
    <g id="Page-1" stroke="none" stroke-width="1" fill="none" fill-rule="evenodd">
        <g id="miningImage" transform="translate(0.000000, 1.000000)">
            <g id="fans" transform="translate(5.000000, 76.000000)" fill="#B0B0B0" fill-rule="nonzero">
                <path d="M49.41,97.86 C22.5,97.86 0.61,75.97 0.61,49.06 C0.61,22.15 22.5,0.26 49.41,0.26 C76.32,0.26 98.21,22.15 98.21,49.06 C98.21,75.97 76.32,97.86 49.41,97.86 Z M49.41,0.77 C22.78,0.77 1.11,22.44 1.11,49.07 C1.11,75.7 22.78,97.37 49.41,97.37 C76.04,97.37 97.71,75.7 97.71,49.07 C97.71,22.44 76.04,0.77 49.41,0.77 Z" id="Shape"></path>
                <path d="M49.41,95.87 C23.6,95.87 2.6,74.87 2.6,49.06 C2.6,23.25 23.6,2.25 49.41,2.25 C75.22,2.25 96.2200036,23.25 96.2200036,49.06 C96.23,74.87 75.23,95.87 49.41,95.87 Z M49.41,2.75 C23.87,2.75 3.1,23.53 3.1,49.06 C3.1,74.6 23.88,95.37 49.41,95.37 C74.95,95.37 95.7200036,74.59 95.7200036,49.06 C95.73,23.53 74.95,2.75 49.41,2.75 Z" id="Shape"></path>
                <path d="M49.41,63.09 C41.68,63.09 35.38,56.8 35.38,49.06 C35.38,41.32 41.67,35.03 49.41,35.03 C57.15,35.03 63.44,41.32 63.44,49.06 C63.44,56.8 57.15,63.09 49.41,63.09 Z M49.41,38.04 C43.33,38.04 38.38,42.99 38.38,49.07 C38.38,55.15 43.33,60.1 49.41,60.1 C55.49,60.1 60.44,55.15 60.44,49.07 C60.44,42.98 55.49,38.04 49.41,38.04 Z" id="Shape"></path>
                <path d="M41.48,37.5 C41.63,37.4 41.78,37.31 41.93,37.21 C40.28,33.41 39.18,29.36 38.73,25.14 C37.91,17.58 39.17,9.96 42.37,3.1 C42.43,2.97 42.37,2.83 42.25,2.77 C42.13,2.71 41.98,2.77 41.92,2.89 C38.68,9.83 37.41,17.54 38.24,25.19 C38.7,29.51 39.8,33.64 41.48,37.5 Z" id="Path"></path>
                <path d="M23.19,46.79 C27.14,48.53 31.26,49.64 35.44,50.12 C35.43,49.94 35.42,49.77 35.41,49.59 C31.31,49.12 27.26,48.05 23.39,46.34 C16.43,43.27 10.46,38.37 6.13,32.17 C6.05,32.06 5.89,32.03 5.78,32.11 C5.67,32.19 5.64,32.35 5.72,32.46 C10.1,38.73 16.15,43.69 23.19,46.79 Z" id="Path"></path>
                <path d="M37.55,41.61 C37.64,41.47 37.71,41.33 37.81,41.2 C34.78,38.39 32.16,35.12 30.04,31.45 C26.24,24.86 24.31,17.38 24.48,9.82 C24.48,9.68 24.37,9.57 24.24,9.56 C24.09,9.58 23.99,9.67 23.98,9.8 C23.81,17.46 25.76,25.03 29.61,31.69 C31.77,35.44 34.45,38.75 37.55,41.61 Z" id="Path"></path>
                <path d="M23.59,43.92 C27.33,46.08 31.31,47.61 35.41,48.53 C35.42,48.37 35.42,48.2 35.43,48.04 C31.4,47.13 27.5,45.6 23.83,43.48 C17.24,39.68 11.84,34.16 8.2,27.53 C8.13,27.41 7.98,27.37 7.86,27.43 C7.74,27.5 7.69,27.65 7.76,27.77 C11.45,34.49 16.92,40.07 23.59,43.92 Z" id="Path"></path>
                <path d="M36.78,43.01 C36.86,42.85 36.93,42.68 37.01,42.53 C33.69,40.07 30.72,37.12 28.22,33.7 C23.73,27.56 21.01,20.33 20.35,12.8 C20.34,12.66 20.22,12.57 20.08,12.57 C19.94,12.58 19.84,12.7 19.85,12.84 C20.51,20.47 23.27,27.78 27.81,34 C30.37,37.48 33.39,40.51 36.78,43.01 Z" id="Path"></path>
                <path d="M55.47,36.43 C55.63,36.51 55.79,36.58 55.95,36.66 C58.41,33.35 61.36,30.38 64.77,27.88 C70.91,23.39 78.14,20.67 85.67,20.01 C85.81,20 85.91,19.88 85.9,19.74 C85.89,19.6 85.77,19.51 85.63,19.51 C78,20.17 70.69,22.93 64.47,27.47 C61,30.03 57.97,33.05 55.47,36.43 Z" id="Path"></path>
                <path d="M56.88,37.21 C57.02,37.3 57.16,37.38 57.29,37.47 C60.1,34.44 63.36,31.83 67.03,29.71 C73.62,25.91 81.1,23.98 88.66,24.15 C88.79,24.14 88.91,24.04 88.92,23.91 C88.93,23.78 88.81,23.66 88.68,23.65 C81.01,23.49 73.45,25.43 66.79,29.28 C63.04,31.43 59.73,34.11 56.88,37.21 Z" id="Path"></path>
                <path d="M37.01,55.6 C36.93,55.46 36.87,55.31 36.8,55.16 C32.86,56.38 28.72,57.01 24.49,57.01 C16.88,57.01 9.44,54.94 2.98,51.01 C2.86,50.94 2.71,50.98 2.64,51.09 C2.57,51.21 2.61,51.36 2.72,51.43 C9.27,55.4 16.8,57.5 24.49,57.5 C28.8,57.51 33,56.85 37.01,55.6 Z" id="Path"></path>
                <path d="M73.27,37.9 C68.97,38.37 64.85,39.46 60.98,41.15 C61.08,41.3 61.17,41.45 61.27,41.6 C65.07,39.95 69.11,38.86 73.33,38.4 C80.89,37.58 88.51,38.84 95.37,42.04 C95.49,42.1 95.64,42.04 95.7,41.92 C95.76,41.8 95.7,41.65 95.58,41.59 C88.63,38.34 80.92,37.07 73.27,37.9 Z" id="Path"></path>
                <path d="M42.87,36.66 C43.01,36.59 43.16,36.52 43.3,36.45 C42.08,32.51 41.45,28.37 41.45,24.14 C41.45,16.53 43.52,9.09 47.45,2.63 C47.52,2.51 47.48,2.36 47.37,2.29 C47.25,2.22 47.1,2.26 47.03,2.37 C43.06,8.92 40.96,16.45 40.96,24.14 C40.96,28.45 41.62,32.65 42.87,36.66 Z" id="Path"></path>
                <path d="M54.55,23.26 C52.39,26.99 50.87,30.97 49.95,35.07 C50.11,35.08 50.27,35.08 50.43,35.09 C51.35,31.07 52.87,27.17 54.98,23.51 C58.78,16.92 64.3,11.52 70.93,7.88 C71.05,7.81 71.1,7.66 71.03,7.54 C70.96,7.42 70.81,7.37 70.69,7.44 C63.98,11.12 58.4,16.59 54.55,23.26 Z" id="Path"></path>
                <path d="M48.88,35.06 C49.35,30.96 50.42,26.91 52.13,23.04 C55.2,16.08 60.1,10.11 66.3,5.78 C66.41,5.7 66.44,5.54 66.36,5.43 C66.28,5.32 66.12,5.29 66.01,5.37 C59.73,9.76 54.77,15.8 51.67,22.84 C49.93,26.79 48.82,30.91 48.34,35.09 C48.52,35.08 48.7,35.07 48.88,35.06 Z" id="Path"></path>
                <path d="M49.95,63.06 C49.48,67.16 48.41,71.21 46.7,75.08 C43.63,82.04 38.73,88.01 32.53,92.34 C32.42,92.42 32.39,92.58 32.47,92.69 C32.55,92.8 32.71,92.83 32.82,92.75 C39.09,88.36 44.05,82.32 47.16,75.28 C48.9,71.33 50.01,67.21 50.49,63.03 C50.31,63.05 50.13,63.05 49.95,63.06 Z" id="Path"></path>
                <path d="M61.93,55.36 C61.85,55.51 61.78,55.67 61.7,55.82 C64.99,58.27 67.92,61.21 70.41,64.61 C74.9,70.75 77.62,77.98 78.28,85.51 C78.29,85.64 78.4,85.74 78.53,85.74 C78.54,85.74 78.54,85.74 78.55,85.74 C78.69,85.73 78.79,85.61 78.78,85.47 C78.12,77.84 75.36,70.53 70.82,64.31 C68.27,60.85 65.29,57.85 61.93,55.36 Z" id="Path"></path>
                <path d="M75.03,54.38 C71.35,52.25 67.44,50.73 63.4,49.81 C63.39,49.98 63.39,50.14 63.37,50.31 C67.33,51.23 71.17,52.74 74.78,54.82 C81.37,58.62 86.77,64.14 90.41,70.77 C90.48,70.89 90.63,70.94 90.75,70.87 C90.87,70.8 90.92,70.65 90.85,70.53 C87.17,63.81 81.7,58.23 75.03,54.38 Z" id="Path"></path>
                <path d="M25.46,60.17 C29.77,59.7 33.91,58.6 37.79,56.9 C37.69,56.75 37.61,56.6 37.52,56.45 C33.71,58.11 29.65,59.21 25.41,59.67 C17.85,60.49 10.23,59.23 3.37,56.03 C3.24,55.97 3.1,56.03 3.04,56.15 C2.98,56.27 3.04,56.42 3.16,56.48 C10.09,59.72 17.81,61 25.46,60.17 Z" id="Path"></path>
                <path d="M75.64,51.31 C71.69,49.57 67.57,48.45 63.38,47.98 C63.39,48.15 63.4,48.33 63.41,48.5 C67.52,48.97 71.56,50.05 75.44,51.77 C82.4,54.84 88.37,59.74 92.7,65.94 C92.75,66.01 92.83,66.05 92.91,66.05 C92.96,66.05 93.01,66.04 93.05,66.01 C93.16,65.93 93.19,65.77 93.11,65.66 C88.72,59.38 82.68,54.42 75.64,51.31 Z" id="Path"></path>
                <path d="M61.25,56.55 C61.16,56.69 61.08,56.84 60.98,56.97 C64,59.77 66.6,63.02 68.71,66.68 C72.51,73.27 74.44,80.75 74.27,88.31 C74.27,88.45 74.38,88.56 74.51,88.57 C74.67,88.58 74.76,88.46 74.77,88.33 C74.94,80.67 72.99,73.1 69.14,66.44 C67,62.71 64.33,59.4 61.25,56.55 Z" id="Path"></path>
                <path d="M96.11,46.67 C89.56,42.7 82.03,40.6 74.33,40.6 C70.02,40.6 65.82,41.27 61.8,42.52 C61.87,42.66 61.94,42.81 62.01,42.95 C65.96,41.73 70.09,41.1 74.33,41.1 C81.94,41.1 89.38,43.17 95.85,47.1 C95.97,47.17 96.12,47.13 96.19,47.02 C96.27,46.89 96.23,46.74 96.11,46.67 Z" id="Path"></path>
                <path d="M41.85,60.86 C41.71,60.77 41.58,60.69 41.44,60.59 C38.63,63.62 35.36,66.24 31.69,68.36 C25.1,72.16 17.65,74.1 10.06,73.92 C10.06,73.92 10.06,73.92 10.06,73.92 C9.92,73.92 9.81,74.03 9.81,74.17 C9.81,74.31 9.92,74.42 10.06,74.42 C10.36,74.43 10.66,74.43 10.95,74.43 C18.3,74.43 25.54,72.49 31.95,68.79 C35.69,66.64 39,63.96 41.85,60.86 Z" id="Path"></path>
                <path d="M57.29,60.66 C57.14,60.76 56.99,60.85 56.84,60.94 C58.48,64.73 59.57,68.76 60.03,72.97 C60.85,80.53 59.59,88.15 56.39,95.01 C56.33,95.13 56.39,95.28 56.51,95.34 C56.54,95.36 56.58,95.36 56.62,95.36 C56.71,95.36 56.8,95.31 56.85,95.22 C60.09,88.28 61.37,80.57 60.53,72.92 C60.05,68.63 58.96,64.52 57.29,60.66 Z" id="Path"></path>
                <path d="M43.34,61.69 C43.18,61.61 43.02,61.54 42.86,61.46 C40.4,64.77 37.45,67.73 34.04,70.23 C27.9,74.72 20.67,77.44 13.14,78.1 C13,78.11 12.9,78.23 12.91,78.37 C12.92,78.51 13.05,78.62 13.18,78.6 C20.81,77.94 28.12,75.18 34.34,70.64 C37.82,68.08 40.84,65.07 43.34,61.69 Z" id="Path"></path>
                <path d="M55.95,61.46 C55.81,61.53 55.66,61.6 55.52,61.67 C56.74,65.61 57.37,69.75 57.37,73.98 C57.37,81.59 55.3,89.03 51.37,95.5 C51.3,95.62 51.34,95.77 51.45,95.84 C51.49,95.86 51.54,95.88 51.58,95.88 C51.66,95.88 51.75,95.84 51.79,95.76 C55.76,89.21 57.86,81.68 57.86,73.98 C57.87,69.67 57.2,65.47 55.95,61.46 Z" id="Path"></path>
                <path d="M44.27,74.86 C46.42,71.13 47.95,67.16 48.87,63.06 C48.71,63.05 48.55,63.05 48.39,63.04 C47.47,67.06 45.95,70.95 43.84,74.61 C40.04,81.2 34.52,86.6 27.89,90.24 C27.77,90.31 27.72,90.46 27.79,90.58 C27.83,90.66 27.92,90.71 28.01,90.71 C28.05,90.71 28.09,90.7 28.13,90.68 C34.84,87 40.42,81.52 44.27,74.86 Z" id="Path"></path>
            </g>
            <g id="container" transform="translate(0.690000, 71.330000)" fill="#B0B0B0" fill-rule="nonzero">
                <path d="M88.29,107.46 L19.17,107.46 C8.6,107.46 2.13162821e-14,98.86 2.13162821e-14,88.29 L2.13162821e-14,19.17 C2.13162821e-14,8.6 8.6,2.13162821e-14 19.17,2.13162821e-14 L88.29,2.13162821e-14 C98.86,2.13162821e-14 107.46,8.6 107.46,19.17 L107.46,88.29 C107.45,98.86 98.85,107.46 88.29,107.46 Z M19.16,3 C10.24,3 2.99,10.25 2.99,19.17 L2.99,88.29 C2.99,97.21 10.24,104.46 19.16,104.46 L88.28,104.46 C97.2,104.46 104.45,97.21 104.45,88.29 L104.45,19.17 C104.45,10.25 97.2,3 88.28,3 L19.16,3 Z" id="Shape"></path>
                <path d="M92.82,94.75 C91.64,94.75 90.67,93.79 90.67,92.6 C90.67,91.41 91.63,90.45 92.82,90.45 C94.01,90.45 94.97,91.41 94.97,92.6 C94.97,93.79 94,94.75 92.82,94.75 Z M92.82,90.95 C91.91,90.95 91.17,91.69 91.17,92.6 C91.17,93.51 91.91,94.25 92.82,94.25 C93.73,94.25 94.47,93.51 94.47,92.6 C94.47,91.69 93.73,90.95 92.82,90.95 Z" id="Shape"></path>
                <path d="M14.52,94.85 C13.34,94.85 12.37,93.89 12.37,92.7 C12.37,91.51 13.33,90.55 14.52,90.55 C15.71,90.55 16.67,91.51 16.67,92.7 C16.67,93.89 15.71,94.85 14.52,94.85 Z M14.52,91.05 C13.61,91.05 12.87,91.79 12.87,92.7 C12.87,93.61 13.61,94.35 14.52,94.35 C15.43,94.35 16.17,93.61 16.17,92.7 C16.17,91.79 15.43,91.05 14.52,91.05 Z" id="Shape"></path>
                <path d="M92.72,16.66 C91.54,16.66 90.57,15.7 90.57,14.51 C90.57,13.32 91.53,12.36 92.72,12.36 C93.91,12.36 94.87,13.32 94.87,14.51 C94.87,15.7 93.9,16.66 92.72,16.66 Z M92.72,12.86 C91.81,12.86 91.07,13.6 91.07,14.51 C91.07,15.42 91.81,16.16 92.72,16.16 C93.63,16.16 94.37,15.42 94.37,14.51 C94.37,13.6 93.62,12.86 92.72,12.86 Z" id="Shape"></path>
                <path d="M14.65,16.58 C13.47,16.58 12.5,15.62 12.5,14.43 C12.5,13.25 13.46,12.28 14.65,12.28 C15.84,12.28 16.8,13.24 16.8,14.43 C16.8,15.62 15.84,16.58 14.65,16.58 Z M14.65,12.78 C13.74,12.78 13,13.52 13,14.43 C13,15.34 13.74,16.08 14.65,16.08 C15.56,16.08 16.3,15.34 16.3,14.43 C16.3,13.52 15.56,12.78 14.65,12.78 Z" id="Shape"></path>
            </g>
            <g id="steam" transform="translate(36.300000, 0.930000)" stroke="#59C1A2" stroke-linecap="round" stroke-width="0.5">
                <path d="M0.63,25.19 C0.47,24.17 0.37,23.03 0.37,21.72" id="Path"></path>
                <path d="M0.37,63.53 C0.37,53.08 6.38,53.08 6.38,42.63 C6.38,35.03 3.2,32.96 1.47,28.37" id="Path"></path>
                <path d="M35.85,42.63 C35.85,32.18 29.84,32.18 29.84,21.73" id="Path"></path>
                <path d="M29.84,63.53 C29.84,55.16 33.7,53.49 35.23,47.79" id="Path"></path>
                <path d="M14.09,63.53 C14.09,52.36 22.08,52.36 22.08,41.19 C22.08,30.02 14.09,30.02 14.09,18.85 C14.09,8.98 20.32,7.83 21.78,9.9475983e-14" id="Path"></path>
            </g>
        </g>
    </g>
</svg>
