<?xml version="1.0" encoding="UTF-8"?>
<svg width="109px" height="180px" viewBox="0 0 109 180" version="1.1" xmlns="http://www.w3.org/2000/svg" xmlns:xlink="http://www.w3.org/1999/xlink">
    <title>Group 3</title>
    <g id="Page-1" stroke="none" stroke-width="1" fill="none" fill-rule="evenodd">
        <g id="Haven---Mining(Transparent)" transform="translate(-5189.000000, -647.000000)">
            <g id="Group-3" transform="translate(5189.000000, 647.000000)">
                <g id="Group-2">
                    <path d="M54.41,173.86 C27.5,173.86 5.61,151.97 5.61,125.06 C5.61,98.15 27.5,76.26 54.41,76.26 C81.32,76.26 103.21,98.15 103.21,125.06 C103.21,151.97 81.32,173.86 54.41,173.86 Z M54.41,76.77 C27.78,76.77 6.11,98.44 6.11,125.07 C6.11,151.7 27.78,173.37 54.41,173.37 C81.04,173.37 102.71,151.7 102.71,125.07 C102.71,98.44 81.04,76.77 54.41,76.77 Z" id="Shape" fill="#B0B0B0" fill-rule="nonzero"></path>
                    <path d="M54.41,171.87 C28.6,171.87 7.6,150.87 7.6,125.06 C7.6,99.25 28.6,78.25 54.41,78.25 C80.22,78.25 101.220004,99.25 101.220004,125.06 C101.23,150.87 80.23,171.87 54.41,171.87 Z M54.41,78.75 C28.87,78.75 8.1,99.53 8.1,125.06 C8.1,150.6 28.88,171.37 54.41,171.37 C79.95,171.37 100.720004,150.59 100.720004,125.06 C100.73,99.53 79.95,78.75 54.41,78.75 Z" id="Shape" fill="#B0B0B0" fill-rule="nonzero"></path>
                    <path d="M54.41,139.09 C46.68,139.09 40.38,132.8 40.38,125.06 C40.38,117.32 46.67,111.03 54.41,111.03 C62.15,111.03 68.44,117.32 68.44,125.06 C68.44,132.8 62.15,139.09 54.41,139.09 Z M54.41,114.04 C48.33,114.04 43.38,118.99 43.38,125.07 C43.38,131.15 48.33,136.1 54.41,136.1 C60.49,136.1 65.44,131.15 65.44,125.07 C65.44,118.98 60.49,114.04 54.41,114.04 Z" id="Shape" fill="#B0B0B0" fill-rule="nonzero"></path>
                    <path d="M36.93,26.12 C36.77,25.1 36.67,23.96 36.67,22.65" id="Path" stroke="#59C1A2" stroke-width="0.5" stroke-linecap="round"></path>
                    <path d="M36.67,64.46 C36.67,54.01 42.68,54.01 42.68,43.56 C42.68,35.96 39.5,33.89 37.77,29.3" id="Path" stroke="#59C1A2" stroke-width="0.5" stroke-linecap="round"></path>
                    <path d="M72.15,43.56 C72.15,33.11 66.14,33.11 66.14,22.66" id="Path" stroke="#59C1A2" stroke-width="0.5" stroke-linecap="round"></path>
                    <path d="M66.14,64.46 C66.14,56.09 70,54.42 71.53,48.72" id="Path" stroke="#59C1A2" stroke-width="0.5" stroke-linecap="round"></path>
                    <path d="M50.39,64.46 C50.39,53.29 58.38,53.29 58.38,42.12 C58.38,30.95 50.39,30.95 50.39,19.78 C50.39,9.91 56.62,8.76 58.08,0.93" id="Path" stroke="#59C1A2" stroke-width="0.5" stroke-linecap="round"></path>
                    <path d="M46.48,113.5 C46.63,113.4 46.78,113.31 46.93,113.21 C45.28,109.41 44.18,105.36 43.73,101.14 C42.91,93.58 44.17,85.96 47.37,79.1 C47.43,78.97 47.37,78.83 47.25,78.77 C47.13,78.71 46.98,78.77 46.92,78.89 C43.68,85.83 42.41,93.54 43.24,101.19 C43.7,105.51 44.8,109.64 46.48,113.5 Z" id="Path" fill="#B0B0B0" fill-rule="nonzero"></path>
                    <path d="M28.19,122.79 C32.14,124.53 36.26,125.64 40.44,126.12 C40.43,125.94 40.42,125.77 40.41,125.59 C36.31,125.12 32.26,124.05 28.39,122.34 C21.43,119.27 15.46,114.37 11.13,108.17 C11.05,108.06 10.89,108.03 10.78,108.11 C10.67,108.19 10.64,108.35 10.72,108.46 C15.1,114.73 21.15,119.69 28.19,122.79 Z" id="Path" fill="#B0B0B0" fill-rule="nonzero"></path>
                    <path d="M42.55,117.61 C42.64,117.47 42.71,117.33 42.81,117.2 C39.78,114.39 37.16,111.12 35.04,107.45 C31.24,100.86 29.31,93.38 29.48,85.82 C29.48,85.68 29.37,85.57 29.24,85.56 C29.09,85.58 28.99,85.67 28.98,85.8 C28.81,93.46 30.76,101.03 34.61,107.69 C36.77,111.44 39.45,114.75 42.55,117.61 Z" id="Path" fill="#B0B0B0" fill-rule="nonzero"></path>
                    <path d="M28.59,119.92 C32.33,122.08 36.31,123.61 40.41,124.53 C40.42,124.37 40.42,124.2 40.43,124.04 C36.4,123.13 32.5,121.6 28.83,119.48 C22.24,115.68 16.84,110.16 13.2,103.53 C13.13,103.41 12.98,103.37 12.86,103.43 C12.74,103.5 12.69,103.65 12.76,103.77 C16.45,110.49 21.92,116.07 28.59,119.92 Z" id="Path" fill="#B0B0B0" fill-rule="nonzero"></path>
                    <path d="M41.78,119.01 C41.86,118.85 41.93,118.68 42.01,118.53 C38.69,116.07 35.72,113.12 33.22,109.7 C28.73,103.56 26.01,96.33 25.35,88.8 C25.34,88.66 25.22,88.57 25.08,88.57 C24.94,88.58 24.84,88.7 24.85,88.84 C25.51,96.47 28.27,103.78 32.81,110 C35.37,113.48 38.39,116.51 41.78,119.01 Z" id="Path" fill="#B0B0B0" fill-rule="nonzero"></path>
                    <path d="M60.47,112.43 C60.63,112.51 60.79,112.58 60.95,112.66 C63.41,109.35 66.36,106.38 69.77,103.88 C75.91,99.39 83.14,96.67 90.67,96.01 C90.81,96 90.91,95.88 90.9,95.74 C90.89,95.6 90.77,95.51 90.63,95.51 C83,96.17 75.69,98.93 69.47,103.47 C66,106.03 62.97,109.05 60.47,112.43 Z" id="Path" fill="#B0B0B0" fill-rule="nonzero"></path>
                    <path d="M61.88,113.21 C62.02,113.3 62.16,113.38 62.29,113.47 C65.1,110.44 68.36,107.83 72.03,105.71 C78.62,101.91 86.1,99.98 93.66,100.15 C93.79,100.14 93.91,100.04 93.92,99.91 C93.93,99.78 93.81,99.66 93.68,99.65 C86.01,99.49 78.45,101.43 71.79,105.28 C68.04,107.43 64.73,110.11 61.88,113.21 Z" id="Path" fill="#B0B0B0" fill-rule="nonzero"></path>
                    <path d="M42.01,131.6 C41.93,131.46 41.87,131.31 41.8,131.16 C37.86,132.38 33.72,133.01 29.49,133.01 C21.88,133.01 14.44,130.94 7.98,127.01 C7.86,126.94 7.71,126.98 7.64,127.09 C7.57,127.21 7.61,127.36 7.72,127.43 C14.27,131.4 21.8,133.5 29.49,133.5 C33.8,133.51 38,132.85 42.01,131.6 Z" id="Path" fill="#B0B0B0" fill-rule="nonzero"></path>
                    <path d="M78.27,113.9 C73.97,114.37 69.85,115.46 65.98,117.15 C66.08,117.3 66.17,117.45 66.27,117.6 C70.07,115.95 74.11,114.86 78.33,114.4 C85.89,113.58 93.51,114.84 100.37,118.04 C100.49,118.1 100.64,118.04 100.7,117.92 C100.76,117.8 100.7,117.65 100.58,117.59 C93.63,114.34 85.92,113.07 78.27,113.9 Z" id="Path" fill="#B0B0B0" fill-rule="nonzero"></path>
                    <path d="M47.87,112.66 C48.01,112.59 48.16,112.52 48.3,112.45 C47.08,108.51 46.45,104.37 46.45,100.14 C46.45,92.53 48.52,85.09 52.45,78.63 C52.52,78.51 52.48,78.36 52.37,78.29 C52.25,78.22 52.1,78.26 52.03,78.37 C48.06,84.92 45.96,92.45 45.96,100.14 C45.96,104.45 46.62,108.65 47.87,112.66 Z" id="Path" fill="#B0B0B0" fill-rule="nonzero"></path>
                    <path d="M59.55,99.26 C57.39,102.99 55.87,106.97 54.95,111.07 C55.11,111.08 55.27,111.08 55.43,111.09 C56.35,107.07 57.87,103.17 59.98,99.51 C63.78,92.92 69.3,87.52 75.93,83.88 C76.05,83.81 76.1,83.66 76.03,83.54 C75.96,83.42 75.81,83.37 75.69,83.44 C68.98,87.12 63.4,92.59 59.55,99.26 Z" id="Path" fill="#B0B0B0" fill-rule="nonzero"></path>
                    <path d="M53.88,111.06 C54.35,106.96 55.42,102.91 57.13,99.04 C60.2,92.08 65.1,86.11 71.3,81.78 C71.41,81.7 71.44,81.54 71.36,81.43 C71.28,81.32 71.12,81.29 71.01,81.37 C64.73,85.76 59.77,91.8 56.67,98.84 C54.93,102.79 53.82,106.91 53.34,111.09 C53.52,111.08 53.7,111.07 53.88,111.06 Z" id="Path" fill="#B0B0B0" fill-rule="nonzero"></path>
                    <path d="M54.95,139.06 C54.48,143.16 53.41,147.21 51.7,151.08 C48.63,158.04 43.73,164.01 37.53,168.34 C37.42,168.42 37.39,168.58 37.47,168.69 C37.55,168.8 37.71,168.83 37.82,168.75 C44.09,164.36 49.05,158.32 52.16,151.28 C53.9,147.33 55.01,143.21 55.49,139.03 C55.31,139.05 55.13,139.05 54.95,139.06 Z" id="Path" fill="#B0B0B0" fill-rule="nonzero"></path>
                    <path d="M66.93,131.36 C66.85,131.51 66.78,131.67 66.7,131.82 C69.99,134.27 72.92,137.21 75.41,140.61 C79.9,146.75 82.62,153.98 83.28,161.51 C83.29,161.64 83.4,161.74 83.53,161.74 C83.54,161.74 83.54,161.74 83.55,161.74 C83.69,161.73 83.79,161.61 83.78,161.47 C83.12,153.84 80.36,146.53 75.82,140.31 C73.27,136.85 70.29,133.85 66.93,131.36 Z" id="Path" fill="#B0B0B0" fill-rule="nonzero"></path>
                    <path d="M80.03,130.38 C76.35,128.25 72.44,126.73 68.4,125.81 C68.39,125.98 68.39,126.14 68.37,126.31 C72.33,127.23 76.17,128.74 79.78,130.82 C86.37,134.62 91.77,140.14 95.41,146.77 C95.48,146.89 95.63,146.94 95.75,146.87 C95.87,146.8 95.92,146.65 95.85,146.53 C92.17,139.81 86.7,134.23 80.03,130.38 Z" id="Path" fill="#B0B0B0" fill-rule="nonzero"></path>
                    <path d="M30.46,136.17 C34.77,135.7 38.91,134.6 42.79,132.9 C42.69,132.75 42.61,132.6 42.52,132.45 C38.71,134.11 34.65,135.21 30.41,135.67 C22.85,136.49 15.23,135.23 8.37,132.03 C8.24,131.97 8.1,132.03 8.04,132.15 C7.98,132.27 8.04,132.42 8.16,132.48 C15.09,135.72 22.81,137 30.46,136.17 Z" id="Path" fill="#B0B0B0" fill-rule="nonzero"></path>
                    <path d="M80.64,127.31 C76.69,125.57 72.57,124.45 68.38,123.98 C68.39,124.15 68.4,124.33 68.41,124.5 C72.52,124.97 76.56,126.05 80.44,127.77 C87.4,130.84 93.37,135.74 97.7,141.94 C97.75,142.01 97.83,142.05 97.91,142.05 C97.96,142.05 98.01,142.04 98.05,142.01 C98.16,141.93 98.19,141.77 98.11,141.66 C93.72,135.38 87.68,130.42 80.64,127.31 Z" id="Path" fill="#B0B0B0" fill-rule="nonzero"></path>
                    <path d="M66.25,132.55 C66.16,132.69 66.08,132.84 65.98,132.97 C69,135.77 71.6,139.02 73.71,142.68 C77.51,149.27 79.44,156.75 79.27,164.31 C79.27,164.45 79.38,164.56 79.51,164.57 C79.67,164.58 79.76,164.46 79.77,164.33 C79.94,156.67 77.99,149.1 74.14,142.44 C72,138.71 69.33,135.4 66.25,132.55 Z" id="Path" fill="#B0B0B0" fill-rule="nonzero"></path>
                    <path d="M101.11,122.67 C94.56,118.7 87.03,116.6 79.33,116.6 C75.02,116.6 70.82,117.27 66.8,118.52 C66.87,118.66 66.94,118.81 67.01,118.95 C70.96,117.73 75.09,117.1 79.33,117.1 C86.94,117.1 94.38,119.17 100.85,123.1 C100.97,123.17 101.12,123.13 101.19,123.02 C101.27,122.89 101.23,122.74 101.11,122.67 Z" id="Path" fill="#B0B0B0" fill-rule="nonzero"></path>
                    <path d="M46.85,136.86 C46.71,136.77 46.58,136.69 46.44,136.59 C43.63,139.62 40.36,142.24 36.69,144.36 C30.1,148.16 22.65,150.1 15.06,149.92 C15.06,149.92 15.06,149.92 15.06,149.92 C14.92,149.92 14.81,150.03 14.81,150.17 C14.81,150.31 14.92,150.42 15.06,150.42 C15.36,150.43 15.66,150.43 15.95,150.43 C23.3,150.43 30.54,148.49 36.95,144.79 C40.69,142.64 44,139.96 46.85,136.86 Z" id="Path" fill="#B0B0B0" fill-rule="nonzero"></path>
                    <path d="M62.29,136.66 C62.14,136.76 61.99,136.85 61.84,136.94 C63.48,140.73 64.57,144.76 65.03,148.97 C65.85,156.53 64.59,164.15 61.39,171.01 C61.33,171.13 61.39,171.28 61.51,171.34 C61.54,171.36 61.58,171.36 61.62,171.36 C61.71,171.36 61.8,171.31 61.85,171.22 C65.09,164.28 66.37,156.57 65.53,148.92 C65.05,144.63 63.96,140.52 62.29,136.66 Z" id="Path" fill="#B0B0B0" fill-rule="nonzero"></path>
                    <path d="M48.34,137.69 C48.18,137.61 48.02,137.54 47.86,137.46 C45.4,140.77 42.45,143.73 39.04,146.23 C32.9,150.72 25.67,153.44 18.14,154.1 C18,154.11 17.9,154.23 17.91,154.37 C17.92,154.51 18.05,154.62 18.18,154.6 C25.81,153.94 33.12,151.18 39.34,146.64 C42.82,144.08 45.84,141.07 48.34,137.69 Z" id="Path" fill="#B0B0B0" fill-rule="nonzero"></path>
                    <path d="M60.95,137.46 C60.81,137.53 60.66,137.6 60.52,137.67 C61.74,141.61 62.37,145.75 62.37,149.98 C62.37,157.59 60.3,165.03 56.37,171.5 C56.3,171.62 56.34,171.77 56.45,171.84 C56.49,171.86 56.54,171.88 56.58,171.88 C56.66,171.88 56.75,171.84 56.79,171.76 C60.76,165.21 62.86,157.68 62.86,149.98 C62.87,145.67 62.2,141.47 60.95,137.46 Z" id="Path" fill="#B0B0B0" fill-rule="nonzero"></path>
                    <path d="M49.27,150.86 C51.42,147.13 52.95,143.16 53.87,139.06 C53.71,139.05 53.55,139.05 53.39,139.04 C52.47,143.06 50.95,146.95 48.84,150.61 C45.04,157.2 39.52,162.6 32.89,166.24 C32.77,166.31 32.72,166.46 32.79,166.58 C32.83,166.66 32.92,166.71 33.01,166.71 C33.05,166.71 33.09,166.7 33.13,166.68 C39.84,163 45.42,157.52 49.27,150.86 Z" id="Path" fill="#B0B0B0" fill-rule="nonzero"></path>
                    <path d="M88.98,178.79 L19.86,178.79 C9.29,178.79 0.69,170.19 0.69,159.62 L0.69,90.5 C0.69,79.93 9.29,71.33 19.86,71.33 L88.98,71.33 C99.55,71.33 108.15,79.93 108.15,90.5 L108.15,159.62 C108.14,170.19 99.54,178.79 88.98,178.79 Z M19.85,74.33 C10.93,74.33 3.68,81.58 3.68,90.5 L3.68,159.62 C3.68,168.54 10.93,175.79 19.85,175.79 L88.97,175.79 C97.89,175.79 105.14,168.54 105.14,159.62 L105.14,90.5 C105.14,81.58 97.89,74.33 88.97,74.33 L19.85,74.33 Z" id="Shape" fill="#B0B0B0" fill-rule="nonzero"></path>
                    <path d="M93.51,166.08 C92.33,166.08 91.36,165.12 91.36,163.93 C91.36,162.74 92.32,161.78 93.51,161.78 C94.7,161.78 95.66,162.74 95.66,163.93 C95.66,165.12 94.69,166.08 93.51,166.08 Z M93.51,162.28 C92.6,162.28 91.86,163.02 91.86,163.93 C91.86,164.84 92.6,165.58 93.51,165.58 C94.42,165.58 95.16,164.84 95.16,163.93 C95.16,163.02 94.42,162.28 93.51,162.28 Z" id="Shape" fill="#B0B0B0" fill-rule="nonzero"></path>
                    <path d="M15.21,166.18 C14.03,166.18 13.06,165.22 13.06,164.03 C13.06,162.84 14.02,161.88 15.21,161.88 C16.4,161.88 17.36,162.84 17.36,164.03 C17.36,165.22 16.4,166.18 15.21,166.18 Z M15.21,162.38 C14.3,162.38 13.56,163.12 13.56,164.03 C13.56,164.94 14.3,165.68 15.21,165.68 C16.12,165.68 16.86,164.94 16.86,164.03 C16.86,163.12 16.12,162.38 15.21,162.38 Z" id="Shape" fill="#B0B0B0" fill-rule="nonzero"></path>
                    <path d="M93.41,87.99 C92.23,87.99 91.26,87.03 91.26,85.84 C91.26,84.65 92.22,83.69 93.41,83.69 C94.6,83.69 95.56,84.65 95.56,85.84 C95.56,87.03 94.59,87.99 93.41,87.99 Z M93.41,84.19 C92.5,84.19 91.76,84.93 91.76,85.84 C91.76,86.75 92.5,87.49 93.41,87.49 C94.32,87.49 95.06,86.75 95.06,85.84 C95.06,84.93 94.31,84.19 93.41,84.19 Z" id="Shape" fill="#B0B0B0" fill-rule="nonzero"></path>
                    <path d="M15.34,87.91 C14.16,87.91 13.19,86.95 13.19,85.76 C13.19,84.58 14.15,83.61 15.34,83.61 C16.53,83.61 17.49,84.57 17.49,85.76 C17.49,86.95 16.53,87.91 15.34,87.91 Z M15.34,84.11 C14.43,84.11 13.69,84.85 13.69,85.76 C13.69,86.67 14.43,87.41 15.34,87.41 C16.25,87.41 16.99,86.67 16.99,85.76 C16.99,84.85 16.25,84.11 15.34,84.11 Z" id="Shape" fill="#B0B0B0" fill-rule="nonzero"></path>
                </g>
                <g id="ring" transform="translate(0.690000, 71.330000)"></g>
                <g id="outet" transform="translate(13.060000, 83.610000)"></g>
            </g>
        </g>
    </g>
</svg>