<?xml version="1.0" encoding="UTF-8"?>
<svg width="337px" height="297px" viewBox="0 0 337 297" version="1.1" xmlns="http://www.w3.org/2000/svg" xmlns:xlink="http://www.w3.org/1999/xlink">
    <!-- Generator: Sketch 55.1 (78136) - https://sketchapp.com -->
    <title>what</title>
    <desc>Created with Sketch.</desc>
    <defs>
        <polygon id="path-1" points="-1.02318154e-12 841.89 595.276 841.89 595.276 6.25277607e-13 -1.02318154e-12 6.25277607e-13"></polygon>
    </defs>
    <g id="Icon" stroke="none" stroke-width="1" fill="none" fill-rule="evenodd">
        <g id="what" transform="translate(-144.000000, -275.000000)">
            <g transform="translate(0.000000, -0.110000)">
                <g id="Group-135">
                    <path d="M356.3797,323.9515 C341.1577,310.5515 321.2107,302.3975 299.3857,302.3975 C251.7567,302.3975 213.0087,341.1465 213.0087,388.7755 L213.0087,414.2275 L213.6667,414.2275 L213.6667,388.7755 C213.6667,341.5095 252.1197,303.0555 299.3857,303.0555 C321.1397,303.0555 341.0147,311.2165 356.1457,324.6185 L356.3797,323.9515 Z" id="Fill-3" fill="#A8A9A5"></path>
                    <g id="Group-3" transform="translate(0.000000, 0.110000)">
                        <mask id="mask-2" fill="white">
                            <use xlink:href="#path-1"></use>
                        </mask>
                        <g id="Clip-6"></g>
                    </g>
                    <g id="Group-3" transform="translate(421.000000, 441.110000) scale(-1, 1) translate(-421.000000, -441.110000) translate(400.000000, 411.110000)" stroke="#3F4242" stroke-width="0.5">
                        <path d="M25.9749,34.0881 C25.1669,33.2811 25.1669,31.9721 25.9749,31.1641 C26.7829,30.3571 28.0909,30.3571 28.8989,31.1641 C29.7059,31.9721 29.7059,33.2811 28.8989,34.0881 C28.0909,34.8961 26.7829,34.8961 25.9749,34.0881 Z" id="Stroke-284"></path>
                        <path d="M4.4671,30.7698 C5.2741,31.5778 5.2741,32.8858 4.4671,33.6938 C3.6591,34.5008 2.3501,34.5008 1.5421,33.6938 C0.7351,32.8858 0.7351,31.5778 1.5421,30.7698 C2.3501,29.9618 3.6591,29.9618 4.4671,30.7698 Z" id="Stroke-301"></path>
                        <path d="M39.6888,1.0207 L1.4918,1.0207" id="Stroke-302"></path>
                        <polyline id="Stroke-303" points="41.641 15.6838 19.287 15.6838 4.437 30.5338"></polyline>
                        <path d="M26.2474,34.3616 L0.8444,59.7646" id="Stroke-308"></path>
                    </g>
                    <g id="Group-3" transform="translate(154.000000, 410.110000)" stroke="#3F4242" stroke-width="0.5">
                        <path d="M25.9749,34.0881 C25.1669,33.2811 25.1669,31.9721 25.9749,31.1641 C26.7829,30.3571 28.0909,30.3571 28.8989,31.1641 C29.7059,31.9721 29.7059,33.2811 28.8989,34.0881 C28.0909,34.8961 26.7829,34.8961 25.9749,34.0881 Z" id="Stroke-284"></path>
                        <path d="M4.4671,30.7698 C5.2741,31.5778 5.2741,32.8858 4.4671,33.6938 C3.6591,34.5008 2.3501,34.5008 1.5421,33.6938 C0.7351,32.8858 0.7351,31.5778 1.5421,30.7698 C2.3501,29.9618 3.6591,29.9618 4.4671,30.7698 Z" id="Stroke-301"></path>
                        <path d="M39.6888,1.0207 L1.4918,1.0207" id="Stroke-302"></path>
                        <polyline id="Stroke-303" points="41.641 15.6838 19.287 15.6838 4.437 30.5338"></polyline>
                        <path d="M26.2474,34.3616 L0.8444,59.7646" id="Stroke-308"></path>
                    </g>
                    <polygon id="Fill-5" fill="#A8A9A5" points="204.007 416.81 241.328 416.81 241.328 413.474 204.007 413.474"></polygon>
                    <polygon id="Fill-7" fill="#A8A9A5" points="357.442 416.81 394.763 416.81 394.763 413.474 357.442 413.474"></polygon>
                    <polygon id="Fill-8" fill="#A8A9A5" points="357.442 440.388 394.763 440.388 394.763 437.181 357.442 437.181"></polygon>
                    <polygon id="Fill-9" fill="#A8A9A5" points="204.007 440.388 241.328 440.388 241.328 437.181 204.007 437.181"></polygon>
                    <path d="M344.4881,569.4716 L340.5381,569.4716 L340.5381,387.2926 C340.5381,364.6006 322.0771,346.1386 299.3851,346.1386 C276.6931,346.1386 258.2311,364.6006 258.2311,387.2926 L258.2311,569.4716 L254.2811,569.4716 L254.2811,387.2926 C254.2811,362.4226 274.5141,342.1896 299.3851,342.1896 C324.2551,342.1896 344.4881,362.4226 344.4881,387.2926 L344.4881,569.4716 Z" id="Fill-10" fill="#A8A9A5"></path>
                    <polygon id="Fill-11" fill="#A8A9A5" points="240.999 569.472 241.657 569.472 241.657 414.228 240.999 414.228"></polygon>
                    <polygon id="Fill-12" fill="#A8A9A5" points="357.113 569.472 357.771 569.472 357.771 414.228 357.113 414.228"></polygon>
                    <path d="M257.244,438.624 L341.526,438.624 L341.526,415.215 L257.244,415.215 L257.244,438.624 Z M255.27,440.599 L343.501,440.599 L343.501,413.24 L255.27,413.24 L255.27,440.599 Z" id="Fill-13" fill="#A8A9A5"></path>
                    <path d="M257.573,568.155 L341.196,568.155 L341.196,440.928 L257.573,440.928 L257.573,568.155 Z M254.94,570.789 L343.83,570.789 L343.83,438.295 L254.94,438.295 L254.94,570.789 Z" id="Fill-14" fill="#A8A9A5"></path>
                    <path d="M264.05,561.679 L334.721,561.679 L334.721,447.406 L264.05,447.406 L264.05,561.679 Z M263.392,562.337 L335.379,562.337 L335.379,446.747 L263.392,446.747 L263.392,562.337 Z" id="Fill-15" fill="#A8A9A5"></path>
                    <polygon id="Fill-16" fill="#A8A9A5" points="204.007 569.802 241.328 569.802 241.328 569.143 204.007 569.143"></polygon>
                    <polygon id="Fill-17" fill="#A8A9A5" points="204.007 439.318 241.328 439.318 241.328 438.249 204.007 438.249"></polygon>
                    <polygon id="Fill-18" fill="#A8A9A5" points="357.442 569.802 394.763 569.802 394.763 569.143 357.442 569.143"></polygon>
                    <polygon id="Fill-19" fill="#A8A9A5" points="204.007 553.299 241.328 553.299 241.328 552.641 204.007 552.641"></polygon>
                    <polygon id="Stroke-20" stroke="#A8A9A5" stroke-width="0.5" points="204.007 553.299 241.328 553.299 241.328 552.641 204.007 552.641"></polygon>
                    <polygon id="Fill-21" fill="#A8A9A5" points="204.007 534.406 241.328 534.406 241.328 533.748 204.007 533.748"></polygon>
                    <polygon id="Stroke-22" stroke="#A8A9A5" stroke-width="0.5" points="204.007 534.406 241.328 534.406 241.328 533.748 204.007 533.748"></polygon>
                    <polygon id="Fill-23" fill="#A8A9A5" points="204.007 515.513 241.328 515.513 241.328 514.855 204.007 514.855"></polygon>
                    <polygon id="Stroke-24" stroke="#A8A9A5" stroke-width="0.5" points="204.007 515.513 241.328 515.513 241.328 514.855 204.007 514.855"></polygon>
                    <polygon id="Fill-25" fill="#A8A9A5" points="204.007 496.62 241.328 496.62 241.328 495.962 204.007 495.962"></polygon>
                    <polygon id="Stroke-26" stroke="#A8A9A5" stroke-width="0.5" points="204.007 496.62 241.328 496.62 241.328 495.962 204.007 495.962"></polygon>
                    <polygon id="Fill-27" fill="#A8A9A5" points="204.007 477.727 241.328 477.727 241.328 477.069 204.007 477.069"></polygon>
                    <polygon id="Stroke-28" stroke="#A8A9A5" stroke-width="0.5" points="204.007 477.727 241.328 477.727 241.328 477.069 204.007 477.069"></polygon>
                    <polygon id="Fill-29" fill="#A8A9A5" points="204.007 458.834 241.328 458.834 241.328 458.176 204.007 458.176"></polygon>
                    <polygon id="Stroke-30" stroke="#A8A9A5" stroke-width="0.5" points="204.007 458.834 241.328 458.834 241.328 458.176 204.007 458.176"></polygon>
                    <polygon id="Fill-31" fill="#A8A9A5" points="211.249 569.472 211.908 569.472 211.908 552.97 211.249 552.97"></polygon>
                    <polygon id="Stroke-32" stroke="#A8A9A5" stroke-width="0.5" points="211.249 569.472 211.908 569.472 211.908 552.97 211.249 552.97"></polygon>
                    <polygon id="Fill-33" fill="#A8A9A5" points="222.339 534.077 222.997 534.077 222.997 515.183 222.339 515.183"></polygon>
                    <polygon id="Stroke-34" stroke="#A8A9A5" stroke-width="0.5" points="222.339 534.077 222.997 534.077 222.997 515.183 222.339 515.183"></polygon>
                    <polygon id="Fill-35" fill="#A8A9A5" points="233.535 515.183 234.193 515.183 234.193 496.29 233.535 496.29"></polygon>
                    <polygon id="Stroke-36" stroke="#A8A9A5" stroke-width="0.5" points="233.535 515.183 234.193 515.183 234.193 496.29 233.535 496.29"></polygon>
                    <polygon id="Fill-37" fill="#A8A9A5" points="211.249 496.291 211.908 496.291 211.908 477.398 211.249 477.398"></polygon>
                    <polygon id="Stroke-38" stroke="#A8A9A5" stroke-width="0.5" points="211.249 496.291 211.908 496.291 211.908 477.398 211.249 477.398"></polygon>
                    <polygon id="Fill-39" fill="#A8A9A5" points="222.339 458.505 222.997 458.505 222.997 439.612 222.339 439.612"></polygon>
                    <polygon id="Stroke-40" stroke="#A8A9A5" stroke-width="0.5" points="222.339 458.505 222.997 458.505 222.997 439.612 222.339 439.612"></polygon>
                    <polygon id="Fill-41" fill="#A8A9A5" points="357.442 553.299 394.763 553.299 394.763 552.641 357.442 552.641"></polygon>
                    <polygon id="Stroke-42" stroke="#A8A9A5" stroke-width="0.5" points="357.442 553.299 394.763 553.299 394.763 552.641 357.442 552.641"></polygon>
                    <polygon id="Fill-43" fill="#A8A9A5" points="357.442 534.406 394.763 534.406 394.763 533.748 357.442 533.748"></polygon>
                    <polygon id="Stroke-44" stroke="#A8A9A5" stroke-width="0.5" points="357.442 534.406 394.763 534.406 394.763 533.748 357.442 533.748"></polygon>
                    <polygon id="Fill-45" fill="#A8A9A5" points="357.442 515.513 394.763 515.513 394.763 514.855 357.442 514.855"></polygon>
                    <polygon id="Stroke-46" stroke="#A8A9A5" stroke-width="0.5" points="357.442 515.513 394.763 515.513 394.763 514.855 357.442 514.855"></polygon>
                    <polygon id="Fill-47" fill="#A8A9A5" points="357.442 496.62 394.763 496.62 394.763 495.962 357.442 495.962"></polygon>
                    <polygon id="Stroke-48" stroke="#A8A9A5" stroke-width="0.5" points="357.442 496.62 394.763 496.62 394.763 495.962 357.442 495.962"></polygon>
                    <polygon id="Fill-49" fill="#A8A9A5" points="357.442 477.727 394.763 477.727 394.763 477.069 357.442 477.069"></polygon>
                    <polygon id="Stroke-50" stroke="#A8A9A5" stroke-width="0.5" points="357.442 477.727 394.763 477.727 394.763 477.069 357.442 477.069"></polygon>
                    <polygon id="Fill-51" fill="#A8A9A5" points="357.442 458.834 394.763 458.834 394.763 458.176 357.442 458.176"></polygon>
                    <polygon id="Stroke-52" stroke="#A8A9A5" stroke-width="0.5" points="357.442 458.834 394.763 458.834 394.763 458.176 357.442 458.176"></polygon>
                    <polygon id="Fill-53" fill="#A8A9A5" points="386.862 569.472 387.52 569.472 387.52 552.97 386.862 552.97"></polygon>
                    <polygon id="Stroke-54" stroke="#A8A9A5" stroke-width="0.5" points="386.862 569.472 387.52 569.472 387.52 552.97 386.862 552.97"></polygon>
                    <polygon id="Fill-55" fill="#A8A9A5" points="375.773 534.077 376.431 534.077 376.431 515.183 375.773 515.183"></polygon>
                    <polygon id="Stroke-56" stroke="#A8A9A5" stroke-width="0.5" points="375.773 534.077 376.431 534.077 376.431 515.183 375.773 515.183"></polygon>
                    <polygon id="Fill-57" fill="#A8A9A5" points="375.773 458.505 376.431 458.505 376.431 439.612 375.773 439.612"></polygon>
                    <polygon id="Stroke-58" stroke="#A8A9A5" stroke-width="0.5" points="375.773 458.505 376.431 458.505 376.431 439.612 375.773 439.612"></polygon>
                    <polygon id="Fill-59" fill="#A8A9A5" points="297.41 569.472 301.36 569.472 301.36 439.613 297.41 439.613"></polygon>
                    <path d="M291.198,517.9921 C287.157,515.2611 284.744,510.7221 284.744,505.8521 C284.744,500.9811 287.157,496.4431 291.199,493.7131 L292.673,495.8951 C289.357,498.1361 287.378,501.8571 287.378,505.8521 C287.378,509.8471 289.357,513.5691 292.673,515.8091 L291.198,517.9921 Z" id="Fill-60" fill="#A8A9A5"></path>
                    <path d="M307.5721,517.9921 L306.0971,515.8091 C309.4131,513.5691 311.3921,509.8471 311.3921,505.8521 C311.3921,501.8571 309.4131,498.1351 306.0981,495.8951 L307.5711,493.7131 C311.6131,496.4431 314.0251,500.9811 314.0251,505.8521 C314.0251,510.7231 311.6131,515.2621 307.5721,517.9921" id="Fill-61" fill="#A8A9A5"></path>
                    <path d="M359.2205,312.4481 C342.7245,299.4881 321.9415,291.7511 299.3855,291.7511 C245.8855,291.7511 202.3615,335.2751 202.3615,388.7751 L202.3615,569.4711 L205.6525,569.4711 L205.6525,388.7751 C205.6525,337.0911 247.7005,295.0421 299.3855,295.0421 C321.8595,295.0421 342.5075,302.9951 358.6725,316.2311 C358.8825,314.9901 359.0745,313.6021 359.2205,312.4481" id="Fill-62" fill="#A8A9A5"></path>
                    <polygon id="Fill-63" fill="#A8A9A5" points="393.118 400.0219 393.118 569.4719 396.409 569.4719 396.409 400.9509"></polygon>
                    <path d="M345.1873,352.6302 C334.4853,339.0972 317.9383,330.3882 299.3853,330.3882 C267.1913,330.3882 240.9993,356.5812 240.9993,388.7752 L240.9993,414.2282 L241.6573,414.2282 L241.6573,388.7752 C241.6573,356.9432 267.5533,331.0472 299.3853,331.0472 C317.8443,331.0472 334.2943,339.7662 344.8703,353.2912 C344.9723,353.0762 345.0773,352.8592 345.1873,352.6302" id="Fill-64" fill="#A8A9A5"></path>
                    <path d="M357.1033,388.4008 C357.1043,388.5258 357.1133,388.6498 357.1133,388.7758 L357.1133,414.2278 L357.7713,414.2278 L357.7713,388.8188 C357.5383,388.6798 357.3163,388.5398 357.1033,388.4008" id="Fill-65" fill="#A8A9A5"></path>
                    <path d="M351.9109,287.9974 C353.5979,289.6784 356.3179,292.8234 358.4319,297.3404 C361.4119,303.7084 363.6949,314.1144 357.6489,327.5184 C346.7219,351.7504 340.5359,367.2814 350.6419,380.6394 C357.7309,390.0104 372.7289,393.1844 385.9619,395.9844 C396.9669,398.3134 407.4159,400.5244 412.6459,406.0414 C417.8759,400.5244 428.3259,398.3134 439.3309,395.9844 C452.5629,393.1844 467.5599,390.0104 474.6499,380.6394 C484.7559,367.2814 478.5709,351.7504 467.6419,327.5184 C461.5979,314.1144 463.8809,303.7084 466.8599,297.3404 C468.9739,292.8234 471.6939,289.6784 473.3819,287.9974 L459.1369,277.3134 C449.0029,281.0364 440.6939,282.3484 434.0159,282.3484 C421.9619,282.3504 415.2249,278.0724 412.6459,275.9744 C408.6369,279.2344 394.5899,287.7584 366.1549,277.3134 L351.9109,287.9974 Z" id="Stroke-66" stroke="#57B897"></path>
                    <path d="M365.8465,318.7386 L459.4465,318.7386 C457.4585,308.4026 459.8305,300.2336 462.2025,295.1616 C463.2385,292.9506 464.4925,290.8256 465.9335,288.8376 L458.2515,283.0766 C449.6295,285.9866 441.5045,287.4626 434.0985,287.4626 L434.0985,286.9116 L434.0985,287.4626 L434.0955,287.4626 C423.7765,287.4626 416.7735,284.6376 412.6455,282.1926 C408.5165,284.6376 401.5115,287.4626 391.1945,287.4626 C383.7885,287.4626 375.6635,285.9866 367.0405,283.0766 L359.3585,288.8386 C360.7985,290.8236 362.0525,292.9476 363.0875,295.1616 C365.4615,300.2336 367.8325,308.4016 365.8465,318.7386 L365.8465,318.7386 Z M460.7955,319.8396 L364.4965,319.8396 L364.6355,319.1766 C366.7945,308.8226 364.4435,300.6556 362.0905,295.6286 C361.0095,293.3176 359.6835,291.1056 358.1505,289.0546 L357.8215,288.6146 L366.8445,281.8466 L367.1195,281.9406 C375.7315,284.8746 383.8305,286.3616 391.1945,286.3616 C401.4985,286.3616 408.3915,283.4896 412.3605,281.0796 L412.6455,280.9066 L412.9315,281.0806 C416.8985,283.4896 423.7905,286.3616 434.0955,286.3616 L434.0985,286.3616 C441.4625,286.3616 449.5625,284.8736 458.1725,281.9406 L458.4485,281.8466 L467.4705,288.6136 L467.1415,289.0546 C465.6075,291.1086 464.2815,293.3206 463.2005,295.6286 C460.8485,300.6566 458.4975,308.8236 460.6575,319.1766 L460.7955,319.8396 Z" id="Fill-67" fill="#57B897"></path>
                    <path d="M386.4217,390.827 L438.8697,390.827 C450.3587,388.395 464.6317,385.362 470.5497,377.538 C478.4977,367.032 474.3397,354.872 462.9557,329.632 C462.4467,328.503 461.9717,327.341 461.5397,326.172 L363.7527,326.172 C363.3177,327.346 362.8427,328.508 362.3357,329.632 C350.9527,354.872 346.7937,367.032 354.7427,377.538 C360.6607,385.362 374.9347,388.395 386.4217,390.827 L386.4217,390.827 Z M438.9847,391.928 L386.2507,391.916 C374.5727,389.444 360.0407,386.367 353.8637,378.202 C345.5597,367.224 349.7627,354.834 361.3327,329.179 C361.8797,327.965 362.3907,326.705 362.8497,325.434 L362.9817,325.071 L462.3117,325.071 L462.4427,325.434 C462.8997,326.699 463.4097,327.959 463.9597,329.179 C475.5287,354.834 479.7327,367.224 471.4287,378.202 C465.2507,386.367 450.7187,389.444 439.0407,391.916 L438.9847,391.928 Z" id="Fill-68" fill="#57B897"></path>
                    <path d="M380.1805,306.6439 L386.6485,310.0439 L385.4125,302.8429 L390.6455,297.7419 L383.4135,296.6909 L380.1805,290.1389 L376.9475,296.6909 L369.7155,297.7419 L374.9485,302.8429 L373.7125,310.0439 L380.1805,306.6439 Z M388.1115,312.0569 L380.1805,307.8879 L372.2495,312.0569 L373.7655,303.2269 L367.3485,296.9729 L376.2155,295.6849 L380.1805,287.6509 L384.1455,295.6849 L393.0125,296.9729 L386.5955,303.2269 L388.1115,312.0569 Z" id="Fill-86" fill="#57B897"></path>
                    <path d="M412.6463,306.6439 L419.1143,310.0439 L417.8783,302.8429 L423.1113,297.7419 L415.8793,296.6909 L412.6463,290.1389 L409.4123,296.6909 L402.1803,297.7419 L407.4133,302.8429 L406.1783,310.0439 L412.6463,306.6439 Z M404.7163,312.0569 L406.2303,303.2269 L399.8153,296.9729 L408.6813,295.6849 L412.6463,287.6509 L416.6113,295.6849 L425.4773,296.9729 L419.0613,303.2269 L420.5763,312.0569 L412.6463,307.8879 L404.7163,312.0569 Z" id="Fill-87" fill="#57B897"></path>
                    <path d="M434.6463,297.7421 L439.8783,302.8431 L438.6443,310.0441 L445.1123,306.6441 L451.5793,310.0441 L450.3443,302.8431 L455.5773,297.7421 L448.3453,296.6911 L445.1123,290.1381 L441.8773,296.6911 L434.6463,297.7421 Z M453.0423,312.0571 L445.1123,307.8881 L437.1813,312.0571 L438.6963,303.2271 L432.2813,296.9731 L441.1463,295.6851 L445.1123,287.6511 L449.0773,295.6851 L457.9423,296.9731 L451.5273,303.2271 L453.0423,312.0571 Z" id="Fill-88" fill="#57B897"></path>
                    <path d="M370.3142,380.2357 C371.4352,380.1217 372.1542,379.8677 372.4722,379.4757 C372.7902,379.0827 372.9482,378.1727 372.9482,376.7437 L372.9482,365.7417 C372.9482,364.7627 372.7932,364.1257 372.4852,363.8297 C372.1762,363.5347 371.4742,363.3607 370.3802,363.3077 L370.3802,362.8047 L375.7252,362.8047 L381.9502,376.3067 L388.0222,362.8047 L393.4102,362.8047 L393.4102,363.3077 C392.4042,363.3787 391.7552,363.5617 391.4642,363.8567 C391.1732,364.1517 391.0282,364.7807 391.0282,365.7417 L391.0282,377.7887 C391.0282,378.7767 391.1732,379.4097 391.4642,379.6867 C391.7552,379.9647 392.4042,380.1477 393.4102,380.2357 L393.4102,380.7387 L385.8272,380.7387 L385.8272,380.2357 C386.9192,380.1477 387.6012,379.9517 387.8712,379.6467 C388.1402,379.3427 388.2752,378.6177 388.2752,377.4717 L388.2752,365.3047 L381.3332,380.7387 L380.9622,380.7387 L374.1392,365.9397 L374.1392,376.7437 C374.1392,378.2257 374.3552,379.1907 374.7882,379.6407 C375.0702,379.9317 375.7012,380.1307 376.6802,380.2357 L376.6802,380.7387 L370.3142,380.7387 L370.3142,380.2357 Z" id="Fill-97" fill="#57B897"></path>
                    <path d="M399.9695,380.2357 C401.0725,380.1567 401.7865,379.9917 402.1145,379.7417 C402.4405,379.4917 402.6035,378.8447 402.6035,377.7997 L402.6035,365.7427 C402.6035,364.7467 402.4405,364.1047 402.1145,363.8177 C401.7865,363.5307 401.0725,363.3607 399.9695,363.3077 L399.9695,362.8047 L407.9905,362.8047 L407.9905,363.3077 C406.8875,363.3607 406.1725,363.5307 405.8455,363.8177 C405.5195,364.1047 405.3565,364.7467 405.3565,365.7427 L405.3565,377.7997 C405.3565,378.8447 405.5195,379.4917 405.8455,379.7417 C406.1725,379.9917 406.8875,380.1567 407.9905,380.2357 L407.9905,380.7387 L399.9695,380.7387 L399.9695,380.2357 Z" id="Fill-98" fill="#57B897"></path>
                    <path d="M414.2849,380.2357 C415.4049,380.1217 416.1249,379.8677 416.4419,379.4757 C416.7599,379.0827 416.9189,378.1727 416.9189,376.7437 L416.9189,364.8017 L416.5479,364.3657 C416.1509,363.8987 415.8129,363.6107 415.5359,363.4997 C415.2579,363.3897 414.8409,363.3257 414.2849,363.3077 L414.2849,362.8047 L418.9099,362.8047 L429.3729,375.7737 L429.3729,366.7667 C429.3729,365.2847 429.1519,364.3207 428.7119,363.8737 C428.4199,363.5847 427.7759,363.3957 426.7789,363.3077 L426.7789,362.8047 L433.1449,362.8047 L433.1449,363.3077 C432.1129,363.4137 431.4249,363.6647 431.0809,364.0627 C430.7359,364.4597 430.5639,365.3677 430.5639,366.7887 L430.5639,381.0567 L430.1009,381.0567 L418.1099,366.1937 L418.1099,376.7447 C418.1099,378.2257 418.3259,379.1917 418.7589,379.6407 C419.0409,379.9317 419.6719,380.1307 420.6509,380.2357 L420.6509,380.7387 L414.2849,380.7387 L414.2849,380.2357 Z" id="Fill-99" fill="#57B897"></path>
                    <path d="M439.5056,362.8051 L454.8316,362.8051 L454.9776,367.4111 L454.3286,367.4111 C454.0116,365.9641 453.6086,365.0221 453.1176,364.5851 C452.6286,364.1481 451.5986,363.9301 450.0276,363.9301 L448.5196,363.9301 L448.5196,377.8001 C448.5196,378.8451 448.6826,379.4921 449.0086,379.7421 C449.3346,379.9921 450.0496,380.1571 451.1516,380.2361 L451.1516,380.7391 L443.2516,380.7391 L443.2516,380.2361 C444.3986,380.1481 445.1126,379.9591 445.3956,379.6691 C445.6776,379.3801 445.8186,378.6511 445.8186,377.4831 L445.8186,363.9301 L444.2966,363.9301 C442.7966,363.9301 441.7756,364.1461 441.2336,364.5781 C440.6906,365.0111 440.2816,365.9551 440.0086,367.4111 L439.3466,367.4111 L439.5056,362.8051 Z" id="Fill-100" fill="#57B897"></path>
                    <path d="M187.0066,548.2733 L154.2696,548.2733" id="Stroke-101" stroke="#A8A9A5" stroke-width="0.5" stroke-linecap="round"></path>
                    <path d="M202.3611,548.2733 L192.3151,548.2733" id="Stroke-102" stroke="#A8A9A5" stroke-width="0.5" stroke-linecap="round"></path>
                    <path d="M151.3934,528.7177 L144.9794,528.7177" id="Stroke-103" stroke="#A8A9A5" stroke-width="0.5" stroke-linecap="round"></path>
                    <path d="M182.5828,528.7177 L155.8168,528.7177" id="Stroke-104" stroke="#A8A9A5" stroke-width="0.5" stroke-linecap="round"></path>
                    <path d="M202.3611,528.7177 L187.0071,528.7177" id="Stroke-105" stroke="#A8A9A5" stroke-width="0.5" stroke-linecap="round"></path>
                    <path d="M180.1492,509.162 L161.9002,509.162" id="Stroke-106" stroke="#A8A9A5" stroke-width="0.5" stroke-linecap="round"></path>
                    <polyline id="Stroke-107" stroke="#A8A9A5" stroke-width="0.5" stroke-linecap="round" points="202.3611 509.162 180.1491 509.162 180.1491 489.607"></polyline>
                    <path d="M202.3611,489.6073 L146.5461,489.6073" id="Stroke-108" stroke="#A8A9A5" stroke-width="2"></path>
                    <path d="M166.5457,528.7177 L166.5457,548.2737" id="Stroke-109" stroke="#A8A9A5" stroke-width="0.5" stroke-linecap="round"></path>
                    <path d="M192.3152,528.7177 L192.3152,509.1617" id="Stroke-110" stroke="#A8A9A5" stroke-width="0.5" stroke-linecap="round"></path>
                    <path d="M411.8484,548.2733 L444.5854,548.2733" id="Stroke-111" stroke="#A8A9A5" stroke-width="0.5" stroke-linecap="round"></path>
                    <path d="M396.4939,548.2733 L406.5389,548.2733" id="Stroke-112" stroke="#A8A9A5" stroke-width="0.5" stroke-linecap="round"></path>
                    <path d="M447.4607,528.7177 L453.8757,528.7177" id="Stroke-113" stroke="#A8A9A5" stroke-width="0.5" stroke-linecap="round"></path>
                    <path d="M416.2722,528.7177 L443.0372,528.7177" id="Stroke-114" stroke="#A8A9A5" stroke-width="0.5" stroke-linecap="round"></path>
                    <path d="M396.4939,528.7177 L411.8479,528.7177" id="Stroke-115" stroke="#A8A9A5" stroke-width="0.5" stroke-linecap="round"></path>
                    <path d="M418.7049,509.162 L436.9539,509.162" id="Stroke-116" stroke="#A8A9A5" stroke-width="0.5" stroke-linecap="round"></path>
                    <polyline id="Stroke-117" stroke="#A8A9A5" stroke-width="0.5" stroke-linecap="round" points="396.4939 509.162 418.7049 509.162 418.7049 489.607"></polyline>
                    <path d="M396.4939,489.6073 L448.7289,489.6073" id="Stroke-118" stroke="#A8A9A5" stroke-width="2"></path>
                    <path d="M202.3611,477.7274 L146.5461,477.7274" id="Stroke-119" stroke="#A8A9A5" stroke-width="2"></path>
                    <path d="M396.4939,477.7274 L448.7289,477.7274" id="Stroke-120" stroke="#A8A9A5" stroke-width="2"></path>
                    <path d="M432.3084,528.7177 L432.3084,548.2737" id="Stroke-121" stroke="#A8A9A5" stroke-width="0.5" stroke-linecap="round"></path>
                    <path d="M406.5388,528.7177 L406.5388,509.1617" id="Stroke-122" stroke="#A8A9A5" stroke-width="0.5" stroke-linecap="round"></path>
                    <path d="M146.5457,569.8016 L448.7297,569.8016" id="Stroke-123" stroke="#A8A9A5" stroke-width="4"></path>
                    <path d="M304.5252,384.8085 C303.7342,384.0465 302.7842,383.4715 301.6712,383.0805 L301.6712,393.4455 C303.0002,393.0565 304.0042,392.3745 304.6872,391.3995 C305.3692,390.4255 305.7112,389.2995 305.7112,388.0245 C305.7112,386.6415 305.3152,385.5705 304.5252,384.8085 L304.5252,384.8085 Z M300.7672,382.8155 C300.3152,382.6385 299.8822,382.4955 299.4652,382.3905 C299.0482,382.2835 298.6142,382.1775 298.1622,382.0705 L298.1622,393.7115 C298.3362,393.7475 298.5092,393.7645 298.6832,393.7645 L299.2562,393.7645 C299.5342,393.7645 299.8022,393.7565 300.0642,393.7385 C300.3242,393.7205 300.5582,393.6945 300.7672,393.6585 L300.7672,382.8155 Z M300.7672,366.7095 C300.5922,366.6745 300.3832,366.6475 300.1412,366.6295 C299.8982,366.6125 299.6552,366.6025 299.4122,366.6025 C299.2042,366.6025 298.9882,366.6125 298.7612,366.6295 C298.5362,366.6475 298.3362,366.6745 298.1622,366.7095 L298.1622,377.3935 C299.0312,377.6775 299.8982,377.9435 300.7672,378.1905 L300.7672,366.7095 Z M297.2582,366.8695 C296.0532,367.2235 295.1062,367.8345 294.4162,368.7025 C293.7242,369.5715 293.3792,370.6785 293.3792,372.0245 C293.3792,373.3715 293.7412,374.4435 294.4682,375.2405 C295.1942,376.0375 296.1252,376.6675 297.2582,377.1275 L297.2582,366.8695 Z M307.6352,391.6645 C306.1192,393.1005 304.1302,393.9765 301.6712,394.2965 L301.7242,401.8975 L300.7142,401.8975 L300.7672,394.4025 C300.5242,394.4375 300.2802,394.4555 300.0382,394.4555 L299.3092,394.4555 L298.1622,394.4555 L298.2152,401.8975 L297.2062,401.8975 L297.2582,394.3495 C294.7082,394.1725 292.6702,393.5345 291.1462,392.4355 C289.6232,391.3375 288.8602,389.8845 288.8602,388.0775 C288.8602,387.3325 289.1272,386.6865 289.6582,386.1375 C290.1892,385.5885 290.8092,385.3135 291.5182,385.3135 C292.1202,385.3135 292.6422,385.4915 293.0872,385.8445 C293.5292,386.1995 293.8222,386.6415 293.9632,387.1735 C293.8572,387.4575 293.7782,387.7315 293.7242,387.9975 C293.6712,388.2635 293.6442,388.5915 293.6442,388.9805 C293.6442,390.0435 293.8922,391.0095 294.3882,391.8775 C294.8842,392.7465 295.8412,393.3225 297.2582,393.6045 L297.2582,381.8055 C296.8692,381.6985 296.4702,381.5655 296.0632,381.4065 C295.6552,381.2465 295.3272,381.1325 295.0802,381.0605 C293.4852,380.4585 292.1472,379.5645 291.0662,378.3765 C289.9852,377.1895 289.4452,375.7275 289.4452,373.9915 C289.4452,372.8575 289.6492,371.8385 290.0562,370.9345 C290.4632,370.0315 291.0132,369.2435 291.7052,368.5695 C292.3952,367.8975 293.2192,367.3475 294.1752,366.9225 C295.1322,366.4965 296.1602,366.1955 297.2582,366.0185 L297.2062,359.7465 L298.2152,359.7465 L298.1622,365.9125 C298.3702,365.8775 298.5782,365.8585 298.7872,365.8585 L299.4642,365.8585 L300.0892,365.8585 C300.3322,365.8585 300.5572,365.8775 300.7672,365.9125 L300.7142,359.7465 L301.7242,359.7465 L301.6712,366.0185 C303.7962,366.3025 305.5772,366.9755 307.0122,368.0375 C308.4482,369.1015 309.1662,370.5015 309.1662,372.2375 C309.1662,372.9815 308.9182,373.6285 308.4212,374.1775 C307.9242,374.7275 307.3052,375.0015 306.5612,375.0015 C305.9582,375.0015 305.4532,374.8245 305.0462,374.4705 C304.6382,374.1165 304.3632,373.6725 304.2222,373.1415 C304.3292,372.8575 304.4092,372.5825 304.4622,372.3175 C304.5152,372.0515 304.5412,371.7245 304.5412,371.3335 C304.5412,370.3065 304.3192,369.3855 303.8772,368.5695 C303.4332,367.7545 302.6982,367.1875 301.6712,366.8695 L301.6712,378.4035 C302.0632,378.5455 302.4112,378.6685 302.7132,378.7755 C303.0172,378.8815 303.3652,378.9875 303.7562,379.0945 C305.6822,379.6975 307.1902,380.6275 308.2772,381.8845 C309.3662,383.1425 309.9102,384.6755 309.9102,386.4825 C309.9102,388.5025 309.1512,390.2295 307.6352,391.6645 L307.6352,391.6645 Z" id="Fill-124" fill="#A8A9A5"></path>
                    <path d="M365.2195,350.9105 C366.2145,350.8035 366.8365,350.6205 367.0855,350.3605 C367.3335,350.1005 367.4565,349.4225 367.4565,348.3255 L367.4565,337.3005 C367.4565,336.3895 367.3195,335.7965 367.0415,335.5235 C366.7635,335.2495 366.1565,335.0805 365.2195,335.0135 L365.2195,334.5415 L372.2805,334.5415 L372.2805,335.0135 C371.3495,335.0805 370.7435,335.2495 370.4625,335.5235 C370.1825,335.7965 370.0425,336.3895 370.0425,337.3005 L370.0425,342.2605 L377.7745,342.2605 L377.7745,337.3005 C377.7745,336.3895 377.6375,335.7965 377.3645,335.5235 C377.0905,335.2495 376.4825,335.0805 375.5365,335.0135 L375.5365,334.5415 L382.5975,334.5415 L382.5975,335.0135 C381.6595,335.0805 381.0525,335.2495 380.7755,335.5235 C380.4975,335.7965 380.3605,336.3895 380.3605,337.3005 L380.3605,348.6235 C380.3605,349.5475 380.4975,350.1385 380.7755,350.3975 C381.0525,350.6575 381.6595,350.8275 382.5975,350.9105 L382.5975,351.3835 L375.5365,351.3835 L375.5365,350.9105 C376.5395,350.8115 377.1625,350.6305 377.4075,350.3665 C377.6515,350.1025 377.7745,349.4225 377.7745,348.3255 L377.7745,343.3785 L370.0425,343.3785 L370.0425,348.6235 C370.0425,349.5475 370.1825,350.1395 370.4625,350.4035 C370.7435,350.6675 371.3495,350.8365 372.2805,350.9105 L372.2805,351.3835 L365.2195,351.3835 L365.2195,350.9105 Z" id="Fill-130" fill="#57B897"></path>
                    <path d="M397.0779,344.8451 L394.1599,337.8351 L391.2289,344.8451 L397.0779,344.8451 Z M386.1139,351.3831 L386.1139,350.9101 C386.7689,350.8371 387.2599,350.5911 387.5879,350.1721 C387.9149,349.7531 388.4749,348.6081 389.2699,346.7351 L394.5729,334.2431 L395.0799,334.2431 L401.4219,348.6741 C401.8449,349.6301 402.1819,350.2201 402.4349,350.4481 C402.6879,350.6741 403.1119,350.8281 403.7089,350.9101 L403.7089,351.3831 L397.2359,351.3831 L397.2359,350.9101 C397.9799,350.8451 398.4599,350.7641 398.6749,350.6701 C398.8899,350.5741 398.9979,350.3421 398.9979,349.9701 C398.9979,349.8471 398.9559,349.6291 398.8739,349.3151 C398.7909,349.0021 398.6749,348.6721 398.5249,348.3251 L397.5069,345.8771 L390.7989,345.8771 C390.1379,347.5421 389.7429,348.5581 389.6139,348.9261 C389.4849,349.2921 389.4219,349.5831 389.4219,349.7981 C389.4219,350.2261 389.5959,350.5231 389.9429,350.6881 C390.1579,350.7871 390.5629,350.8621 391.1579,350.9101 L391.1579,351.3831 L386.1139,351.3831 Z" id="Fill-131" fill="#57B897"></path>
                    <path d="M410.5701,334.5414 L410.5701,334.9764 C409.9331,334.9844 409.4991,335.0274 409.2671,335.1024 C408.8621,335.2374 408.6591,335.5104 408.6591,335.9234 C408.6591,336.1334 408.7311,336.4284 408.8771,336.8074 C409.0221,337.1864 409.2921,337.8144 409.6871,338.6934 L413.6721,347.5554 L417.2881,337.9614 C417.4481,337.5384 417.5691,337.1784 417.6521,336.8834 C417.7341,336.5884 417.7761,336.3494 417.7761,336.1634 C417.7761,335.6664 417.5651,335.3304 417.1421,335.1524 C416.8951,335.0524 416.4851,334.9934 415.9151,334.9764 L415.9151,334.5414 L421.1221,334.5414 L421.1221,334.9764 C420.5831,335.0514 420.1851,335.1964 419.9281,335.4114 C419.5391,335.7344 419.1531,336.3854 418.7721,337.3634 L413.1351,351.6814 L412.7531,351.6814 L406.4621,337.6894 C405.9301,336.5034 405.5061,335.7654 405.1871,335.4744 C404.8691,335.1834 404.4021,335.0184 403.7891,334.9764 L403.7891,334.5414 L410.5701,334.5414 Z" id="Fill-132" fill="#57B897"></path>
                    <path d="M424.6004,350.9105 C425.5364,350.8115 426.1424,350.6455 426.4204,350.4105 C426.6984,350.1755 426.8374,349.5795 426.8374,348.6235 L426.8374,337.3005 C426.8374,336.3975 426.7004,335.8065 426.4264,335.5295 C426.1534,335.2515 425.5444,335.0805 424.6004,335.0135 L424.6004,334.5415 L438.1234,334.5415 L438.2094,338.1825 L437.5634,338.1825 C437.3474,337.0615 437.0244,336.3355 436.5944,336.0055 C436.1634,335.6755 435.2024,335.5105 433.7104,335.5105 L430.2454,335.5105 C429.8714,335.5105 429.6404,335.5715 429.5534,335.6915 C429.4654,335.8105 429.4224,336.0375 429.4224,336.3685 L429.4224,342.0485 L433.3504,342.0485 C434.4354,342.0485 435.1274,341.8885 435.4254,341.5665 C435.7244,341.2445 435.9644,340.5935 436.1464,339.6125 L436.7434,339.6125 L436.7434,345.4915 L436.1464,345.4915 C435.9554,344.5055 435.7104,343.8525 435.4134,343.5335 C435.1154,343.2155 434.4274,343.0555 433.3504,343.0555 L429.4224,343.0555 L429.4224,349.3575 C429.4224,349.8625 429.5814,350.1605 429.9014,350.2515 C430.2214,350.3435 431.1774,350.3885 432.7714,350.3885 C434.4964,350.3885 435.7714,350.2005 436.5924,349.8235 C437.4134,349.4465 438.1524,348.5325 438.8064,347.0825 L439.5154,347.0825 L438.3594,351.3835 L424.6004,351.3835 L424.6004,350.9105 Z" id="Fill-133" fill="#57B897"></path>
                    <path d="M442.6951,350.9105 C443.7481,350.8035 444.4231,350.5655 444.7201,350.1965 C445.0191,349.8285 445.1691,348.9735 445.1691,347.6315 L445.1691,336.4175 L444.8201,336.0075 C444.4471,335.5685 444.1311,335.2975 443.8701,335.1945 C443.6081,335.0905 443.2161,335.0305 442.6951,335.0135 L442.6951,334.5415 L447.0391,334.5415 L456.8651,346.7205 L456.8651,338.2615 C456.8651,336.8695 456.6571,335.9645 456.2421,335.5445 C455.9691,335.2735 455.3641,335.0965 454.4281,335.0135 L454.4281,334.5415 L460.4071,334.5415 L460.4071,335.0135 C459.4371,335.1135 458.7911,335.3485 458.4671,335.7225 C458.1441,336.0955 457.9821,336.9485 457.9821,338.2825 L457.9821,351.6815 L457.5481,351.6815 L446.2871,337.7225 L446.2871,347.6325 C446.2871,349.0235 446.4901,349.9305 446.8951,350.3515 C447.1611,350.6255 447.7541,350.8115 448.6741,350.9105 L448.6741,351.3835 L442.6951,351.3835 L442.6951,350.9105 Z" id="Fill-134" fill="#57B897"></path>
                    <polygon id="Fill-2" fill="#A8A9A5" points="385.1037 414.2282 385.7627 414.2282 385.7627 398.1582 385.1037 397.9932"></polygon>
                </g>
                <g id="Group" transform="translate(154.625350, 276.145100)" stroke="#3F4242" stroke-width="0.5">
                    <path d="M56.79885,47.7059 C56.79885,48.8479 55.87285,49.7729 54.73185,49.7729 C53.58885,49.7729 52.66285,48.8479 52.66285,47.7059 C52.66285,46.5639 53.58885,45.6379 54.73185,45.6379 C55.87285,45.6379 56.79885,46.5639 56.79885,47.7059 Z" id="Stroke-277"></path>
                    <g id="Group-2" transform="translate(0.000000, 58.864400)">
                        <path d="M3.52925,22.7477 C2.72125,23.5547 1.41325,23.5547 0.60525,22.7477 C-0.20175,21.9397 -0.20175,20.6307 0.60525,19.8237 C1.41325,19.0157 2.72125,19.0157 3.52925,19.8237 C4.33725,20.6307 4.33725,21.9397 3.52925,22.7477 Z" id="Stroke-278"></path>
                        <path d="M28.87885,49.5958 C28.87885,50.7378 27.95285,51.6638 26.81185,51.6638 C25.66985,51.6638 24.74385,50.7378 24.74385,49.5958 C24.74385,48.4538 25.66985,47.5288 26.81185,47.5288 C27.95285,47.5288 28.87885,48.4538 28.87885,49.5958 Z" id="Stroke-283"></path>
                        <path d="M52.86645,20.546 C51.5493526,20.743 20.5196092,20.546 20.5196092,20.546 L0.86645,0" id="Stroke-286"></path>
                        <polyline id="Stroke-297" points="47.94435 37.1745 17.56735 37.1745 3.33535 22.9425"></polyline>
                        <path d="M24.74415,49.5958 L0.86615,49.5958" id="Stroke-298"></path>
                        <path d="M39.49025,64.9645 C38.31025,64.9645 0.86625,64.4595 0.86625,64.4595" id="Stroke-299"></path>
                    </g>
                    <path d="M89.22165,19.1858 C88.41365,19.9928 87.10465,19.9928 86.29765,19.1858 C85.49065,18.3778 85.49065,17.0688 86.29765,16.2618 C87.10465,15.4538 88.41365,15.4538 89.22165,16.2618 C90.02965,17.0688 90.02965,18.3778 89.22165,19.1858 Z" id="Stroke-279"></path>
                    <path d="M142.13475,13.49415 C141.32675,14.30215 140.01775,14.30215 139.20975,13.49415 C138.40375,12.68715 138.40375,11.37715 139.20975,10.57015 C140.01775,9.76315 141.32675,9.76315 142.13475,10.57015 C142.94275,11.37715 142.94275,12.68715 142.13475,13.49415 Z" id="Stroke-280"></path>
                    <path d="M142.13475,3.5662 C141.32675,4.3742 140.01775,4.3742 139.20975,3.5662 C138.40375,2.7592 138.40375,1.4492 139.20975,0.6422 C140.01775,-0.1648 141.32675,-0.1648 142.13475,0.6422 C142.94275,1.4492 142.94275,2.7592 142.13475,3.5662 Z" id="Stroke-281"></path>
                    <path d="M39.49025,47.7059 C39.49025,48.8479 38.56425,49.7729 37.42325,49.7729 C36.28025,49.7729 35.35425,48.8479 35.35425,47.7059 C35.35425,46.5639 36.28025,45.6379 37.42325,45.6379 C38.56425,45.6379 39.49025,46.5639 39.49025,47.7059 Z" id="Stroke-282"></path>
                    <path d="M61.06765,63.0418 C60.5693962,63.2388 24.372528,63.0418 24.372528,63.0418 L7.51888383,43.0848 L2.06765,43.0848" id="Stroke-285"></path>
                    <path d="M39.49025,47.7059 L52.66325,47.7059" id="Stroke-287"></path>
                    <polyline id="Stroke-288" points="73.06725 46.6318 52.9747686 31.6318 2.06725 31.6318"></polyline>
                    <polyline id="Stroke-289" points="84.06755 36.5472 56.1475491 15.5472 2.06755 15.5472"></polyline>
                    <polyline id="Stroke-290" points="86.37595 16.1653 71.93195 1.7213 2.06695 1.7213"></polyline>
                    <path d="M108.84275,21 L108.84275,5.88266642 C106.91375,4.94406729 96.75275,0 96.75275,0" id="Stroke-304"></path>
                    <path d="M123.66505,16.4649 L123.66505,3.9801" id="Stroke-305"></path>
                    <polyline id="Stroke-306" points="158.68965 15.7232 158.68965 9.79357833 179.68965 2.7232"></polyline>
                    <path d="M140.673,10.2225 L140.67285,4.1721" id="Stroke-307"></path>
                </g>
            </g>
        </g>
    </g>
</svg>