<?xml version="1.0" encoding="UTF-8"?>
<svg width="273px" height="270px" viewBox="0 0 273 270" version="1.1" xmlns="http://www.w3.org/2000/svg" xmlns:xlink="http://www.w3.org/1999/xlink">
    <!-- Generator: Sketch 55.1 (78136) - https://sketchapp.com -->
    <title>why</title>
    <desc>Created with Sketch.</desc>
    <g id="Icon" stroke="none" stroke-width="1" fill="none" fill-rule="evenodd">
        <g id="Artboard-3" transform="translate(-166.000000, -291.000000)">
            <g id="why" transform="translate(166.000000, 291.890000)">
                <g id="Group" transform="translate(0.625350, 0.145100)" stroke="#3F4242" stroke-width="0.5">
                    <path d="M56.79885,47.7059 C56.79885,48.8479 55.87285,49.7729 54.73185,49.7729 C53.58885,49.7729 52.66285,48.8479 52.66285,47.7059 C52.66285,46.5639 53.58885,45.6379 54.73185,45.6379 C55.87285,45.6379 56.79885,46.5639 56.79885,47.7059 Z" id="Stroke-277"></path>
                    <path d="M3.52925,81.6121 C2.72125,82.4191 1.41325,82.4191 0.60525,81.6121 C-0.20175,80.8041 -0.20175,79.4951 0.60525,78.6881 C1.41325,77.8801 2.72125,77.8801 3.52925,78.6881 C4.33725,79.4951 4.33725,80.8041 3.52925,81.6121 Z" id="Stroke-278"></path>
                    <path d="M89.22165,19.1858 C88.41365,19.9928 87.10465,19.9928 86.29765,19.1858 C85.49065,18.3778 85.49065,17.0688 86.29765,16.2618 C87.10465,15.4538 88.41365,15.4538 89.22165,16.2618 C90.02965,17.0688 90.02965,18.3778 89.22165,19.1858 Z" id="Stroke-279"></path>
                    <path d="M142.13475,28.9109 C141.32675,29.7189 140.01775,29.7189 139.20975,28.9109 C138.40375,28.1039 138.40375,26.7939 139.20975,25.9869 C140.01775,25.1799 141.32675,25.1799 142.13475,25.9869 C142.94275,26.7939 142.94275,28.1039 142.13475,28.9109 Z" id="Stroke-280"></path>
                    <path d="M142.13475,3.5662 C141.32675,4.3742 140.01775,4.3742 139.20975,3.5662 C138.40375,2.7592 138.40375,1.4492 139.20975,0.6422 C140.01775,-0.1648 141.32675,-0.1648 142.13475,0.6422 C142.94275,1.4492 142.94275,2.7592 142.13475,3.5662 Z" id="Stroke-281"></path>
                    <path d="M39.49025,47.7059 C39.49025,48.8479 38.56425,49.7729 37.42325,49.7729 C36.28025,49.7729 35.35425,48.8479 35.35425,47.7059 C35.35425,46.5639 36.28025,45.6379 37.42325,45.6379 C38.56425,45.6379 39.49025,46.5639 39.49025,47.7059 Z" id="Stroke-282"></path>
                    <path d="M28.87885,108.4602 C28.87885,109.6022 27.95285,110.5282 26.81185,110.5282 C25.66985,110.5282 24.74385,109.6022 24.74385,108.4602 C24.74385,107.3182 25.66985,106.3932 26.81185,106.3932 C27.95285,106.3932 28.87885,107.3182 28.87885,108.4602 Z" id="Stroke-283"></path>
                    <path d="M25.34955,171.053 C24.54155,170.246 24.54155,168.937 25.34955,168.129 C26.15755,167.322 27.46555,167.322 28.27355,168.129 C29.08055,168.937 29.08055,170.246 28.27355,171.053 C27.46555,171.861 26.15755,171.861 25.34955,171.053 Z" id="Stroke-284"></path>
                    <path d="M71.93165,63.0418 C71.34165,63.2388 28.47965,63.0418 28.47965,63.0418 L8.52265,43.0848 L2.06765,43.0848" id="Stroke-285"></path>
                    <path d="M55.23145,79.4104 C53.85445,79.6074 21.41345,79.4104 21.41345,79.4104 L0.86645,58.8644" id="Stroke-286"></path>
                    <path d="M39.49025,47.7059 L52.66325,47.7059" id="Stroke-287"></path>
                    <polyline id="Stroke-288" points="83.53225 54.6858 60.47825 31.6318 2.06725 31.6318"></polyline>
                    <polyline id="Stroke-289" points="94.64355 47.0682 63.12255 15.5472 2.06755 15.5472"></polyline>
                    <polyline id="Stroke-290" points="86.37595 16.1653 71.93195 1.7213 2.06695 1.7213"></polyline>
                    <path d="M188.26265,21.4446 C189.07065,22.2526 190.37865,22.2526 191.18665,21.4446 C191.99365,20.6376 191.99365,19.3286 191.18665,18.5206 C190.37865,17.7136 189.07065,17.7136 188.26265,18.5206 C187.45465,19.3286 187.45465,20.6376 188.26265,21.4446 Z" id="Stroke-291"></path>
                    <path d="M256.97655,37.0882 C257.78355,37.8962 259.09255,37.8962 259.90055,37.0882 C260.70755,36.2812 260.70755,34.9712 259.90055,34.1642 C259.09255,33.3572 257.78355,33.3572 256.97655,34.1642 C256.16855,34.9712 256.16855,36.2812 256.97655,37.0882 Z" id="Stroke-292"></path>
                    <path d="M228.20895,53.2234 C229.01695,54.0314 230.32595,54.0314 231.13295,53.2234 C231.93995,52.4164 231.93995,51.1064 231.13295,50.2994 C230.32595,49.4924 229.01695,49.4924 228.20895,50.2994 C227.40095,51.1064 227.40095,52.4164 228.20895,53.2234 Z" id="Stroke-293"></path>
                    <polyline id="Stroke-294" points="201.37015 54.6261 226.193657 35.6261 256.37015 35.6261"></polyline>
                    <polyline id="Stroke-295" points="187.37005 42.9831 216.554007 19.9831 256.37005 19.9831"></polyline>
                    <polyline id="Stroke-296" points="191.10835 18.4241 205.55235 3.9801 260.50535 4.0051"></polyline>
                    <polyline id="Stroke-297" points="47.94435 96.0389 17.56735 96.0389 3.33535 81.8069"></polyline>
                    <path d="M24.74415,108.4602 L0.86615,108.4602" id="Stroke-298"></path>
                    <path d="M39.49025,123.8289 C38.31025,123.8289 0.86625,123.3239 0.86625,123.3239" id="Stroke-299"></path>
                    <path d="M260.50585,19.9827 C260.50585,21.1247 259.57985,22.0507 258.43885,22.0507 C257.29585,22.0507 256.36985,21.1247 256.36985,19.9827 C256.36985,18.8407 257.29585,17.9157 258.43885,17.9157 C259.57985,17.9157 260.50585,18.8407 260.50585,19.9827 Z" id="Stroke-300"></path>
                    <path d="M3.84175,167.7347 C4.64875,168.5427 4.64875,169.8507 3.84175,170.6587 C3.03375,171.4657 1.72475,171.4657 0.91675,170.6587 C0.10975,169.8507 0.10975,168.5427 0.91675,167.7347 C1.72475,166.9267 3.03375,166.9267 3.84175,167.7347 Z" id="Stroke-301"></path>
                    <path d="M39.06345,137.9856 L0.86645,137.9856" id="Stroke-302"></path>
                    <polyline id="Stroke-303" points="41.01565 152.6487 18.66165 152.6487 3.81165 167.4987"></polyline>
                    <path d="M108.84275,43.159 L108.84275,12.09 C106.91375,10.161 96.75275,-1.70530257e-13 96.75275,-1.70530257e-13" id="Stroke-304"></path>
                    <path d="M123.66505,39.6961 L123.66505,3.9801" id="Stroke-305"></path>
                    <polyline id="Stroke-306" points="157.67965 37.7232 157.67965 21.758834 179.68965 2.7232"></polyline>
                    <path d="M140.67285,25.3811 L140.67285,4.1721" id="Stroke-307"></path>
                    <path d="M25.62205,171.3265 L0.21905,196.7295" id="Stroke-308"></path>
                    <path d="M231.73925,51.7615 L260.50625,51.7615" id="Stroke-309"></path>
                </g>
                <path d="M236.8509,148.8602 C237.6569,143.9182 238.0759,138.8452 238.0759,133.6752 C238.0759,127.4542 237.4689,121.3752 236.3129,115.4932" id="Stroke-241" stroke="#A8A9A5" stroke-width="2"></path>
                <path d="M128.2845,225.9911 C133.5145,226.8971 138.8925,227.3691 144.3825,227.3691 C149.4485,227.3691 154.4225,226.9671 159.2705,226.1921" id="Stroke-243" stroke="#A8A9A5" stroke-width="2"></path>
                <path d="M230.807,97.4301 C216.637,63.6821 183.278,39.9821 144.382,39.9821 C92.637,39.9821 50.689,81.9301 50.689,133.6761 C50.689,147.6391 53.744,160.8901 59.222,172.7961" id="Stroke-245" stroke="#A8A9A5" stroke-width="2"></path>
                <path d="M82.6566,169.5282 C76.5096,158.9862 72.9856,146.7342 72.9856,133.6752 C72.9856,94.3072 105.0136,62.2782 144.3826,62.2782 C170.9456,62.2782 194.1686,76.8612 206.4646,98.4412" id="Stroke-247" stroke="#A8A9A5" stroke-width="0.75" stroke-linecap="round"></path>
                <path d="M208.347,165.3788 C196.649,188.8838 172.37,205.0718 144.382,205.0718 C137.862,205.0718 131.542,204.1928 125.536,202.5478" id="Stroke-249" stroke="#A8A9A5" stroke-width="0.75" stroke-linecap="round"></path>
                <path d="M213.3441,115.1576 C214.9321,121.0656 215.7791,127.2736 215.7791,133.6756 C215.7791,138.5966 215.2791,143.4036 214.3251,148.0466" id="Stroke-251" stroke="#A8A9A5" stroke-width="0.75" stroke-linecap="round"></path>
                <path d="M144.3822,178.3163 C119.7672,178.3163 99.7412,158.2903 99.7412,133.6753 C99.7412,109.0613 119.7672,89.0353 144.3822,89.0353 C168.9972,89.0353 189.0232,109.0613 189.0232,133.6753 C189.0232,158.2903 168.9972,178.3163 144.3822,178.3163 Z" id="Stroke-253" stroke="#A8A9A5" stroke-width="3"></path>
                <polygon id="Stroke-255" stroke="#A8A9A5" stroke-width="2" points="192.229 115.494 247.496 115.494 247.496 98.443 192.229 98.443"></polygon>
                <path d="M248.2708,178.0624 L248.2708,88.1044" id="Stroke-257" stroke="#A8A9A5" stroke-width="2"></path>
                <polygon id="Stroke-258" stroke="#A8A9A5" stroke-width="2" points="241.296 88.104 271.095 88.104 271.095 72.571 241.296 72.571"></polygon>
                <polygon id="Stroke-259" stroke="#A8A9A5" stroke-width="2" points="241.296 193.597 271.095 193.597 271.095 178.063 241.296 178.063"></polygon>
                <polyline id="Stroke-260" stroke="#A8A9A5" stroke-width="2" points="263.804 193.5966 263.804 204.1286 248.271 204.1286 248.271 194.4956"></polyline>
                <path d="M263.804,88.1039 L263.804,178.0619" id="Stroke-261" stroke="#A8A9A5" stroke-width="2"></path>
                <polyline id="Stroke-262" stroke="#A8A9A5" stroke-width="2" points="248.2708 72.5707 248.2708 63.8757 263.8038 63.8757 263.8038 72.5707"></polyline>
                <polygon id="Stroke-263" stroke="#A8A9A5" stroke-width="2" points="192.229 165.911 247.496 165.911 247.496 148.86 192.229 148.86"></polygon>
                <path d="M144.3822,139.1014 C141.3902,139.1014 138.9562,136.6674 138.9562,133.6754 C138.9562,130.6834 141.3902,128.2494 144.3822,128.2494 C147.3742,128.2494 149.8092,130.6834 149.8092,133.6754 C149.8092,136.6674 147.3742,139.1014 144.3822,139.1014 Z M175.6452,137.2844 L175.6452,130.2054 L156.3872,130.2054 C156.1442,129.3624 155.8192,128.5544 155.4122,127.7944 L169.0652,114.1414 L164.0592,109.1354 L150.4472,122.7474 C149.6542,122.3064 148.8082,121.9504 147.9222,121.6884 L147.9222,102.4134 L140.8432,102.4134 L140.8432,121.6884 C139.9682,121.9474 139.1322,122.2954 138.3482,122.7294 L124.7052,109.0864 L119.7002,114.0924 L133.3682,127.7614 C132.9532,128.5304 132.6242,129.3504 132.3772,130.2054 L112.9822,130.2054 L112.9822,137.2844 L132.4122,137.2844 C132.6732,138.1464 133.0242,138.9674 133.4542,139.7404 L119.7482,153.4464 L124.7542,158.4524 L138.5002,144.7054 C139.2392,145.1004 140.0252,145.4204 140.8432,145.6634 L140.8432,165.0774 L147.9222,165.0774 L147.9222,145.6634 C148.7522,145.4164 149.5482,145.0924 150.2962,144.6894 L164.0102,158.4034 L169.0152,153.3974 L155.3282,139.7094 C155.7512,138.9464 156.0952,138.1344 156.3522,137.2844 L175.6452,137.2844 Z" id="Stroke-264" stroke="#A8A9A5"></path>
                <path d="M254.891,265.4569 C222.553,258.2859 189.893,276.1809 152.968,264.3999 C153.224,252.9409 153.48,247.7859 153.736,236.3269" id="Stroke-265" stroke="#57B897" stroke-linecap="round"></path>
                <path d="M55.1361,265.4569 C38.5021,257.1189 27.0851,239.9129 27.0851,220.0399 C27.0851,191.9979 49.8181,169.2669 77.8591,169.2669 C105.9001,169.2669 128.6321,191.9979 128.6321,220.0399 C128.6321,233.2959 123.5521,245.3649 115.2321,254.4079" id="Stroke-266" stroke="#57B897"></path>
                <path d="M112.305,219.9598 C112.305,238.9838 96.882,254.4058 77.859,254.4058 C58.834,254.4058 43.412,238.9838 43.412,219.9598 C43.412,200.9358 58.834,185.5138 77.859,185.5138 C96.882,185.5138 112.305,200.9358 112.305,219.9598 Z" id="Stroke-267" stroke="#57B897" stroke-width="0.5" stroke-linecap="round"></path>
                <path d="M83.5892,224.4042 C82.7072,223.5552 81.6482,222.9132 80.4072,222.4782 L80.4072,234.0352 C81.8892,233.6002 83.0092,232.8402 83.7702,231.7532 C84.5292,230.6672 84.9102,229.4122 84.9102,227.9902 C84.9102,226.4492 84.4702,225.2552 83.5892,224.4042 L83.5892,224.4042 Z M79.4002,222.1822 C78.8962,221.9852 78.4122,221.8262 77.9472,221.7082 C77.4832,221.5902 76.9982,221.4702 76.4952,221.3522 L76.4952,234.3312 C76.6892,234.3712 76.8832,234.3902 77.0752,234.3902 L77.7152,234.3902 C78.0242,234.3902 78.3232,234.3812 78.6152,234.3602 C78.9052,234.3412 79.1672,234.3112 79.4002,234.2712 L79.4002,222.1822 Z M79.4002,204.2252 C79.2042,204.1862 78.9722,204.1572 78.7022,204.1362 C78.4312,204.1172 78.1602,204.1072 77.8892,204.1072 C77.6562,204.1072 77.4152,204.1172 77.1632,204.1362 C76.9112,204.1572 76.6892,204.1862 76.4952,204.2252 L76.4952,216.1372 C77.4632,216.4542 78.4312,216.7512 79.4002,217.0262 L79.4002,204.2252 Z M75.4882,204.4042 C74.1452,204.8002 73.0882,205.4802 72.3182,206.4482 C71.5472,207.4172 71.1622,208.6512 71.1622,210.1522 C71.1622,211.6542 71.5672,212.8482 72.3762,213.7372 C73.1862,214.6262 74.2242,215.3282 75.4882,215.8412 L75.4882,204.4042 Z M87.0572,232.0492 C85.3662,233.6492 83.1502,234.6272 80.4072,234.9822 L80.4662,243.4572 L79.3402,243.4572 L79.4002,235.1012 C79.1282,235.1392 78.8572,235.1602 78.5862,235.1602 L77.7742,235.1602 L76.4952,235.1602 L76.5552,243.4572 L75.4292,243.4572 L75.4882,235.0422 C72.6442,234.8442 70.3712,234.1332 68.6732,232.9082 C66.9742,231.6842 66.1242,230.0642 66.1242,228.0492 C66.1242,227.2192 66.4212,226.4992 67.0142,225.8862 C67.6062,225.2742 68.2972,224.9672 69.0872,224.9672 C69.7592,224.9672 70.3412,225.1662 70.8362,225.5602 C71.3302,225.9562 71.6552,226.4492 71.8142,227.0422 C71.6952,227.3582 71.6072,227.6642 71.5472,227.9602 C71.4882,228.2572 71.4582,228.6222 71.4582,229.0562 C71.4582,230.2412 71.7342,231.3182 72.2872,232.2862 C72.8402,233.2552 73.9072,233.8962 75.4882,234.2122 L75.4882,221.0562 C75.0532,220.9372 74.6092,220.7902 74.1552,220.6112 C73.6992,220.4342 73.3342,220.3062 73.0592,220.2262 C71.2802,219.5552 69.7882,218.5582 68.5842,217.2332 C67.3782,215.9112 66.7772,214.2812 66.7772,212.3442 C66.7772,211.0812 67.0042,209.9442 67.4582,208.9372 C67.9112,207.9292 68.5252,207.0502 69.2962,206.3002 C70.0662,205.5502 70.9852,204.9372 72.0502,204.4632 C73.1172,203.9892 74.2632,203.6532 75.4882,203.4562 L75.4292,196.4632 L76.5552,196.4632 L76.4952,203.3372 C76.7272,203.2982 76.9592,203.2772 77.1922,203.2772 L77.9462,203.2772 L78.6442,203.2772 C78.9142,203.2772 79.1662,203.2982 79.4002,203.3372 L79.3402,196.4632 L80.4662,196.4632 L80.4072,203.4562 C82.7772,203.7722 84.7622,204.5222 86.3622,205.7072 C87.9622,206.8922 88.7632,208.4542 88.7632,210.3892 C88.7632,211.2182 88.4862,211.9402 87.9332,212.5522 C87.3792,213.1652 86.6892,213.4702 85.8592,213.4702 C85.1872,213.4702 84.6232,213.2732 84.1702,212.8782 C83.7162,212.4842 83.4092,211.9892 83.2522,211.3962 C83.3702,211.0812 83.4592,210.7742 83.5182,210.4782 C83.5772,210.1812 83.6072,209.8172 83.6072,209.3822 C83.6072,208.2362 83.3602,207.2092 82.8652,206.3002 C82.3722,205.3912 81.5522,204.7592 80.4072,204.4042 L80.4072,217.2632 C80.8442,217.4222 81.2322,217.5592 81.5692,217.6782 C81.9082,217.7972 82.2962,217.9152 82.7332,218.0342 C84.8802,218.7062 86.5602,219.7432 87.7732,221.1452 C88.9852,222.5482 89.5932,224.2562 89.5932,226.2712 C89.5932,228.5232 88.7462,230.4492 87.0572,232.0492 L87.0572,232.0492 Z" id="Fill-268" fill="#57B897"></path>
                <path d="M23.1859,261.9803 C21.9119,261.4263 20.6269,260.8133 19.3319,260.1363" id="Stroke-269" stroke="#57B897" stroke-linecap="round"></path>
                <path d="M129.3929,258.5243 C92.6979,242.1363 64.3469,275.3103 28.5009,263.9743" id="Stroke-270" stroke="#57B897" stroke-linecap="round"></path>
                <path d="M132.7201,260.1366 C132.3411,259.9386 131.9631,259.7456 131.5861,259.5586" id="Stroke-271" stroke="#57B897" stroke-linecap="round"></path>
                <path d="M231.5179,165.5946 C223.3269,187.9486 207.0739,206.0926 185.7379,216.7346 L189.7099,216.7346 C209.9159,205.7066 225.3029,187.9126 233.2479,166.2286 L231.5179,165.5946 Z" id="Fill-272" fill="#A8A9A5"></path>
                <path d="M228.2318,237.205 C228.2318,249.034 219.8308,258.623 209.4648,258.623 C199.1008,258.623 190.6988,249.034 190.6988,237.205 C190.6988,225.376 199.1008,215.786 209.4648,215.786 C219.8308,215.786 228.2318,225.376 228.2318,237.205 Z" id="Stroke-273" stroke="#57B897" stroke-width="0.5"></path>
                <path d="M212.6214,239.6522 C212.1364,239.1842 211.5524,238.8312 210.8694,238.5912 L210.8694,244.9562 C211.6844,244.7162 212.3024,244.2982 212.7214,243.7002 C213.1404,243.1012 213.3494,242.4102 213.3494,241.6272 C213.3494,240.7782 213.1064,240.1212 212.6214,239.6522 L212.6214,239.6522 Z M210.3134,238.4282 C210.0364,238.3202 209.7704,238.2322 209.5154,238.1682 C209.2584,238.1022 208.9914,238.0372 208.7144,237.9712 L208.7144,245.1192 C208.8214,245.1412 208.9284,245.1522 209.0344,245.1522 L209.3874,245.1522 C209.5574,245.1522 209.7224,245.1472 209.8824,245.1352 C210.0424,245.1252 210.1854,245.1082 210.3134,245.0872 L210.3134,238.4282 Z M210.3134,228.5402 C210.2064,228.5182 210.0784,228.5022 209.9304,228.4912 C209.7804,228.4792 209.6314,228.4742 209.4814,228.4742 C209.3534,228.4742 209.2214,228.4792 209.0824,228.4912 C208.9434,228.5022 208.8214,228.5182 208.7144,228.5402 L208.7144,235.0992 C209.2484,235.2742 209.7804,235.4372 210.3134,235.5892 L210.3134,228.5402 Z M208.1604,228.6372 C207.4204,228.8552 206.8384,229.2302 206.4144,229.7632 C205.9894,230.2972 205.7774,230.9762 205.7774,231.8032 C205.7774,232.6312 206.0004,233.2882 206.4464,233.7782 C206.8924,234.2672 207.4634,234.6542 208.1604,234.9362 L208.1604,228.6372 Z M214.5314,243.8632 C213.6004,244.7442 212.3794,245.2822 210.8694,245.4782 L210.9014,250.1452 L210.2814,250.1452 L210.3134,245.5442 C210.1644,245.5652 210.0154,245.5762 209.8664,245.5762 L209.4194,245.5762 L208.7144,245.5762 L208.7474,250.1452 L208.1274,250.1452 L208.1604,245.5102 C206.5934,245.4022 205.3424,245.0102 204.4064,244.3362 C203.4714,243.6622 203.0034,242.7692 203.0034,241.6602 C203.0034,241.2032 203.1664,240.8062 203.4924,240.4682 C203.8184,240.1312 204.1994,239.9632 204.6354,239.9632 C205.0044,239.9632 205.3254,240.0722 205.5984,240.2892 C205.8704,240.5062 206.0494,240.7782 206.1374,241.1052 C206.0714,241.2792 206.0224,241.4472 205.9894,241.6102 C205.9574,241.7742 205.9404,241.9752 205.9404,242.2152 C205.9404,242.8672 206.0934,243.4602 206.3974,243.9932 C206.7014,244.5262 207.2894,244.8802 208.1604,245.0532 L208.1604,237.8082 C207.9204,237.7432 207.6754,237.6622 207.4264,237.5632 C207.1754,237.4652 206.9744,237.3952 206.8214,237.3512 C205.8434,236.9822 205.0204,236.4322 204.3574,235.7032 C203.6934,234.9742 203.3624,234.0772 203.3624,233.0102 C203.3624,232.3152 203.4874,231.6892 203.7374,231.1342 C203.9874,230.5792 204.3254,230.0952 204.7494,229.6812 C205.1734,229.2682 205.6804,228.9312 206.2674,228.6702 C206.8544,228.4092 207.4854,228.2242 208.1604,228.1152 L208.1274,224.2642 L208.7474,224.2642 L208.7144,228.0492 C208.8424,228.0282 208.9704,228.0172 209.0984,228.0172 L209.5144,228.0172 L209.8974,228.0172 C210.0474,228.0172 210.1854,228.0282 210.3134,228.0492 L210.2814,224.2642 L210.9014,224.2642 L210.8694,228.1152 C212.1744,228.2902 213.2674,228.7032 214.1484,229.3552 C215.0304,230.0082 215.4714,230.8682 215.4714,231.9342 C215.4714,232.3902 215.3184,232.7882 215.0144,233.1252 C214.7084,233.4632 214.3284,233.6312 213.8714,233.6312 C213.5014,233.6312 213.1904,233.5222 212.9414,233.3042 C212.6904,233.0882 212.5224,232.8152 212.4354,232.4892 C212.5014,232.3152 212.5504,232.1462 212.5824,231.9832 C212.6154,231.8192 212.6314,231.6192 212.6314,231.3792 C212.6314,230.7482 212.4954,230.1822 212.2234,229.6812 C211.9514,229.1812 211.4994,228.8332 210.8694,228.6372 L210.8694,235.7192 C211.1094,235.8062 211.3234,235.8822 211.5094,235.9482 C211.6954,236.0132 211.9094,236.0792 212.1494,236.1442 C213.3324,236.5142 214.2584,237.0852 214.9254,237.8572 C215.5944,238.6302 215.9284,239.5712 215.9284,240.6802 C215.9284,241.9212 215.4624,242.9812 214.5314,243.8632 L214.5314,243.8632 Z" id="Fill-274" fill="#57B897"></path>
                <path d="M144.3822,164.9384 C127.1452,164.9384 113.1192,150.9144 113.1192,133.6754 C113.1192,116.4374 127.1452,102.4134 144.3822,102.4134 C161.6202,102.4134 175.6452,116.4374 175.6452,133.6754 C175.6452,150.9144 161.6202,164.9384 144.3822,164.9384 Z" id="Stroke-276" stroke="#A8A9A5" stroke-width="3"></path>
                <path d="M260.4271,259.7596 C226.2391,250.9066 192.6851,268.6106 158.5041,259.7596 C158.8401,244.7066 159.1761,229.6536 159.5131,214.6006 C193.0181,223.2766 225.9061,205.9236 259.4181,214.6006 C259.7531,229.6536 260.0911,244.7066 260.4271,259.7596 Z" id="Stroke-275" stroke="#57B897"></path>
            </g>
        </g>
    </g>
</svg>